%TF.GenerationSoftware,KiCad,Pcbnew,8.0.3-8.0.3-0~ubuntu22.04.1*%
%TF.CreationDate,2024-07-03T09:26:59+02:00*%
%TF.ProjectId,FabOS_MB,4661624f-535f-44d4-922e-6b696361645f,rev?*%
%TF.SameCoordinates,Original*%
%TF.FileFunction,Copper,L4,Bot*%
%TF.FilePolarity,Positive*%
%FSLAX46Y46*%
G04 Gerber Fmt 4.6, Leading zero omitted, Abs format (unit mm)*
G04 Created by KiCad (PCBNEW 8.0.3-8.0.3-0~ubuntu22.04.1) date 2024-07-03 09:26:59*
%MOMM*%
%LPD*%
G01*
G04 APERTURE LIST*
G04 Aperture macros list*
%AMRoundRect*
0 Rectangle with rounded corners*
0 $1 Rounding radius*
0 $2 $3 $4 $5 $6 $7 $8 $9 X,Y pos of 4 corners*
0 Add a 4 corners polygon primitive as box body*
4,1,4,$2,$3,$4,$5,$6,$7,$8,$9,$2,$3,0*
0 Add four circle primitives for the rounded corners*
1,1,$1+$1,$2,$3*
1,1,$1+$1,$4,$5*
1,1,$1+$1,$6,$7*
1,1,$1+$1,$8,$9*
0 Add four rect primitives between the rounded corners*
20,1,$1+$1,$2,$3,$4,$5,0*
20,1,$1+$1,$4,$5,$6,$7,0*
20,1,$1+$1,$6,$7,$8,$9,0*
20,1,$1+$1,$8,$9,$2,$3,0*%
G04 Aperture macros list end*
%TA.AperFunction,ComponentPad*%
%ADD10RoundRect,0.250000X-0.650000X-1.550000X0.650000X-1.550000X0.650000X1.550000X-0.650000X1.550000X0*%
%TD*%
%TA.AperFunction,ComponentPad*%
%ADD11O,1.800000X3.600000*%
%TD*%
%TA.AperFunction,ComponentPad*%
%ADD12C,0.800000*%
%TD*%
%TA.AperFunction,ComponentPad*%
%ADD13C,6.400000*%
%TD*%
%TA.AperFunction,ComponentPad*%
%ADD14C,1.200000*%
%TD*%
%TA.AperFunction,ComponentPad*%
%ADD15O,1.800000X0.900000*%
%TD*%
%TA.AperFunction,ComponentPad*%
%ADD16C,1.500000*%
%TD*%
%TA.AperFunction,ComponentPad*%
%ADD17C,0.700000*%
%TD*%
%TA.AperFunction,ComponentPad*%
%ADD18O,1.000000X2.100000*%
%TD*%
%TA.AperFunction,ComponentPad*%
%ADD19O,1.000000X1.800000*%
%TD*%
%TA.AperFunction,HeatsinkPad*%
%ADD20C,0.500000*%
%TD*%
%TA.AperFunction,HeatsinkPad*%
%ADD21R,2.500000X2.500000*%
%TD*%
%TA.AperFunction,ViaPad*%
%ADD22C,0.300000*%
%TD*%
%TA.AperFunction,Conductor*%
%ADD23C,0.150000*%
%TD*%
%TA.AperFunction,Conductor*%
%ADD24C,1.000000*%
%TD*%
G04 APERTURE END LIST*
D10*
%TO.P,e501,1,Pin_1*%
%TO.N,Earth*%
X143000000Y-155800000D03*
D11*
%TO.P,e501,2,Pin_2*%
%TO.N,N*%
X148080000Y-155800000D03*
%TO.P,e501,3,Pin_3*%
%TO.N,L*%
X153160000Y-155800000D03*
%TD*%
D12*
%TO.P,H102,1,1*%
%TO.N,GND*%
X157600000Y-100000000D03*
X158302944Y-98302944D03*
X158302944Y-101697056D03*
X160000000Y-97600000D03*
D13*
X160000000Y-100000000D03*
D12*
X160000000Y-102400000D03*
X161697056Y-98302944D03*
X161697056Y-101697056D03*
X162400000Y-100000000D03*
%TD*%
D14*
%TO.P,J201,1,VBUS*%
%TO.N,/5V_Flyback*%
X154600000Y-138500000D03*
%TO.P,J201,2,D-*%
%TO.N,/ES*%
X154600000Y-141000000D03*
%TO.P,J201,3,D+*%
%TO.N,/LIN/LIN*%
X154600000Y-143000000D03*
%TO.P,J201,4,GND*%
%TO.N,GND*%
X154600000Y-145500000D03*
D15*
%TO.P,J201,GND*%
%TO.N,N/C*%
X156100000Y-148400000D03*
X162100000Y-148400000D03*
X156100000Y-135600000D03*
X162200000Y-135600000D03*
%TD*%
D12*
%TO.P,H103,1,1*%
%TO.N,GND*%
X157600000Y-160000000D03*
X158302944Y-158302944D03*
X158302944Y-161697056D03*
X160000000Y-157600000D03*
D13*
X160000000Y-160000000D03*
D12*
X160000000Y-162400000D03*
X161697056Y-158302944D03*
X161697056Y-161697056D03*
X162400000Y-160000000D03*
%TD*%
D16*
%TO.P,U501,1,N*%
%TO.N,N*%
X131850000Y-160100000D03*
%TO.P,U501,2,L*%
%TO.N,L*%
X121150000Y-160100000D03*
%TO.P,U501,4,V-*%
%TO.N,GND*%
X122500000Y-128700000D03*
%TO.P,U501,6,V+*%
%TO.N,/5V_Flyback*%
X130500000Y-128700000D03*
%TD*%
D12*
%TO.P,H104,1,1*%
%TO.N,GND*%
X97600000Y-160000000D03*
X98302944Y-158302944D03*
X98302944Y-161697056D03*
X100000000Y-157600000D03*
D13*
X100000000Y-160000000D03*
D12*
X100000000Y-162400000D03*
X101697056Y-158302944D03*
X101697056Y-161697056D03*
X102400000Y-160000000D03*
%TD*%
D17*
%TO.P,J401,A1,GND*%
%TO.N,GND*%
X105610000Y-158320000D03*
X111390000Y-158320000D03*
D18*
%TO.P,J401,S1,SHIELD*%
X104180000Y-157820000D03*
D19*
X104180000Y-162000000D03*
D18*
X112820000Y-157820000D03*
D19*
X112820000Y-162000000D03*
%TD*%
D12*
%TO.P,H101,1,1*%
%TO.N,GND*%
X97600000Y-100000000D03*
X98302944Y-98302944D03*
X98302944Y-101697056D03*
X100000000Y-97600000D03*
D13*
X100000000Y-100000000D03*
D12*
X100000000Y-102400000D03*
X101697056Y-98302944D03*
X101697056Y-101697056D03*
X102400000Y-100000000D03*
%TD*%
D20*
%TO.P,U301,25,VSS*%
%TO.N,GND*%
X134830000Y-116030000D03*
X135830000Y-116030000D03*
X136830000Y-116030000D03*
X134830000Y-115030000D03*
X135830000Y-115030000D03*
D21*
X135830000Y-115030000D03*
D20*
X136830000Y-115030000D03*
X134830000Y-114030000D03*
X135830000Y-114030000D03*
X136830000Y-114030000D03*
%TD*%
D22*
%TO.N,GND*%
X156500000Y-163500000D03*
X155500000Y-163500000D03*
X154500000Y-163500000D03*
X153500000Y-163500000D03*
X152500000Y-163500000D03*
X151500000Y-163500000D03*
X129500000Y-163500000D03*
X128500000Y-163500000D03*
X127500000Y-163500000D03*
X126500000Y-163500000D03*
X125500000Y-163500000D03*
X124500000Y-163500000D03*
X123500000Y-163500000D03*
X118500000Y-163500000D03*
X117500000Y-163500000D03*
X116500000Y-163500000D03*
X115500000Y-163500000D03*
X114500000Y-163500000D03*
X113500000Y-163500000D03*
X112500000Y-163500000D03*
X111500000Y-163500000D03*
X110500000Y-163500000D03*
X109500000Y-163500000D03*
X108500000Y-163500000D03*
X107500000Y-163500000D03*
X106500000Y-163500000D03*
X105500000Y-163500000D03*
X104500000Y-163500000D03*
X103500000Y-163500000D03*
X96500000Y-157500000D03*
X96500000Y-156500000D03*
X96500000Y-155500000D03*
X96500000Y-154500000D03*
X96500000Y-153500000D03*
X96500000Y-152500000D03*
X96500000Y-151500000D03*
X96500000Y-150500000D03*
X96500000Y-148500000D03*
X96500000Y-147500000D03*
X96500000Y-146500000D03*
X96500000Y-144500000D03*
X96500000Y-143500000D03*
X96500000Y-142500000D03*
X96500000Y-140500000D03*
X96500000Y-139500000D03*
X96500000Y-137500000D03*
X96500000Y-136500000D03*
X96500000Y-135500000D03*
X96500000Y-134500000D03*
X96500000Y-133500000D03*
X96500000Y-132500000D03*
X96500000Y-131500000D03*
X96500000Y-130500000D03*
X96500000Y-129500000D03*
X96500000Y-128500000D03*
X96500000Y-127500000D03*
X96500000Y-126500000D03*
X96500000Y-125500000D03*
X96500000Y-124500000D03*
X96500000Y-123500000D03*
X96500000Y-122500000D03*
X96500000Y-121500000D03*
X96500000Y-120500000D03*
X96500000Y-119500000D03*
X96500000Y-118500000D03*
X96500000Y-117500000D03*
X96500000Y-116500000D03*
X96500000Y-115500000D03*
X96500000Y-114500000D03*
X96500000Y-113500000D03*
X96500000Y-112500000D03*
X96500000Y-111500000D03*
X96500000Y-110500000D03*
X96500000Y-109500000D03*
X96500000Y-108500000D03*
X96500000Y-107500000D03*
X96500000Y-106500000D03*
X96500000Y-105500000D03*
X96500000Y-104500000D03*
X96500000Y-103500000D03*
X163500000Y-156500000D03*
X163500000Y-155500000D03*
X163500000Y-154500000D03*
X163500000Y-153500000D03*
X163500000Y-152500000D03*
X163500000Y-151500000D03*
X163500000Y-150500000D03*
X163500000Y-149500000D03*
X163500000Y-148500000D03*
X163500000Y-147500000D03*
X163500000Y-146500000D03*
X163500000Y-145500000D03*
X163500000Y-144500000D03*
X163500000Y-143500000D03*
X163500000Y-142500000D03*
X163500000Y-141500000D03*
X163500000Y-140500000D03*
X163500000Y-139500000D03*
X163500000Y-138500000D03*
X163500000Y-137500000D03*
X163500000Y-136500000D03*
X163500000Y-135500000D03*
X163500000Y-134500000D03*
X163500000Y-133500000D03*
X163500000Y-132500000D03*
X163500000Y-131500000D03*
X163500000Y-130500000D03*
X163500000Y-129500000D03*
X163500000Y-128500000D03*
X163500000Y-127500000D03*
X163500000Y-126500000D03*
X163500000Y-125500000D03*
X163500000Y-124500000D03*
X163500000Y-123500000D03*
X163500000Y-122500000D03*
X163500000Y-121500000D03*
X163500000Y-120500000D03*
X163500000Y-119500000D03*
X163500000Y-118500000D03*
X163500000Y-117500000D03*
X163500000Y-116500000D03*
X163500000Y-115500000D03*
X163500000Y-114500000D03*
X163500000Y-113500000D03*
X163500000Y-110500000D03*
X163500000Y-109500000D03*
X163500000Y-108500000D03*
X163500000Y-107500000D03*
X163500000Y-106500000D03*
X163500000Y-105500000D03*
X163500000Y-104500000D03*
X163500000Y-103500000D03*
X156500000Y-96500000D03*
X155500000Y-96500000D03*
X152500000Y-96500000D03*
X151500000Y-96500000D03*
X148500000Y-96500000D03*
X147500000Y-96500000D03*
X145500000Y-96500000D03*
X141500000Y-96500000D03*
X140500000Y-96500000D03*
X139500000Y-96500000D03*
X138500000Y-96500000D03*
X137500000Y-96500000D03*
X136500000Y-96500000D03*
X133500000Y-96500000D03*
X132500000Y-96500000D03*
X131500000Y-96500000D03*
X130500000Y-96500000D03*
X126500000Y-96500000D03*
X125500000Y-96500000D03*
X124500000Y-96500000D03*
X123500000Y-96500000D03*
X122500000Y-96500000D03*
X121500000Y-96500000D03*
X118500000Y-96500000D03*
X117500000Y-96500000D03*
X116500000Y-96500000D03*
X115500000Y-96500000D03*
X111500000Y-96500000D03*
X110500000Y-96500000D03*
X109500000Y-96500000D03*
X108500000Y-96500000D03*
X107500000Y-96500000D03*
X106500000Y-96500000D03*
X103500000Y-96500000D03*
X152100000Y-100900000D03*
X148900000Y-100100000D03*
X154600000Y-100600000D03*
X153700000Y-96700000D03*
X149700000Y-96700000D03*
X149800000Y-99200000D03*
X153400000Y-100000000D03*
X154100000Y-102800000D03*
X146000000Y-102800000D03*
X144800000Y-103200000D03*
X151900000Y-105600000D03*
X152000000Y-109300000D03*
X153300000Y-109300000D03*
X155700000Y-109300000D03*
X155900000Y-105900000D03*
X154700000Y-104600000D03*
X152500000Y-104500000D03*
X146200000Y-126700000D03*
X143000000Y-126600000D03*
X139200000Y-123300000D03*
X143900000Y-122400000D03*
X139300000Y-119100000D03*
X140900000Y-116900000D03*
X144100000Y-116900000D03*
X148100000Y-113800000D03*
X148200000Y-119000000D03*
X148000000Y-123900000D03*
X146700000Y-123900000D03*
X154200000Y-124600000D03*
X156600000Y-122200000D03*
X157700000Y-122700000D03*
X157400000Y-124200000D03*
X155200000Y-127300000D03*
X152300000Y-129600000D03*
X156200000Y-131300000D03*
X161100000Y-131800000D03*
X161900000Y-134300000D03*
X159800000Y-134700000D03*
X151500000Y-144700000D03*
X152200000Y-144500000D03*
X142000000Y-141300000D03*
X147700000Y-141700000D03*
X151700000Y-138700000D03*
X145900000Y-138300000D03*
X149700000Y-137400000D03*
X147200000Y-134900000D03*
X141000000Y-138500000D03*
X148100000Y-133400000D03*
X151800000Y-135300000D03*
X133700000Y-138500000D03*
X133800000Y-134900000D03*
X110700000Y-148600000D03*
X117800000Y-136000000D03*
X120700000Y-134900000D03*
X120800000Y-138300000D03*
X106800000Y-145300000D03*
X98600000Y-152100000D03*
X98600000Y-151200000D03*
X98500000Y-137100000D03*
X100400000Y-133600000D03*
X114400000Y-108300000D03*
X115200000Y-109600000D03*
X132700000Y-118460000D03*
X148400000Y-107700000D03*
X113100000Y-108200000D03*
X133800000Y-110300000D03*
X161800000Y-112820000D03*
X135120000Y-119670000D03*
X163710000Y-111860000D03*
X106550000Y-151900000D03*
X102600000Y-123700000D03*
X159110000Y-128870000D03*
X112050000Y-101750000D03*
X113000000Y-109300000D03*
X139500000Y-121900000D03*
X154200000Y-107700000D03*
X153200000Y-139890000D03*
X157750000Y-106400000D03*
X135950000Y-101750000D03*
X104100000Y-126300000D03*
X105600000Y-151900000D03*
X127040000Y-101740000D03*
X134000000Y-122900000D03*
X147400000Y-107700000D03*
X111100000Y-127400000D03*
X120950000Y-101760000D03*
X142550000Y-124450000D03*
X136900000Y-123100000D03*
X157750000Y-109150000D03*
X139500000Y-121300000D03*
X163710000Y-112780000D03*
X133700000Y-122400000D03*
X99700000Y-125400000D03*
X112200000Y-139850000D03*
X133620000Y-119530000D03*
X105200000Y-125000000D03*
X134580000Y-119530000D03*
X135740000Y-118130000D03*
X99650000Y-128750000D03*
X133620000Y-120360000D03*
X100900000Y-124100000D03*
X129500000Y-102300000D03*
X113100000Y-140250000D03*
X138820000Y-122190000D03*
X142550000Y-123500000D03*
X111700000Y-156400000D03*
X135800000Y-119400000D03*
X138600000Y-120100000D03*
X105550000Y-152900000D03*
X140320000Y-114800000D03*
X102100000Y-125300000D03*
X132900000Y-121200000D03*
X110250000Y-154500000D03*
X99650000Y-130000000D03*
X131700000Y-109100000D03*
X105300000Y-156400000D03*
X149670000Y-111600000D03*
X114380000Y-122650000D03*
X135700000Y-123100000D03*
X150350000Y-107700000D03*
X134270000Y-120430000D03*
X107200000Y-146300000D03*
X108750000Y-154400000D03*
X108425000Y-134200000D03*
X146212000Y-96670000D03*
X137500000Y-123100000D03*
X107250000Y-154550000D03*
X134000000Y-119900000D03*
X135100000Y-123100000D03*
X106550000Y-152950000D03*
X143000000Y-112700000D03*
X139200000Y-120200000D03*
X138100000Y-123100000D03*
X154670000Y-111600000D03*
X117100000Y-109300000D03*
X128750000Y-116050000D03*
X106100000Y-146000000D03*
X139500000Y-120700000D03*
X106925000Y-134200000D03*
X105950000Y-101760000D03*
X109450000Y-137100000D03*
X158660000Y-125040000D03*
X132900000Y-121800000D03*
X144470000Y-112820000D03*
X133000000Y-120600000D03*
X138400000Y-122600000D03*
X114390000Y-121441000D03*
X144500000Y-102400000D03*
X134500000Y-123100000D03*
X152190000Y-139890000D03*
X136300000Y-123100000D03*
X142550000Y-125400000D03*
X149400000Y-107700000D03*
X158160000Y-128860000D03*
X142050000Y-101750000D03*
X108700000Y-133200000D03*
X114500000Y-102310000D03*
X137515000Y-119380000D03*
X133100000Y-122300000D03*
X138200000Y-119600000D03*
%TO.N,+3.3V*%
X140320000Y-117750000D03*
X107750000Y-138300000D03*
X138360000Y-115280000D03*
X156670000Y-111600000D03*
X145450000Y-124700000D03*
X144550000Y-125300000D03*
X97500000Y-145050000D03*
X114500000Y-96670000D03*
X162320000Y-111390000D03*
X137030000Y-110540000D03*
X143900000Y-112800000D03*
X144500000Y-96750000D03*
X148670000Y-111590000D03*
X99650000Y-127450000D03*
X132700000Y-109200000D03*
X104900000Y-140000000D03*
X159570000Y-127480000D03*
X142350000Y-114400000D03*
X107750000Y-138850000D03*
X107750000Y-137824997D03*
X129500000Y-96650000D03*
X154170000Y-111600000D03*
X142220000Y-140090000D03*
X108450000Y-137000000D03*
X162320000Y-113240000D03*
X159170000Y-125050000D03*
X149170000Y-111600000D03*
X140350000Y-112800000D03*
%TO.N,/ethernet/CT*%
X125100000Y-118890000D03*
X128750000Y-114230000D03*
X132200000Y-111900000D03*
X133892500Y-113000000D03*
X134150000Y-118140000D03*
X131700000Y-117850000D03*
X131760000Y-111090000D03*
X129260000Y-113700000D03*
X125100000Y-112540000D03*
%TO.N,/power/5V_max*%
X112650000Y-133200000D03*
X109600000Y-127850000D03*
%TO.N,Net-(U502-SW)*%
X110300003Y-133950000D03*
X109825000Y-133550000D03*
X110299965Y-133544047D03*
X108075000Y-132350000D03*
X111150000Y-138300000D03*
X111150000Y-137824997D03*
X111150000Y-138775003D03*
X109825000Y-133950000D03*
%TO.N,Net-(U601-BOOT0)*%
X151700000Y-128500000D03*
X159800000Y-115300000D03*
%TO.N,/STM32/NRST*%
X103500000Y-132550000D03*
X97000000Y-136500000D03*
X99850000Y-132650000D03*
%TO.N,/5V_Flyback*%
X104900000Y-142000000D03*
X113700000Y-130300000D03*
%TO.N,/ES*%
X160475145Y-132887572D03*
%TO.N,/ethernet/LED2+*%
X135080000Y-117560000D03*
X108790000Y-121440000D03*
%TO.N,/ethernet/LED1+*%
X135580000Y-117560000D03*
X108800000Y-108750000D03*
%TO.N,/STM32/SWDIO*%
X157670000Y-125040000D03*
X154000000Y-127800000D03*
%TO.N,/STM32/VCP_TX*%
X153000000Y-127400000D03*
X159900000Y-123300000D03*
%TO.N,/STM32/SWCLK*%
X153000000Y-128200000D03*
X159900000Y-124300000D03*
%TO.N,/STM32/VCP_RX*%
X159900000Y-122800000D03*
X152400000Y-127100000D03*
%TO.N,/USART1_RX*%
X160900000Y-133100000D03*
X162500000Y-133100000D03*
%TO.N,/ETH_MDI0*%
X146940000Y-109620000D03*
X143100000Y-110830000D03*
%TO.N,/ETH_REF_CLK*%
X147670000Y-109720000D03*
X143820000Y-110270000D03*
%TO.N,/NRST_ETH*%
X145770000Y-111840000D03*
X146660000Y-112710000D03*
%TO.N,/ETH_MDC*%
X144230000Y-110680000D03*
X151670000Y-111600000D03*
%TD*%
D23*
%TO.N,/power/5V_max*%
X112650000Y-133200000D02*
X112650000Y-131700000D01*
X109600000Y-128650000D02*
X109600000Y-127850000D01*
X112650000Y-131700000D02*
X109600000Y-128650000D01*
%TO.N,Net-(U502-SW)*%
X111150000Y-138300000D02*
X111150000Y-138775003D01*
X108075000Y-132350000D02*
X108625000Y-132350000D01*
X110300003Y-133544085D02*
X110299965Y-133544047D01*
X108625000Y-132350000D02*
X109825000Y-133550000D01*
X111150000Y-138300000D02*
X111150000Y-137824997D01*
%TO.N,Net-(U601-BOOT0)*%
X152234314Y-126700000D02*
X151700000Y-127234314D01*
X151700000Y-127234314D02*
X151700000Y-128500000D01*
X159800000Y-119816524D02*
X152916524Y-126700000D01*
X159800000Y-115300000D02*
X159800000Y-119816524D01*
X152916524Y-126700000D02*
X152234314Y-126700000D01*
%TO.N,/STM32/NRST*%
X99850000Y-132650000D02*
X99950000Y-132550000D01*
X99850000Y-132650000D02*
X99850000Y-133450000D01*
X99950000Y-132550000D02*
X103500000Y-132550000D01*
X97000000Y-136300000D02*
X97000000Y-136500000D01*
X99850000Y-133450000D02*
X97000000Y-136300000D01*
%TO.N,/5V_Flyback*%
X113700000Y-137100000D02*
X113700000Y-130300000D01*
X104900000Y-142000000D02*
X108800000Y-142000000D01*
X108800000Y-142000000D02*
X113700000Y-137100000D01*
D24*
%TO.N,N*%
X131850000Y-160100000D02*
X143780000Y-160100000D01*
X143780000Y-160100000D02*
X148080000Y-155800000D01*
%TO.N,L*%
X123400000Y-162350000D02*
X146610000Y-162350000D01*
X146610000Y-162350000D02*
X153160000Y-155800000D01*
X121150000Y-160100000D02*
X123400000Y-162350000D01*
D23*
%TO.N,/ES*%
X160475145Y-132887572D02*
X160475145Y-135124855D01*
X160475145Y-135124855D02*
X154600000Y-141000000D01*
%TO.N,/ethernet/LED2+*%
X134164314Y-117560000D02*
X135080000Y-117560000D01*
X110550000Y-123200000D02*
X128524314Y-123200000D01*
X128524314Y-123200000D02*
X132864314Y-118860000D01*
X108790000Y-121440000D02*
X110550000Y-123200000D01*
X133100000Y-118624314D02*
X134164314Y-117560000D01*
X133100000Y-118625686D02*
X133100000Y-118624314D01*
X132865686Y-118860000D02*
X133100000Y-118625686D01*
X132864314Y-118860000D02*
X132865686Y-118860000D01*
%TO.N,/ethernet/LED1+*%
X135580000Y-117625686D02*
X134577660Y-118628026D01*
X108390000Y-121605686D02*
X108390000Y-109160000D01*
X110261314Y-123477000D02*
X108390000Y-121605686D01*
X108390000Y-109160000D02*
X108800000Y-108750000D01*
X128640424Y-123477000D02*
X110261314Y-123477000D01*
X134577660Y-118628026D02*
X133489398Y-118628026D01*
X135580000Y-117560000D02*
X135580000Y-117625686D01*
X133489398Y-118628026D02*
X128640424Y-123477000D01*
%TO.N,/STM32/SWDIO*%
X156760000Y-125040000D02*
X157670000Y-125040000D01*
X154000000Y-127800000D02*
X156760000Y-125040000D01*
%TO.N,/STM32/VCP_TX*%
X153000000Y-127400000D02*
X156977000Y-123423000D01*
X159777000Y-123423000D02*
X159900000Y-123300000D01*
X156977000Y-123423000D02*
X159777000Y-123423000D01*
%TO.N,/STM32/SWCLK*%
X157091738Y-123700000D02*
X159300000Y-123700000D01*
X153400000Y-127391738D02*
X157091738Y-123700000D01*
X159300000Y-123700000D02*
X159900000Y-124300000D01*
X153400000Y-127565686D02*
X153400000Y-127391738D01*
X153000000Y-128200000D02*
X153000000Y-127965686D01*
X153000000Y-127965686D02*
X153400000Y-127565686D01*
%TO.N,/STM32/VCP_RX*%
X159834314Y-122800000D02*
X159900000Y-122800000D01*
X152500000Y-127000000D02*
X153008262Y-127000000D01*
X159488314Y-123146000D02*
X159834314Y-122800000D01*
X153008262Y-127000000D02*
X156862262Y-123146000D01*
X156862262Y-123146000D02*
X159488314Y-123146000D01*
X152400000Y-127100000D02*
X152500000Y-127000000D01*
%TO.N,/USART1_RX*%
X160900000Y-133100000D02*
X162500000Y-133100000D01*
%TO.N,/ETH_MDI0*%
X143904314Y-109620000D02*
X143100000Y-110424314D01*
X146940000Y-109620000D02*
X143904314Y-109620000D01*
X143100000Y-110424314D02*
X143100000Y-110830000D01*
%TO.N,/ETH_REF_CLK*%
X147670000Y-109730000D02*
X147130000Y-110270000D01*
X147130000Y-110270000D02*
X143820000Y-110270000D01*
X147670000Y-109720000D02*
X147670000Y-109730000D01*
%TO.N,/NRST_ETH*%
X145790000Y-111840000D02*
X146660000Y-112710000D01*
X145770000Y-111840000D02*
X145790000Y-111840000D01*
%TO.N,/ETH_MDC*%
X144230000Y-110680000D02*
X150750000Y-110680000D01*
X150750000Y-110680000D02*
X151670000Y-111600000D01*
%TD*%
%TA.AperFunction,Conductor*%
%TO.N,GND*%
G36*
X159999962Y-96000008D02*
G01*
X160000062Y-96000009D01*
X160002725Y-96000034D01*
X160003064Y-96000137D01*
X160003066Y-96000038D01*
X160173596Y-96002129D01*
X160176257Y-96002191D01*
X160180495Y-96002334D01*
X160193708Y-96002780D01*
X160198968Y-96003070D01*
X160216517Y-96004418D01*
X160219057Y-96004641D01*
X160561343Y-96038353D01*
X160564330Y-96038685D01*
X160584175Y-96041133D01*
X160590195Y-96042026D01*
X160609886Y-96045443D01*
X160612863Y-96045997D01*
X160946931Y-96112447D01*
X160949824Y-96113059D01*
X160969402Y-96117455D01*
X160975284Y-96118930D01*
X160994541Y-96124259D01*
X160997452Y-96125102D01*
X161323456Y-96223995D01*
X161326286Y-96224892D01*
X161345306Y-96231175D01*
X161350993Y-96233210D01*
X161369642Y-96240404D01*
X161372444Y-96241524D01*
X161550360Y-96315219D01*
X161687164Y-96371885D01*
X161689910Y-96373062D01*
X161708249Y-96381190D01*
X161713694Y-96383766D01*
X161730130Y-96392040D01*
X161731565Y-96392762D01*
X161734261Y-96394161D01*
X162034680Y-96554738D01*
X162037252Y-96556154D01*
X162054698Y-96566036D01*
X162059897Y-96569153D01*
X162076836Y-96579880D01*
X162079293Y-96581478D01*
X162362548Y-96770743D01*
X162365050Y-96772459D01*
X162380088Y-96783050D01*
X162381393Y-96783969D01*
X162386264Y-96787581D01*
X162402045Y-96799897D01*
X162404381Y-96801767D01*
X162667698Y-97017865D01*
X162670022Y-97019821D01*
X162685159Y-97032878D01*
X162689631Y-97036931D01*
X162704160Y-97050763D01*
X162706298Y-97052850D01*
X162947149Y-97293701D01*
X162949237Y-97295840D01*
X162963066Y-97310366D01*
X162967132Y-97314852D01*
X162980176Y-97329974D01*
X162982134Y-97332301D01*
X163198232Y-97595618D01*
X163200110Y-97597964D01*
X163212413Y-97613729D01*
X163216030Y-97618606D01*
X163227536Y-97634944D01*
X163229256Y-97637451D01*
X163418507Y-97920686D01*
X163420147Y-97923206D01*
X163430846Y-97940102D01*
X163433969Y-97945313D01*
X163443830Y-97962719D01*
X163445275Y-97965346D01*
X163605838Y-98265738D01*
X163607237Y-98268434D01*
X163616222Y-98286282D01*
X163618817Y-98291768D01*
X163626918Y-98310044D01*
X163628114Y-98312835D01*
X163758466Y-98627533D01*
X163759595Y-98630357D01*
X163766784Y-98648993D01*
X163768836Y-98654727D01*
X163775092Y-98673665D01*
X163776011Y-98676565D01*
X163874893Y-99002535D01*
X163875740Y-99005458D01*
X163881069Y-99024715D01*
X163882548Y-99030616D01*
X163886925Y-99050106D01*
X163887555Y-99053086D01*
X163953999Y-99387123D01*
X163954556Y-99390113D01*
X163957973Y-99409804D01*
X163958866Y-99415824D01*
X163961314Y-99435669D01*
X163961650Y-99438696D01*
X163995353Y-99780887D01*
X163995586Y-99783542D01*
X163996927Y-99800996D01*
X163997220Y-99806314D01*
X163997808Y-99823742D01*
X163997870Y-99826402D01*
X163999962Y-99996933D01*
X163999965Y-99997276D01*
X163999987Y-99999592D01*
X163999992Y-100000392D01*
X163999999Y-100002689D01*
X164000000Y-100003067D01*
X164000000Y-159996933D01*
X163999999Y-159997311D01*
X163999992Y-159999607D01*
X163999987Y-160000406D01*
X163999965Y-160002723D01*
X163999962Y-160003067D01*
X163997870Y-160173597D01*
X163997808Y-160176257D01*
X163997220Y-160193685D01*
X163996927Y-160199003D01*
X163995586Y-160216457D01*
X163995353Y-160219112D01*
X163961650Y-160561303D01*
X163961314Y-160564330D01*
X163958866Y-160584175D01*
X163957973Y-160590195D01*
X163954556Y-160609886D01*
X163953999Y-160612876D01*
X163887555Y-160946913D01*
X163886925Y-160949893D01*
X163882548Y-160969383D01*
X163881069Y-160975284D01*
X163875740Y-160994541D01*
X163874893Y-160997464D01*
X163776011Y-161323434D01*
X163775092Y-161326334D01*
X163768836Y-161345272D01*
X163766784Y-161351006D01*
X163759595Y-161369642D01*
X163758466Y-161372466D01*
X163628114Y-161687164D01*
X163626918Y-161689955D01*
X163618830Y-161708204D01*
X163616222Y-161713717D01*
X163607237Y-161731565D01*
X163605838Y-161734261D01*
X163445275Y-162034653D01*
X163443807Y-162037321D01*
X163433973Y-162054680D01*
X163430846Y-162059897D01*
X163420147Y-162076793D01*
X163418486Y-162079346D01*
X163229256Y-162362548D01*
X163227536Y-162365055D01*
X163216030Y-162381393D01*
X163212402Y-162386285D01*
X163200133Y-162402006D01*
X163198232Y-162404381D01*
X162982134Y-162667698D01*
X162980176Y-162670025D01*
X162967132Y-162685147D01*
X162963044Y-162689658D01*
X162949275Y-162704120D01*
X162947149Y-162706298D01*
X162706298Y-162947149D01*
X162704120Y-162949275D01*
X162689658Y-162963044D01*
X162685147Y-162967132D01*
X162670025Y-162980176D01*
X162667698Y-162982134D01*
X162404381Y-163198232D01*
X162402006Y-163200133D01*
X162386285Y-163212402D01*
X162381393Y-163216030D01*
X162365055Y-163227536D01*
X162362548Y-163229256D01*
X162079346Y-163418486D01*
X162076793Y-163420147D01*
X162059897Y-163430846D01*
X162054680Y-163433973D01*
X162037321Y-163443807D01*
X162034653Y-163445275D01*
X161734261Y-163605838D01*
X161731565Y-163607237D01*
X161713717Y-163616222D01*
X161708215Y-163618824D01*
X161698970Y-163622922D01*
X161689955Y-163626918D01*
X161687164Y-163628114D01*
X161372466Y-163758466D01*
X161369642Y-163759595D01*
X161351006Y-163766784D01*
X161345272Y-163768836D01*
X161326334Y-163775092D01*
X161323434Y-163776011D01*
X160997464Y-163874893D01*
X160994541Y-163875740D01*
X160975284Y-163881069D01*
X160969383Y-163882548D01*
X160949893Y-163886925D01*
X160946913Y-163887555D01*
X160612876Y-163953999D01*
X160609886Y-163954556D01*
X160590195Y-163957973D01*
X160584175Y-163958866D01*
X160564330Y-163961314D01*
X160561303Y-163961650D01*
X160219112Y-163995353D01*
X160216457Y-163995586D01*
X160199003Y-163996927D01*
X160193685Y-163997220D01*
X160176257Y-163997808D01*
X160173597Y-163997870D01*
X160005180Y-163999936D01*
X160003066Y-163999962D01*
X160003054Y-163999962D01*
X160002723Y-163999965D01*
X160000406Y-163999987D01*
X159999603Y-163999992D01*
X159997640Y-163999997D01*
X159997168Y-163999999D01*
X159996910Y-164000000D01*
X150209817Y-164000000D01*
X150142778Y-163980315D01*
X150097023Y-163927511D01*
X150087079Y-163858353D01*
X150116104Y-163794797D01*
X150122136Y-163788319D01*
X151692185Y-162218270D01*
X153274032Y-160636422D01*
X153335353Y-160602939D01*
X153349557Y-160600702D01*
X153351608Y-160600500D01*
X153351619Y-160600500D01*
X153733012Y-160562936D01*
X153806180Y-160548381D01*
X154108866Y-160488175D01*
X154108877Y-160488172D01*
X154108877Y-160488171D01*
X154108887Y-160488170D01*
X154475624Y-160376922D01*
X154829690Y-160230263D01*
X155167676Y-160049605D01*
X155486327Y-159836689D01*
X155782575Y-159593565D01*
X156053565Y-159322575D01*
X156144953Y-159211217D01*
X156202695Y-159171885D01*
X156272540Y-159170014D01*
X156332309Y-159206201D01*
X156363025Y-159268956D01*
X156363277Y-159309282D01*
X156315219Y-159612712D01*
X156294922Y-159999999D01*
X156294922Y-160000000D01*
X156315219Y-160387287D01*
X156375886Y-160770323D01*
X156375887Y-160770330D01*
X156476262Y-161144936D01*
X156615244Y-161506994D01*
X156791310Y-161852543D01*
X157002531Y-162177793D01*
X157211095Y-162435350D01*
X157211096Y-162435350D01*
X158705748Y-160940698D01*
X158779588Y-161042330D01*
X158957670Y-161220412D01*
X159059300Y-161294251D01*
X157564648Y-162788903D01*
X157564649Y-162788904D01*
X157822206Y-162997468D01*
X158147456Y-163208689D01*
X158493005Y-163384755D01*
X158855063Y-163523737D01*
X159229669Y-163624112D01*
X159229676Y-163624113D01*
X159612712Y-163684780D01*
X159999999Y-163705078D01*
X160000001Y-163705078D01*
X160387287Y-163684780D01*
X160770323Y-163624113D01*
X160770330Y-163624112D01*
X161144936Y-163523737D01*
X161506994Y-163384755D01*
X161852543Y-163208689D01*
X162177783Y-162997476D01*
X162177785Y-162997475D01*
X162435349Y-162788902D01*
X160940698Y-161294251D01*
X161042330Y-161220412D01*
X161220412Y-161042330D01*
X161294251Y-160940698D01*
X162788902Y-162435349D01*
X162997475Y-162177785D01*
X162997476Y-162177783D01*
X163208689Y-161852543D01*
X163384755Y-161506994D01*
X163523737Y-161144936D01*
X163624112Y-160770330D01*
X163624113Y-160770323D01*
X163684780Y-160387287D01*
X163705078Y-160000000D01*
X163705078Y-159999999D01*
X163684780Y-159612712D01*
X163624113Y-159229676D01*
X163624112Y-159229669D01*
X163523737Y-158855063D01*
X163384755Y-158493005D01*
X163208689Y-158147456D01*
X162997468Y-157822206D01*
X162788904Y-157564649D01*
X162788903Y-157564648D01*
X161294251Y-159059300D01*
X161220412Y-158957670D01*
X161042330Y-158779588D01*
X160940698Y-158705748D01*
X162435350Y-157211096D01*
X162435350Y-157211095D01*
X162177793Y-157002531D01*
X161852543Y-156791310D01*
X161506994Y-156615244D01*
X161144936Y-156476262D01*
X160770330Y-156375887D01*
X160770323Y-156375886D01*
X160387287Y-156315219D01*
X160000001Y-156294922D01*
X159999999Y-156294922D01*
X159612712Y-156315219D01*
X159229676Y-156375886D01*
X159229669Y-156375887D01*
X158855063Y-156476262D01*
X158493005Y-156615244D01*
X158147456Y-156791310D01*
X157822206Y-157002531D01*
X157564648Y-157211095D01*
X157564648Y-157211096D01*
X159059301Y-158705748D01*
X158957670Y-158779588D01*
X158779588Y-158957670D01*
X158705748Y-159059300D01*
X157211096Y-157564648D01*
X157211094Y-157564648D01*
X157200685Y-157577503D01*
X157143198Y-157617214D01*
X157073367Y-157619541D01*
X157013363Y-157583745D01*
X156982238Y-157521191D01*
X156982702Y-157475277D01*
X157022936Y-157273012D01*
X157060500Y-156891619D01*
X157060500Y-154708381D01*
X157022936Y-154326988D01*
X156948175Y-153951133D01*
X156948172Y-153951122D01*
X156948171Y-153951119D01*
X156948170Y-153951113D01*
X156836922Y-153584376D01*
X156690263Y-153230310D01*
X156509605Y-152892324D01*
X156296689Y-152573673D01*
X156053565Y-152277425D01*
X156053564Y-152277424D01*
X156053560Y-152277419D01*
X155782580Y-152006439D01*
X155486332Y-151763315D01*
X155486331Y-151763314D01*
X155486327Y-151763311D01*
X155167676Y-151550395D01*
X155167671Y-151550392D01*
X155167664Y-151550388D01*
X154829697Y-151369740D01*
X154829692Y-151369738D01*
X154475625Y-151223078D01*
X154108877Y-151111827D01*
X154108866Y-151111824D01*
X153733011Y-151037063D01*
X153445763Y-151008772D01*
X153351619Y-150999500D01*
X152968381Y-150999500D01*
X152881394Y-151008067D01*
X152586988Y-151037063D01*
X152211133Y-151111824D01*
X152211122Y-151111827D01*
X151844374Y-151223078D01*
X151490307Y-151369738D01*
X151490302Y-151369740D01*
X151152335Y-151550388D01*
X151152317Y-151550399D01*
X150833667Y-151763314D01*
X150698665Y-151874108D01*
X150634355Y-151901421D01*
X150565487Y-151889630D01*
X150541335Y-151874108D01*
X150406332Y-151763314D01*
X150087682Y-151550399D01*
X150087681Y-151550398D01*
X150087676Y-151550395D01*
X150087671Y-151550392D01*
X150087664Y-151550388D01*
X149749697Y-151369740D01*
X149749692Y-151369738D01*
X149395625Y-151223078D01*
X149028877Y-151111827D01*
X149028866Y-151111824D01*
X148653011Y-151037063D01*
X148365763Y-151008772D01*
X148271619Y-150999500D01*
X147888381Y-150999500D01*
X147801394Y-151008067D01*
X147506988Y-151037063D01*
X147131133Y-151111824D01*
X147131122Y-151111827D01*
X146764374Y-151223078D01*
X146410307Y-151369738D01*
X146410302Y-151369740D01*
X146072335Y-151550388D01*
X146072317Y-151550399D01*
X145753681Y-151763305D01*
X145753667Y-151763315D01*
X145457419Y-152006439D01*
X145186439Y-152277419D01*
X144943315Y-152573667D01*
X144943305Y-152573681D01*
X144730399Y-152892317D01*
X144730388Y-152892335D01*
X144549740Y-153230302D01*
X144549738Y-153230307D01*
X144403078Y-153584374D01*
X144291827Y-153951122D01*
X144291824Y-153951133D01*
X144256698Y-154127730D01*
X144224313Y-154189641D01*
X144163598Y-154224215D01*
X144093828Y-154220476D01*
X144037156Y-154179610D01*
X144021367Y-154149286D01*
X144021038Y-154149448D01*
X144016809Y-154140797D01*
X144016809Y-154140796D01*
X143961476Y-154027610D01*
X143961474Y-154027608D01*
X143961474Y-154027607D01*
X143872392Y-153938525D01*
X143759202Y-153883190D01*
X143685827Y-153872500D01*
X142314174Y-153872500D01*
X142240795Y-153883191D01*
X142127607Y-153938525D01*
X142038525Y-154027607D01*
X141983190Y-154140797D01*
X141972500Y-154214172D01*
X141972501Y-156475500D01*
X141952816Y-156542539D01*
X141900013Y-156588294D01*
X141848501Y-156599500D01*
X133228798Y-156599500D01*
X133179897Y-156589450D01*
X133154256Y-156578446D01*
X133154226Y-156578435D01*
X132791290Y-156464563D01*
X132791284Y-156464562D01*
X132791281Y-156464561D01*
X132791280Y-156464561D01*
X132418660Y-156387985D01*
X132418659Y-156387984D01*
X132418655Y-156387984D01*
X132040205Y-156349500D01*
X132040204Y-156349500D01*
X131659796Y-156349500D01*
X131659795Y-156349500D01*
X131281344Y-156387984D01*
X130908715Y-156464562D01*
X130908709Y-156464563D01*
X130545766Y-156578437D01*
X130196179Y-156728456D01*
X129863575Y-156913066D01*
X129863570Y-156913069D01*
X129551343Y-157130385D01*
X129262709Y-157378170D01*
X129000615Y-157653893D01*
X128767771Y-157954704D01*
X128566553Y-158277527D01*
X128566548Y-158277536D01*
X128399022Y-158619059D01*
X128399016Y-158619074D01*
X128343651Y-158768566D01*
X128301909Y-158824596D01*
X128236501Y-158849163D01*
X128227370Y-158849500D01*
X124901316Y-158849500D01*
X124834277Y-158829815D01*
X124813635Y-158813181D01*
X124708130Y-158707676D01*
X124597701Y-158597246D01*
X124574054Y-158564174D01*
X124551022Y-158517221D01*
X124433451Y-158277536D01*
X124433446Y-158277527D01*
X124297820Y-158059936D01*
X124232229Y-157954705D01*
X123999380Y-157653888D01*
X123737291Y-157378171D01*
X123614796Y-157273012D01*
X123448656Y-157130385D01*
X123136429Y-156913069D01*
X123136424Y-156913066D01*
X122803820Y-156728456D01*
X122454233Y-156578437D01*
X122091290Y-156464563D01*
X122091284Y-156464562D01*
X122091281Y-156464561D01*
X122091280Y-156464561D01*
X121718660Y-156387985D01*
X121718659Y-156387984D01*
X121718655Y-156387984D01*
X121340205Y-156349500D01*
X121340204Y-156349500D01*
X120959796Y-156349500D01*
X120959795Y-156349500D01*
X120581344Y-156387984D01*
X120208715Y-156464562D01*
X120208709Y-156464563D01*
X119845766Y-156578437D01*
X119496179Y-156728456D01*
X119163575Y-156913066D01*
X119163570Y-156913069D01*
X118851343Y-157130385D01*
X118562709Y-157378170D01*
X118300615Y-157653893D01*
X118067771Y-157954704D01*
X117866553Y-158277527D01*
X117866548Y-158277536D01*
X117699022Y-158619059D01*
X117699016Y-158619074D01*
X117566904Y-158975787D01*
X117471551Y-159344064D01*
X117413946Y-159720081D01*
X117394680Y-160100000D01*
X117413946Y-160479918D01*
X117466544Y-160823251D01*
X117471552Y-160855940D01*
X117502452Y-160975284D01*
X117566904Y-161224212D01*
X117699016Y-161580925D01*
X117699022Y-161580940D01*
X117866548Y-161922463D01*
X117866553Y-161922472D01*
X118067771Y-162245295D01*
X118277153Y-162515796D01*
X118300620Y-162546112D01*
X118531411Y-162788904D01*
X118562709Y-162821829D01*
X118851343Y-163069614D01*
X118921476Y-163118428D01*
X119163571Y-163286931D01*
X119428491Y-163433973D01*
X119496179Y-163471543D01*
X119605483Y-163518449D01*
X119644264Y-163544719D01*
X119887864Y-163788319D01*
X119921349Y-163849642D01*
X119916365Y-163919334D01*
X119874493Y-163975267D01*
X119809029Y-163999684D01*
X119800183Y-164000000D01*
X100003090Y-164000000D01*
X100002831Y-163999999D01*
X100002353Y-163999997D01*
X100000396Y-163999992D01*
X99999593Y-163999987D01*
X99997276Y-163999965D01*
X99997162Y-163999930D01*
X99996933Y-163999961D01*
X99994324Y-163999930D01*
X99826402Y-163997870D01*
X99823742Y-163997808D01*
X99806314Y-163997220D01*
X99800996Y-163996927D01*
X99783542Y-163995586D01*
X99780887Y-163995353D01*
X99438696Y-163961650D01*
X99435669Y-163961314D01*
X99415824Y-163958866D01*
X99409804Y-163957973D01*
X99390113Y-163954556D01*
X99387123Y-163953999D01*
X99053086Y-163887555D01*
X99050115Y-163886926D01*
X99044294Y-163885619D01*
X99030616Y-163882548D01*
X99024715Y-163881069D01*
X99005458Y-163875740D01*
X99002535Y-163874893D01*
X98676565Y-163776011D01*
X98673665Y-163775092D01*
X98671605Y-163774411D01*
X98654716Y-163768832D01*
X98648993Y-163766784D01*
X98630357Y-163759595D01*
X98627533Y-163758466D01*
X98312835Y-163628114D01*
X98310044Y-163626918D01*
X98291768Y-163618817D01*
X98286282Y-163616222D01*
X98268434Y-163607237D01*
X98265738Y-163605838D01*
X97965346Y-163445275D01*
X97962719Y-163443830D01*
X97945313Y-163433969D01*
X97940102Y-163430846D01*
X97929366Y-163424048D01*
X97923183Y-163420132D01*
X97920686Y-163418507D01*
X97637451Y-163229256D01*
X97634944Y-163227536D01*
X97618606Y-163216030D01*
X97613729Y-163212413D01*
X97597964Y-163200110D01*
X97595618Y-163198232D01*
X97332301Y-162982134D01*
X97329974Y-162980176D01*
X97314852Y-162967132D01*
X97310366Y-162963066D01*
X97295840Y-162949237D01*
X97293701Y-162947149D01*
X97052850Y-162706298D01*
X97050763Y-162704160D01*
X97036931Y-162689631D01*
X97032878Y-162685159D01*
X97019821Y-162670022D01*
X97017865Y-162667698D01*
X96801767Y-162404381D01*
X96799897Y-162402045D01*
X96787581Y-162386264D01*
X96783969Y-162381393D01*
X96772463Y-162365055D01*
X96770743Y-162362548D01*
X96692397Y-162245295D01*
X96581478Y-162079293D01*
X96579880Y-162076836D01*
X96569153Y-162059897D01*
X96566036Y-162054698D01*
X96556154Y-162037252D01*
X96554724Y-162034653D01*
X96394161Y-161734261D01*
X96392762Y-161731565D01*
X96392040Y-161730130D01*
X96383766Y-161713694D01*
X96381190Y-161708249D01*
X96373062Y-161689910D01*
X96371885Y-161687164D01*
X96241524Y-161372444D01*
X96240404Y-161369642D01*
X96233215Y-161351006D01*
X96231175Y-161345306D01*
X96224892Y-161326286D01*
X96223988Y-161323434D01*
X96193889Y-161224212D01*
X96125102Y-160997452D01*
X96124259Y-160994541D01*
X96118930Y-160975284D01*
X96117451Y-160969383D01*
X96113059Y-160949824D01*
X96112444Y-160946913D01*
X96094347Y-160855935D01*
X96045997Y-160612863D01*
X96045443Y-160609886D01*
X96042026Y-160590195D01*
X96041133Y-160584175D01*
X96038685Y-160564330D01*
X96038353Y-160561343D01*
X96004641Y-160219057D01*
X96004418Y-160216517D01*
X96003070Y-160198968D01*
X96002780Y-160193708D01*
X96002191Y-160176257D01*
X96002129Y-160173596D01*
X96000038Y-160003066D01*
X96000035Y-160002777D01*
X96000009Y-160000000D01*
X96000009Y-159999999D01*
X96294922Y-159999999D01*
X96294922Y-160000000D01*
X96315219Y-160387287D01*
X96375886Y-160770323D01*
X96375887Y-160770330D01*
X96476262Y-161144936D01*
X96615244Y-161506994D01*
X96791310Y-161852543D01*
X97002531Y-162177793D01*
X97211095Y-162435350D01*
X97211096Y-162435350D01*
X98705748Y-160940698D01*
X98779588Y-161042330D01*
X98957670Y-161220412D01*
X99059300Y-161294251D01*
X97564648Y-162788903D01*
X97564649Y-162788904D01*
X97822206Y-162997468D01*
X98147456Y-163208689D01*
X98493005Y-163384755D01*
X98855063Y-163523737D01*
X99229669Y-163624112D01*
X99229676Y-163624113D01*
X99612712Y-163684780D01*
X99999999Y-163705078D01*
X100000001Y-163705078D01*
X100387287Y-163684780D01*
X100770323Y-163624113D01*
X100770330Y-163624112D01*
X101144936Y-163523737D01*
X101506994Y-163384755D01*
X101852543Y-163208689D01*
X102177783Y-162997476D01*
X102177785Y-162997475D01*
X102435349Y-162788902D01*
X100940698Y-161294251D01*
X101042330Y-161220412D01*
X101220412Y-161042330D01*
X101294251Y-160940698D01*
X102788902Y-162435349D01*
X102959634Y-162224514D01*
X103017121Y-162184803D01*
X103086952Y-162182475D01*
X103146956Y-162218270D01*
X103178082Y-162280824D01*
X103180000Y-162302550D01*
X103180000Y-162498495D01*
X103204546Y-162621898D01*
X103204547Y-162621898D01*
X103880000Y-161946446D01*
X103880000Y-162439496D01*
X103900444Y-162515796D01*
X103939940Y-162584205D01*
X103944643Y-162588908D01*
X103449669Y-163083882D01*
X103542538Y-163176752D01*
X103706315Y-163286185D01*
X103706328Y-163286192D01*
X103888306Y-163361569D01*
X103888318Y-163361572D01*
X104081504Y-163399999D01*
X104081508Y-163400000D01*
X104278492Y-163400000D01*
X104278495Y-163399999D01*
X104471681Y-163361572D01*
X104471693Y-163361569D01*
X104653671Y-163286192D01*
X104653684Y-163286185D01*
X104817458Y-163176754D01*
X104910330Y-163083882D01*
X104415356Y-162588908D01*
X104420060Y-162584205D01*
X104459556Y-162515796D01*
X104480000Y-162439496D01*
X104480000Y-161999999D01*
X104533553Y-161999999D01*
X104533553Y-162000000D01*
X105155451Y-162621898D01*
X105155452Y-162621898D01*
X105180000Y-162498493D01*
X105180000Y-161501506D01*
X105180000Y-161501504D01*
X111820000Y-161501504D01*
X111820000Y-162498495D01*
X111844546Y-162621898D01*
X111844547Y-162621898D01*
X112466447Y-162000000D01*
X111844547Y-161378100D01*
X111844546Y-161378100D01*
X111820000Y-161501504D01*
X105180000Y-161501504D01*
X105155452Y-161378100D01*
X105155451Y-161378100D01*
X104533553Y-161999999D01*
X104480000Y-161999999D01*
X104480000Y-161560504D01*
X104459556Y-161484204D01*
X104420060Y-161415795D01*
X104415355Y-161411090D01*
X104910330Y-160916116D01*
X112089669Y-160916116D01*
X112584644Y-161411091D01*
X112579940Y-161415795D01*
X112540444Y-161484204D01*
X112520000Y-161560504D01*
X112520000Y-162439496D01*
X112540444Y-162515796D01*
X112579940Y-162584205D01*
X112584643Y-162588908D01*
X112089669Y-163083882D01*
X112182538Y-163176752D01*
X112346315Y-163286185D01*
X112346328Y-163286192D01*
X112528306Y-163361569D01*
X112528318Y-163361572D01*
X112721504Y-163399999D01*
X112721508Y-163400000D01*
X112918492Y-163400000D01*
X112918495Y-163399999D01*
X113111681Y-163361572D01*
X113111693Y-163361569D01*
X113293671Y-163286192D01*
X113293684Y-163286185D01*
X113457458Y-163176754D01*
X113550330Y-163083882D01*
X113055356Y-162588908D01*
X113060060Y-162584205D01*
X113099556Y-162515796D01*
X113120000Y-162439496D01*
X113120000Y-161999999D01*
X113173553Y-161999999D01*
X113173553Y-162000000D01*
X113795451Y-162621898D01*
X113795452Y-162621898D01*
X113820000Y-162498493D01*
X113820000Y-161501506D01*
X113795452Y-161378100D01*
X113795451Y-161378100D01*
X113173553Y-161999999D01*
X113120000Y-161999999D01*
X113120000Y-161560504D01*
X113099556Y-161484204D01*
X113060060Y-161415795D01*
X113055356Y-161411091D01*
X113550330Y-160916116D01*
X113550330Y-160916115D01*
X113457466Y-160823251D01*
X113457462Y-160823248D01*
X113293684Y-160713814D01*
X113293671Y-160713807D01*
X113111693Y-160638430D01*
X113111681Y-160638427D01*
X112918495Y-160600000D01*
X112721504Y-160600000D01*
X112528318Y-160638427D01*
X112528306Y-160638430D01*
X112346328Y-160713807D01*
X112346315Y-160713814D01*
X112182540Y-160823246D01*
X112089669Y-160916116D01*
X104910330Y-160916116D01*
X104910330Y-160916115D01*
X104817466Y-160823251D01*
X104817462Y-160823248D01*
X104653684Y-160713814D01*
X104653671Y-160713807D01*
X104471693Y-160638430D01*
X104471681Y-160638427D01*
X104278495Y-160600000D01*
X104081504Y-160600000D01*
X103888318Y-160638427D01*
X103888306Y-160638430D01*
X103832483Y-160661553D01*
X103763014Y-160669022D01*
X103700535Y-160637746D01*
X103664883Y-160577657D01*
X103662558Y-160527594D01*
X103684780Y-160387287D01*
X103705078Y-160000000D01*
X103705078Y-159999999D01*
X103684780Y-159612712D01*
X103657473Y-159440299D01*
X103666428Y-159371006D01*
X103711424Y-159317554D01*
X103778175Y-159296914D01*
X103827399Y-159306340D01*
X103888310Y-159331570D01*
X103888318Y-159331572D01*
X104081504Y-159369999D01*
X104081508Y-159370000D01*
X104278492Y-159370000D01*
X104278495Y-159369999D01*
X104471681Y-159331572D01*
X104471693Y-159331569D01*
X104653671Y-159256192D01*
X104653684Y-159256185D01*
X104817461Y-159146752D01*
X104903660Y-159060552D01*
X105223000Y-159060552D01*
X105223000Y-159078137D01*
X105345884Y-159132849D01*
X105345889Y-159132851D01*
X105520661Y-159170000D01*
X105699339Y-159170000D01*
X105874111Y-159132851D01*
X105874113Y-159132850D01*
X106009165Y-159072719D01*
X106009165Y-159072718D01*
X110990833Y-159072718D01*
X110990833Y-159072719D01*
X111125884Y-159132849D01*
X111125889Y-159132851D01*
X111300661Y-159170000D01*
X111479339Y-159170000D01*
X111654110Y-159132851D01*
X111654115Y-159132849D01*
X111776999Y-159078137D01*
X111777000Y-159078137D01*
X111777000Y-159060553D01*
X111776999Y-159060552D01*
X111689646Y-158973199D01*
X112020353Y-158973199D01*
X112043245Y-159007458D01*
X112043251Y-159007466D01*
X112182533Y-159146748D01*
X112182537Y-159146751D01*
X112346315Y-159256185D01*
X112346328Y-159256192D01*
X112528306Y-159331569D01*
X112528318Y-159331572D01*
X112721504Y-159369999D01*
X112721508Y-159370000D01*
X112918492Y-159370000D01*
X112918495Y-159369999D01*
X113111681Y-159331572D01*
X113111693Y-159331569D01*
X113293671Y-159256192D01*
X113293684Y-159256185D01*
X113457461Y-159146752D01*
X113596750Y-159007462D01*
X113619644Y-158973197D01*
X113619644Y-158973196D01*
X113106463Y-158460016D01*
X113120000Y-158409496D01*
X113120000Y-157819999D01*
X113173553Y-157819999D01*
X113173553Y-157820000D01*
X113819999Y-158466447D01*
X113820000Y-158466446D01*
X113820000Y-157173553D01*
X113819999Y-157173552D01*
X113173553Y-157819999D01*
X113120000Y-157819999D01*
X113120000Y-157230504D01*
X113106463Y-157179983D01*
X113619644Y-156666802D01*
X113619644Y-156666801D01*
X113596747Y-156632532D01*
X113457466Y-156493251D01*
X113457462Y-156493248D01*
X113293684Y-156383814D01*
X113293671Y-156383807D01*
X113111693Y-156308430D01*
X113111681Y-156308427D01*
X112918495Y-156270000D01*
X112721504Y-156270000D01*
X112528318Y-156308427D01*
X112528306Y-156308430D01*
X112346328Y-156383807D01*
X112346315Y-156383814D01*
X112182537Y-156493248D01*
X112182533Y-156493251D01*
X112043253Y-156632531D01*
X112043246Y-156632539D01*
X112020354Y-156666800D01*
X112020354Y-156666801D01*
X112533536Y-157179983D01*
X112520000Y-157230504D01*
X112520000Y-158409496D01*
X112533536Y-158460015D01*
X112020354Y-158973196D01*
X112020353Y-158973199D01*
X111689646Y-158973199D01*
X111390001Y-158673553D01*
X111390000Y-158673553D01*
X110990833Y-159072718D01*
X106009165Y-159072718D01*
X105610000Y-158673553D01*
X105223000Y-159060552D01*
X104903660Y-159060552D01*
X104956750Y-159007462D01*
X104979644Y-158973197D01*
X104979644Y-158973196D01*
X104466463Y-158460016D01*
X104480000Y-158409496D01*
X104480000Y-157819999D01*
X104533553Y-157819999D01*
X104533553Y-157820000D01*
X105145000Y-158431447D01*
X105285000Y-158291447D01*
X105285000Y-158362787D01*
X105307149Y-158445445D01*
X105349936Y-158519554D01*
X105410446Y-158580064D01*
X105484555Y-158622851D01*
X105567213Y-158645000D01*
X105652787Y-158645000D01*
X105735445Y-158622851D01*
X105809554Y-158580064D01*
X105870064Y-158519554D01*
X105912851Y-158445445D01*
X105935000Y-158362787D01*
X105935000Y-158319999D01*
X105963553Y-158319999D01*
X105963553Y-158320001D01*
X106361651Y-158718099D01*
X106361652Y-158718099D01*
X106390790Y-158667631D01*
X106446003Y-158497702D01*
X106446004Y-158497700D01*
X106464681Y-158320000D01*
X110535318Y-158320000D01*
X110553995Y-158497700D01*
X110553996Y-158497702D01*
X110609209Y-158667631D01*
X110609210Y-158667633D01*
X110638346Y-158718098D01*
X110638347Y-158718099D01*
X111036447Y-158320000D01*
X110638347Y-157921900D01*
X110609208Y-157972370D01*
X110553996Y-158142297D01*
X110553995Y-158142299D01*
X110535318Y-158320000D01*
X106464681Y-158320000D01*
X106446004Y-158142299D01*
X106446003Y-158142297D01*
X106390793Y-157972375D01*
X106390790Y-157972369D01*
X106361651Y-157921899D01*
X105963553Y-158319999D01*
X105935000Y-158319999D01*
X105935000Y-158277213D01*
X105912851Y-158194555D01*
X105870064Y-158120446D01*
X105809554Y-158059936D01*
X105735445Y-158017149D01*
X105652787Y-157995000D01*
X105581447Y-157995000D01*
X105610000Y-157966447D01*
X106009165Y-157567280D01*
X110990832Y-157567280D01*
X111390000Y-157966447D01*
X111418553Y-157995000D01*
X111347213Y-157995000D01*
X111264555Y-158017149D01*
X111190446Y-158059936D01*
X111129936Y-158120446D01*
X111087149Y-158194555D01*
X111065000Y-158277213D01*
X111065000Y-158362787D01*
X111087149Y-158445445D01*
X111129936Y-158519554D01*
X111190446Y-158580064D01*
X111264555Y-158622851D01*
X111347213Y-158645000D01*
X111432787Y-158645000D01*
X111515445Y-158622851D01*
X111589554Y-158580064D01*
X111650064Y-158519554D01*
X111692851Y-158445445D01*
X111715000Y-158362787D01*
X111715000Y-158291447D01*
X111855000Y-158431447D01*
X112466447Y-157820000D01*
X112466447Y-157819999D01*
X111820000Y-157173552D01*
X111820000Y-157390378D01*
X111800315Y-157457417D01*
X111747511Y-157503172D01*
X111678353Y-157513116D01*
X111657685Y-157508310D01*
X111654110Y-157507148D01*
X111479339Y-157470000D01*
X111300661Y-157470000D01*
X111125889Y-157507148D01*
X111125884Y-157507150D01*
X110990833Y-157567279D01*
X110990832Y-157567280D01*
X106009165Y-157567280D01*
X106009165Y-157567279D01*
X105874115Y-157507150D01*
X105874110Y-157507148D01*
X105699339Y-157470000D01*
X105520661Y-157470000D01*
X105345889Y-157507148D01*
X105342315Y-157508310D01*
X105340132Y-157508372D01*
X105339532Y-157508500D01*
X105339508Y-157508390D01*
X105272474Y-157510303D01*
X105212642Y-157474221D01*
X105181816Y-157411519D01*
X105180000Y-157390378D01*
X105180000Y-157173553D01*
X105179999Y-157173552D01*
X104533553Y-157819999D01*
X104480000Y-157819999D01*
X104480000Y-157230504D01*
X104466463Y-157179983D01*
X104979644Y-156666802D01*
X104979644Y-156666801D01*
X104956747Y-156632532D01*
X104817466Y-156493251D01*
X104817462Y-156493248D01*
X104653684Y-156383814D01*
X104653671Y-156383807D01*
X104471693Y-156308430D01*
X104471681Y-156308427D01*
X104278495Y-156270000D01*
X104081504Y-156270000D01*
X103888318Y-156308427D01*
X103888306Y-156308430D01*
X103706328Y-156383807D01*
X103706315Y-156383814D01*
X103542537Y-156493248D01*
X103542533Y-156493251D01*
X103403253Y-156632531D01*
X103403246Y-156632539D01*
X103380354Y-156666800D01*
X103380354Y-156666801D01*
X103893536Y-157179983D01*
X103880000Y-157230504D01*
X103880000Y-157873552D01*
X103180000Y-157173552D01*
X103180000Y-157697448D01*
X103160315Y-157764487D01*
X103107511Y-157810242D01*
X103038353Y-157820186D01*
X102974797Y-157791161D01*
X102959634Y-157775484D01*
X102788903Y-157564648D01*
X101294251Y-159059300D01*
X101220412Y-158957670D01*
X101042330Y-158779588D01*
X100940698Y-158705748D01*
X102435350Y-157211096D01*
X102435350Y-157211095D01*
X102177793Y-157002531D01*
X101852543Y-156791310D01*
X101506994Y-156615244D01*
X101144936Y-156476262D01*
X100770330Y-156375887D01*
X100770323Y-156375886D01*
X100387287Y-156315219D01*
X100000001Y-156294922D01*
X99999999Y-156294922D01*
X99612712Y-156315219D01*
X99229676Y-156375886D01*
X99229669Y-156375887D01*
X98855063Y-156476262D01*
X98493005Y-156615244D01*
X98147456Y-156791310D01*
X97822206Y-157002531D01*
X97564648Y-157211095D01*
X97564648Y-157211096D01*
X99059301Y-158705748D01*
X98957670Y-158779588D01*
X98779588Y-158957670D01*
X98705748Y-159059300D01*
X97211096Y-157564648D01*
X97211095Y-157564648D01*
X97002531Y-157822206D01*
X96791310Y-158147456D01*
X96615244Y-158493005D01*
X96476262Y-158855063D01*
X96375887Y-159229669D01*
X96375886Y-159229676D01*
X96315219Y-159612712D01*
X96294922Y-159999999D01*
X96000009Y-159999999D01*
X96000000Y-159996933D01*
X96000000Y-148323971D01*
X155072500Y-148323971D01*
X155072500Y-148476029D01*
X155111856Y-148622907D01*
X155111857Y-148622910D01*
X155165296Y-148715468D01*
X155187885Y-148754593D01*
X155295407Y-148862115D01*
X155387968Y-148915555D01*
X155427089Y-148938142D01*
X155427090Y-148938142D01*
X155427093Y-148938144D01*
X155573971Y-148977500D01*
X155573974Y-148977500D01*
X156626026Y-148977500D01*
X156626029Y-148977500D01*
X156772907Y-148938144D01*
X156904593Y-148862115D01*
X157012115Y-148754593D01*
X157088144Y-148622907D01*
X157127500Y-148476029D01*
X157127500Y-148323971D01*
X161072500Y-148323971D01*
X161072500Y-148476029D01*
X161111856Y-148622907D01*
X161111857Y-148622910D01*
X161165296Y-148715468D01*
X161187885Y-148754593D01*
X161295407Y-148862115D01*
X161387968Y-148915555D01*
X161427089Y-148938142D01*
X161427090Y-148938142D01*
X161427093Y-148938144D01*
X161573971Y-148977500D01*
X161573974Y-148977500D01*
X162626026Y-148977500D01*
X162626029Y-148977500D01*
X162772907Y-148938144D01*
X162904593Y-148862115D01*
X163012115Y-148754593D01*
X163088144Y-148622907D01*
X163127500Y-148476029D01*
X163127500Y-148323971D01*
X163088144Y-148177093D01*
X163012115Y-148045407D01*
X162904593Y-147937885D01*
X162865468Y-147915296D01*
X162772910Y-147861857D01*
X162772911Y-147861857D01*
X162760866Y-147858629D01*
X162626029Y-147822500D01*
X161573971Y-147822500D01*
X161439133Y-147858629D01*
X161427089Y-147861857D01*
X161295410Y-147937883D01*
X161295404Y-147937887D01*
X161187887Y-148045404D01*
X161187883Y-148045410D01*
X161111857Y-148177089D01*
X161111856Y-148177093D01*
X161072500Y-148323971D01*
X157127500Y-148323971D01*
X157088144Y-148177093D01*
X157012115Y-148045407D01*
X156904593Y-147937885D01*
X156865468Y-147915296D01*
X156772910Y-147861857D01*
X156772911Y-147861857D01*
X156760866Y-147858629D01*
X156626029Y-147822500D01*
X155573971Y-147822500D01*
X155439133Y-147858629D01*
X155427089Y-147861857D01*
X155295410Y-147937883D01*
X155295404Y-147937887D01*
X155187887Y-148045404D01*
X155187883Y-148045410D01*
X155111857Y-148177089D01*
X155111856Y-148177093D01*
X155072500Y-148323971D01*
X96000000Y-148323971D01*
X96000000Y-145499999D01*
X153495287Y-145499999D01*
X153495287Y-145500000D01*
X153514096Y-145702989D01*
X153514097Y-145702992D01*
X153569883Y-145899063D01*
X153569886Y-145899069D01*
X153660751Y-146081551D01*
X153662533Y-146083911D01*
X154157861Y-145588584D01*
X154180667Y-145673694D01*
X154239910Y-145776306D01*
X154323694Y-145860090D01*
X154426306Y-145919333D01*
X154511414Y-145942137D01*
X154019311Y-146434240D01*
X154107585Y-146488897D01*
X154297678Y-146562539D01*
X154498072Y-146600000D01*
X154701928Y-146600000D01*
X154902322Y-146562539D01*
X155092412Y-146488899D01*
X155092416Y-146488897D01*
X155180686Y-146434241D01*
X155180686Y-146434240D01*
X154688585Y-145942137D01*
X154773694Y-145919333D01*
X154876306Y-145860090D01*
X154960090Y-145776306D01*
X155019333Y-145673694D01*
X155042138Y-145588585D01*
X155537465Y-146083912D01*
X155539247Y-146081553D01*
X155539248Y-146081551D01*
X155630113Y-145899069D01*
X155630116Y-145899063D01*
X155685902Y-145702992D01*
X155685903Y-145702989D01*
X155704713Y-145500000D01*
X155704713Y-145499999D01*
X155685903Y-145297010D01*
X155685902Y-145297007D01*
X155630116Y-145100936D01*
X155630113Y-145100930D01*
X155539249Y-144918449D01*
X155539247Y-144918447D01*
X155537465Y-144916087D01*
X155042138Y-145411414D01*
X155019333Y-145326306D01*
X154960090Y-145223694D01*
X154876306Y-145139910D01*
X154773694Y-145080667D01*
X154688584Y-145057861D01*
X155180687Y-144565758D01*
X155092413Y-144511101D01*
X155092411Y-144511100D01*
X154902321Y-144437460D01*
X154701928Y-144400000D01*
X154498072Y-144400000D01*
X154297678Y-144437460D01*
X154107588Y-144511100D01*
X154107581Y-144511104D01*
X154019312Y-144565757D01*
X154019311Y-144565758D01*
X154511415Y-145057861D01*
X154426306Y-145080667D01*
X154323694Y-145139910D01*
X154239910Y-145223694D01*
X154180667Y-145326306D01*
X154157861Y-145411415D01*
X153662533Y-144916087D01*
X153660755Y-144918442D01*
X153660754Y-144918443D01*
X153569886Y-145100930D01*
X153569883Y-145100936D01*
X153514097Y-145297007D01*
X153514096Y-145297010D01*
X153495287Y-145499999D01*
X96000000Y-145499999D01*
X96000000Y-145050000D01*
X97169479Y-145050000D01*
X97178460Y-145100936D01*
X97189412Y-145163044D01*
X97189414Y-145163050D01*
X97246803Y-145262451D01*
X97246805Y-145262453D01*
X97246806Y-145262455D01*
X97334739Y-145336240D01*
X97442606Y-145375500D01*
X97442608Y-145375500D01*
X97557392Y-145375500D01*
X97557394Y-145375500D01*
X97665261Y-145336240D01*
X97753194Y-145262455D01*
X97810588Y-145163045D01*
X97830521Y-145050000D01*
X97810588Y-144936955D01*
X97799902Y-144918447D01*
X97753196Y-144837548D01*
X97753195Y-144837546D01*
X97753194Y-144837545D01*
X97753192Y-144837543D01*
X97753191Y-144837542D01*
X97665262Y-144763761D01*
X97665261Y-144763760D01*
X97665258Y-144763759D01*
X97665255Y-144763757D01*
X97557396Y-144724500D01*
X97557394Y-144724500D01*
X97442606Y-144724500D01*
X97442605Y-144724500D01*
X97334740Y-144763759D01*
X97246805Y-144837546D01*
X97246803Y-144837548D01*
X97189414Y-144936949D01*
X97189412Y-144936955D01*
X97169479Y-145050000D01*
X96000000Y-145050000D01*
X96000000Y-142999996D01*
X153867897Y-142999996D01*
X153867897Y-143000003D01*
X153886250Y-143162899D01*
X153886251Y-143162905D01*
X153940397Y-143317647D01*
X153940398Y-143317648D01*
X154027619Y-143456459D01*
X154143541Y-143572381D01*
X154282352Y-143659602D01*
X154437092Y-143713748D01*
X154437098Y-143713748D01*
X154437100Y-143713749D01*
X154599996Y-143732103D01*
X154600000Y-143732103D01*
X154600004Y-143732103D01*
X154762899Y-143713749D01*
X154762898Y-143713749D01*
X154762908Y-143713748D01*
X154917648Y-143659602D01*
X155056459Y-143572381D01*
X155172381Y-143456459D01*
X155259602Y-143317648D01*
X155313748Y-143162908D01*
X155332103Y-143000000D01*
X155313748Y-142837092D01*
X155259602Y-142682352D01*
X155172381Y-142543541D01*
X155056459Y-142427619D01*
X154917647Y-142340397D01*
X154762905Y-142286251D01*
X154762899Y-142286250D01*
X154600004Y-142267897D01*
X154599996Y-142267897D01*
X154437100Y-142286250D01*
X154437094Y-142286251D01*
X154282352Y-142340397D01*
X154143540Y-142427619D01*
X154027619Y-142543540D01*
X153940397Y-142682352D01*
X153886251Y-142837094D01*
X153886250Y-142837100D01*
X153867897Y-142999996D01*
X96000000Y-142999996D01*
X96000000Y-141999999D01*
X104569479Y-141999999D01*
X104569479Y-142000000D01*
X104589412Y-142113044D01*
X104589414Y-142113050D01*
X104646803Y-142212451D01*
X104646805Y-142212453D01*
X104646806Y-142212455D01*
X104734739Y-142286240D01*
X104734743Y-142286241D01*
X104734744Y-142286242D01*
X104842603Y-142325499D01*
X104842606Y-142325500D01*
X104842608Y-142325500D01*
X104957392Y-142325500D01*
X104957394Y-142325500D01*
X105065261Y-142286240D01*
X105130484Y-142231510D01*
X105194492Y-142203498D01*
X105210190Y-142202500D01*
X108840279Y-142202500D01*
X108840280Y-142202500D01*
X108914707Y-142171671D01*
X110086382Y-140999996D01*
X153867897Y-140999996D01*
X153867897Y-141000003D01*
X153886250Y-141162899D01*
X153886251Y-141162905D01*
X153940397Y-141317647D01*
X153940398Y-141317648D01*
X154027619Y-141456459D01*
X154143541Y-141572381D01*
X154282352Y-141659602D01*
X154437092Y-141713748D01*
X154437098Y-141713748D01*
X154437100Y-141713749D01*
X154599996Y-141732103D01*
X154600000Y-141732103D01*
X154600004Y-141732103D01*
X154757978Y-141714303D01*
X154762908Y-141713748D01*
X154917648Y-141659602D01*
X155056459Y-141572381D01*
X155172381Y-141456459D01*
X155259602Y-141317648D01*
X155313748Y-141162908D01*
X155332103Y-141000000D01*
X155313748Y-140837092D01*
X155270928Y-140714722D01*
X155267367Y-140644944D01*
X155300287Y-140586089D01*
X160362408Y-135523971D01*
X161172500Y-135523971D01*
X161172500Y-135676029D01*
X161211856Y-135822907D01*
X161211857Y-135822910D01*
X161265296Y-135915468D01*
X161287885Y-135954593D01*
X161395407Y-136062115D01*
X161487968Y-136115555D01*
X161527089Y-136138142D01*
X161527090Y-136138142D01*
X161527093Y-136138144D01*
X161673971Y-136177500D01*
X161673974Y-136177500D01*
X162726026Y-136177500D01*
X162726029Y-136177500D01*
X162872907Y-136138144D01*
X163004593Y-136062115D01*
X163112115Y-135954593D01*
X163188144Y-135822907D01*
X163227500Y-135676029D01*
X163227500Y-135523971D01*
X163188144Y-135377093D01*
X163112115Y-135245407D01*
X163004593Y-135137885D01*
X162965468Y-135115296D01*
X162872910Y-135061857D01*
X162872911Y-135061857D01*
X162853489Y-135056653D01*
X162726029Y-135022500D01*
X161673971Y-135022500D01*
X161546511Y-135056653D01*
X161527089Y-135061857D01*
X161395410Y-135137883D01*
X161395404Y-135137887D01*
X161287887Y-135245404D01*
X161287883Y-135245410D01*
X161211857Y-135377089D01*
X161211856Y-135377093D01*
X161172500Y-135523971D01*
X160362408Y-135523971D01*
X160646817Y-135239562D01*
X160677645Y-135165134D01*
X160677645Y-135084575D01*
X160677645Y-133542549D01*
X160697330Y-133475510D01*
X160750134Y-133429755D01*
X160819292Y-133419811D01*
X160840417Y-133425113D01*
X160842604Y-133425499D01*
X160842606Y-133425500D01*
X160842608Y-133425500D01*
X160957392Y-133425500D01*
X160957394Y-133425500D01*
X161065261Y-133386240D01*
X161130484Y-133331510D01*
X161194492Y-133303498D01*
X161210190Y-133302500D01*
X162189810Y-133302500D01*
X162256849Y-133322185D01*
X162269515Y-133331510D01*
X162334739Y-133386240D01*
X162334743Y-133386241D01*
X162334744Y-133386242D01*
X162442603Y-133425499D01*
X162442606Y-133425500D01*
X162442608Y-133425500D01*
X162557392Y-133425500D01*
X162557394Y-133425500D01*
X162665261Y-133386240D01*
X162753194Y-133312455D01*
X162810588Y-133213045D01*
X162830521Y-133100000D01*
X162810588Y-132986955D01*
X162796650Y-132962814D01*
X162753196Y-132887548D01*
X162753191Y-132887542D01*
X162665262Y-132813761D01*
X162665261Y-132813760D01*
X162665258Y-132813759D01*
X162665255Y-132813757D01*
X162557396Y-132774500D01*
X162557394Y-132774500D01*
X162442606Y-132774500D01*
X162442605Y-132774500D01*
X162334738Y-132813760D01*
X162269514Y-132868490D01*
X162205505Y-132896503D01*
X162189809Y-132897500D01*
X161210190Y-132897500D01*
X161143151Y-132877815D01*
X161130484Y-132868489D01*
X161065261Y-132813760D01*
X161065258Y-132813759D01*
X161065255Y-132813757D01*
X160957396Y-132774500D01*
X160957394Y-132774500D01*
X160857309Y-132774500D01*
X160790270Y-132754815D01*
X160749922Y-132712499D01*
X160728342Y-132675122D01*
X160728341Y-132675121D01*
X160728339Y-132675117D01*
X160728336Y-132675115D01*
X160728336Y-132675114D01*
X160640407Y-132601333D01*
X160640406Y-132601332D01*
X160640403Y-132601331D01*
X160640400Y-132601329D01*
X160532541Y-132562072D01*
X160532539Y-132562072D01*
X160417751Y-132562072D01*
X160417750Y-132562072D01*
X160309885Y-132601331D01*
X160221950Y-132675118D01*
X160221948Y-132675120D01*
X160164559Y-132774521D01*
X160164557Y-132774527D01*
X160144624Y-132887571D01*
X160144624Y-132887572D01*
X160164557Y-133000616D01*
X160164559Y-133000622D01*
X160221948Y-133100023D01*
X160221952Y-133100028D01*
X160228350Y-133105396D01*
X160267053Y-133163567D01*
X160272645Y-133200386D01*
X160272645Y-134989614D01*
X160252960Y-135056653D01*
X160236326Y-135077295D01*
X155013911Y-140299709D01*
X154952588Y-140333194D01*
X154885276Y-140329070D01*
X154762905Y-140286251D01*
X154762899Y-140286250D01*
X154600004Y-140267897D01*
X154599996Y-140267897D01*
X154437100Y-140286250D01*
X154437094Y-140286251D01*
X154282352Y-140340397D01*
X154143540Y-140427619D01*
X154027619Y-140543540D01*
X153940397Y-140682352D01*
X153886251Y-140837094D01*
X153886250Y-140837100D01*
X153867897Y-140999996D01*
X110086382Y-140999996D01*
X110996378Y-140090000D01*
X141889479Y-140090000D01*
X141893542Y-140113045D01*
X141909412Y-140203044D01*
X141909414Y-140203050D01*
X141966803Y-140302451D01*
X141966808Y-140302457D01*
X141994270Y-140325500D01*
X142054739Y-140376240D01*
X142162606Y-140415500D01*
X142162608Y-140415500D01*
X142277392Y-140415500D01*
X142277394Y-140415500D01*
X142385261Y-140376240D01*
X142473194Y-140302455D01*
X142530588Y-140203045D01*
X142550521Y-140090000D01*
X142530588Y-139976955D01*
X142478623Y-139886949D01*
X142473196Y-139877548D01*
X142473195Y-139877546D01*
X142473194Y-139877545D01*
X142473192Y-139877543D01*
X142473191Y-139877542D01*
X142385262Y-139803761D01*
X142385261Y-139803760D01*
X142385258Y-139803759D01*
X142385255Y-139803757D01*
X142277396Y-139764500D01*
X142277394Y-139764500D01*
X142162606Y-139764500D01*
X142162605Y-139764500D01*
X142054740Y-139803759D01*
X141966805Y-139877546D01*
X141966803Y-139877548D01*
X141909414Y-139976949D01*
X141909412Y-139976955D01*
X141905349Y-140000000D01*
X141889479Y-140090000D01*
X110996378Y-140090000D01*
X112586382Y-138499996D01*
X153867897Y-138499996D01*
X153867897Y-138500003D01*
X153886250Y-138662899D01*
X153886251Y-138662905D01*
X153940397Y-138817647D01*
X153960726Y-138850000D01*
X154027619Y-138956459D01*
X154143541Y-139072381D01*
X154282352Y-139159602D01*
X154437092Y-139213748D01*
X154437098Y-139213748D01*
X154437100Y-139213749D01*
X154599996Y-139232103D01*
X154600000Y-139232103D01*
X154600004Y-139232103D01*
X154762899Y-139213749D01*
X154762898Y-139213749D01*
X154762908Y-139213748D01*
X154917648Y-139159602D01*
X155056459Y-139072381D01*
X155172381Y-138956459D01*
X155259602Y-138817648D01*
X155313748Y-138662908D01*
X155323653Y-138575000D01*
X155332103Y-138500003D01*
X155332103Y-138499996D01*
X155313749Y-138337100D01*
X155313748Y-138337094D01*
X155313748Y-138337092D01*
X155259602Y-138182352D01*
X155172381Y-138043541D01*
X155056459Y-137927619D01*
X154917647Y-137840397D01*
X154762905Y-137786251D01*
X154762899Y-137786250D01*
X154600004Y-137767897D01*
X154599996Y-137767897D01*
X154437100Y-137786250D01*
X154437094Y-137786251D01*
X154282352Y-137840397D01*
X154143540Y-137927619D01*
X154027619Y-138043540D01*
X153940397Y-138182352D01*
X153886251Y-138337094D01*
X153886250Y-138337100D01*
X153867897Y-138499996D01*
X112586382Y-138499996D01*
X113871671Y-137214707D01*
X113902500Y-137140280D01*
X113902500Y-137059721D01*
X113902500Y-135523971D01*
X155072500Y-135523971D01*
X155072500Y-135676029D01*
X155111856Y-135822907D01*
X155111857Y-135822910D01*
X155165296Y-135915468D01*
X155187885Y-135954593D01*
X155295407Y-136062115D01*
X155387968Y-136115555D01*
X155427089Y-136138142D01*
X155427090Y-136138142D01*
X155427093Y-136138144D01*
X155573971Y-136177500D01*
X155573974Y-136177500D01*
X156626026Y-136177500D01*
X156626029Y-136177500D01*
X156772907Y-136138144D01*
X156904593Y-136062115D01*
X157012115Y-135954593D01*
X157088144Y-135822907D01*
X157127500Y-135676029D01*
X157127500Y-135523971D01*
X157088144Y-135377093D01*
X157012115Y-135245407D01*
X156904593Y-135137885D01*
X156865468Y-135115296D01*
X156772910Y-135061857D01*
X156772911Y-135061857D01*
X156753489Y-135056653D01*
X156626029Y-135022500D01*
X155573971Y-135022500D01*
X155446511Y-135056653D01*
X155427089Y-135061857D01*
X155295410Y-135137883D01*
X155295404Y-135137887D01*
X155187887Y-135245404D01*
X155187883Y-135245410D01*
X155111857Y-135377089D01*
X155111856Y-135377093D01*
X155072500Y-135523971D01*
X113902500Y-135523971D01*
X113902500Y-130612814D01*
X113922185Y-130545775D01*
X113946795Y-130517824D01*
X113953194Y-130512455D01*
X114010588Y-130413045D01*
X114030521Y-130300000D01*
X114010588Y-130186955D01*
X113953194Y-130087545D01*
X113953192Y-130087543D01*
X113953191Y-130087542D01*
X113865262Y-130013761D01*
X113865261Y-130013760D01*
X113865258Y-130013759D01*
X113865255Y-130013757D01*
X113757396Y-129974500D01*
X113757394Y-129974500D01*
X113642606Y-129974500D01*
X113642605Y-129974500D01*
X113534740Y-130013759D01*
X113446805Y-130087546D01*
X113446803Y-130087548D01*
X113389414Y-130186949D01*
X113389412Y-130186955D01*
X113369479Y-130299999D01*
X113369479Y-130300000D01*
X113389412Y-130413044D01*
X113389414Y-130413050D01*
X113446803Y-130512451D01*
X113446807Y-130512456D01*
X113453205Y-130517824D01*
X113491908Y-130575995D01*
X113497500Y-130612814D01*
X113497500Y-136964760D01*
X113477815Y-137031799D01*
X113461181Y-137052441D01*
X111687642Y-138825979D01*
X111626319Y-138859464D01*
X111556627Y-138854480D01*
X111500694Y-138812608D01*
X111477845Y-138759832D01*
X111460588Y-138661958D01*
X111460587Y-138661956D01*
X111460587Y-138661955D01*
X111449112Y-138642079D01*
X111432500Y-138580081D01*
X111432500Y-138494920D01*
X111449113Y-138432920D01*
X111460588Y-138413045D01*
X111480521Y-138300000D01*
X111460588Y-138186955D01*
X111460587Y-138186953D01*
X111460587Y-138186952D01*
X111449112Y-138167076D01*
X111432500Y-138105078D01*
X111432500Y-138019917D01*
X111449113Y-137957917D01*
X111460588Y-137938042D01*
X111480521Y-137824997D01*
X111460588Y-137711952D01*
X111446786Y-137688047D01*
X111430637Y-137636749D01*
X111429881Y-137628029D01*
X111429276Y-137622446D01*
X111429275Y-137622441D01*
X111429272Y-137622410D01*
X111429129Y-137621309D01*
X111428726Y-137618446D01*
X111427101Y-137607765D01*
X111426637Y-137604927D01*
X110716495Y-133533442D01*
X110713207Y-133519249D01*
X110704792Y-133490278D01*
X110697961Y-133466760D01*
X110697955Y-133466746D01*
X110680889Y-133430104D01*
X110680881Y-133430090D01*
X110626912Y-133349319D01*
X110626906Y-133349312D01*
X110590358Y-133312764D01*
X110590351Y-133312758D01*
X110509573Y-133258784D01*
X110461809Y-133239000D01*
X110461801Y-133238998D01*
X110366511Y-133220043D01*
X110364001Y-133219671D01*
X110360716Y-133219138D01*
X110357348Y-133218544D01*
X110345243Y-133217950D01*
X110340673Y-133217500D01*
X110340671Y-133217500D01*
X109899000Y-133217500D01*
X109895890Y-133217806D01*
X109873163Y-133220044D01*
X109873144Y-133220047D01*
X109862738Y-133222117D01*
X109838547Y-133224500D01*
X109837240Y-133224500D01*
X109770201Y-133204815D01*
X109749559Y-133188181D01*
X108739708Y-132178330D01*
X108739707Y-132178329D01*
X108665280Y-132147500D01*
X108385190Y-132147500D01*
X108318151Y-132127815D01*
X108305484Y-132118489D01*
X108240262Y-132063761D01*
X108240261Y-132063760D01*
X108240258Y-132063759D01*
X108240255Y-132063757D01*
X108132396Y-132024500D01*
X108132394Y-132024500D01*
X108017606Y-132024500D01*
X108017605Y-132024500D01*
X107909740Y-132063759D01*
X107821805Y-132137546D01*
X107821803Y-132137548D01*
X107764414Y-132236949D01*
X107764412Y-132236955D01*
X107744479Y-132349999D01*
X107744479Y-132350000D01*
X107764412Y-132463044D01*
X107764414Y-132463050D01*
X107821803Y-132562451D01*
X107821808Y-132562457D01*
X107844516Y-132581511D01*
X107909739Y-132636240D01*
X107909743Y-132636241D01*
X107909744Y-132636242D01*
X108016556Y-132675118D01*
X108017606Y-132675500D01*
X108017608Y-132675500D01*
X108132392Y-132675500D01*
X108132394Y-132675500D01*
X108240261Y-132636240D01*
X108305484Y-132581510D01*
X108369492Y-132553498D01*
X108385190Y-132552500D01*
X108489760Y-132552500D01*
X108556799Y-132572185D01*
X108577441Y-132588819D01*
X109458160Y-133469538D01*
X109491645Y-133530861D01*
X109492554Y-133539324D01*
X109492595Y-133539317D01*
X109515616Y-133669873D01*
X109517500Y-133691406D01*
X109517500Y-133808596D01*
X109515616Y-133830129D01*
X109494479Y-133949999D01*
X109494479Y-133950000D01*
X109515616Y-134069873D01*
X109517500Y-134091406D01*
X109517500Y-136733521D01*
X109519042Y-136753672D01*
X109519044Y-136753694D01*
X109530561Y-136828531D01*
X109530562Y-136828537D01*
X109545351Y-136872107D01*
X109545352Y-136872109D01*
X109567854Y-136913132D01*
X109573686Y-136926923D01*
X109574258Y-136926695D01*
X109577552Y-136934924D01*
X109577553Y-136934928D01*
X109580283Y-136939656D01*
X109580286Y-136939664D01*
X109623225Y-137014037D01*
X109637954Y-137054505D01*
X109642179Y-137078467D01*
X109642179Y-137121531D01*
X109637954Y-137145493D01*
X109623226Y-137185959D01*
X109588447Y-137246201D01*
X109588446Y-137246204D01*
X109575555Y-137268531D01*
X109571230Y-137276820D01*
X109555679Y-137302448D01*
X109555677Y-137302451D01*
X109539001Y-137345337D01*
X109538998Y-137345346D01*
X109520045Y-137440627D01*
X109520045Y-137440630D01*
X109517500Y-137466477D01*
X109517500Y-139050999D01*
X109520045Y-139076846D01*
X109520045Y-139076849D01*
X109538998Y-139172130D01*
X109539000Y-139172138D01*
X109558784Y-139219902D01*
X109612758Y-139300680D01*
X109612764Y-139300687D01*
X109649312Y-139337235D01*
X109649319Y-139337241D01*
X109730097Y-139391215D01*
X109733347Y-139392561D01*
X109777862Y-139411000D01*
X109873150Y-139429954D01*
X109899000Y-139432500D01*
X109899001Y-139432500D01*
X110674094Y-139432500D01*
X110678788Y-139432333D01*
X110683485Y-139432167D01*
X110718699Y-139429664D01*
X110728043Y-139428665D01*
X110731305Y-139428199D01*
X110744061Y-139425444D01*
X110749593Y-139424250D01*
X110749597Y-139424248D01*
X110749624Y-139424243D01*
X110764666Y-139419861D01*
X110834532Y-139420007D01*
X110893231Y-139457905D01*
X110922123Y-139521521D01*
X110912034Y-139590659D01*
X110887029Y-139626592D01*
X108752441Y-141761181D01*
X108691118Y-141794666D01*
X108664760Y-141797500D01*
X105210190Y-141797500D01*
X105143151Y-141777815D01*
X105130484Y-141768489D01*
X105065262Y-141713761D01*
X105065261Y-141713760D01*
X105065258Y-141713759D01*
X105065255Y-141713757D01*
X104957396Y-141674500D01*
X104957394Y-141674500D01*
X104842606Y-141674500D01*
X104842605Y-141674500D01*
X104734740Y-141713759D01*
X104646805Y-141787546D01*
X104646803Y-141787548D01*
X104589414Y-141886949D01*
X104589412Y-141886955D01*
X104569479Y-141999999D01*
X96000000Y-141999999D01*
X96000000Y-139999999D01*
X104569479Y-139999999D01*
X104569479Y-140000000D01*
X104589412Y-140113044D01*
X104589414Y-140113050D01*
X104646803Y-140212451D01*
X104646805Y-140212453D01*
X104646806Y-140212455D01*
X104734739Y-140286240D01*
X104734743Y-140286241D01*
X104734744Y-140286242D01*
X104779295Y-140302457D01*
X104842606Y-140325500D01*
X104842608Y-140325500D01*
X104957392Y-140325500D01*
X104957394Y-140325500D01*
X105065261Y-140286240D01*
X105153194Y-140212455D01*
X105210588Y-140113045D01*
X105230521Y-140000000D01*
X105210588Y-139886955D01*
X105205155Y-139877545D01*
X105153196Y-139787548D01*
X105153195Y-139787546D01*
X105153194Y-139787545D01*
X105153192Y-139787543D01*
X105153191Y-139787542D01*
X105065262Y-139713761D01*
X105065261Y-139713760D01*
X105065258Y-139713759D01*
X105065255Y-139713757D01*
X104957396Y-139674500D01*
X104957394Y-139674500D01*
X104842606Y-139674500D01*
X104842605Y-139674500D01*
X104734740Y-139713759D01*
X104646805Y-139787546D01*
X104646803Y-139787548D01*
X104589414Y-139886949D01*
X104589412Y-139886955D01*
X104569479Y-139999999D01*
X96000000Y-139999999D01*
X96000000Y-137824997D01*
X107419479Y-137824997D01*
X107439411Y-137938039D01*
X107439412Y-137938041D01*
X107439414Y-137938047D01*
X107475470Y-138000498D01*
X107491943Y-138068398D01*
X107475471Y-138124497D01*
X107439413Y-138186951D01*
X107439412Y-138186955D01*
X107419479Y-138300000D01*
X107439411Y-138413042D01*
X107439412Y-138413044D01*
X107439414Y-138413050D01*
X107497120Y-138513000D01*
X107513593Y-138580900D01*
X107497120Y-138637000D01*
X107439414Y-138736949D01*
X107439412Y-138736955D01*
X107419479Y-138849999D01*
X107419479Y-138850000D01*
X107439412Y-138963044D01*
X107439414Y-138963050D01*
X107496803Y-139062451D01*
X107496805Y-139062453D01*
X107496806Y-139062455D01*
X107584739Y-139136240D01*
X107692606Y-139175500D01*
X107692608Y-139175500D01*
X107807392Y-139175500D01*
X107807394Y-139175500D01*
X107915261Y-139136240D01*
X108003194Y-139062455D01*
X108060588Y-138963045D01*
X108080521Y-138850000D01*
X108060588Y-138736955D01*
X108003194Y-138637545D01*
X108003192Y-138637543D01*
X108002879Y-138637001D01*
X107986406Y-138569100D01*
X108002879Y-138512999D01*
X108003192Y-138512456D01*
X108003194Y-138512455D01*
X108060588Y-138413045D01*
X108080521Y-138300000D01*
X108060588Y-138186955D01*
X108057930Y-138182352D01*
X108024529Y-138124498D01*
X108008056Y-138056598D01*
X108024529Y-138000498D01*
X108060588Y-137938042D01*
X108080521Y-137824997D01*
X108060588Y-137711952D01*
X108028258Y-137655955D01*
X108003196Y-137612545D01*
X108003195Y-137612543D01*
X108003194Y-137612542D01*
X108003192Y-137612540D01*
X108003191Y-137612539D01*
X107915262Y-137538758D01*
X107915261Y-137538757D01*
X107915258Y-137538756D01*
X107915255Y-137538754D01*
X107807396Y-137499497D01*
X107807394Y-137499497D01*
X107692606Y-137499497D01*
X107692605Y-137499497D01*
X107584740Y-137538756D01*
X107496805Y-137612543D01*
X107496803Y-137612545D01*
X107439414Y-137711946D01*
X107439412Y-137711952D01*
X107419479Y-137824997D01*
X96000000Y-137824997D01*
X96000000Y-137000000D01*
X108119479Y-137000000D01*
X108130009Y-137059721D01*
X108139412Y-137113044D01*
X108139414Y-137113050D01*
X108196803Y-137212451D01*
X108196808Y-137212457D01*
X108199491Y-137214708D01*
X108284739Y-137286240D01*
X108284743Y-137286241D01*
X108284744Y-137286242D01*
X108392603Y-137325499D01*
X108392606Y-137325500D01*
X108392608Y-137325500D01*
X108507392Y-137325500D01*
X108507394Y-137325500D01*
X108615261Y-137286240D01*
X108703194Y-137212455D01*
X108760588Y-137113045D01*
X108780521Y-137000000D01*
X108760588Y-136886955D01*
X108726861Y-136828538D01*
X108703196Y-136787548D01*
X108703195Y-136787546D01*
X108703194Y-136787545D01*
X108703192Y-136787543D01*
X108703191Y-136787542D01*
X108615262Y-136713761D01*
X108615261Y-136713760D01*
X108615258Y-136713759D01*
X108615255Y-136713757D01*
X108507396Y-136674500D01*
X108507394Y-136674500D01*
X108392606Y-136674500D01*
X108392605Y-136674500D01*
X108284740Y-136713759D01*
X108196805Y-136787546D01*
X108196803Y-136787548D01*
X108139414Y-136886949D01*
X108139412Y-136886955D01*
X108132365Y-136926923D01*
X108119479Y-137000000D01*
X96000000Y-137000000D01*
X96000000Y-136499999D01*
X96669479Y-136499999D01*
X96669479Y-136500000D01*
X96689412Y-136613044D01*
X96689414Y-136613050D01*
X96746803Y-136712451D01*
X96746808Y-136712457D01*
X96748360Y-136713759D01*
X96834739Y-136786240D01*
X96834743Y-136786241D01*
X96834744Y-136786242D01*
X96942603Y-136825499D01*
X96942606Y-136825500D01*
X96942608Y-136825500D01*
X97057392Y-136825500D01*
X97057394Y-136825500D01*
X97165261Y-136786240D01*
X97253194Y-136712455D01*
X97310588Y-136613045D01*
X97330521Y-136500000D01*
X97310588Y-136386955D01*
X97310584Y-136386948D01*
X97307942Y-136379689D01*
X97303509Y-136309960D01*
X97336780Y-136249596D01*
X100021672Y-133564707D01*
X100052500Y-133490279D01*
X100052500Y-133409720D01*
X100052500Y-132962814D01*
X100072185Y-132895775D01*
X100096795Y-132867824D01*
X100103194Y-132862455D01*
X100130881Y-132814500D01*
X100181448Y-132766284D01*
X100238268Y-132752500D01*
X103189810Y-132752500D01*
X103256849Y-132772185D01*
X103269515Y-132781510D01*
X103334739Y-132836240D01*
X103334743Y-132836241D01*
X103334744Y-132836242D01*
X103421516Y-132867824D01*
X103442606Y-132875500D01*
X103442608Y-132875500D01*
X103557392Y-132875500D01*
X103557394Y-132875500D01*
X103665261Y-132836240D01*
X103753194Y-132762455D01*
X103810588Y-132663045D01*
X103830521Y-132550000D01*
X103810588Y-132436955D01*
X103760384Y-132349999D01*
X103753196Y-132337548D01*
X103753191Y-132337542D01*
X103665262Y-132263761D01*
X103665261Y-132263760D01*
X103665258Y-132263759D01*
X103665255Y-132263757D01*
X103557396Y-132224500D01*
X103557394Y-132224500D01*
X103442606Y-132224500D01*
X103442605Y-132224500D01*
X103334738Y-132263760D01*
X103269514Y-132318490D01*
X103205505Y-132346503D01*
X103189809Y-132347500D01*
X99992451Y-132347500D01*
X99950042Y-132340022D01*
X99907396Y-132324500D01*
X99907394Y-132324500D01*
X99792606Y-132324500D01*
X99792605Y-132324500D01*
X99684740Y-132363759D01*
X99596805Y-132437546D01*
X99596803Y-132437548D01*
X99539414Y-132536949D01*
X99539412Y-132536955D01*
X99519479Y-132649999D01*
X99519479Y-132650000D01*
X99539412Y-132763044D01*
X99539414Y-132763050D01*
X99596803Y-132862451D01*
X99596807Y-132862456D01*
X99603205Y-132867824D01*
X99641908Y-132925995D01*
X99647500Y-132962814D01*
X99647500Y-133314759D01*
X99627815Y-133381798D01*
X99611180Y-133402440D01*
X96885293Y-136128329D01*
X96856810Y-136156811D01*
X96828328Y-136185293D01*
X96818451Y-136209138D01*
X96783598Y-136256672D01*
X96746805Y-136287545D01*
X96689414Y-136386949D01*
X96689412Y-136386955D01*
X96669479Y-136499999D01*
X96000000Y-136499999D01*
X96000000Y-127850000D01*
X109269479Y-127850000D01*
X109286231Y-127945007D01*
X109289412Y-127963044D01*
X109289414Y-127963050D01*
X109346803Y-128062451D01*
X109346807Y-128062456D01*
X109353205Y-128067824D01*
X109391908Y-128125995D01*
X109397500Y-128162814D01*
X109397500Y-128609720D01*
X109397500Y-128690280D01*
X109428329Y-128764707D01*
X109428330Y-128764708D01*
X112411181Y-131747559D01*
X112444666Y-131808882D01*
X112447500Y-131835240D01*
X112447500Y-132887185D01*
X112427815Y-132954224D01*
X112403206Y-132982174D01*
X112396806Y-132987543D01*
X112339414Y-133086949D01*
X112339412Y-133086955D01*
X112329607Y-133142564D01*
X112319479Y-133200000D01*
X112339362Y-133312764D01*
X112339412Y-133313044D01*
X112339414Y-133313050D01*
X112396803Y-133412451D01*
X112396805Y-133412453D01*
X112396806Y-133412455D01*
X112484739Y-133486240D01*
X112592606Y-133525500D01*
X112592608Y-133525500D01*
X112707392Y-133525500D01*
X112707394Y-133525500D01*
X112815261Y-133486240D01*
X112903194Y-133412455D01*
X112960588Y-133313045D01*
X112980521Y-133200000D01*
X112960588Y-133086955D01*
X112910740Y-133000616D01*
X112903193Y-132987543D01*
X112896794Y-132982174D01*
X112858092Y-132924003D01*
X112852500Y-132887185D01*
X112852500Y-131659721D01*
X112852500Y-131659720D01*
X112821671Y-131585293D01*
X112764707Y-131528329D01*
X109936377Y-128699999D01*
X121245225Y-128699999D01*
X121245225Y-128700000D01*
X121264287Y-128917884D01*
X121264289Y-128917894D01*
X121320894Y-129129150D01*
X121320898Y-129129159D01*
X121413333Y-129327387D01*
X121456874Y-129389571D01*
X122100000Y-128746445D01*
X122100000Y-128752661D01*
X122127259Y-128854394D01*
X122179920Y-128945606D01*
X122254394Y-129020080D01*
X122345606Y-129072741D01*
X122447339Y-129100000D01*
X122453553Y-129100000D01*
X121810427Y-129743124D01*
X121872612Y-129786666D01*
X122070840Y-129879101D01*
X122070849Y-129879105D01*
X122282105Y-129935710D01*
X122282115Y-129935712D01*
X122499999Y-129954775D01*
X122500001Y-129954775D01*
X122717884Y-129935712D01*
X122717894Y-129935710D01*
X122929150Y-129879105D01*
X122929164Y-129879100D01*
X123127383Y-129786669D01*
X123127385Y-129786668D01*
X123189571Y-129743124D01*
X122546448Y-129100000D01*
X122552661Y-129100000D01*
X122654394Y-129072741D01*
X122745606Y-129020080D01*
X122820080Y-128945606D01*
X122872741Y-128854394D01*
X122900000Y-128752661D01*
X122900000Y-128746446D01*
X123543124Y-129389570D01*
X123586668Y-129327385D01*
X123586669Y-129327383D01*
X123679100Y-129129164D01*
X123679105Y-129129150D01*
X123735710Y-128917894D01*
X123735712Y-128917884D01*
X123754775Y-128700000D01*
X129617666Y-128700000D01*
X129636947Y-128883448D01*
X129636948Y-128883451D01*
X129693945Y-129058871D01*
X129693948Y-129058878D01*
X129786177Y-129218623D01*
X129909603Y-129355702D01*
X130058833Y-129464124D01*
X130227344Y-129539150D01*
X130227347Y-129539150D01*
X130227348Y-129539151D01*
X130256183Y-129545279D01*
X130407771Y-129577500D01*
X130592229Y-129577500D01*
X130772656Y-129539150D01*
X130941167Y-129464124D01*
X131090397Y-129355702D01*
X131213823Y-129218623D01*
X131306052Y-129058878D01*
X131363053Y-128883448D01*
X131382334Y-128700000D01*
X131363053Y-128516552D01*
X131357675Y-128499999D01*
X151369479Y-128499999D01*
X151369479Y-128500000D01*
X151389412Y-128613044D01*
X151389414Y-128613050D01*
X151446803Y-128712451D01*
X151446805Y-128712453D01*
X151446806Y-128712455D01*
X151534739Y-128786240D01*
X151642606Y-128825500D01*
X151642608Y-128825500D01*
X151757392Y-128825500D01*
X151757394Y-128825500D01*
X151865261Y-128786240D01*
X151953194Y-128712455D01*
X152010588Y-128613045D01*
X152030521Y-128500000D01*
X152010588Y-128386955D01*
X152006526Y-128379920D01*
X151953193Y-128287543D01*
X151946794Y-128282174D01*
X151908092Y-128224003D01*
X151902500Y-128187185D01*
X151902500Y-127369553D01*
X151922185Y-127302514D01*
X151938815Y-127281876D01*
X151945216Y-127275475D01*
X152006538Y-127241991D01*
X152076230Y-127246975D01*
X152132163Y-127288847D01*
X152140283Y-127301157D01*
X152146803Y-127312451D01*
X152146808Y-127312457D01*
X152153643Y-127318192D01*
X152234739Y-127386240D01*
X152234743Y-127386241D01*
X152234744Y-127386242D01*
X152277949Y-127401967D01*
X152342606Y-127425500D01*
X152342608Y-127425500D01*
X152457392Y-127425500D01*
X152457394Y-127425500D01*
X152522051Y-127401966D01*
X152591777Y-127397536D01*
X152652833Y-127431506D01*
X152685830Y-127493093D01*
X152686575Y-127496955D01*
X152689412Y-127513044D01*
X152689414Y-127513050D01*
X152746803Y-127612451D01*
X152746804Y-127612452D01*
X152746806Y-127612455D01*
X152806396Y-127662457D01*
X152817167Y-127671495D01*
X152855869Y-127729666D01*
X152856977Y-127799527D01*
X152833532Y-127839768D01*
X152835114Y-127840825D01*
X152828328Y-127850980D01*
X152796665Y-127927418D01*
X152761814Y-127974949D01*
X152746807Y-127987541D01*
X152689414Y-128086949D01*
X152689412Y-128086955D01*
X152669479Y-128199999D01*
X152669479Y-128200000D01*
X152689412Y-128313044D01*
X152689414Y-128313050D01*
X152746803Y-128412451D01*
X152746805Y-128412453D01*
X152746806Y-128412455D01*
X152834739Y-128486240D01*
X152834743Y-128486241D01*
X152834744Y-128486242D01*
X152918010Y-128516548D01*
X152942606Y-128525500D01*
X152942608Y-128525500D01*
X153057392Y-128525500D01*
X153057394Y-128525500D01*
X153165261Y-128486240D01*
X153253194Y-128412455D01*
X153310588Y-128313045D01*
X153330521Y-128200000D01*
X153310588Y-128086955D01*
X153310585Y-128086949D01*
X153304913Y-128077124D01*
X153288440Y-128009224D01*
X153311293Y-127943197D01*
X153324619Y-127927444D01*
X153412295Y-127839768D01*
X153468456Y-127783607D01*
X153529778Y-127750123D01*
X153599470Y-127755107D01*
X153655403Y-127796979D01*
X153678252Y-127849755D01*
X153689412Y-127913045D01*
X153689414Y-127913050D01*
X153746803Y-128012451D01*
X153746805Y-128012453D01*
X153746806Y-128012455D01*
X153834739Y-128086240D01*
X153834743Y-128086241D01*
X153834744Y-128086242D01*
X153836703Y-128086955D01*
X153942606Y-128125500D01*
X153942608Y-128125500D01*
X154057392Y-128125500D01*
X154057394Y-128125500D01*
X154165261Y-128086240D01*
X154253194Y-128012455D01*
X154310588Y-127913045D01*
X154330521Y-127800000D01*
X154332405Y-127789316D01*
X154335611Y-127789881D01*
X154350206Y-127740179D01*
X154366840Y-127719537D01*
X154606377Y-127480000D01*
X159239479Y-127480000D01*
X159254248Y-127563761D01*
X159259412Y-127593044D01*
X159259414Y-127593050D01*
X159316803Y-127692451D01*
X159316805Y-127692453D01*
X159316806Y-127692455D01*
X159404739Y-127766240D01*
X159404743Y-127766241D01*
X159404744Y-127766242D01*
X159512603Y-127805499D01*
X159512606Y-127805500D01*
X159512608Y-127805500D01*
X159627392Y-127805500D01*
X159627394Y-127805500D01*
X159735261Y-127766240D01*
X159823194Y-127692455D01*
X159880588Y-127593045D01*
X159900521Y-127480000D01*
X159899051Y-127471666D01*
X159890911Y-127425499D01*
X159880588Y-127366955D01*
X159863264Y-127336949D01*
X159823196Y-127267548D01*
X159823195Y-127267546D01*
X159823194Y-127267545D01*
X159823192Y-127267543D01*
X159823191Y-127267542D01*
X159745677Y-127202500D01*
X159735261Y-127193760D01*
X159735258Y-127193759D01*
X159735255Y-127193757D01*
X159627396Y-127154500D01*
X159627394Y-127154500D01*
X159512606Y-127154500D01*
X159512605Y-127154500D01*
X159404740Y-127193759D01*
X159316805Y-127267546D01*
X159316803Y-127267548D01*
X159259414Y-127366949D01*
X159259412Y-127366955D01*
X159239975Y-127477189D01*
X159239479Y-127480000D01*
X154606377Y-127480000D01*
X156807559Y-125278819D01*
X156868882Y-125245334D01*
X156895240Y-125242500D01*
X157359810Y-125242500D01*
X157426849Y-125262185D01*
X157439515Y-125271510D01*
X157504739Y-125326240D01*
X157504743Y-125326241D01*
X157504744Y-125326242D01*
X157612603Y-125365499D01*
X157612606Y-125365500D01*
X157612608Y-125365500D01*
X157727392Y-125365500D01*
X157727394Y-125365500D01*
X157835261Y-125326240D01*
X157923194Y-125252455D01*
X157980588Y-125153045D01*
X157998758Y-125049999D01*
X158839479Y-125049999D01*
X158839479Y-125050000D01*
X158859412Y-125163044D01*
X158859414Y-125163050D01*
X158916803Y-125262451D01*
X158916805Y-125262453D01*
X158916806Y-125262455D01*
X159004739Y-125336240D01*
X159112606Y-125375500D01*
X159112608Y-125375500D01*
X159227392Y-125375500D01*
X159227394Y-125375500D01*
X159335261Y-125336240D01*
X159423194Y-125262455D01*
X159480588Y-125163045D01*
X159500521Y-125050000D01*
X159480588Y-124936955D01*
X159474811Y-124926949D01*
X159423196Y-124837548D01*
X159423195Y-124837546D01*
X159423194Y-124837545D01*
X159423192Y-124837543D01*
X159423191Y-124837542D01*
X159335262Y-124763761D01*
X159335261Y-124763760D01*
X159335258Y-124763759D01*
X159335255Y-124763757D01*
X159227396Y-124724500D01*
X159227394Y-124724500D01*
X159112606Y-124724500D01*
X159112605Y-124724500D01*
X159004740Y-124763759D01*
X158916805Y-124837546D01*
X158916803Y-124837548D01*
X158859414Y-124936949D01*
X158859412Y-124936955D01*
X158839479Y-125049999D01*
X157998758Y-125049999D01*
X158000521Y-125040000D01*
X157980588Y-124926955D01*
X157972216Y-124912455D01*
X157923196Y-124827548D01*
X157923191Y-124827542D01*
X157835262Y-124753761D01*
X157835261Y-124753760D01*
X157835258Y-124753759D01*
X157835255Y-124753757D01*
X157727396Y-124714500D01*
X157727394Y-124714500D01*
X157612606Y-124714500D01*
X157612605Y-124714500D01*
X157504738Y-124753760D01*
X157439514Y-124808490D01*
X157375505Y-124836503D01*
X157359809Y-124837500D01*
X156719719Y-124837500D01*
X156645291Y-124868330D01*
X154075441Y-127438181D01*
X154014118Y-127471666D01*
X153987760Y-127474500D01*
X153942603Y-127474500D01*
X153935217Y-127477189D01*
X153865488Y-127481617D01*
X153804434Y-127447644D01*
X153771439Y-127386056D01*
X153776980Y-127316406D01*
X153805129Y-127272986D01*
X157139297Y-123938819D01*
X157200620Y-123905334D01*
X157226978Y-123902500D01*
X159164760Y-123902500D01*
X159231799Y-123922185D01*
X159252441Y-123938819D01*
X159533160Y-124219538D01*
X159566645Y-124280861D01*
X159567554Y-124289324D01*
X159567595Y-124289317D01*
X159589412Y-124413044D01*
X159589414Y-124413050D01*
X159646803Y-124512451D01*
X159646805Y-124512453D01*
X159646806Y-124512455D01*
X159734739Y-124586240D01*
X159734743Y-124586241D01*
X159734744Y-124586242D01*
X159736703Y-124586955D01*
X159842606Y-124625500D01*
X159842608Y-124625500D01*
X159957392Y-124625500D01*
X159957394Y-124625500D01*
X160065261Y-124586240D01*
X160153194Y-124512455D01*
X160210588Y-124413045D01*
X160230521Y-124300000D01*
X160210588Y-124186955D01*
X160153194Y-124087545D01*
X160153192Y-124087543D01*
X160153191Y-124087542D01*
X160065262Y-124013761D01*
X160065261Y-124013760D01*
X160065258Y-124013759D01*
X160065255Y-124013757D01*
X159957396Y-123974500D01*
X159957394Y-123974500D01*
X159912240Y-123974500D01*
X159845201Y-123954815D01*
X159824559Y-123938181D01*
X159723559Y-123837181D01*
X159690074Y-123775858D01*
X159695058Y-123706166D01*
X159736930Y-123650233D01*
X159802394Y-123625816D01*
X159811240Y-123625500D01*
X159829494Y-123625500D01*
X159829494Y-123627427D01*
X159831757Y-123627403D01*
X159831757Y-123625500D01*
X159957392Y-123625500D01*
X159957394Y-123625500D01*
X160065261Y-123586240D01*
X160153194Y-123512455D01*
X160210588Y-123413045D01*
X160230521Y-123300000D01*
X160210588Y-123186955D01*
X160167312Y-123111999D01*
X160150840Y-123044100D01*
X160167313Y-122988000D01*
X160210585Y-122913050D01*
X160210584Y-122913050D01*
X160210588Y-122913045D01*
X160230521Y-122800000D01*
X160210588Y-122686955D01*
X160153194Y-122587545D01*
X160153192Y-122587543D01*
X160153191Y-122587542D01*
X160065262Y-122513761D01*
X160065261Y-122513760D01*
X160065258Y-122513759D01*
X160065255Y-122513757D01*
X159957396Y-122474500D01*
X159957394Y-122474500D01*
X159842606Y-122474500D01*
X159842605Y-122474500D01*
X159734740Y-122513759D01*
X159646805Y-122587546D01*
X159646802Y-122587550D01*
X159589412Y-122686953D01*
X159580879Y-122735344D01*
X159549851Y-122797946D01*
X159546445Y-122801489D01*
X159440756Y-122907180D01*
X159379433Y-122940666D01*
X159353074Y-122943500D01*
X157258764Y-122943500D01*
X157191725Y-122923815D01*
X157145970Y-122871011D01*
X157136026Y-122801853D01*
X157165051Y-122738297D01*
X157171083Y-122731819D01*
X158462902Y-121440000D01*
X159971671Y-119931231D01*
X160002500Y-119856804D01*
X160002500Y-119776244D01*
X160002500Y-115612814D01*
X160022185Y-115545775D01*
X160046795Y-115517824D01*
X160053194Y-115512455D01*
X160110588Y-115413045D01*
X160130521Y-115300000D01*
X160110588Y-115186955D01*
X160104521Y-115176447D01*
X160053196Y-115087548D01*
X160053195Y-115087546D01*
X160053194Y-115087545D01*
X160053192Y-115087543D01*
X160053191Y-115087542D01*
X159965262Y-115013761D01*
X159965261Y-115013760D01*
X159965258Y-115013759D01*
X159965255Y-115013757D01*
X159857396Y-114974500D01*
X159857394Y-114974500D01*
X159742606Y-114974500D01*
X159742605Y-114974500D01*
X159634740Y-115013759D01*
X159546805Y-115087546D01*
X159546803Y-115087548D01*
X159489414Y-115186949D01*
X159489412Y-115186955D01*
X159473006Y-115280000D01*
X159469479Y-115300000D01*
X159485885Y-115393045D01*
X159489412Y-115413044D01*
X159489414Y-115413050D01*
X159546803Y-115512451D01*
X159546807Y-115512456D01*
X159553205Y-115517824D01*
X159591908Y-115575995D01*
X159597500Y-115612814D01*
X159597500Y-119681284D01*
X159577815Y-119748323D01*
X159561181Y-119768965D01*
X152868965Y-126461181D01*
X152807642Y-126494666D01*
X152781284Y-126497500D01*
X152194033Y-126497500D01*
X152119605Y-126528330D01*
X151528330Y-127119605D01*
X151497500Y-127194033D01*
X151497500Y-128187185D01*
X151477815Y-128254224D01*
X151453206Y-128282174D01*
X151446806Y-128287543D01*
X151389414Y-128386949D01*
X151389412Y-128386955D01*
X151369479Y-128499999D01*
X131357675Y-128499999D01*
X131306052Y-128341122D01*
X131213823Y-128181377D01*
X131090397Y-128044298D01*
X130953735Y-127945007D01*
X130941170Y-127935878D01*
X130941169Y-127935877D01*
X130941167Y-127935876D01*
X130772656Y-127860850D01*
X130772655Y-127860849D01*
X130772651Y-127860848D01*
X130592229Y-127822500D01*
X130407771Y-127822500D01*
X130227348Y-127860848D01*
X130227344Y-127860850D01*
X130110115Y-127913044D01*
X130058829Y-127935878D01*
X129909601Y-128044299D01*
X129786176Y-128181378D01*
X129693948Y-128341121D01*
X129693945Y-128341128D01*
X129646796Y-128486240D01*
X129636947Y-128516552D01*
X129617666Y-128700000D01*
X123754775Y-128700000D01*
X123754775Y-128699999D01*
X123735712Y-128482115D01*
X123735710Y-128482105D01*
X123679105Y-128270849D01*
X123679101Y-128270840D01*
X123586667Y-128072614D01*
X123586666Y-128072612D01*
X123543124Y-128010428D01*
X123543124Y-128010427D01*
X122900000Y-128653551D01*
X122900000Y-128647339D01*
X122872741Y-128545606D01*
X122820080Y-128454394D01*
X122745606Y-128379920D01*
X122654394Y-128327259D01*
X122552661Y-128300000D01*
X122546447Y-128300000D01*
X123189571Y-127656874D01*
X123127387Y-127613333D01*
X122929159Y-127520898D01*
X122929150Y-127520894D01*
X122717894Y-127464289D01*
X122717884Y-127464287D01*
X122500001Y-127445225D01*
X122499999Y-127445225D01*
X122282115Y-127464287D01*
X122282105Y-127464289D01*
X122070849Y-127520894D01*
X122070840Y-127520898D01*
X121872613Y-127613333D01*
X121810428Y-127656874D01*
X122453554Y-128300000D01*
X122447339Y-128300000D01*
X122345606Y-128327259D01*
X122254394Y-128379920D01*
X122179920Y-128454394D01*
X122127259Y-128545606D01*
X122100000Y-128647339D01*
X122100000Y-128653554D01*
X121456874Y-128010428D01*
X121413333Y-128072613D01*
X121320898Y-128270840D01*
X121320894Y-128270849D01*
X121264289Y-128482105D01*
X121264287Y-128482115D01*
X121245225Y-128699999D01*
X109936377Y-128699999D01*
X109838819Y-128602441D01*
X109805334Y-128541118D01*
X109802500Y-128514760D01*
X109802500Y-128162814D01*
X109822185Y-128095775D01*
X109846795Y-128067824D01*
X109853194Y-128062455D01*
X109910588Y-127963045D01*
X109930521Y-127850000D01*
X109910588Y-127736955D01*
X109910176Y-127736242D01*
X109853196Y-127637548D01*
X109853195Y-127637546D01*
X109853194Y-127637545D01*
X109853192Y-127637543D01*
X109853191Y-127637542D01*
X109765262Y-127563761D01*
X109765261Y-127563760D01*
X109765258Y-127563759D01*
X109765255Y-127563757D01*
X109657396Y-127524500D01*
X109657394Y-127524500D01*
X109542606Y-127524500D01*
X109542605Y-127524500D01*
X109434740Y-127563759D01*
X109346805Y-127637546D01*
X109346803Y-127637548D01*
X109289414Y-127736949D01*
X109289412Y-127736955D01*
X109277326Y-127805500D01*
X109269479Y-127850000D01*
X96000000Y-127850000D01*
X96000000Y-127450000D01*
X99319479Y-127450000D01*
X99332615Y-127524500D01*
X99339412Y-127563044D01*
X99339414Y-127563050D01*
X99396803Y-127662451D01*
X99396808Y-127662457D01*
X99425152Y-127686240D01*
X99484739Y-127736240D01*
X99484743Y-127736241D01*
X99484744Y-127736242D01*
X99592603Y-127775499D01*
X99592606Y-127775500D01*
X99592608Y-127775500D01*
X99707392Y-127775500D01*
X99707394Y-127775500D01*
X99815261Y-127736240D01*
X99903194Y-127662455D01*
X99960588Y-127563045D01*
X99980521Y-127450000D01*
X99960588Y-127336955D01*
X99949755Y-127318192D01*
X99903196Y-127237548D01*
X99903195Y-127237546D01*
X99903194Y-127237545D01*
X99903192Y-127237543D01*
X99903191Y-127237542D01*
X99815262Y-127163761D01*
X99815261Y-127163760D01*
X99815258Y-127163759D01*
X99815255Y-127163757D01*
X99707396Y-127124500D01*
X99707394Y-127124500D01*
X99592606Y-127124500D01*
X99592605Y-127124500D01*
X99484740Y-127163759D01*
X99396805Y-127237546D01*
X99396803Y-127237548D01*
X99339414Y-127336949D01*
X99339412Y-127336955D01*
X99327949Y-127401967D01*
X99319479Y-127450000D01*
X96000000Y-127450000D01*
X96000000Y-125300000D01*
X144219479Y-125300000D01*
X144231028Y-125365500D01*
X144239412Y-125413044D01*
X144239414Y-125413050D01*
X144296803Y-125512451D01*
X144296805Y-125512453D01*
X144296806Y-125512455D01*
X144384739Y-125586240D01*
X144492606Y-125625500D01*
X144492608Y-125625500D01*
X144607392Y-125625500D01*
X144607394Y-125625500D01*
X144715261Y-125586240D01*
X144803194Y-125512455D01*
X144860588Y-125413045D01*
X144880521Y-125300000D01*
X144860588Y-125186955D01*
X144841010Y-125153045D01*
X144803196Y-125087548D01*
X144803195Y-125087546D01*
X144803194Y-125087545D01*
X144803192Y-125087543D01*
X144803191Y-125087542D01*
X144715262Y-125013761D01*
X144715261Y-125013760D01*
X144715258Y-125013759D01*
X144715255Y-125013757D01*
X144607396Y-124974500D01*
X144607394Y-124974500D01*
X144492606Y-124974500D01*
X144492605Y-124974500D01*
X144384740Y-125013759D01*
X144296805Y-125087546D01*
X144296803Y-125087548D01*
X144239414Y-125186949D01*
X144239412Y-125186955D01*
X144227863Y-125252455D01*
X144219479Y-125300000D01*
X96000000Y-125300000D01*
X96000000Y-124700000D01*
X145119479Y-124700000D01*
X145130721Y-124763759D01*
X145139412Y-124813044D01*
X145139414Y-124813050D01*
X145196803Y-124912451D01*
X145196805Y-124912453D01*
X145196806Y-124912455D01*
X145284739Y-124986240D01*
X145284743Y-124986241D01*
X145284744Y-124986242D01*
X145360350Y-125013760D01*
X145392606Y-125025500D01*
X145392608Y-125025500D01*
X145507392Y-125025500D01*
X145507394Y-125025500D01*
X145615261Y-124986240D01*
X145703194Y-124912455D01*
X145760588Y-124813045D01*
X145780521Y-124700000D01*
X145760588Y-124586955D01*
X145760176Y-124586242D01*
X145703196Y-124487548D01*
X145703195Y-124487546D01*
X145703194Y-124487545D01*
X145703192Y-124487543D01*
X145703191Y-124487542D01*
X145615262Y-124413761D01*
X145615261Y-124413760D01*
X145615258Y-124413759D01*
X145615255Y-124413757D01*
X145507396Y-124374500D01*
X145507394Y-124374500D01*
X145392606Y-124374500D01*
X145392605Y-124374500D01*
X145284740Y-124413759D01*
X145196805Y-124487546D01*
X145196803Y-124487548D01*
X145139414Y-124586949D01*
X145139412Y-124586955D01*
X145119479Y-124700000D01*
X96000000Y-124700000D01*
X96000000Y-121822149D01*
X98549500Y-121822149D01*
X98549500Y-122077850D01*
X98575457Y-122275007D01*
X98582874Y-122331340D01*
X98649050Y-122578312D01*
X98649053Y-122578322D01*
X98746894Y-122814531D01*
X98746899Y-122814542D01*
X98874734Y-123035957D01*
X98874745Y-123035973D01*
X99030388Y-123238811D01*
X99030394Y-123238818D01*
X99211181Y-123419605D01*
X99211188Y-123419611D01*
X99332185Y-123512455D01*
X99414035Y-123575261D01*
X99414042Y-123575265D01*
X99635457Y-123703100D01*
X99635462Y-123703102D01*
X99635465Y-123703104D01*
X99871687Y-123800950D01*
X100118660Y-123867126D01*
X100372157Y-123900500D01*
X100372164Y-123900500D01*
X100627836Y-123900500D01*
X100627843Y-123900500D01*
X100881340Y-123867126D01*
X101128313Y-123800950D01*
X101364535Y-123703104D01*
X101585965Y-123575261D01*
X101788813Y-123419610D01*
X101969610Y-123238813D01*
X102125261Y-123035965D01*
X102253104Y-122814535D01*
X102350950Y-122578313D01*
X102417126Y-122331340D01*
X102450500Y-122077843D01*
X102450500Y-121822157D01*
X102417126Y-121568660D01*
X102350950Y-121321687D01*
X102253104Y-121085465D01*
X102253102Y-121085462D01*
X102253100Y-121085457D01*
X102125265Y-120864042D01*
X102125261Y-120864035D01*
X101969610Y-120661187D01*
X101969605Y-120661181D01*
X101788818Y-120480394D01*
X101788811Y-120480388D01*
X101585973Y-120324745D01*
X101585971Y-120324743D01*
X101585965Y-120324739D01*
X101585960Y-120324736D01*
X101585957Y-120324734D01*
X101364542Y-120196899D01*
X101364531Y-120196894D01*
X101128322Y-120099053D01*
X101128315Y-120099051D01*
X101128313Y-120099050D01*
X100881340Y-120032874D01*
X100825007Y-120025457D01*
X100627850Y-119999500D01*
X100627843Y-119999500D01*
X100372157Y-119999500D01*
X100372149Y-119999500D01*
X100146826Y-120029165D01*
X100118660Y-120032874D01*
X99871687Y-120099050D01*
X99871677Y-120099053D01*
X99635468Y-120196894D01*
X99635457Y-120196899D01*
X99414042Y-120324734D01*
X99414026Y-120324745D01*
X99211188Y-120480388D01*
X99211181Y-120480394D01*
X99030394Y-120661181D01*
X99030388Y-120661188D01*
X98874745Y-120864026D01*
X98874734Y-120864042D01*
X98746899Y-121085457D01*
X98746894Y-121085468D01*
X98649053Y-121321677D01*
X98649050Y-121321687D01*
X98614486Y-121450684D01*
X98582874Y-121568661D01*
X98549500Y-121822149D01*
X96000000Y-121822149D01*
X96000000Y-109322149D01*
X98549500Y-109322149D01*
X98549500Y-109577850D01*
X98569933Y-109733045D01*
X98582874Y-109831340D01*
X98646153Y-110067500D01*
X98649050Y-110078312D01*
X98649053Y-110078322D01*
X98746894Y-110314531D01*
X98746899Y-110314542D01*
X98874734Y-110535957D01*
X98874745Y-110535973D01*
X99030388Y-110738811D01*
X99030394Y-110738818D01*
X99211181Y-110919605D01*
X99211188Y-110919611D01*
X99323121Y-111005500D01*
X99414035Y-111075261D01*
X99414042Y-111075265D01*
X99635457Y-111203100D01*
X99635462Y-111203102D01*
X99635465Y-111203104D01*
X99871687Y-111300950D01*
X100118660Y-111367126D01*
X100372157Y-111400500D01*
X100372164Y-111400500D01*
X100627836Y-111400500D01*
X100627843Y-111400500D01*
X100881340Y-111367126D01*
X101128313Y-111300950D01*
X101364535Y-111203104D01*
X101585965Y-111075261D01*
X101788813Y-110919610D01*
X101969610Y-110738813D01*
X102125261Y-110535965D01*
X102253104Y-110314535D01*
X102350950Y-110078313D01*
X102417126Y-109831340D01*
X102450500Y-109577843D01*
X102450500Y-109322157D01*
X102423848Y-109119720D01*
X108187500Y-109119720D01*
X108187500Y-121565406D01*
X108187500Y-121645966D01*
X108218329Y-121720393D01*
X108218330Y-121720394D01*
X110146605Y-123648671D01*
X110146606Y-123648671D01*
X110146607Y-123648672D01*
X110199230Y-123670468D01*
X110199233Y-123670470D01*
X110199234Y-123670470D01*
X110221031Y-123679499D01*
X110221032Y-123679499D01*
X110221034Y-123679500D01*
X110221035Y-123679500D01*
X110221036Y-123679500D01*
X128680703Y-123679500D01*
X128680704Y-123679500D01*
X128755131Y-123648671D01*
X133536958Y-118866845D01*
X133598281Y-118833360D01*
X133624639Y-118830526D01*
X134617939Y-118830526D01*
X134617940Y-118830526D01*
X134692367Y-118799697D01*
X135572321Y-117919743D01*
X135627373Y-117889683D01*
X135627201Y-117889210D01*
X135630315Y-117888076D01*
X135633642Y-117886260D01*
X135637265Y-117885546D01*
X135637391Y-117885500D01*
X135637394Y-117885500D01*
X135745261Y-117846240D01*
X135833194Y-117772455D01*
X135846158Y-117750000D01*
X139989479Y-117750000D01*
X140006448Y-117846238D01*
X140009412Y-117863044D01*
X140009414Y-117863050D01*
X140066803Y-117962451D01*
X140066805Y-117962453D01*
X140066806Y-117962455D01*
X140154739Y-118036240D01*
X140154743Y-118036241D01*
X140154744Y-118036242D01*
X140226770Y-118062457D01*
X140262606Y-118075500D01*
X140262608Y-118075500D01*
X140377392Y-118075500D01*
X140377394Y-118075500D01*
X140485261Y-118036240D01*
X140573194Y-117962455D01*
X140630588Y-117863045D01*
X140650521Y-117750000D01*
X140630588Y-117636955D01*
X140588327Y-117563757D01*
X140573196Y-117537548D01*
X140573195Y-117537546D01*
X140573194Y-117537545D01*
X140573192Y-117537543D01*
X140573191Y-117537542D01*
X140485262Y-117463761D01*
X140485261Y-117463760D01*
X140485258Y-117463759D01*
X140485255Y-117463757D01*
X140377396Y-117424500D01*
X140377394Y-117424500D01*
X140262606Y-117424500D01*
X140262605Y-117424500D01*
X140154740Y-117463759D01*
X140066805Y-117537546D01*
X140066803Y-117537548D01*
X140009414Y-117636949D01*
X140009412Y-117636955D01*
X139989479Y-117750000D01*
X135846158Y-117750000D01*
X135890588Y-117673045D01*
X135910521Y-117560000D01*
X135890588Y-117446955D01*
X135856740Y-117388329D01*
X135833196Y-117347548D01*
X135833191Y-117347542D01*
X135745262Y-117273761D01*
X135745261Y-117273760D01*
X135745258Y-117273759D01*
X135745255Y-117273757D01*
X135637396Y-117234500D01*
X135637394Y-117234500D01*
X135522606Y-117234500D01*
X135522604Y-117234500D01*
X135414741Y-117273758D01*
X135414740Y-117273759D01*
X135409699Y-117277989D01*
X135345689Y-117305998D01*
X135276697Y-117294953D01*
X135250294Y-117277983D01*
X135245260Y-117273759D01*
X135137394Y-117234500D01*
X135022606Y-117234500D01*
X135022605Y-117234500D01*
X134914738Y-117273760D01*
X134849514Y-117328490D01*
X134785505Y-117356503D01*
X134769809Y-117357500D01*
X134124033Y-117357500D01*
X134049605Y-117388330D01*
X133510391Y-117927545D01*
X132985293Y-118452643D01*
X132954254Y-118483682D01*
X132923215Y-118514720D01*
X132916934Y-118522372D01*
X132762372Y-118676934D01*
X132754714Y-118683220D01*
X128476755Y-122961181D01*
X128415432Y-122994666D01*
X128389074Y-122997500D01*
X110685240Y-122997500D01*
X110618201Y-122977815D01*
X110597559Y-122961181D01*
X109156840Y-121520462D01*
X109123355Y-121459139D01*
X109122445Y-121450676D01*
X109122405Y-121450684D01*
X109120215Y-121438269D01*
X109100588Y-121326955D01*
X109043194Y-121227545D01*
X109043192Y-121227543D01*
X109043191Y-121227542D01*
X108955262Y-121153761D01*
X108955261Y-121153760D01*
X108955258Y-121153759D01*
X108955255Y-121153757D01*
X108847396Y-121114500D01*
X108847394Y-121114500D01*
X108732606Y-121114500D01*
X108721757Y-121114500D01*
X108721757Y-121111727D01*
X108668594Y-121105799D01*
X108614365Y-121061743D01*
X108592562Y-120995362D01*
X108592500Y-120991427D01*
X108592500Y-118889999D01*
X124769479Y-118889999D01*
X124769479Y-118890000D01*
X124789412Y-119003044D01*
X124789414Y-119003050D01*
X124846803Y-119102451D01*
X124846805Y-119102453D01*
X124846806Y-119102455D01*
X124934739Y-119176240D01*
X125042606Y-119215500D01*
X125042608Y-119215500D01*
X125157392Y-119215500D01*
X125157394Y-119215500D01*
X125265261Y-119176240D01*
X125353194Y-119102455D01*
X125410588Y-119003045D01*
X125430521Y-118890000D01*
X125410588Y-118776955D01*
X125358859Y-118687358D01*
X125353196Y-118677548D01*
X125353195Y-118677546D01*
X125353194Y-118677545D01*
X125353192Y-118677543D01*
X125353191Y-118677542D01*
X125265262Y-118603761D01*
X125265261Y-118603760D01*
X125265258Y-118603759D01*
X125265255Y-118603757D01*
X125157396Y-118564500D01*
X125157394Y-118564500D01*
X125042606Y-118564500D01*
X125042605Y-118564500D01*
X124934740Y-118603759D01*
X124846805Y-118677546D01*
X124846803Y-118677548D01*
X124789414Y-118776949D01*
X124789412Y-118776955D01*
X124769479Y-118889999D01*
X108592500Y-118889999D01*
X108592500Y-117849999D01*
X131369479Y-117849999D01*
X131369479Y-117850000D01*
X131389412Y-117963044D01*
X131389414Y-117963050D01*
X131446803Y-118062451D01*
X131446805Y-118062453D01*
X131446806Y-118062455D01*
X131534739Y-118136240D01*
X131534743Y-118136241D01*
X131534744Y-118136242D01*
X131545468Y-118140145D01*
X131642606Y-118175500D01*
X131642608Y-118175500D01*
X131757392Y-118175500D01*
X131757394Y-118175500D01*
X131865261Y-118136240D01*
X131953194Y-118062455D01*
X132010588Y-117963045D01*
X132030521Y-117850000D01*
X132010588Y-117736955D01*
X131973689Y-117673044D01*
X131953196Y-117637548D01*
X131953195Y-117637546D01*
X131953194Y-117637545D01*
X131953192Y-117637543D01*
X131953191Y-117637542D01*
X131865262Y-117563761D01*
X131865261Y-117563760D01*
X131865258Y-117563759D01*
X131865255Y-117563757D01*
X131757396Y-117524500D01*
X131757394Y-117524500D01*
X131642606Y-117524500D01*
X131642605Y-117524500D01*
X131534740Y-117563759D01*
X131446805Y-117637546D01*
X131446803Y-117637548D01*
X131389414Y-117736949D01*
X131389412Y-117736955D01*
X131369479Y-117849999D01*
X108592500Y-117849999D01*
X108592500Y-116710266D01*
X134503284Y-116710266D01*
X134662056Y-116765824D01*
X134829996Y-116784746D01*
X134830004Y-116784746D01*
X134997943Y-116765824D01*
X135156713Y-116710267D01*
X135156714Y-116710266D01*
X135503285Y-116710266D01*
X135662056Y-116765824D01*
X135829996Y-116784746D01*
X135830004Y-116784746D01*
X135997943Y-116765824D01*
X136156713Y-116710267D01*
X136156714Y-116710266D01*
X136503284Y-116710266D01*
X136662056Y-116765824D01*
X136829996Y-116784746D01*
X136830004Y-116784746D01*
X136997943Y-116765824D01*
X137156713Y-116710267D01*
X137156714Y-116710266D01*
X136830001Y-116383553D01*
X136830000Y-116383553D01*
X136503284Y-116710266D01*
X136156714Y-116710266D01*
X135830001Y-116383553D01*
X135830000Y-116383553D01*
X135503285Y-116710266D01*
X135156714Y-116710266D01*
X134830001Y-116383553D01*
X134830000Y-116383553D01*
X134503284Y-116710266D01*
X108592500Y-116710266D01*
X108592500Y-116029996D01*
X134075254Y-116029996D01*
X134075254Y-116030003D01*
X134094175Y-116197938D01*
X134094176Y-116197943D01*
X134149732Y-116356714D01*
X134476447Y-116030000D01*
X134456556Y-116010109D01*
X134730000Y-116010109D01*
X134730000Y-116049891D01*
X134745224Y-116086645D01*
X134773355Y-116114776D01*
X134810109Y-116130000D01*
X134849891Y-116130000D01*
X134886645Y-116114776D01*
X134914776Y-116086645D01*
X134930000Y-116049891D01*
X134930000Y-116030000D01*
X135183553Y-116030000D01*
X135330000Y-116176447D01*
X135476447Y-116030000D01*
X135456556Y-116010109D01*
X135730000Y-116010109D01*
X135730000Y-116049891D01*
X135745224Y-116086645D01*
X135773355Y-116114776D01*
X135810109Y-116130000D01*
X135849891Y-116130000D01*
X135886645Y-116114776D01*
X135914776Y-116086645D01*
X135930000Y-116049891D01*
X135930000Y-116030000D01*
X136183553Y-116030000D01*
X136330000Y-116176447D01*
X136476447Y-116030000D01*
X136456556Y-116010109D01*
X136730000Y-116010109D01*
X136730000Y-116049891D01*
X136745224Y-116086645D01*
X136773355Y-116114776D01*
X136810109Y-116130000D01*
X136849891Y-116130000D01*
X136886645Y-116114776D01*
X136914776Y-116086645D01*
X136930000Y-116049891D01*
X136930000Y-116029999D01*
X137183553Y-116029999D01*
X137183553Y-116030001D01*
X137510266Y-116356714D01*
X137510267Y-116356713D01*
X137565824Y-116197943D01*
X137584746Y-116030003D01*
X137584746Y-116029996D01*
X137565824Y-115862056D01*
X137510266Y-115703285D01*
X137183553Y-116029999D01*
X136930000Y-116029999D01*
X136930000Y-116010109D01*
X136914776Y-115973355D01*
X136886645Y-115945224D01*
X136849891Y-115930000D01*
X136810109Y-115930000D01*
X136773355Y-115945224D01*
X136745224Y-115973355D01*
X136730000Y-116010109D01*
X136456556Y-116010109D01*
X136330000Y-115883553D01*
X136183553Y-116030000D01*
X135930000Y-116030000D01*
X135930000Y-116010109D01*
X135914776Y-115973355D01*
X135886645Y-115945224D01*
X135849891Y-115930000D01*
X135810109Y-115930000D01*
X135773355Y-115945224D01*
X135745224Y-115973355D01*
X135730000Y-116010109D01*
X135456556Y-116010109D01*
X135330000Y-115883553D01*
X135183553Y-116030000D01*
X134930000Y-116030000D01*
X134930000Y-116010109D01*
X134914776Y-115973355D01*
X134886645Y-115945224D01*
X134849891Y-115930000D01*
X134810109Y-115930000D01*
X134773355Y-115945224D01*
X134745224Y-115973355D01*
X134730000Y-116010109D01*
X134456556Y-116010109D01*
X134149732Y-115703285D01*
X134094176Y-115862053D01*
X134094175Y-115862058D01*
X134075254Y-116029996D01*
X108592500Y-116029996D01*
X108592500Y-115530000D01*
X134683553Y-115530000D01*
X134830000Y-115676447D01*
X134976447Y-115530000D01*
X135683553Y-115530000D01*
X135830000Y-115676447D01*
X135976447Y-115530000D01*
X136683553Y-115530000D01*
X136830000Y-115676447D01*
X136976447Y-115530000D01*
X136830000Y-115383553D01*
X136683553Y-115530000D01*
X135976447Y-115530000D01*
X135830000Y-115383553D01*
X135683553Y-115530000D01*
X134976447Y-115530000D01*
X134830000Y-115383553D01*
X134683553Y-115530000D01*
X108592500Y-115530000D01*
X108592500Y-115029996D01*
X134075254Y-115029996D01*
X134075254Y-115030003D01*
X134094175Y-115197938D01*
X134094176Y-115197943D01*
X134149732Y-115356714D01*
X134476447Y-115030000D01*
X134456556Y-115010109D01*
X134730000Y-115010109D01*
X134730000Y-115049891D01*
X134745224Y-115086645D01*
X134773355Y-115114776D01*
X134810109Y-115130000D01*
X134849891Y-115130000D01*
X134886645Y-115114776D01*
X134914776Y-115086645D01*
X134930000Y-115049891D01*
X134930000Y-115030000D01*
X135183553Y-115030000D01*
X135330000Y-115176447D01*
X135476447Y-115030000D01*
X135456556Y-115010109D01*
X135730000Y-115010109D01*
X135730000Y-115049891D01*
X135745224Y-115086645D01*
X135773355Y-115114776D01*
X135810109Y-115130000D01*
X135849891Y-115130000D01*
X135886645Y-115114776D01*
X135914776Y-115086645D01*
X135930000Y-115049891D01*
X135930000Y-115030000D01*
X136183553Y-115030000D01*
X136330000Y-115176447D01*
X136476447Y-115030000D01*
X136456556Y-115010109D01*
X136730000Y-115010109D01*
X136730000Y-115049891D01*
X136745224Y-115086645D01*
X136773355Y-115114776D01*
X136810109Y-115130000D01*
X136849891Y-115130000D01*
X136886645Y-115114776D01*
X136914776Y-115086645D01*
X136930000Y-115049891D01*
X136930000Y-115029999D01*
X137183553Y-115029999D01*
X137183553Y-115030001D01*
X137510266Y-115356714D01*
X137510267Y-115356713D01*
X137537111Y-115279999D01*
X138029479Y-115279999D01*
X138029479Y-115280000D01*
X138049412Y-115393044D01*
X138049414Y-115393050D01*
X138106803Y-115492451D01*
X138106805Y-115492453D01*
X138106806Y-115492455D01*
X138194739Y-115566240D01*
X138194743Y-115566241D01*
X138194744Y-115566242D01*
X138302603Y-115605499D01*
X138302606Y-115605500D01*
X138302608Y-115605500D01*
X138417392Y-115605500D01*
X138417394Y-115605500D01*
X138525261Y-115566240D01*
X138613194Y-115492455D01*
X138670588Y-115393045D01*
X138690521Y-115280000D01*
X138670588Y-115166955D01*
X138649252Y-115130000D01*
X138613196Y-115067548D01*
X138613195Y-115067546D01*
X138613194Y-115067545D01*
X138613192Y-115067543D01*
X138613191Y-115067542D01*
X138525262Y-114993761D01*
X138525261Y-114993760D01*
X138525258Y-114993759D01*
X138525255Y-114993757D01*
X138417396Y-114954500D01*
X138417394Y-114954500D01*
X138302606Y-114954500D01*
X138302605Y-114954500D01*
X138194740Y-114993759D01*
X138106805Y-115067546D01*
X138106803Y-115067548D01*
X138049414Y-115166949D01*
X138049412Y-115166955D01*
X138029479Y-115279999D01*
X137537111Y-115279999D01*
X137565824Y-115197943D01*
X137584746Y-115030003D01*
X137584746Y-115029996D01*
X137565824Y-114862056D01*
X137510266Y-114703285D01*
X137183553Y-115029999D01*
X136930000Y-115029999D01*
X136930000Y-115010109D01*
X136914776Y-114973355D01*
X136886645Y-114945224D01*
X136849891Y-114930000D01*
X136810109Y-114930000D01*
X136773355Y-114945224D01*
X136745224Y-114973355D01*
X136730000Y-115010109D01*
X136456556Y-115010109D01*
X136330000Y-114883553D01*
X136183553Y-115030000D01*
X135930000Y-115030000D01*
X135930000Y-115010109D01*
X135914776Y-114973355D01*
X135886645Y-114945224D01*
X135849891Y-114930000D01*
X135810109Y-114930000D01*
X135773355Y-114945224D01*
X135745224Y-114973355D01*
X135730000Y-115010109D01*
X135456556Y-115010109D01*
X135330000Y-114883553D01*
X135183553Y-115030000D01*
X134930000Y-115030000D01*
X134930000Y-115010109D01*
X134914776Y-114973355D01*
X134886645Y-114945224D01*
X134849891Y-114930000D01*
X134810109Y-114930000D01*
X134773355Y-114945224D01*
X134745224Y-114973355D01*
X134730000Y-115010109D01*
X134456556Y-115010109D01*
X134149732Y-114703285D01*
X134094176Y-114862053D01*
X134094175Y-114862058D01*
X134075254Y-115029996D01*
X108592500Y-115029996D01*
X108592500Y-114229999D01*
X128419479Y-114229999D01*
X128419479Y-114230000D01*
X128439412Y-114343044D01*
X128439414Y-114343050D01*
X128496803Y-114442451D01*
X128496805Y-114442453D01*
X128496806Y-114442455D01*
X128584739Y-114516240D01*
X128584743Y-114516241D01*
X128584744Y-114516242D01*
X128692603Y-114555499D01*
X128692606Y-114555500D01*
X128692608Y-114555500D01*
X128807392Y-114555500D01*
X128807394Y-114555500D01*
X128877455Y-114530000D01*
X134683553Y-114530000D01*
X134830000Y-114676447D01*
X134976447Y-114530000D01*
X135683553Y-114530000D01*
X135830000Y-114676447D01*
X135976447Y-114530000D01*
X136683553Y-114530000D01*
X136830000Y-114676447D01*
X136976447Y-114530000D01*
X136846446Y-114399999D01*
X142019479Y-114399999D01*
X142019479Y-114400000D01*
X142039412Y-114513044D01*
X142039414Y-114513050D01*
X142096803Y-114612451D01*
X142096805Y-114612453D01*
X142096806Y-114612455D01*
X142184739Y-114686240D01*
X142292606Y-114725500D01*
X142292608Y-114725500D01*
X142407392Y-114725500D01*
X142407394Y-114725500D01*
X142515261Y-114686240D01*
X142603194Y-114612455D01*
X142660588Y-114513045D01*
X142680521Y-114400000D01*
X142660588Y-114286955D01*
X142627705Y-114230000D01*
X142603196Y-114187548D01*
X142603195Y-114187546D01*
X142603194Y-114187545D01*
X142603192Y-114187543D01*
X142603191Y-114187542D01*
X142534615Y-114130000D01*
X142515261Y-114113760D01*
X142515258Y-114113759D01*
X142515255Y-114113757D01*
X142407396Y-114074500D01*
X142407394Y-114074500D01*
X142292606Y-114074500D01*
X142292605Y-114074500D01*
X142184740Y-114113759D01*
X142096805Y-114187546D01*
X142096803Y-114187548D01*
X142039414Y-114286949D01*
X142039412Y-114286955D01*
X142019479Y-114399999D01*
X136846446Y-114399999D01*
X136830000Y-114383553D01*
X136683553Y-114530000D01*
X135976447Y-114530000D01*
X135830000Y-114383553D01*
X135683553Y-114530000D01*
X134976447Y-114530000D01*
X134830000Y-114383553D01*
X134683553Y-114530000D01*
X128877455Y-114530000D01*
X128915261Y-114516240D01*
X129003194Y-114442455D01*
X129060588Y-114343045D01*
X129080521Y-114230000D01*
X129070123Y-114171031D01*
X129077867Y-114101594D01*
X129121923Y-114047365D01*
X129174804Y-114029996D01*
X134075254Y-114029996D01*
X134075254Y-114030003D01*
X134094175Y-114197938D01*
X134094176Y-114197943D01*
X134149732Y-114356714D01*
X134476447Y-114030000D01*
X134456556Y-114010109D01*
X134730000Y-114010109D01*
X134730000Y-114049891D01*
X134745224Y-114086645D01*
X134773355Y-114114776D01*
X134810109Y-114130000D01*
X134849891Y-114130000D01*
X134886645Y-114114776D01*
X134914776Y-114086645D01*
X134930000Y-114049891D01*
X134930000Y-114030000D01*
X135183553Y-114030000D01*
X135330000Y-114176447D01*
X135476447Y-114030000D01*
X135456556Y-114010109D01*
X135730000Y-114010109D01*
X135730000Y-114049891D01*
X135745224Y-114086645D01*
X135773355Y-114114776D01*
X135810109Y-114130000D01*
X135849891Y-114130000D01*
X135886645Y-114114776D01*
X135914776Y-114086645D01*
X135930000Y-114049891D01*
X135930000Y-114030000D01*
X136183553Y-114030000D01*
X136330000Y-114176447D01*
X136476447Y-114030000D01*
X136456556Y-114010109D01*
X136730000Y-114010109D01*
X136730000Y-114049891D01*
X136745224Y-114086645D01*
X136773355Y-114114776D01*
X136810109Y-114130000D01*
X136849891Y-114130000D01*
X136886645Y-114114776D01*
X136914776Y-114086645D01*
X136930000Y-114049891D01*
X136930000Y-114029999D01*
X137183553Y-114029999D01*
X137183553Y-114030001D01*
X137510266Y-114356714D01*
X137510267Y-114356713D01*
X137565824Y-114197943D01*
X137584746Y-114030003D01*
X137584746Y-114029996D01*
X137565824Y-113862056D01*
X137510266Y-113703285D01*
X137183553Y-114029999D01*
X136930000Y-114029999D01*
X136930000Y-114010109D01*
X136914776Y-113973355D01*
X136886645Y-113945224D01*
X136849891Y-113930000D01*
X136810109Y-113930000D01*
X136773355Y-113945224D01*
X136745224Y-113973355D01*
X136730000Y-114010109D01*
X136456556Y-114010109D01*
X136330000Y-113883553D01*
X136183553Y-114030000D01*
X135930000Y-114030000D01*
X135930000Y-114010109D01*
X135914776Y-113973355D01*
X135886645Y-113945224D01*
X135849891Y-113930000D01*
X135810109Y-113930000D01*
X135773355Y-113945224D01*
X135745224Y-113973355D01*
X135730000Y-114010109D01*
X135456556Y-114010109D01*
X135330000Y-113883553D01*
X135183553Y-114030000D01*
X134930000Y-114030000D01*
X134930000Y-114010109D01*
X134914776Y-113973355D01*
X134886645Y-113945224D01*
X134849891Y-113930000D01*
X134810109Y-113930000D01*
X134773355Y-113945224D01*
X134745224Y-113973355D01*
X134730000Y-114010109D01*
X134456556Y-114010109D01*
X134149732Y-113703285D01*
X134094176Y-113862053D01*
X134094175Y-113862058D01*
X134075254Y-114029996D01*
X129174804Y-114029996D01*
X129188304Y-114025562D01*
X129192239Y-114025500D01*
X129317392Y-114025500D01*
X129317394Y-114025500D01*
X129425261Y-113986240D01*
X129513194Y-113912455D01*
X129570588Y-113813045D01*
X129590521Y-113700000D01*
X129570588Y-113586955D01*
X129558200Y-113565499D01*
X129513196Y-113487548D01*
X129513195Y-113487546D01*
X129513194Y-113487545D01*
X129513192Y-113487543D01*
X129513191Y-113487542D01*
X129425262Y-113413761D01*
X129425261Y-113413760D01*
X129425258Y-113413759D01*
X129425255Y-113413757D01*
X129317396Y-113374500D01*
X129317394Y-113374500D01*
X129202606Y-113374500D01*
X129202605Y-113374500D01*
X129094740Y-113413759D01*
X129006805Y-113487546D01*
X129006803Y-113487548D01*
X128949414Y-113586949D01*
X128949412Y-113586955D01*
X128929479Y-113699999D01*
X128929479Y-113700000D01*
X128939877Y-113758967D01*
X128932133Y-113828406D01*
X128888077Y-113882635D01*
X128821696Y-113904438D01*
X128817761Y-113904500D01*
X128692605Y-113904500D01*
X128584740Y-113943759D01*
X128496805Y-114017546D01*
X128496803Y-114017548D01*
X128439414Y-114116949D01*
X128439412Y-114116955D01*
X128419479Y-114229999D01*
X108592500Y-114229999D01*
X108592500Y-113349732D01*
X134503285Y-113349732D01*
X134830000Y-113676447D01*
X134830001Y-113676447D01*
X135156714Y-113349732D01*
X135503285Y-113349732D01*
X135830000Y-113676447D01*
X135830001Y-113676447D01*
X136156714Y-113349732D01*
X136503285Y-113349732D01*
X136830000Y-113676447D01*
X136830001Y-113676447D01*
X137156714Y-113349732D01*
X136997943Y-113294176D01*
X136997938Y-113294175D01*
X136830004Y-113275254D01*
X136829996Y-113275254D01*
X136662058Y-113294175D01*
X136662053Y-113294176D01*
X136503285Y-113349732D01*
X136156714Y-113349732D01*
X135997943Y-113294176D01*
X135997938Y-113294175D01*
X135830004Y-113275254D01*
X135829996Y-113275254D01*
X135662058Y-113294175D01*
X135662053Y-113294176D01*
X135503285Y-113349732D01*
X135156714Y-113349732D01*
X134997943Y-113294176D01*
X134997938Y-113294175D01*
X134830004Y-113275254D01*
X134829996Y-113275254D01*
X134662058Y-113294175D01*
X134662053Y-113294176D01*
X134503285Y-113349732D01*
X108592500Y-113349732D01*
X108592500Y-113000000D01*
X133561979Y-113000000D01*
X133568238Y-113035499D01*
X133581912Y-113113044D01*
X133581914Y-113113050D01*
X133639303Y-113212451D01*
X133639305Y-113212453D01*
X133639306Y-113212455D01*
X133727239Y-113286240D01*
X133835106Y-113325500D01*
X133835108Y-113325500D01*
X133949892Y-113325500D01*
X133949894Y-113325500D01*
X134057761Y-113286240D01*
X134112869Y-113239999D01*
X161989479Y-113239999D01*
X161989479Y-113240000D01*
X162009412Y-113353044D01*
X162009414Y-113353050D01*
X162066803Y-113452451D01*
X162066805Y-113452453D01*
X162066806Y-113452455D01*
X162154739Y-113526240D01*
X162262606Y-113565500D01*
X162262608Y-113565500D01*
X162377392Y-113565500D01*
X162377394Y-113565500D01*
X162485261Y-113526240D01*
X162573194Y-113452455D01*
X162630588Y-113353045D01*
X162650521Y-113240000D01*
X162630588Y-113126955D01*
X162629747Y-113125499D01*
X162573196Y-113027548D01*
X162573195Y-113027546D01*
X162573194Y-113027545D01*
X162573192Y-113027543D01*
X162573191Y-113027542D01*
X162485262Y-112953761D01*
X162485261Y-112953760D01*
X162485258Y-112953759D01*
X162485255Y-112953757D01*
X162377396Y-112914500D01*
X162377394Y-112914500D01*
X162262606Y-112914500D01*
X162262605Y-112914500D01*
X162154740Y-112953759D01*
X162066805Y-113027546D01*
X162066803Y-113027548D01*
X162009414Y-113126949D01*
X162009412Y-113126955D01*
X161989479Y-113239999D01*
X134112869Y-113239999D01*
X134145694Y-113212455D01*
X134203088Y-113113045D01*
X134223021Y-113000000D01*
X134203088Y-112886955D01*
X134190700Y-112865499D01*
X134152885Y-112800000D01*
X140019479Y-112800000D01*
X140031028Y-112865500D01*
X140039412Y-112913044D01*
X140039414Y-112913050D01*
X140096803Y-113012451D01*
X140096808Y-113012457D01*
X140124270Y-113035500D01*
X140184739Y-113086240D01*
X140184743Y-113086241D01*
X140184744Y-113086242D01*
X140292603Y-113125499D01*
X140292606Y-113125500D01*
X140292608Y-113125500D01*
X140407392Y-113125500D01*
X140407394Y-113125500D01*
X140515261Y-113086240D01*
X140603194Y-113012455D01*
X140660588Y-112913045D01*
X140680521Y-112800000D01*
X143569479Y-112800000D01*
X143581028Y-112865500D01*
X143589412Y-112913044D01*
X143589414Y-112913050D01*
X143646803Y-113012451D01*
X143646808Y-113012457D01*
X143674270Y-113035500D01*
X143734739Y-113086240D01*
X143734743Y-113086241D01*
X143734744Y-113086242D01*
X143842603Y-113125499D01*
X143842606Y-113125500D01*
X143842608Y-113125500D01*
X143957392Y-113125500D01*
X143957394Y-113125500D01*
X144065261Y-113086240D01*
X144153194Y-113012455D01*
X144210588Y-112913045D01*
X144230521Y-112800000D01*
X144210588Y-112686955D01*
X144203397Y-112674500D01*
X144153196Y-112587548D01*
X144153195Y-112587546D01*
X144153194Y-112587545D01*
X144153192Y-112587543D01*
X144153191Y-112587542D01*
X144065262Y-112513761D01*
X144065261Y-112513760D01*
X144065258Y-112513759D01*
X144065255Y-112513757D01*
X143957396Y-112474500D01*
X143957394Y-112474500D01*
X143842606Y-112474500D01*
X143842605Y-112474500D01*
X143734740Y-112513759D01*
X143646805Y-112587546D01*
X143646803Y-112587548D01*
X143589414Y-112686949D01*
X143589412Y-112686955D01*
X143571675Y-112787548D01*
X143569479Y-112800000D01*
X140680521Y-112800000D01*
X140660588Y-112686955D01*
X140653397Y-112674500D01*
X140603196Y-112587548D01*
X140603195Y-112587546D01*
X140603194Y-112587545D01*
X140603192Y-112587543D01*
X140603191Y-112587542D01*
X140515262Y-112513761D01*
X140515261Y-112513760D01*
X140515258Y-112513759D01*
X140515255Y-112513757D01*
X140407396Y-112474500D01*
X140407394Y-112474500D01*
X140292606Y-112474500D01*
X140292605Y-112474500D01*
X140184740Y-112513759D01*
X140096805Y-112587546D01*
X140096803Y-112587548D01*
X140039414Y-112686949D01*
X140039412Y-112686955D01*
X140021675Y-112787548D01*
X140019479Y-112800000D01*
X134152885Y-112800000D01*
X134145696Y-112787548D01*
X134145695Y-112787546D01*
X134145694Y-112787545D01*
X134145692Y-112787543D01*
X134145691Y-112787542D01*
X134057762Y-112713761D01*
X134057761Y-112713760D01*
X134057758Y-112713759D01*
X134057755Y-112713757D01*
X133949896Y-112674500D01*
X133949894Y-112674500D01*
X133835106Y-112674500D01*
X133835105Y-112674500D01*
X133727240Y-112713759D01*
X133639305Y-112787546D01*
X133639303Y-112787548D01*
X133581914Y-112886949D01*
X133581912Y-112886955D01*
X133562642Y-112996242D01*
X133561979Y-113000000D01*
X108592500Y-113000000D01*
X108592500Y-112539999D01*
X124769479Y-112539999D01*
X124769479Y-112540000D01*
X124789412Y-112653044D01*
X124789414Y-112653050D01*
X124846803Y-112752451D01*
X124846805Y-112752453D01*
X124846806Y-112752455D01*
X124934739Y-112826240D01*
X125042606Y-112865500D01*
X125042608Y-112865500D01*
X125157392Y-112865500D01*
X125157394Y-112865500D01*
X125265261Y-112826240D01*
X125353194Y-112752455D01*
X125410588Y-112653045D01*
X125430521Y-112540000D01*
X125410588Y-112426955D01*
X125408743Y-112423760D01*
X125353196Y-112327548D01*
X125353195Y-112327546D01*
X125353194Y-112327545D01*
X125353192Y-112327543D01*
X125353191Y-112327542D01*
X125265262Y-112253761D01*
X125265261Y-112253760D01*
X125265258Y-112253759D01*
X125265255Y-112253757D01*
X125157396Y-112214500D01*
X125157394Y-112214500D01*
X125042606Y-112214500D01*
X125042605Y-112214500D01*
X124934740Y-112253759D01*
X124846805Y-112327546D01*
X124846803Y-112327548D01*
X124789414Y-112426949D01*
X124789412Y-112426955D01*
X124769479Y-112539999D01*
X108592500Y-112539999D01*
X108592500Y-111899999D01*
X131869479Y-111899999D01*
X131869479Y-111900000D01*
X131889412Y-112013044D01*
X131889414Y-112013050D01*
X131946803Y-112112451D01*
X131946808Y-112112457D01*
X131990772Y-112149347D01*
X132034739Y-112186240D01*
X132142606Y-112225500D01*
X132142608Y-112225500D01*
X132257392Y-112225500D01*
X132257394Y-112225500D01*
X132365261Y-112186240D01*
X132453194Y-112112455D01*
X132510588Y-112013045D01*
X132530521Y-111900000D01*
X132519941Y-111840000D01*
X145439479Y-111840000D01*
X145445869Y-111876242D01*
X145459412Y-111953044D01*
X145459414Y-111953050D01*
X145516803Y-112052451D01*
X145516805Y-112052453D01*
X145516806Y-112052455D01*
X145604739Y-112126240D01*
X145604743Y-112126241D01*
X145604744Y-112126242D01*
X145712603Y-112165499D01*
X145712606Y-112165500D01*
X145712608Y-112165500D01*
X145777760Y-112165500D01*
X145844799Y-112185185D01*
X145865440Y-112201818D01*
X146293161Y-112629540D01*
X146326645Y-112690861D01*
X146327554Y-112699323D01*
X146327595Y-112699316D01*
X146349412Y-112823044D01*
X146349414Y-112823050D01*
X146406803Y-112922451D01*
X146406805Y-112922453D01*
X146406806Y-112922455D01*
X146494739Y-112996240D01*
X146494743Y-112996241D01*
X146494744Y-112996242D01*
X146580752Y-113027546D01*
X146602606Y-113035500D01*
X146602608Y-113035500D01*
X146717392Y-113035500D01*
X146717394Y-113035500D01*
X146825261Y-112996240D01*
X146913194Y-112922455D01*
X146970588Y-112823045D01*
X146990521Y-112710000D01*
X146970588Y-112596955D01*
X146965155Y-112587545D01*
X146913196Y-112497548D01*
X146913191Y-112497542D01*
X146847244Y-112442206D01*
X146825261Y-112423760D01*
X146825258Y-112423759D01*
X146825255Y-112423757D01*
X146717396Y-112384500D01*
X146717394Y-112384500D01*
X146672241Y-112384500D01*
X146605202Y-112364815D01*
X146584560Y-112348181D01*
X146133335Y-111896956D01*
X146099850Y-111835633D01*
X146098900Y-111830808D01*
X146095663Y-111812451D01*
X146080588Y-111726955D01*
X146073974Y-111715500D01*
X146023196Y-111627548D01*
X146023195Y-111627546D01*
X146023194Y-111627545D01*
X146023192Y-111627543D01*
X146023191Y-111627542D01*
X145978450Y-111590000D01*
X148339479Y-111590000D01*
X148356679Y-111687548D01*
X148359412Y-111703044D01*
X148359414Y-111703050D01*
X148416803Y-111802451D01*
X148416808Y-111802457D01*
X148456346Y-111835633D01*
X148504739Y-111876240D01*
X148504743Y-111876241D01*
X148504744Y-111876242D01*
X148612603Y-111915499D01*
X148612606Y-111915500D01*
X148612608Y-111915500D01*
X148727392Y-111915500D01*
X148727394Y-111915500D01*
X148835261Y-111876240D01*
X148835264Y-111876236D01*
X148844657Y-111870815D01*
X148845433Y-111872160D01*
X148898333Y-111849004D01*
X148967326Y-111860038D01*
X148993747Y-111877017D01*
X149004739Y-111886240D01*
X149004743Y-111886241D01*
X149004744Y-111886242D01*
X149085128Y-111915499D01*
X149112606Y-111925500D01*
X149112608Y-111925500D01*
X149227392Y-111925500D01*
X149227394Y-111925500D01*
X149335261Y-111886240D01*
X149423194Y-111812455D01*
X149480588Y-111713045D01*
X149500521Y-111600000D01*
X149480588Y-111486955D01*
X149474811Y-111476949D01*
X149423196Y-111387548D01*
X149423195Y-111387546D01*
X149423194Y-111387545D01*
X149423192Y-111387543D01*
X149423191Y-111387542D01*
X149335262Y-111313761D01*
X149335261Y-111313760D01*
X149335258Y-111313759D01*
X149335255Y-111313757D01*
X149227396Y-111274500D01*
X149227394Y-111274500D01*
X149112606Y-111274500D01*
X149112604Y-111274500D01*
X149004741Y-111313758D01*
X148995351Y-111319181D01*
X148994576Y-111317839D01*
X148941642Y-111340998D01*
X148872652Y-111329951D01*
X148846254Y-111312984D01*
X148835262Y-111303761D01*
X148835261Y-111303760D01*
X148835258Y-111303759D01*
X148835255Y-111303757D01*
X148727396Y-111264500D01*
X148727394Y-111264500D01*
X148612606Y-111264500D01*
X148612605Y-111264500D01*
X148504740Y-111303759D01*
X148416805Y-111377546D01*
X148416803Y-111377548D01*
X148359414Y-111476949D01*
X148359412Y-111476955D01*
X148339479Y-111590000D01*
X145978450Y-111590000D01*
X145935262Y-111553761D01*
X145935261Y-111553760D01*
X145935258Y-111553759D01*
X145935255Y-111553757D01*
X145827396Y-111514500D01*
X145827394Y-111514500D01*
X145712606Y-111514500D01*
X145712605Y-111514500D01*
X145604740Y-111553759D01*
X145516805Y-111627546D01*
X145516803Y-111627548D01*
X145459414Y-111726949D01*
X145459412Y-111726955D01*
X145444336Y-111812457D01*
X145439479Y-111840000D01*
X132519941Y-111840000D01*
X132510588Y-111786955D01*
X132475947Y-111726955D01*
X132453196Y-111687548D01*
X132453195Y-111687546D01*
X132453194Y-111687545D01*
X132453192Y-111687543D01*
X132453191Y-111687542D01*
X132365262Y-111613761D01*
X132365261Y-111613760D01*
X132365258Y-111613759D01*
X132365255Y-111613757D01*
X132257396Y-111574500D01*
X132257394Y-111574500D01*
X132142606Y-111574500D01*
X132142605Y-111574500D01*
X132034740Y-111613759D01*
X131946805Y-111687546D01*
X131946803Y-111687548D01*
X131889414Y-111786949D01*
X131889412Y-111786955D01*
X131869479Y-111899999D01*
X108592500Y-111899999D01*
X108592500Y-111090000D01*
X131429479Y-111090000D01*
X131441028Y-111155500D01*
X131449412Y-111203044D01*
X131449414Y-111203050D01*
X131506803Y-111302451D01*
X131506808Y-111302457D01*
X131520280Y-111313761D01*
X131594739Y-111376240D01*
X131594743Y-111376241D01*
X131594744Y-111376242D01*
X131661393Y-111400500D01*
X131702606Y-111415500D01*
X131702608Y-111415500D01*
X131817392Y-111415500D01*
X131817394Y-111415500D01*
X131925261Y-111376240D01*
X132013194Y-111302455D01*
X132070588Y-111203045D01*
X132090521Y-111090000D01*
X132070588Y-110976955D01*
X132051010Y-110943045D01*
X132013196Y-110877548D01*
X132013195Y-110877546D01*
X132013194Y-110877545D01*
X132013192Y-110877543D01*
X132013191Y-110877542D01*
X131925262Y-110803761D01*
X131925261Y-110803760D01*
X131925258Y-110803759D01*
X131925255Y-110803757D01*
X131817396Y-110764500D01*
X131817394Y-110764500D01*
X131702606Y-110764500D01*
X131702605Y-110764500D01*
X131594740Y-110803759D01*
X131506805Y-110877546D01*
X131506803Y-110877548D01*
X131449414Y-110976949D01*
X131449412Y-110976955D01*
X131437863Y-111042455D01*
X131429479Y-111090000D01*
X108592500Y-111090000D01*
X108592500Y-110539999D01*
X136699479Y-110539999D01*
X136699479Y-110540000D01*
X136719412Y-110653044D01*
X136719414Y-110653050D01*
X136776803Y-110752451D01*
X136776808Y-110752457D01*
X136820772Y-110789347D01*
X136864739Y-110826240D01*
X136864743Y-110826241D01*
X136864744Y-110826242D01*
X136972603Y-110865499D01*
X136972606Y-110865500D01*
X136972608Y-110865500D01*
X137087392Y-110865500D01*
X137087394Y-110865500D01*
X137184930Y-110830000D01*
X142769479Y-110830000D01*
X142775738Y-110865499D01*
X142789412Y-110943044D01*
X142789414Y-110943050D01*
X142846803Y-111042451D01*
X142846805Y-111042453D01*
X142846806Y-111042455D01*
X142934739Y-111116240D01*
X143042606Y-111155500D01*
X143042608Y-111155500D01*
X143157392Y-111155500D01*
X143157394Y-111155500D01*
X143265261Y-111116240D01*
X143353194Y-111042455D01*
X143410588Y-110943045D01*
X143430521Y-110830000D01*
X143410588Y-110716955D01*
X143399625Y-110697967D01*
X143347770Y-110608150D01*
X143348822Y-110607542D01*
X143325194Y-110553550D01*
X143336235Y-110484558D01*
X143360518Y-110450173D01*
X143365227Y-110445463D01*
X143426551Y-110411988D01*
X143496242Y-110416980D01*
X143552171Y-110458857D01*
X143560283Y-110471157D01*
X143566803Y-110482451D01*
X143566805Y-110482453D01*
X143566806Y-110482455D01*
X143654739Y-110556240D01*
X143762606Y-110595500D01*
X143762608Y-110595500D01*
X143780531Y-110595500D01*
X143847570Y-110615185D01*
X143893325Y-110667989D01*
X143902647Y-110697967D01*
X143919412Y-110793044D01*
X143919414Y-110793050D01*
X143976803Y-110892451D01*
X143976808Y-110892457D01*
X143999516Y-110911511D01*
X144064739Y-110966240D01*
X144064743Y-110966241D01*
X144064744Y-110966242D01*
X144172603Y-111005499D01*
X144172606Y-111005500D01*
X144172608Y-111005500D01*
X144287392Y-111005500D01*
X144287394Y-111005500D01*
X144395261Y-110966240D01*
X144460484Y-110911510D01*
X144524492Y-110883498D01*
X144540190Y-110882500D01*
X150614760Y-110882500D01*
X150681799Y-110902185D01*
X150702441Y-110918819D01*
X151303160Y-111519538D01*
X151336645Y-111580861D01*
X151337554Y-111589324D01*
X151337595Y-111589317D01*
X151359412Y-111713044D01*
X151359414Y-111713050D01*
X151416803Y-111812451D01*
X151416805Y-111812453D01*
X151416806Y-111812455D01*
X151504739Y-111886240D01*
X151504743Y-111886241D01*
X151504744Y-111886242D01*
X151585128Y-111915499D01*
X151612606Y-111925500D01*
X151612608Y-111925500D01*
X151727392Y-111925500D01*
X151727394Y-111925500D01*
X151835261Y-111886240D01*
X151923194Y-111812455D01*
X151980588Y-111713045D01*
X152000521Y-111600000D01*
X153839479Y-111600000D01*
X153844336Y-111627548D01*
X153859412Y-111713044D01*
X153859414Y-111713050D01*
X153916803Y-111812451D01*
X153916805Y-111812453D01*
X153916806Y-111812455D01*
X154004739Y-111886240D01*
X154004743Y-111886241D01*
X154004744Y-111886242D01*
X154085128Y-111915499D01*
X154112606Y-111925500D01*
X154112608Y-111925500D01*
X154227392Y-111925500D01*
X154227394Y-111925500D01*
X154335261Y-111886240D01*
X154423194Y-111812455D01*
X154480588Y-111713045D01*
X154500521Y-111600000D01*
X156339479Y-111600000D01*
X156344336Y-111627548D01*
X156359412Y-111713044D01*
X156359414Y-111713050D01*
X156416803Y-111812451D01*
X156416805Y-111812453D01*
X156416806Y-111812455D01*
X156504739Y-111886240D01*
X156504743Y-111886241D01*
X156504744Y-111886242D01*
X156585128Y-111915499D01*
X156612606Y-111925500D01*
X156612608Y-111925500D01*
X156727392Y-111925500D01*
X156727394Y-111925500D01*
X156835261Y-111886240D01*
X156923194Y-111812455D01*
X156980588Y-111713045D01*
X157000521Y-111600000D01*
X156980588Y-111486955D01*
X156974811Y-111476949D01*
X156924611Y-111389999D01*
X161989479Y-111389999D01*
X161989479Y-111390000D01*
X162009412Y-111503044D01*
X162009414Y-111503050D01*
X162066803Y-111602451D01*
X162066808Y-111602457D01*
X162080280Y-111613761D01*
X162154739Y-111676240D01*
X162154743Y-111676241D01*
X162154744Y-111676242D01*
X162262603Y-111715499D01*
X162262606Y-111715500D01*
X162262608Y-111715500D01*
X162377392Y-111715500D01*
X162377394Y-111715500D01*
X162485261Y-111676240D01*
X162573194Y-111602455D01*
X162630588Y-111503045D01*
X162650521Y-111390000D01*
X162630588Y-111276955D01*
X162623397Y-111264500D01*
X162573196Y-111177548D01*
X162573195Y-111177546D01*
X162573194Y-111177545D01*
X162573192Y-111177543D01*
X162573191Y-111177542D01*
X162485262Y-111103761D01*
X162485261Y-111103760D01*
X162485258Y-111103759D01*
X162485255Y-111103757D01*
X162377396Y-111064500D01*
X162377394Y-111064500D01*
X162262606Y-111064500D01*
X162262605Y-111064500D01*
X162154740Y-111103759D01*
X162066805Y-111177546D01*
X162066803Y-111177548D01*
X162009414Y-111276949D01*
X162009412Y-111276955D01*
X161989479Y-111389999D01*
X156924611Y-111389999D01*
X156923196Y-111387548D01*
X156923195Y-111387546D01*
X156923194Y-111387545D01*
X156923192Y-111387543D01*
X156923191Y-111387542D01*
X156835262Y-111313761D01*
X156835261Y-111313760D01*
X156835258Y-111313759D01*
X156835255Y-111313757D01*
X156727396Y-111274500D01*
X156727394Y-111274500D01*
X156612606Y-111274500D01*
X156612605Y-111274500D01*
X156504740Y-111313759D01*
X156416805Y-111387546D01*
X156416803Y-111387548D01*
X156359414Y-111486949D01*
X156359412Y-111486955D01*
X156347633Y-111553759D01*
X156339479Y-111600000D01*
X154500521Y-111600000D01*
X154480588Y-111486955D01*
X154474811Y-111476949D01*
X154423196Y-111387548D01*
X154423195Y-111387546D01*
X154423194Y-111387545D01*
X154423192Y-111387543D01*
X154423191Y-111387542D01*
X154335262Y-111313761D01*
X154335261Y-111313760D01*
X154335258Y-111313759D01*
X154335255Y-111313757D01*
X154227396Y-111274500D01*
X154227394Y-111274500D01*
X154112606Y-111274500D01*
X154112605Y-111274500D01*
X154004740Y-111313759D01*
X153916805Y-111387546D01*
X153916803Y-111387548D01*
X153859414Y-111486949D01*
X153859412Y-111486955D01*
X153847633Y-111553759D01*
X153839479Y-111600000D01*
X152000521Y-111600000D01*
X151980588Y-111486955D01*
X151974811Y-111476949D01*
X151923196Y-111387548D01*
X151923195Y-111387546D01*
X151923194Y-111387545D01*
X151923192Y-111387543D01*
X151923191Y-111387542D01*
X151835262Y-111313761D01*
X151835261Y-111313760D01*
X151835258Y-111313759D01*
X151835255Y-111313757D01*
X151727396Y-111274500D01*
X151727394Y-111274500D01*
X151682240Y-111274500D01*
X151615201Y-111254815D01*
X151594559Y-111238181D01*
X150864708Y-110508330D01*
X150864707Y-110508329D01*
X150790280Y-110477500D01*
X147508240Y-110477500D01*
X147441201Y-110457815D01*
X147395446Y-110405011D01*
X147385502Y-110335853D01*
X147414527Y-110272297D01*
X147420559Y-110265819D01*
X147604559Y-110081819D01*
X147665882Y-110048334D01*
X147692240Y-110045500D01*
X147727392Y-110045500D01*
X147727394Y-110045500D01*
X147835261Y-110006240D01*
X147923194Y-109932455D01*
X147980588Y-109833045D01*
X148000521Y-109720000D01*
X147980588Y-109606955D01*
X147963784Y-109577850D01*
X147923196Y-109507548D01*
X147923191Y-109507542D01*
X147835262Y-109433761D01*
X147835261Y-109433760D01*
X147835258Y-109433759D01*
X147835255Y-109433757D01*
X147727396Y-109394500D01*
X147727394Y-109394500D01*
X147612606Y-109394500D01*
X147612605Y-109394500D01*
X147504738Y-109433760D01*
X147418266Y-109506319D01*
X147354258Y-109534332D01*
X147285266Y-109523291D01*
X147233195Y-109476704D01*
X147231188Y-109473354D01*
X147193194Y-109407545D01*
X147193191Y-109407543D01*
X147193191Y-109407542D01*
X147105262Y-109333761D01*
X147105261Y-109333760D01*
X147105258Y-109333759D01*
X147105255Y-109333757D01*
X146997396Y-109294500D01*
X146997394Y-109294500D01*
X146882606Y-109294500D01*
X146882605Y-109294500D01*
X146774738Y-109333760D01*
X146709514Y-109388490D01*
X146645505Y-109416503D01*
X146629809Y-109417500D01*
X143864032Y-109417500D01*
X143842232Y-109426530D01*
X143842231Y-109426529D01*
X143789610Y-109448325D01*
X143789607Y-109448327D01*
X142985293Y-110252643D01*
X142928330Y-110309605D01*
X142928329Y-110309606D01*
X142928329Y-110309607D01*
X142926288Y-110314535D01*
X142897500Y-110384033D01*
X142897500Y-110517185D01*
X142877815Y-110584224D01*
X142853206Y-110612174D01*
X142846806Y-110617543D01*
X142789414Y-110716949D01*
X142789412Y-110716955D01*
X142770142Y-110826242D01*
X142769479Y-110830000D01*
X137184930Y-110830000D01*
X137195261Y-110826240D01*
X137283194Y-110752455D01*
X137340588Y-110653045D01*
X137360521Y-110540000D01*
X137340588Y-110426955D01*
X137315807Y-110384033D01*
X137283196Y-110327548D01*
X137283195Y-110327546D01*
X137283194Y-110327545D01*
X137283192Y-110327543D01*
X137283191Y-110327542D01*
X137195262Y-110253761D01*
X137195261Y-110253760D01*
X137195258Y-110253759D01*
X137195255Y-110253757D01*
X137087396Y-110214500D01*
X137087394Y-110214500D01*
X136972606Y-110214500D01*
X136972605Y-110214500D01*
X136864740Y-110253759D01*
X136776805Y-110327546D01*
X136776803Y-110327548D01*
X136719414Y-110426949D01*
X136719412Y-110426955D01*
X136699479Y-110539999D01*
X108592500Y-110539999D01*
X108592500Y-109295241D01*
X108612185Y-109228202D01*
X108628819Y-109207559D01*
X108636379Y-109199999D01*
X132369479Y-109199999D01*
X132369479Y-109200000D01*
X132389412Y-109313044D01*
X132389414Y-109313050D01*
X132446803Y-109412451D01*
X132446808Y-109412457D01*
X132472196Y-109433760D01*
X132534739Y-109486240D01*
X132534743Y-109486241D01*
X132534744Y-109486242D01*
X132642603Y-109525499D01*
X132642606Y-109525500D01*
X132642608Y-109525500D01*
X132757392Y-109525500D01*
X132757394Y-109525500D01*
X132865261Y-109486240D01*
X132953194Y-109412455D01*
X133010588Y-109313045D01*
X133030521Y-109200000D01*
X133010588Y-109086955D01*
X133003974Y-109075500D01*
X132953196Y-108987548D01*
X132953195Y-108987546D01*
X132953194Y-108987545D01*
X132953192Y-108987543D01*
X132953191Y-108987542D01*
X132865262Y-108913761D01*
X132865261Y-108913760D01*
X132865258Y-108913759D01*
X132865255Y-108913757D01*
X132757396Y-108874500D01*
X132757394Y-108874500D01*
X132642606Y-108874500D01*
X132642605Y-108874500D01*
X132534740Y-108913759D01*
X132446805Y-108987546D01*
X132446803Y-108987548D01*
X132389414Y-109086949D01*
X132389412Y-109086955D01*
X132369479Y-109199999D01*
X108636379Y-109199999D01*
X108724561Y-109111818D01*
X108785885Y-109078334D01*
X108812242Y-109075500D01*
X108857392Y-109075500D01*
X108857394Y-109075500D01*
X108965261Y-109036240D01*
X109053194Y-108962455D01*
X109110588Y-108863045D01*
X109130521Y-108750000D01*
X109110588Y-108636955D01*
X109080862Y-108585468D01*
X109053196Y-108537548D01*
X109053195Y-108537546D01*
X109053194Y-108537545D01*
X109053192Y-108537543D01*
X109053191Y-108537542D01*
X108965262Y-108463761D01*
X108965261Y-108463760D01*
X108965258Y-108463759D01*
X108965255Y-108463757D01*
X108857396Y-108424500D01*
X108857394Y-108424500D01*
X108742606Y-108424500D01*
X108742605Y-108424500D01*
X108634740Y-108463759D01*
X108546805Y-108537546D01*
X108546803Y-108537548D01*
X108489414Y-108636949D01*
X108489412Y-108636955D01*
X108467595Y-108760684D01*
X108464387Y-108760118D01*
X108449794Y-108809817D01*
X108433161Y-108830459D01*
X108275293Y-108988329D01*
X108218329Y-109045293D01*
X108208650Y-109068661D01*
X108187500Y-109119720D01*
X102423848Y-109119720D01*
X102417126Y-109068660D01*
X102350950Y-108821687D01*
X102253104Y-108585465D01*
X102253102Y-108585462D01*
X102253100Y-108585457D01*
X102125265Y-108364042D01*
X102125261Y-108364035D01*
X101969610Y-108161187D01*
X101969605Y-108161181D01*
X101788818Y-107980394D01*
X101788811Y-107980388D01*
X101585973Y-107824745D01*
X101585971Y-107824743D01*
X101585965Y-107824739D01*
X101585960Y-107824736D01*
X101585957Y-107824734D01*
X101364542Y-107696899D01*
X101364531Y-107696894D01*
X101128322Y-107599053D01*
X101128315Y-107599051D01*
X101128313Y-107599050D01*
X100881340Y-107532874D01*
X100825007Y-107525457D01*
X100627850Y-107499500D01*
X100627843Y-107499500D01*
X100372157Y-107499500D01*
X100372149Y-107499500D01*
X100146826Y-107529165D01*
X100118660Y-107532874D01*
X99871687Y-107599050D01*
X99871677Y-107599053D01*
X99635468Y-107696894D01*
X99635457Y-107696899D01*
X99414042Y-107824734D01*
X99414026Y-107824745D01*
X99211188Y-107980388D01*
X99211181Y-107980394D01*
X99030394Y-108161181D01*
X99030388Y-108161188D01*
X98874745Y-108364026D01*
X98874734Y-108364042D01*
X98746899Y-108585457D01*
X98746894Y-108585468D01*
X98649053Y-108821677D01*
X98649050Y-108821687D01*
X98582874Y-109068660D01*
X98581600Y-109078334D01*
X98549500Y-109322149D01*
X96000000Y-109322149D01*
X96000000Y-100003067D01*
X96000009Y-100000000D01*
X96000009Y-99999999D01*
X96294922Y-99999999D01*
X96294922Y-100000000D01*
X96315219Y-100387287D01*
X96375886Y-100770323D01*
X96375887Y-100770330D01*
X96476262Y-101144936D01*
X96615244Y-101506994D01*
X96791310Y-101852543D01*
X97002531Y-102177793D01*
X97211095Y-102435350D01*
X97211096Y-102435350D01*
X98705748Y-100940698D01*
X98779588Y-101042330D01*
X98957670Y-101220412D01*
X99059300Y-101294251D01*
X97564648Y-102788903D01*
X97564649Y-102788904D01*
X97822206Y-102997468D01*
X98147456Y-103208689D01*
X98493005Y-103384755D01*
X98855063Y-103523737D01*
X99229669Y-103624112D01*
X99229676Y-103624113D01*
X99612712Y-103684780D01*
X99999999Y-103705078D01*
X100000001Y-103705078D01*
X100387287Y-103684780D01*
X100770323Y-103624113D01*
X100770330Y-103624112D01*
X101144936Y-103523737D01*
X101506994Y-103384755D01*
X101852543Y-103208689D01*
X102177783Y-102997476D01*
X102177785Y-102997475D01*
X102435349Y-102788902D01*
X100940698Y-101294251D01*
X101042330Y-101220412D01*
X101220412Y-101042330D01*
X101294251Y-100940698D01*
X102788902Y-102435349D01*
X102997475Y-102177785D01*
X102997476Y-102177783D01*
X103208689Y-101852543D01*
X103384755Y-101506994D01*
X103523737Y-101144936D01*
X103624112Y-100770330D01*
X103624113Y-100770323D01*
X103684780Y-100387287D01*
X103705078Y-100000000D01*
X103705078Y-99999999D01*
X156294922Y-99999999D01*
X156294922Y-100000000D01*
X156315219Y-100387287D01*
X156375886Y-100770323D01*
X156375887Y-100770330D01*
X156476262Y-101144936D01*
X156615244Y-101506994D01*
X156791310Y-101852543D01*
X157002531Y-102177793D01*
X157211095Y-102435350D01*
X157211096Y-102435350D01*
X158705748Y-100940698D01*
X158779588Y-101042330D01*
X158957670Y-101220412D01*
X159059300Y-101294251D01*
X157564648Y-102788903D01*
X157564649Y-102788904D01*
X157822206Y-102997468D01*
X158147456Y-103208689D01*
X158493005Y-103384755D01*
X158855063Y-103523737D01*
X159229669Y-103624112D01*
X159229676Y-103624113D01*
X159612712Y-103684780D01*
X159999999Y-103705078D01*
X160000001Y-103705078D01*
X160387287Y-103684780D01*
X160770323Y-103624113D01*
X160770330Y-103624112D01*
X161144936Y-103523737D01*
X161506994Y-103384755D01*
X161852543Y-103208689D01*
X162177783Y-102997476D01*
X162177785Y-102997475D01*
X162435349Y-102788902D01*
X160940698Y-101294251D01*
X161042330Y-101220412D01*
X161220412Y-101042330D01*
X161294251Y-100940698D01*
X162788902Y-102435349D01*
X162997475Y-102177785D01*
X162997476Y-102177783D01*
X163208689Y-101852543D01*
X163384755Y-101506994D01*
X163523737Y-101144936D01*
X163624112Y-100770330D01*
X163624113Y-100770323D01*
X163684780Y-100387287D01*
X163705078Y-100000000D01*
X163705078Y-99999999D01*
X163684780Y-99612712D01*
X163624113Y-99229676D01*
X163624112Y-99229669D01*
X163523737Y-98855063D01*
X163384755Y-98493005D01*
X163208689Y-98147456D01*
X162997468Y-97822206D01*
X162788904Y-97564649D01*
X162788903Y-97564648D01*
X161294251Y-99059300D01*
X161220412Y-98957670D01*
X161042330Y-98779588D01*
X160940698Y-98705748D01*
X162435350Y-97211096D01*
X162435350Y-97211095D01*
X162177793Y-97002531D01*
X161852543Y-96791310D01*
X161506994Y-96615244D01*
X161144936Y-96476262D01*
X160770330Y-96375887D01*
X160770323Y-96375886D01*
X160387287Y-96315219D01*
X160000001Y-96294922D01*
X159999999Y-96294922D01*
X159612712Y-96315219D01*
X159229676Y-96375886D01*
X159229669Y-96375887D01*
X158855063Y-96476262D01*
X158493005Y-96615244D01*
X158147456Y-96791310D01*
X157822206Y-97002531D01*
X157564648Y-97211095D01*
X157564648Y-97211096D01*
X159059301Y-98705748D01*
X158957670Y-98779588D01*
X158779588Y-98957670D01*
X158705748Y-99059300D01*
X157211096Y-97564648D01*
X157211095Y-97564648D01*
X157002531Y-97822206D01*
X156791310Y-98147456D01*
X156615244Y-98493005D01*
X156476262Y-98855063D01*
X156375887Y-99229669D01*
X156375886Y-99229676D01*
X156315219Y-99612712D01*
X156294922Y-99999999D01*
X103705078Y-99999999D01*
X103684780Y-99612712D01*
X103624113Y-99229676D01*
X103624112Y-99229669D01*
X103523737Y-98855063D01*
X103384755Y-98493005D01*
X103208689Y-98147456D01*
X102997468Y-97822206D01*
X102788904Y-97564649D01*
X102788903Y-97564648D01*
X101294251Y-99059300D01*
X101220412Y-98957670D01*
X101042330Y-98779588D01*
X100940698Y-98705748D01*
X102435350Y-97211096D01*
X102435350Y-97211095D01*
X102177793Y-97002531D01*
X101852543Y-96791310D01*
X101614459Y-96670000D01*
X114169479Y-96670000D01*
X114187545Y-96772459D01*
X114189412Y-96783044D01*
X114189414Y-96783050D01*
X114246803Y-96882451D01*
X114246805Y-96882453D01*
X114246806Y-96882455D01*
X114334739Y-96956240D01*
X114334743Y-96956241D01*
X114334744Y-96956242D01*
X114351820Y-96962457D01*
X114442606Y-96995500D01*
X114442608Y-96995500D01*
X114557392Y-96995500D01*
X114557394Y-96995500D01*
X114665261Y-96956240D01*
X114753194Y-96882455D01*
X114810588Y-96783045D01*
X114830521Y-96670000D01*
X114826994Y-96649999D01*
X129169479Y-96649999D01*
X129169479Y-96650000D01*
X129189412Y-96763044D01*
X129189414Y-96763050D01*
X129246803Y-96862451D01*
X129246805Y-96862453D01*
X129246806Y-96862455D01*
X129334739Y-96936240D01*
X129334743Y-96936241D01*
X129334744Y-96936242D01*
X129406770Y-96962457D01*
X129442606Y-96975500D01*
X129442608Y-96975500D01*
X129557392Y-96975500D01*
X129557394Y-96975500D01*
X129665261Y-96936240D01*
X129753194Y-96862455D01*
X129810588Y-96763045D01*
X129812888Y-96749999D01*
X144169479Y-96749999D01*
X144169479Y-96750000D01*
X144189412Y-96863044D01*
X144189414Y-96863050D01*
X144246803Y-96962451D01*
X144246805Y-96962453D01*
X144246806Y-96962455D01*
X144334739Y-97036240D01*
X144334743Y-97036241D01*
X144334744Y-97036242D01*
X144374641Y-97050763D01*
X144442606Y-97075500D01*
X144442608Y-97075500D01*
X144557392Y-97075500D01*
X144557394Y-97075500D01*
X144665261Y-97036240D01*
X144753194Y-96962455D01*
X144810588Y-96863045D01*
X144830521Y-96750000D01*
X144810588Y-96636955D01*
X144798053Y-96615244D01*
X144753196Y-96537548D01*
X144753195Y-96537546D01*
X144753194Y-96537545D01*
X144753192Y-96537543D01*
X144753191Y-96537542D01*
X144665262Y-96463761D01*
X144665261Y-96463760D01*
X144665258Y-96463759D01*
X144665255Y-96463757D01*
X144557396Y-96424500D01*
X144557394Y-96424500D01*
X144442606Y-96424500D01*
X144442605Y-96424500D01*
X144334740Y-96463759D01*
X144246805Y-96537546D01*
X144246803Y-96537548D01*
X144189414Y-96636949D01*
X144189412Y-96636955D01*
X144169479Y-96749999D01*
X129812888Y-96749999D01*
X129830521Y-96650000D01*
X129810588Y-96536955D01*
X129768327Y-96463757D01*
X129753196Y-96437548D01*
X129753195Y-96437546D01*
X129753194Y-96437545D01*
X129753192Y-96437543D01*
X129753191Y-96437542D01*
X129665262Y-96363761D01*
X129665261Y-96363760D01*
X129665258Y-96363759D01*
X129665255Y-96363757D01*
X129557396Y-96324500D01*
X129557394Y-96324500D01*
X129442606Y-96324500D01*
X129442605Y-96324500D01*
X129334740Y-96363759D01*
X129246805Y-96437546D01*
X129246803Y-96437548D01*
X129189414Y-96536949D01*
X129189412Y-96536955D01*
X129169479Y-96649999D01*
X114826994Y-96649999D01*
X114810588Y-96556955D01*
X114799383Y-96537548D01*
X114753196Y-96457548D01*
X114753195Y-96457546D01*
X114753194Y-96457545D01*
X114753192Y-96457543D01*
X114753191Y-96457542D01*
X114665262Y-96383761D01*
X114665261Y-96383760D01*
X114665258Y-96383759D01*
X114665255Y-96383757D01*
X114557396Y-96344500D01*
X114557394Y-96344500D01*
X114442606Y-96344500D01*
X114442605Y-96344500D01*
X114334740Y-96383759D01*
X114246805Y-96457546D01*
X114246803Y-96457548D01*
X114189414Y-96556949D01*
X114189412Y-96556955D01*
X114173006Y-96650000D01*
X114169479Y-96670000D01*
X101614459Y-96670000D01*
X101506994Y-96615244D01*
X101144936Y-96476262D01*
X100770330Y-96375887D01*
X100770323Y-96375886D01*
X100387287Y-96315219D01*
X100000001Y-96294922D01*
X99999999Y-96294922D01*
X99612712Y-96315219D01*
X99229676Y-96375886D01*
X99229669Y-96375887D01*
X98855063Y-96476262D01*
X98493005Y-96615244D01*
X98147456Y-96791310D01*
X97822206Y-97002531D01*
X97564648Y-97211095D01*
X97564648Y-97211096D01*
X99059301Y-98705748D01*
X98957670Y-98779588D01*
X98779588Y-98957670D01*
X98705748Y-99059300D01*
X97211096Y-97564648D01*
X97211095Y-97564648D01*
X97002531Y-97822206D01*
X96791310Y-98147456D01*
X96615244Y-98493005D01*
X96476262Y-98855063D01*
X96375887Y-99229669D01*
X96375886Y-99229676D01*
X96315219Y-99612712D01*
X96294922Y-99999999D01*
X96000009Y-99999999D01*
X96000038Y-99996934D01*
X96002129Y-99826400D01*
X96002191Y-99823742D01*
X96002304Y-99820376D01*
X96002780Y-99806288D01*
X96003069Y-99801033D01*
X96004418Y-99783474D01*
X96004640Y-99780950D01*
X96038354Y-99438647D01*
X96038685Y-99435669D01*
X96041133Y-99415824D01*
X96042026Y-99409804D01*
X96045443Y-99390113D01*
X96046000Y-99387123D01*
X96112451Y-99053051D01*
X96113056Y-99050191D01*
X96117457Y-99030588D01*
X96118930Y-99024715D01*
X96124259Y-99005458D01*
X96125106Y-99002535D01*
X96224002Y-98676520D01*
X96224884Y-98673736D01*
X96231179Y-98654680D01*
X96233205Y-98649019D01*
X96240417Y-98630323D01*
X96241512Y-98627583D01*
X96371897Y-98312805D01*
X96373049Y-98310118D01*
X96381197Y-98291734D01*
X96383758Y-98286321D01*
X96392776Y-98268405D01*
X96394161Y-98265738D01*
X96554757Y-97965284D01*
X96556135Y-97962781D01*
X96566047Y-97945283D01*
X96569153Y-97940102D01*
X96579904Y-97923125D01*
X96581454Y-97920743D01*
X96770772Y-97637408D01*
X96772433Y-97634987D01*
X96783984Y-97618585D01*
X96787566Y-97613755D01*
X96799928Y-97597914D01*
X96801735Y-97595657D01*
X97017890Y-97332270D01*
X97019786Y-97330016D01*
X97032895Y-97314820D01*
X97036912Y-97310388D01*
X97050801Y-97295799D01*
X97052809Y-97293742D01*
X97293742Y-97052809D01*
X97295799Y-97050801D01*
X97310388Y-97036912D01*
X97314820Y-97032895D01*
X97330016Y-97019786D01*
X97332270Y-97017890D01*
X97595657Y-96801735D01*
X97597914Y-96799928D01*
X97613755Y-96787566D01*
X97618585Y-96783984D01*
X97634987Y-96772433D01*
X97637408Y-96770772D01*
X97920743Y-96581454D01*
X97923125Y-96579904D01*
X97940111Y-96569147D01*
X97945283Y-96566047D01*
X97962781Y-96556135D01*
X97965284Y-96554757D01*
X98265767Y-96394145D01*
X98268405Y-96392776D01*
X98286324Y-96383757D01*
X98291734Y-96381197D01*
X98310118Y-96373049D01*
X98312805Y-96371897D01*
X98627583Y-96241512D01*
X98630323Y-96240417D01*
X98649019Y-96233205D01*
X98654680Y-96231179D01*
X98673736Y-96224884D01*
X98676520Y-96224002D01*
X99002568Y-96125096D01*
X99005458Y-96124259D01*
X99024715Y-96118930D01*
X99030588Y-96117457D01*
X99050191Y-96113056D01*
X99053051Y-96112451D01*
X99387151Y-96045994D01*
X99390100Y-96045445D01*
X99409804Y-96042025D01*
X99415824Y-96041133D01*
X99435669Y-96038685D01*
X99438647Y-96038354D01*
X99780950Y-96004640D01*
X99783474Y-96004418D01*
X99801033Y-96003069D01*
X99806288Y-96002780D01*
X99820376Y-96002304D01*
X99823742Y-96002191D01*
X99826400Y-96002129D01*
X99996934Y-96000038D01*
X99996934Y-96000047D01*
X99997249Y-96000035D01*
X99999939Y-96000009D01*
X100000036Y-96000008D01*
X100003067Y-96000000D01*
X159996933Y-96000000D01*
X159999962Y-96000008D01*
G37*
%TD.AperFunction*%
%TD*%
%TA.AperFunction,Conductor*%
%TO.N,Net-(U502-SW)*%
G36*
X110435959Y-133368954D02*
G01*
X110516741Y-133422930D01*
X110570717Y-133503712D01*
X110585966Y-133556209D01*
X111296108Y-137627694D01*
X111297733Y-137638375D01*
X111297876Y-137639476D01*
X111299710Y-137660627D01*
X111299760Y-137661766D01*
X111300000Y-137672686D01*
X111300000Y-138808795D01*
X111292185Y-138870685D01*
X111291400Y-138873747D01*
X111291169Y-138874649D01*
X111249123Y-138962235D01*
X111231656Y-138983037D01*
X111228860Y-138986020D01*
X111180870Y-139025809D01*
X110814042Y-139259245D01*
X110783033Y-139276019D01*
X110780026Y-139277380D01*
X110712567Y-139297031D01*
X110709305Y-139297497D01*
X110674091Y-139300000D01*
X109899000Y-139300000D01*
X109803712Y-139281046D01*
X109722930Y-139227070D01*
X109668954Y-139146288D01*
X109650000Y-139051000D01*
X109650000Y-137466477D01*
X109668954Y-137371189D01*
X109692927Y-137331683D01*
X109692301Y-137331322D01*
X109703194Y-137312455D01*
X109760588Y-137213045D01*
X109780521Y-137100000D01*
X109760588Y-136986955D01*
X109703194Y-136887545D01*
X109692302Y-136868679D01*
X109694043Y-136867673D01*
X109661521Y-136808384D01*
X109650000Y-136733521D01*
X109650000Y-133599000D01*
X109668954Y-133503712D01*
X109722930Y-133422930D01*
X109803712Y-133368954D01*
X109899000Y-133350000D01*
X110340671Y-133350000D01*
X110435959Y-133368954D01*
G37*
%TD.AperFunction*%
%TD*%
M02*
