%TF.GenerationSoftware,KiCad,Pcbnew,8.0.3-8.0.3-0~ubuntu22.04.1*%
%TF.CreationDate,2024-07-03T11:37:09+02:00*%
%TF.ProjectId,FabOS_MB,4661624f-535f-44d4-922e-6b696361645f,rev?*%
%TF.SameCoordinates,Original*%
%TF.FileFunction,Soldermask,Top*%
%TF.FilePolarity,Negative*%
%FSLAX46Y46*%
G04 Gerber Fmt 4.6, Leading zero omitted, Abs format (unit mm)*
G04 Created by KiCad (PCBNEW 8.0.3-8.0.3-0~ubuntu22.04.1) date 2024-07-03 11:37:09*
%MOMM*%
%LPD*%
G01*
G04 APERTURE LIST*
G04 Aperture macros list*
%AMRoundRect*
0 Rectangle with rounded corners*
0 $1 Rounding radius*
0 $2 $3 $4 $5 $6 $7 $8 $9 X,Y pos of 4 corners*
0 Add a 4 corners polygon primitive as box body*
4,1,4,$2,$3,$4,$5,$6,$7,$8,$9,$2,$3,0*
0 Add four circle primitives for the rounded corners*
1,1,$1+$1,$2,$3*
1,1,$1+$1,$4,$5*
1,1,$1+$1,$6,$7*
1,1,$1+$1,$8,$9*
0 Add four rect primitives between the rounded corners*
20,1,$1+$1,$2,$3,$4,$5,0*
20,1,$1+$1,$4,$5,$6,$7,0*
20,1,$1+$1,$6,$7,$8,$9,0*
20,1,$1+$1,$8,$9,$2,$3,0*%
%AMFreePoly0*
4,1,6,1.000000,0.000000,0.500000,-0.750000,-0.500000,-0.750000,-0.500000,0.750000,0.500000,0.750000,1.000000,0.000000,1.000000,0.000000,$1*%
%AMFreePoly1*
4,1,6,0.500000,-0.750000,-0.650000,-0.750000,-0.150000,0.000000,-0.650000,0.750000,0.500000,0.750000,0.500000,-0.750000,0.500000,-0.750000,$1*%
G04 Aperture macros list end*
%ADD10R,2.250000X0.750000*%
%ADD11RoundRect,0.140000X-0.170000X0.140000X-0.170000X-0.140000X0.170000X-0.140000X0.170000X0.140000X0*%
%ADD12RoundRect,0.140000X0.140000X0.170000X-0.140000X0.170000X-0.140000X-0.170000X0.140000X-0.170000X0*%
%ADD13RoundRect,0.140000X0.170000X-0.140000X0.170000X0.140000X-0.170000X0.140000X-0.170000X-0.140000X0*%
%ADD14RoundRect,0.135000X0.135000X0.185000X-0.135000X0.185000X-0.135000X-0.185000X0.135000X-0.185000X0*%
%ADD15RoundRect,0.147500X-0.147500X-0.172500X0.147500X-0.172500X0.147500X0.172500X-0.147500X0.172500X0*%
%ADD16RoundRect,0.135000X0.185000X-0.135000X0.185000X0.135000X-0.185000X0.135000X-0.185000X-0.135000X0*%
%ADD17RoundRect,0.135000X-0.135000X-0.185000X0.135000X-0.185000X0.135000X0.185000X-0.135000X0.185000X0*%
%ADD18RoundRect,0.112500X0.112500X-0.187500X0.112500X0.187500X-0.112500X0.187500X-0.112500X-0.187500X0*%
%ADD19RoundRect,0.150000X0.150000X-0.400000X0.150000X0.400000X-0.150000X0.400000X-0.150000X-0.400000X0*%
%ADD20RoundRect,0.135000X-0.185000X0.135000X-0.185000X-0.135000X0.185000X-0.135000X0.185000X0.135000X0*%
%ADD21FreePoly0,90.000000*%
%ADD22FreePoly1,90.000000*%
%ADD23RoundRect,0.152400X-0.609600X0.152400X-0.609600X-0.152400X0.609600X-0.152400X0.609600X0.152400X0*%
%ADD24RoundRect,0.147500X-0.172500X0.147500X-0.172500X-0.147500X0.172500X-0.147500X0.172500X0.147500X0*%
%ADD25R,1.550000X1.300000*%
%ADD26RoundRect,0.140000X-0.140000X-0.170000X0.140000X-0.170000X0.140000X0.170000X-0.140000X0.170000X0*%
%ADD27RoundRect,0.250000X-0.650000X-1.550000X0.650000X-1.550000X0.650000X1.550000X-0.650000X1.550000X0*%
%ADD28O,1.800000X3.600000*%
%ADD29C,0.800000*%
%ADD30C,6.400000*%
%ADD31C,1.200000*%
%ADD32O,1.800000X0.900000*%
%ADD33C,1.500000*%
%ADD34C,3.400000*%
%ADD35R,3.500000X0.700000*%
%ADD36R,3.500000X0.800000*%
%ADD37RoundRect,0.150000X0.150000X-0.512500X0.150000X0.512500X-0.150000X0.512500X-0.150000X-0.512500X0*%
%ADD38R,1.400000X1.200000*%
%ADD39RoundRect,0.250000X-0.275000X-0.700000X0.275000X-0.700000X0.275000X0.700000X-0.275000X0.700000X0*%
%ADD40R,0.600000X1.150000*%
%ADD41C,0.700000*%
%ADD42R,0.309000X1.140000*%
%ADD43O,1.000000X2.100000*%
%ADD44O,1.000000X1.800000*%
%ADD45R,1.700000X0.900000*%
%ADD46RoundRect,0.225000X0.250000X-0.225000X0.250000X0.225000X-0.250000X0.225000X-0.250000X-0.225000X0*%
%ADD47RoundRect,0.112500X-0.112500X0.187500X-0.112500X-0.187500X0.112500X-0.187500X0.112500X0.187500X0*%
%ADD48RoundRect,0.062500X0.062500X-0.375000X0.062500X0.375000X-0.062500X0.375000X-0.062500X-0.375000X0*%
%ADD49RoundRect,0.062500X0.375000X-0.062500X0.375000X0.062500X-0.375000X0.062500X-0.375000X-0.062500X0*%
%ADD50R,2.500000X2.500000*%
%ADD51R,2.400000X0.740000*%
%ADD52RoundRect,0.075000X-0.075000X0.725000X-0.075000X-0.725000X0.075000X-0.725000X0.075000X0.725000X0*%
%ADD53RoundRect,0.075000X-0.725000X0.075000X-0.725000X-0.075000X0.725000X-0.075000X0.725000X0.075000X0*%
G04 APERTURE END LIST*
D10*
%TO.C,U302*%
X126500000Y-120145000D03*
X126500000Y-118875000D03*
X126500000Y-117605000D03*
X126500000Y-116335000D03*
X126500000Y-115065000D03*
X126500000Y-113795000D03*
X126500000Y-112525000D03*
X126500000Y-111255000D03*
X118100000Y-111255000D03*
X118100000Y-112525000D03*
X118100000Y-113795000D03*
X118100000Y-115065000D03*
X118100000Y-116335000D03*
X118100000Y-117605000D03*
X118100000Y-118875000D03*
X118100000Y-120145000D03*
%TD*%
D11*
%TO.C,C610*%
X159110000Y-127470000D03*
X159110000Y-128430000D03*
%TD*%
D12*
%TO.C,C503*%
X110555000Y-136600000D03*
X109595000Y-136600000D03*
%TD*%
D13*
%TO.C,C303*%
X138820000Y-121760000D03*
X138820000Y-120800000D03*
%TD*%
D14*
%TO.C,R506*%
X104410000Y-142000000D03*
X103390000Y-142000000D03*
%TD*%
D15*
%TO.C,D505*%
X101515000Y-142000000D03*
X102485000Y-142000000D03*
%TD*%
D13*
%TO.C,C308*%
X133870000Y-111870000D03*
X133870000Y-110910000D03*
%TD*%
D16*
%TO.C,R604*%
X129500000Y-100010000D03*
X129500000Y-98990000D03*
%TD*%
D17*
%TO.C,R308*%
X138880000Y-117750000D03*
X139900000Y-117750000D03*
%TD*%
D12*
%TO.C,C602*%
X143980000Y-123500000D03*
X143020000Y-123500000D03*
%TD*%
D18*
%TO.C,D501*%
X112700000Y-132400000D03*
X112700000Y-130300000D03*
%TD*%
D16*
%TO.C,R608*%
X150622000Y-99572000D03*
X150622000Y-98552000D03*
%TD*%
D19*
%TO.C,U502*%
X109175000Y-132750000D03*
X110125000Y-132750000D03*
X111075000Y-132750000D03*
X111075000Y-130050000D03*
X110125000Y-130050000D03*
X109175000Y-130050000D03*
%TD*%
D20*
%TO.C,R314*%
X131700000Y-116400000D03*
X131700000Y-117420000D03*
%TD*%
D11*
%TO.C,C603*%
X158170000Y-127470000D03*
X158170000Y-128430000D03*
%TD*%
D21*
%TO.C,JP501*%
X143000000Y-152500000D03*
D22*
X143000000Y-151050000D03*
%TD*%
D12*
%TO.C,C304*%
X139860000Y-115750000D03*
X138900000Y-115750000D03*
%TD*%
%TO.C,C617*%
X143980000Y-124450000D03*
X143020000Y-124450000D03*
%TD*%
D11*
%TO.C,C302*%
X137025000Y-118140000D03*
X137025000Y-119100000D03*
%TD*%
D16*
%TO.C,R610*%
X146812000Y-99570000D03*
X146812000Y-98550000D03*
%TD*%
D23*
%TO.C,U201*%
X145260000Y-140090000D03*
X145260000Y-141360000D03*
X145260000Y-142630000D03*
X145260000Y-143900000D03*
X150721000Y-143900000D03*
X150721000Y-142630000D03*
X150721000Y-141360000D03*
X150721000Y-140090000D03*
%TD*%
D14*
%TO.C,R304*%
X139910000Y-112810000D03*
X138890000Y-112810000D03*
%TD*%
D17*
%TO.C,R322*%
X112940000Y-122650000D03*
X113960000Y-122650000D03*
%TD*%
D12*
%TO.C,C611*%
X143980000Y-113340000D03*
X143020000Y-113340000D03*
%TD*%
D11*
%TO.C,C616*%
X144500000Y-101020000D03*
X144500000Y-101980000D03*
%TD*%
D24*
%TO.C,D603*%
X146812000Y-96685000D03*
X146812000Y-97655000D03*
%TD*%
D20*
%TO.C,R609*%
X144500000Y-97190000D03*
X144500000Y-98210000D03*
%TD*%
D14*
%TO.C,R302*%
X139900000Y-116810000D03*
X138880000Y-116810000D03*
%TD*%
D11*
%TO.C,C504*%
X108075000Y-130820000D03*
X108075000Y-131780000D03*
%TD*%
D20*
%TO.C,R605*%
X129500000Y-97080000D03*
X129500000Y-98100000D03*
%TD*%
D13*
%TO.C,C307*%
X131770000Y-110660000D03*
X131770000Y-109700000D03*
%TD*%
D14*
%TO.C,R310*%
X139900000Y-114800000D03*
X138880000Y-114800000D03*
%TD*%
D16*
%TO.C,R602*%
X114500000Y-100020000D03*
X114500000Y-99000000D03*
%TD*%
%TO.C,R313*%
X132700000Y-112900000D03*
X132700000Y-111880000D03*
%TD*%
D25*
%TO.C,SW605*%
X142975000Y-101750000D03*
X135025000Y-101750000D03*
X142975000Y-97250000D03*
X135025000Y-97250000D03*
%TD*%
D16*
%TO.C,R607*%
X144500000Y-100110000D03*
X144500000Y-99090000D03*
%TD*%
D12*
%TO.C,C613*%
X143980000Y-125400000D03*
X143020000Y-125400000D03*
%TD*%
D17*
%TO.C,R202*%
X142790000Y-140090000D03*
X143810000Y-140090000D03*
%TD*%
D20*
%TO.C,R603*%
X114500000Y-97090000D03*
X114500000Y-98110000D03*
%TD*%
D16*
%TO.C,R501*%
X110125000Y-128860000D03*
X110125000Y-127840000D03*
%TD*%
D26*
%TO.C,C609*%
X162320000Y-112780000D03*
X163280000Y-112780000D03*
%TD*%
D24*
%TO.C,D601*%
X154559000Y-96670000D03*
X154559000Y-97640000D03*
%TD*%
%TO.C,FB301*%
X132700000Y-109715000D03*
X132700000Y-110685000D03*
%TD*%
D16*
%TO.C,R402*%
X110250000Y-156010000D03*
X110250000Y-154990000D03*
%TD*%
D20*
%TO.C,R306*%
X137030000Y-110960000D03*
X137030000Y-111980000D03*
%TD*%
D14*
%TO.C,R201*%
X143810000Y-141360000D03*
X142790000Y-141360000D03*
%TD*%
D27*
%TO.C,e501*%
X143000000Y-155800000D03*
D28*
X148080000Y-155800000D03*
X153160000Y-155800000D03*
%TD*%
D16*
%TO.C,R503*%
X112075000Y-128860000D03*
X112075000Y-127840000D03*
%TD*%
D26*
%TO.C,C618*%
X162320000Y-111860000D03*
X163280000Y-111860000D03*
%TD*%
D29*
%TO.C,H102*%
X157600000Y-100000000D03*
X158302944Y-98302944D03*
X158302944Y-101697056D03*
X160000000Y-97600000D03*
D30*
X160000000Y-100000000D03*
D29*
X160000000Y-102400000D03*
X161697056Y-98302944D03*
X161697056Y-101697056D03*
X162400000Y-100000000D03*
%TD*%
D16*
%TO.C,R502*%
X111125000Y-128860000D03*
X111125000Y-127840000D03*
%TD*%
D31*
%TO.C,J201*%
X154600000Y-138500000D03*
X154600000Y-141000000D03*
X154600000Y-143000000D03*
X154600000Y-145500000D03*
D32*
X156100000Y-148400000D03*
X162100000Y-148400000D03*
X156100000Y-135600000D03*
X162200000Y-135600000D03*
%TD*%
D13*
%TO.C,C201*%
X153200000Y-141280000D03*
X153200000Y-140320000D03*
%TD*%
D14*
%TO.C,R303*%
X139910000Y-113750000D03*
X138890000Y-113750000D03*
%TD*%
D25*
%TO.C,SW604*%
X127975000Y-101750000D03*
X120025000Y-101750000D03*
X127975000Y-97250000D03*
X120025000Y-97250000D03*
%TD*%
D14*
%TO.C,R316*%
X120910000Y-108500000D03*
X119890000Y-108500000D03*
%TD*%
D17*
%TO.C,R301*%
X140890000Y-115750000D03*
X141910000Y-115750000D03*
%TD*%
D11*
%TO.C,C612*%
X129500000Y-100890000D03*
X129500000Y-101850000D03*
%TD*%
D29*
%TO.C,H103*%
X157600000Y-160000000D03*
X158302944Y-158302944D03*
X158302944Y-161697056D03*
X160000000Y-157600000D03*
D30*
X160000000Y-160000000D03*
D29*
X160000000Y-162400000D03*
X161697056Y-158302944D03*
X161697056Y-161697056D03*
X162400000Y-160000000D03*
%TD*%
D15*
%TO.C,D503*%
X101515000Y-140000000D03*
X102485000Y-140000000D03*
%TD*%
D13*
%TO.C,C604*%
X154200000Y-109070000D03*
X154200000Y-108110000D03*
%TD*%
D17*
%TO.C,R318*%
X117980000Y-107500000D03*
X119000000Y-107500000D03*
%TD*%
D13*
%TO.C,C202*%
X152200000Y-141280000D03*
X152200000Y-140320000D03*
%TD*%
D26*
%TO.C,C501*%
X109595000Y-134700000D03*
X110555000Y-134700000D03*
%TD*%
D33*
%TO.C,U501*%
X131850000Y-160100000D03*
X121150000Y-160100000D03*
X122500000Y-128700000D03*
X130500000Y-128700000D03*
%TD*%
D14*
%TO.C,R504*%
X104400000Y-140000000D03*
X103380000Y-140000000D03*
%TD*%
D34*
%TO.C,J301*%
X100500000Y-109450000D03*
X100500000Y-121950000D03*
D35*
X110700000Y-119270000D03*
X110700000Y-118250000D03*
X110700000Y-117230000D03*
X110700000Y-116210000D03*
X110700000Y-115190000D03*
X110700000Y-114170000D03*
X110700000Y-113150000D03*
X110700000Y-112130000D03*
D36*
X110700000Y-109960000D03*
X110700000Y-108750000D03*
X110700000Y-122650000D03*
X110700000Y-121440000D03*
%TD*%
D17*
%TO.C,R320*%
X113030000Y-110109000D03*
X114050000Y-110109000D03*
%TD*%
D29*
%TO.C,H104*%
X97600000Y-160000000D03*
X98302944Y-158302944D03*
X98302944Y-161697056D03*
X100000000Y-157600000D03*
D30*
X100000000Y-160000000D03*
D29*
X100000000Y-162400000D03*
X101697056Y-158302944D03*
X101697056Y-161697056D03*
X102400000Y-160000000D03*
%TD*%
D11*
%TO.C,C306*%
X128750000Y-114660000D03*
X128750000Y-115620000D03*
%TD*%
D37*
%TO.C,U401*%
X107800000Y-153600000D03*
X108750000Y-153600000D03*
X109700000Y-153600000D03*
X109700000Y-151325000D03*
X108750000Y-151325000D03*
X107800000Y-151325000D03*
%TD*%
D38*
%TO.C,Y301*%
X137320000Y-120430000D03*
X135120000Y-120430000D03*
X135120000Y-122130000D03*
X137320000Y-122130000D03*
%TD*%
D13*
%TO.C,C606*%
X150370000Y-109090000D03*
X150370000Y-108130000D03*
%TD*%
D25*
%TO.C,SW603*%
X112975000Y-101750000D03*
X105025000Y-101750000D03*
X112975000Y-97250000D03*
X105025000Y-97250000D03*
%TD*%
D11*
%TO.C,C309*%
X134630000Y-118140000D03*
X134630000Y-119100000D03*
%TD*%
D39*
%TO.C,L501*%
X107050000Y-138300000D03*
X110200000Y-138300000D03*
%TD*%
D40*
%TO.C,J401*%
X105300000Y-157255000D03*
D41*
X105610000Y-158320000D03*
X111390000Y-158320000D03*
D40*
X111700000Y-157255000D03*
X106100000Y-157255000D03*
X110900000Y-157255000D03*
D42*
X107250000Y-157255000D03*
X108250000Y-157255000D03*
X108750000Y-157255000D03*
X109750000Y-157255000D03*
X110250000Y-157255000D03*
X109250000Y-157255000D03*
X107750000Y-157255000D03*
X106750000Y-157255000D03*
D43*
X104180000Y-157820000D03*
D44*
X104180000Y-162000000D03*
D43*
X112820000Y-157820000D03*
D44*
X112820000Y-162000000D03*
%TD*%
D17*
%TO.C,R309*%
X140890000Y-113830000D03*
X141910000Y-113830000D03*
%TD*%
D16*
%TO.C,R401*%
X107250000Y-156010000D03*
X107250000Y-154990000D03*
%TD*%
D17*
%TO.C,R321*%
X112950000Y-121440000D03*
X113970000Y-121440000D03*
%TD*%
D13*
%TO.C,C310*%
X133660000Y-119100000D03*
X133660000Y-118140000D03*
%TD*%
D12*
%TO.C,C312*%
X116500000Y-108500000D03*
X115540000Y-108500000D03*
%TD*%
D20*
%TO.C,R305*%
X136090000Y-110960000D03*
X136090000Y-111980000D03*
%TD*%
D45*
%TO.C,SW602*%
X97500000Y-141700000D03*
X97500000Y-138300000D03*
%TD*%
D29*
%TO.C,H101*%
X97600000Y-100000000D03*
X98302944Y-98302944D03*
X98302944Y-101697056D03*
X100000000Y-97600000D03*
D30*
X100000000Y-100000000D03*
D29*
X100000000Y-102400000D03*
X101697056Y-98302944D03*
X101697056Y-101697056D03*
X102400000Y-100000000D03*
%TD*%
D14*
%TO.C,R317*%
X120900000Y-107500000D03*
X119880000Y-107500000D03*
%TD*%
D46*
%TO.C,C505*%
X108425000Y-136375000D03*
X108425000Y-134825000D03*
%TD*%
D14*
%TO.C,R505*%
X104400000Y-144000000D03*
X103380000Y-144000000D03*
%TD*%
D11*
%TO.C,C608*%
X114500000Y-100920000D03*
X114500000Y-101880000D03*
%TD*%
D47*
%TO.C,D502*%
X112700000Y-135350000D03*
X112700000Y-137450000D03*
%TD*%
D12*
%TO.C,C601*%
X98080000Y-152150000D03*
X97120000Y-152150000D03*
%TD*%
D48*
%TO.C,U301*%
X134580000Y-116967500D03*
X135080000Y-116967500D03*
X135580000Y-116967500D03*
X136080000Y-116967500D03*
X136580000Y-116967500D03*
X137080000Y-116967500D03*
D49*
X137767500Y-116280000D03*
X137767500Y-115780000D03*
X137767500Y-115280000D03*
X137767500Y-114780000D03*
X137767500Y-114280000D03*
X137767500Y-113780000D03*
D48*
X137080000Y-113092500D03*
X136580000Y-113092500D03*
X136080000Y-113092500D03*
X135580000Y-113092500D03*
X135080000Y-113092500D03*
X134580000Y-113092500D03*
D49*
X133892500Y-113780000D03*
X133892500Y-114280000D03*
X133892500Y-114780000D03*
X133892500Y-115280000D03*
X133892500Y-115780000D03*
X133892500Y-116280000D03*
D50*
X135830000Y-115030000D03*
%TD*%
D13*
%TO.C,C614*%
X147400000Y-109110000D03*
X147400000Y-108150000D03*
%TD*%
D11*
%TO.C,C203*%
X152200000Y-142700000D03*
X152200000Y-143660000D03*
%TD*%
D46*
%TO.C,C506*%
X106925000Y-136375000D03*
X106925000Y-134825000D03*
%TD*%
D26*
%TO.C,C605*%
X97020000Y-137100000D03*
X97980000Y-137100000D03*
%TD*%
D13*
%TO.C,C615*%
X148400000Y-109100000D03*
X148400000Y-108140000D03*
%TD*%
D51*
%TO.C,J601*%
X98300000Y-126190000D03*
X102200000Y-126190000D03*
X98300000Y-127460000D03*
X102200000Y-127460000D03*
X98300000Y-128730000D03*
X102200000Y-128730000D03*
X98300000Y-130000000D03*
X102200000Y-130000000D03*
X98300000Y-131270000D03*
X102200000Y-131270000D03*
X98300000Y-132540000D03*
X102200000Y-132540000D03*
X98300000Y-133810000D03*
X102200000Y-133810000D03*
%TD*%
D17*
%TO.C,R601*%
X97090000Y-151200000D03*
X98110000Y-151200000D03*
%TD*%
D20*
%TO.C,R312*%
X132700000Y-117020000D03*
X132700000Y-118040000D03*
%TD*%
D17*
%TO.C,R307*%
X140890000Y-114800000D03*
X141910000Y-114800000D03*
%TD*%
D16*
%TO.C,R606*%
X154559000Y-99568000D03*
X154559000Y-98548000D03*
%TD*%
D24*
%TO.C,D602*%
X150622000Y-96687000D03*
X150622000Y-97657000D03*
%TD*%
D17*
%TO.C,R311*%
X129680000Y-113700000D03*
X130700000Y-113700000D03*
%TD*%
D14*
%TO.C,R315*%
X130700000Y-114700000D03*
X129680000Y-114700000D03*
%TD*%
D13*
%TO.C,C607*%
X149390000Y-109090000D03*
X149390000Y-108130000D03*
%TD*%
D52*
%TO.C,U601*%
X159170000Y-110645000D03*
X158670000Y-110645000D03*
X158170000Y-110645000D03*
X157670000Y-110645000D03*
X157170000Y-110645000D03*
X156670000Y-110645000D03*
X156170000Y-110645000D03*
X155670000Y-110645000D03*
X155170000Y-110645000D03*
X154670000Y-110645000D03*
X154170000Y-110645000D03*
X153670000Y-110645000D03*
X153170000Y-110645000D03*
X152670000Y-110645000D03*
X152170000Y-110645000D03*
X151670000Y-110645000D03*
X151170000Y-110645000D03*
X150670000Y-110645000D03*
X150170000Y-110645000D03*
X149670000Y-110645000D03*
X149170000Y-110645000D03*
X148670000Y-110645000D03*
X148170000Y-110645000D03*
X147670000Y-110645000D03*
X147170000Y-110645000D03*
D53*
X145495000Y-112320000D03*
X145495000Y-112820000D03*
X145495000Y-113320000D03*
X145495000Y-113820000D03*
X145495000Y-114320000D03*
X145495000Y-114820000D03*
X145495000Y-115320000D03*
X145495000Y-115820000D03*
X145495000Y-116320000D03*
X145495000Y-116820000D03*
X145495000Y-117320000D03*
X145495000Y-117820000D03*
X145495000Y-118320000D03*
X145495000Y-118820000D03*
X145495000Y-119320000D03*
X145495000Y-119820000D03*
X145495000Y-120320000D03*
X145495000Y-120820000D03*
X145495000Y-121320000D03*
X145495000Y-121820000D03*
X145495000Y-122320000D03*
X145495000Y-122820000D03*
X145495000Y-123320000D03*
X145495000Y-123820000D03*
X145495000Y-124320000D03*
D52*
X147170000Y-125995000D03*
X147670000Y-125995000D03*
X148170000Y-125995000D03*
X148670000Y-125995000D03*
X149170000Y-125995000D03*
X149670000Y-125995000D03*
X150170000Y-125995000D03*
X150670000Y-125995000D03*
X151170000Y-125995000D03*
X151670000Y-125995000D03*
X152170000Y-125995000D03*
X152670000Y-125995000D03*
X153170000Y-125995000D03*
X153670000Y-125995000D03*
X154170000Y-125995000D03*
X154670000Y-125995000D03*
X155170000Y-125995000D03*
X155670000Y-125995000D03*
X156170000Y-125995000D03*
X156670000Y-125995000D03*
X157170000Y-125995000D03*
X157670000Y-125995000D03*
X158170000Y-125995000D03*
X158670000Y-125995000D03*
X159170000Y-125995000D03*
D53*
X160845000Y-124320000D03*
X160845000Y-123820000D03*
X160845000Y-123320000D03*
X160845000Y-122820000D03*
X160845000Y-122320000D03*
X160845000Y-121820000D03*
X160845000Y-121320000D03*
X160845000Y-120820000D03*
X160845000Y-120320000D03*
X160845000Y-119820000D03*
X160845000Y-119320000D03*
X160845000Y-118820000D03*
X160845000Y-118320000D03*
X160845000Y-117820000D03*
X160845000Y-117320000D03*
X160845000Y-116820000D03*
X160845000Y-116320000D03*
X160845000Y-115820000D03*
X160845000Y-115320000D03*
X160845000Y-114820000D03*
X160845000Y-114320000D03*
X160845000Y-113820000D03*
X160845000Y-113320000D03*
X160845000Y-112820000D03*
X160845000Y-112320000D03*
%TD*%
D45*
%TO.C,SW601*%
X97500000Y-149200000D03*
X97500000Y-145800000D03*
%TD*%
D12*
%TO.C,C502*%
X110555000Y-135650000D03*
X109595000Y-135650000D03*
%TD*%
D15*
%TO.C,D504*%
X101515000Y-144000000D03*
X102485000Y-144000000D03*
%TD*%
D13*
%TO.C,C301*%
X137995000Y-119100000D03*
X137995000Y-118140000D03*
%TD*%
D20*
%TO.C,R203*%
X153200000Y-142180000D03*
X153200000Y-143200000D03*
%TD*%
D17*
%TO.C,R319*%
X117980000Y-108500000D03*
X119000000Y-108500000D03*
%TD*%
D11*
%TO.C,C305*%
X133620000Y-120800000D03*
X133620000Y-121760000D03*
%TD*%
G36*
X163943039Y-103219685D02*
G01*
X163988794Y-103272489D01*
X164000000Y-103324000D01*
X164000000Y-107676000D01*
X163980315Y-107743039D01*
X163927511Y-107788794D01*
X163876000Y-107800000D01*
X163124000Y-107800000D01*
X163056961Y-107780315D01*
X163011206Y-107727511D01*
X163000000Y-107676000D01*
X163000000Y-103324000D01*
X163019685Y-103256961D01*
X163072489Y-103211206D01*
X163124000Y-103200000D01*
X163876000Y-103200000D01*
X163943039Y-103219685D01*
G37*
G36*
X96943039Y-153219685D02*
G01*
X96988794Y-153272489D01*
X97000000Y-153324000D01*
X97000000Y-157676000D01*
X96980315Y-157743039D01*
X96927511Y-157788794D01*
X96876000Y-157800000D01*
X96124000Y-157800000D01*
X96056961Y-157780315D01*
X96011206Y-157727511D01*
X96000000Y-157676000D01*
X96000000Y-153324000D01*
X96019685Y-153256961D01*
X96072489Y-153211206D01*
X96124000Y-153200000D01*
X96876000Y-153200000D01*
X96943039Y-153219685D01*
G37*
G36*
X96943039Y-103119685D02*
G01*
X96988794Y-103172489D01*
X97000000Y-103224000D01*
X97000000Y-107576000D01*
X96980315Y-107643039D01*
X96927511Y-107688794D01*
X96876000Y-107700000D01*
X96124000Y-107700000D01*
X96056961Y-107680315D01*
X96011206Y-107627511D01*
X96000000Y-107576000D01*
X96000000Y-103224000D01*
X96019685Y-103156961D01*
X96072489Y-103111206D01*
X96124000Y-103100000D01*
X96876000Y-103100000D01*
X96943039Y-103119685D01*
G37*
G36*
X163943039Y-149219685D02*
G01*
X163988794Y-149272489D01*
X164000000Y-149324000D01*
X164000000Y-156876000D01*
X163980315Y-156943039D01*
X163927511Y-156988794D01*
X163876000Y-157000000D01*
X163124000Y-157000000D01*
X163056961Y-156980315D01*
X163011206Y-156927511D01*
X163000000Y-156876000D01*
X163000000Y-149324000D01*
X163019685Y-149256961D01*
X163072489Y-149211206D01*
X163124000Y-149200000D01*
X163876000Y-149200000D01*
X163943039Y-149219685D01*
G37*
G36*
X112293039Y-133819685D02*
G01*
X112338794Y-133872489D01*
X112350000Y-133924000D01*
X112350000Y-134176000D01*
X112330315Y-134243039D01*
X112277511Y-134288794D01*
X112226000Y-134300000D01*
X111974000Y-134300000D01*
X111906961Y-134280315D01*
X111861206Y-134227511D01*
X111850000Y-134176000D01*
X111850000Y-133924000D01*
X111869685Y-133856961D01*
X111922489Y-133811206D01*
X111974000Y-133800000D01*
X112226000Y-133800000D01*
X112293039Y-133819685D01*
G37*
G36*
X105943039Y-136919685D02*
G01*
X105988794Y-136972489D01*
X106000000Y-137024000D01*
X106000000Y-137276000D01*
X105980315Y-137343039D01*
X105927511Y-137388794D01*
X105876000Y-137400000D01*
X105624000Y-137400000D01*
X105556961Y-137380315D01*
X105511206Y-137327511D01*
X105500000Y-137276000D01*
X105500000Y-137024000D01*
X105519685Y-136956961D01*
X105572489Y-136911206D01*
X105624000Y-136900000D01*
X105876000Y-136900000D01*
X105943039Y-136919685D01*
G37*
G36*
X113143039Y-128619685D02*
G01*
X113188794Y-128672489D01*
X113200000Y-128724000D01*
X113200000Y-128976000D01*
X113180315Y-129043039D01*
X113127511Y-129088794D01*
X113076000Y-129100000D01*
X112824000Y-129100000D01*
X112756961Y-129080315D01*
X112711206Y-129027511D01*
X112700000Y-128976000D01*
X112700000Y-128724000D01*
X112719685Y-128656961D01*
X112772489Y-128611206D01*
X112824000Y-128600000D01*
X113076000Y-128600000D01*
X113143039Y-128619685D01*
G37*
M02*
