%TF.GenerationSoftware,KiCad,Pcbnew,8.0.3-8.0.3-0~ubuntu22.04.1*%
%TF.CreationDate,2024-07-03T11:37:09+02:00*%
%TF.ProjectId,FabOS_MB,4661624f-535f-44d4-922e-6b696361645f,rev?*%
%TF.SameCoordinates,Original*%
%TF.FileFunction,Soldermask,Bot*%
%TF.FilePolarity,Negative*%
%FSLAX46Y46*%
G04 Gerber Fmt 4.6, Leading zero omitted, Abs format (unit mm)*
G04 Created by KiCad (PCBNEW 8.0.3-8.0.3-0~ubuntu22.04.1) date 2024-07-03 11:37:09*
%MOMM*%
%LPD*%
G01*
G04 APERTURE LIST*
G04 Aperture macros list*
%AMRoundRect*
0 Rectangle with rounded corners*
0 $1 Rounding radius*
0 $2 $3 $4 $5 $6 $7 $8 $9 X,Y pos of 4 corners*
0 Add a 4 corners polygon primitive as box body*
4,1,4,$2,$3,$4,$5,$6,$7,$8,$9,$2,$3,0*
0 Add four circle primitives for the rounded corners*
1,1,$1+$1,$2,$3*
1,1,$1+$1,$4,$5*
1,1,$1+$1,$6,$7*
1,1,$1+$1,$8,$9*
0 Add four rect primitives between the rounded corners*
20,1,$1+$1,$2,$3,$4,$5,0*
20,1,$1+$1,$4,$5,$6,$7,0*
20,1,$1+$1,$6,$7,$8,$9,0*
20,1,$1+$1,$8,$9,$2,$3,0*%
G04 Aperture macros list end*
%ADD10RoundRect,0.250000X-0.650000X-1.550000X0.650000X-1.550000X0.650000X1.550000X-0.650000X1.550000X0*%
%ADD11O,1.800000X3.600000*%
%ADD12C,0.800000*%
%ADD13C,6.400000*%
%ADD14C,1.200000*%
%ADD15O,1.800000X0.900000*%
%ADD16C,1.500000*%
%ADD17C,3.400000*%
%ADD18C,0.700000*%
%ADD19O,1.000000X2.100000*%
%ADD20O,1.000000X1.800000*%
G04 APERTURE END LIST*
D10*
%TO.C,e501*%
X143000000Y-155800000D03*
D11*
X148080000Y-155800000D03*
X153160000Y-155800000D03*
%TD*%
D12*
%TO.C,H102*%
X157600000Y-100000000D03*
X158302944Y-98302944D03*
X158302944Y-101697056D03*
X160000000Y-97600000D03*
D13*
X160000000Y-100000000D03*
D12*
X160000000Y-102400000D03*
X161697056Y-98302944D03*
X161697056Y-101697056D03*
X162400000Y-100000000D03*
%TD*%
D14*
%TO.C,J201*%
X154600000Y-138500000D03*
X154600000Y-141000000D03*
X154600000Y-143000000D03*
X154600000Y-145500000D03*
D15*
X156100000Y-148400000D03*
X162100000Y-148400000D03*
X156100000Y-135600000D03*
X162200000Y-135600000D03*
%TD*%
D12*
%TO.C,H103*%
X157600000Y-160000000D03*
X158302944Y-158302944D03*
X158302944Y-161697056D03*
X160000000Y-157600000D03*
D13*
X160000000Y-160000000D03*
D12*
X160000000Y-162400000D03*
X161697056Y-158302944D03*
X161697056Y-161697056D03*
X162400000Y-160000000D03*
%TD*%
D16*
%TO.C,U501*%
X131850000Y-160100000D03*
X121150000Y-160100000D03*
X122500000Y-128700000D03*
X130500000Y-128700000D03*
%TD*%
D17*
%TO.C,J301*%
X100500000Y-109450000D03*
X100500000Y-121950000D03*
%TD*%
D12*
%TO.C,H104*%
X97600000Y-160000000D03*
X98302944Y-158302944D03*
X98302944Y-161697056D03*
X100000000Y-157600000D03*
D13*
X100000000Y-160000000D03*
D12*
X100000000Y-162400000D03*
X101697056Y-158302944D03*
X101697056Y-161697056D03*
X102400000Y-160000000D03*
%TD*%
D18*
%TO.C,J401*%
X105610000Y-158320000D03*
X111390000Y-158320000D03*
D19*
X104180000Y-157820000D03*
D20*
X104180000Y-162000000D03*
D19*
X112820000Y-157820000D03*
D20*
X112820000Y-162000000D03*
%TD*%
D12*
%TO.C,H101*%
X97600000Y-100000000D03*
X98302944Y-98302944D03*
X98302944Y-101697056D03*
X100000000Y-97600000D03*
D13*
X100000000Y-100000000D03*
D12*
X100000000Y-102400000D03*
X101697056Y-98302944D03*
X101697056Y-101697056D03*
X102400000Y-100000000D03*
%TD*%
G36*
X163943039Y-103219685D02*
G01*
X163988794Y-103272489D01*
X164000000Y-103324000D01*
X164000000Y-107676000D01*
X163980315Y-107743039D01*
X163927511Y-107788794D01*
X163876000Y-107800000D01*
X163124000Y-107800000D01*
X163056961Y-107780315D01*
X163011206Y-107727511D01*
X163000000Y-107676000D01*
X163000000Y-103324000D01*
X163019685Y-103256961D01*
X163072489Y-103211206D01*
X163124000Y-103200000D01*
X163876000Y-103200000D01*
X163943039Y-103219685D01*
G37*
G36*
X96943039Y-153219685D02*
G01*
X96988794Y-153272489D01*
X97000000Y-153324000D01*
X97000000Y-157676000D01*
X96980315Y-157743039D01*
X96927511Y-157788794D01*
X96876000Y-157800000D01*
X96124000Y-157800000D01*
X96056961Y-157780315D01*
X96011206Y-157727511D01*
X96000000Y-157676000D01*
X96000000Y-153324000D01*
X96019685Y-153256961D01*
X96072489Y-153211206D01*
X96124000Y-153200000D01*
X96876000Y-153200000D01*
X96943039Y-153219685D01*
G37*
G36*
X96943039Y-103119685D02*
G01*
X96988794Y-103172489D01*
X97000000Y-103224000D01*
X97000000Y-107576000D01*
X96980315Y-107643039D01*
X96927511Y-107688794D01*
X96876000Y-107700000D01*
X96124000Y-107700000D01*
X96056961Y-107680315D01*
X96011206Y-107627511D01*
X96000000Y-107576000D01*
X96000000Y-103224000D01*
X96019685Y-103156961D01*
X96072489Y-103111206D01*
X96124000Y-103100000D01*
X96876000Y-103100000D01*
X96943039Y-103119685D01*
G37*
G36*
X163943039Y-149219685D02*
G01*
X163988794Y-149272489D01*
X164000000Y-149324000D01*
X164000000Y-156876000D01*
X163980315Y-156943039D01*
X163927511Y-156988794D01*
X163876000Y-157000000D01*
X163124000Y-157000000D01*
X163056961Y-156980315D01*
X163011206Y-156927511D01*
X163000000Y-156876000D01*
X163000000Y-149324000D01*
X163019685Y-149256961D01*
X163072489Y-149211206D01*
X163124000Y-149200000D01*
X163876000Y-149200000D01*
X163943039Y-149219685D01*
G37*
M02*
