%TF.GenerationSoftware,KiCad,Pcbnew,8.0.3-8.0.3-0~ubuntu22.04.1*%
%TF.CreationDate,2024-07-03T11:37:09+02:00*%
%TF.ProjectId,FabOS_MB,4661624f-535f-44d4-922e-6b696361645f,rev?*%
%TF.SameCoordinates,Original*%
%TF.FileFunction,Copper,L1,Top*%
%TF.FilePolarity,Positive*%
%FSLAX46Y46*%
G04 Gerber Fmt 4.6, Leading zero omitted, Abs format (unit mm)*
G04 Created by KiCad (PCBNEW 8.0.3-8.0.3-0~ubuntu22.04.1) date 2024-07-03 11:37:09*
%MOMM*%
%LPD*%
G01*
G04 APERTURE LIST*
G04 Aperture macros list*
%AMRoundRect*
0 Rectangle with rounded corners*
0 $1 Rounding radius*
0 $2 $3 $4 $5 $6 $7 $8 $9 X,Y pos of 4 corners*
0 Add a 4 corners polygon primitive as box body*
4,1,4,$2,$3,$4,$5,$6,$7,$8,$9,$2,$3,0*
0 Add four circle primitives for the rounded corners*
1,1,$1+$1,$2,$3*
1,1,$1+$1,$4,$5*
1,1,$1+$1,$6,$7*
1,1,$1+$1,$8,$9*
0 Add four rect primitives between the rounded corners*
20,1,$1+$1,$2,$3,$4,$5,0*
20,1,$1+$1,$4,$5,$6,$7,0*
20,1,$1+$1,$6,$7,$8,$9,0*
20,1,$1+$1,$8,$9,$2,$3,0*%
%AMFreePoly0*
4,1,6,1.000000,0.000000,0.500000,-0.750000,-0.500000,-0.750000,-0.500000,0.750000,0.500000,0.750000,1.000000,0.000000,1.000000,0.000000,$1*%
%AMFreePoly1*
4,1,6,0.500000,-0.750000,-0.650000,-0.750000,-0.150000,0.000000,-0.650000,0.750000,0.500000,0.750000,0.500000,-0.750000,0.500000,-0.750000,$1*%
G04 Aperture macros list end*
%TA.AperFunction,SMDPad,CuDef*%
%ADD10R,2.250000X0.750000*%
%TD*%
%TA.AperFunction,SMDPad,CuDef*%
%ADD11RoundRect,0.140000X-0.170000X0.140000X-0.170000X-0.140000X0.170000X-0.140000X0.170000X0.140000X0*%
%TD*%
%TA.AperFunction,SMDPad,CuDef*%
%ADD12RoundRect,0.140000X0.140000X0.170000X-0.140000X0.170000X-0.140000X-0.170000X0.140000X-0.170000X0*%
%TD*%
%TA.AperFunction,SMDPad,CuDef*%
%ADD13RoundRect,0.140000X0.170000X-0.140000X0.170000X0.140000X-0.170000X0.140000X-0.170000X-0.140000X0*%
%TD*%
%TA.AperFunction,SMDPad,CuDef*%
%ADD14RoundRect,0.135000X0.135000X0.185000X-0.135000X0.185000X-0.135000X-0.185000X0.135000X-0.185000X0*%
%TD*%
%TA.AperFunction,SMDPad,CuDef*%
%ADD15RoundRect,0.147500X-0.147500X-0.172500X0.147500X-0.172500X0.147500X0.172500X-0.147500X0.172500X0*%
%TD*%
%TA.AperFunction,SMDPad,CuDef*%
%ADD16RoundRect,0.135000X0.185000X-0.135000X0.185000X0.135000X-0.185000X0.135000X-0.185000X-0.135000X0*%
%TD*%
%TA.AperFunction,SMDPad,CuDef*%
%ADD17RoundRect,0.135000X-0.135000X-0.185000X0.135000X-0.185000X0.135000X0.185000X-0.135000X0.185000X0*%
%TD*%
%TA.AperFunction,SMDPad,CuDef*%
%ADD18RoundRect,0.112500X0.112500X-0.187500X0.112500X0.187500X-0.112500X0.187500X-0.112500X-0.187500X0*%
%TD*%
%TA.AperFunction,SMDPad,CuDef*%
%ADD19RoundRect,0.150000X0.150000X-0.400000X0.150000X0.400000X-0.150000X0.400000X-0.150000X-0.400000X0*%
%TD*%
%TA.AperFunction,SMDPad,CuDef*%
%ADD20RoundRect,0.135000X-0.185000X0.135000X-0.185000X-0.135000X0.185000X-0.135000X0.185000X0.135000X0*%
%TD*%
%TA.AperFunction,SMDPad,CuDef*%
%ADD21FreePoly0,90.000000*%
%TD*%
%TA.AperFunction,SMDPad,CuDef*%
%ADD22FreePoly1,90.000000*%
%TD*%
%TA.AperFunction,SMDPad,CuDef*%
%ADD23RoundRect,0.152400X-0.609600X0.152400X-0.609600X-0.152400X0.609600X-0.152400X0.609600X0.152400X0*%
%TD*%
%TA.AperFunction,SMDPad,CuDef*%
%ADD24RoundRect,0.147500X-0.172500X0.147500X-0.172500X-0.147500X0.172500X-0.147500X0.172500X0.147500X0*%
%TD*%
%TA.AperFunction,SMDPad,CuDef*%
%ADD25R,1.550000X1.300000*%
%TD*%
%TA.AperFunction,SMDPad,CuDef*%
%ADD26RoundRect,0.140000X-0.140000X-0.170000X0.140000X-0.170000X0.140000X0.170000X-0.140000X0.170000X0*%
%TD*%
%TA.AperFunction,ComponentPad*%
%ADD27RoundRect,0.250000X-0.650000X-1.550000X0.650000X-1.550000X0.650000X1.550000X-0.650000X1.550000X0*%
%TD*%
%TA.AperFunction,ComponentPad*%
%ADD28O,1.800000X3.600000*%
%TD*%
%TA.AperFunction,ComponentPad*%
%ADD29C,0.800000*%
%TD*%
%TA.AperFunction,ComponentPad*%
%ADD30C,6.400000*%
%TD*%
%TA.AperFunction,ComponentPad*%
%ADD31C,1.200000*%
%TD*%
%TA.AperFunction,ComponentPad*%
%ADD32O,1.800000X0.900000*%
%TD*%
%TA.AperFunction,ComponentPad*%
%ADD33C,1.500000*%
%TD*%
%TA.AperFunction,SMDPad,CuDef*%
%ADD34R,3.500000X0.700000*%
%TD*%
%TA.AperFunction,SMDPad,CuDef*%
%ADD35R,3.500000X0.800000*%
%TD*%
%TA.AperFunction,SMDPad,CuDef*%
%ADD36RoundRect,0.150000X0.150000X-0.512500X0.150000X0.512500X-0.150000X0.512500X-0.150000X-0.512500X0*%
%TD*%
%TA.AperFunction,SMDPad,CuDef*%
%ADD37R,1.400000X1.200000*%
%TD*%
%TA.AperFunction,SMDPad,CuDef*%
%ADD38RoundRect,0.250000X-0.275000X-0.700000X0.275000X-0.700000X0.275000X0.700000X-0.275000X0.700000X0*%
%TD*%
%TA.AperFunction,SMDPad,CuDef*%
%ADD39R,0.600000X1.150000*%
%TD*%
%TA.AperFunction,ComponentPad*%
%ADD40C,0.700000*%
%TD*%
%TA.AperFunction,SMDPad,CuDef*%
%ADD41R,0.309000X1.140000*%
%TD*%
%TA.AperFunction,ComponentPad*%
%ADD42O,1.000000X2.100000*%
%TD*%
%TA.AperFunction,ComponentPad*%
%ADD43O,1.000000X1.800000*%
%TD*%
%TA.AperFunction,SMDPad,CuDef*%
%ADD44R,1.700000X0.900000*%
%TD*%
%TA.AperFunction,SMDPad,CuDef*%
%ADD45RoundRect,0.225000X0.250000X-0.225000X0.250000X0.225000X-0.250000X0.225000X-0.250000X-0.225000X0*%
%TD*%
%TA.AperFunction,SMDPad,CuDef*%
%ADD46RoundRect,0.112500X-0.112500X0.187500X-0.112500X-0.187500X0.112500X-0.187500X0.112500X0.187500X0*%
%TD*%
%TA.AperFunction,SMDPad,CuDef*%
%ADD47RoundRect,0.062500X0.062500X-0.375000X0.062500X0.375000X-0.062500X0.375000X-0.062500X-0.375000X0*%
%TD*%
%TA.AperFunction,SMDPad,CuDef*%
%ADD48RoundRect,0.062500X0.375000X-0.062500X0.375000X0.062500X-0.375000X0.062500X-0.375000X-0.062500X0*%
%TD*%
%TA.AperFunction,HeatsinkPad*%
%ADD49C,0.500000*%
%TD*%
%TA.AperFunction,HeatsinkPad*%
%ADD50R,2.500000X2.500000*%
%TD*%
%TA.AperFunction,SMDPad,CuDef*%
%ADD51R,2.400000X0.740000*%
%TD*%
%TA.AperFunction,SMDPad,CuDef*%
%ADD52RoundRect,0.075000X-0.075000X0.725000X-0.075000X-0.725000X0.075000X-0.725000X0.075000X0.725000X0*%
%TD*%
%TA.AperFunction,SMDPad,CuDef*%
%ADD53RoundRect,0.075000X-0.725000X0.075000X-0.725000X-0.075000X0.725000X-0.075000X0.725000X0.075000X0*%
%TD*%
%TA.AperFunction,ViaPad*%
%ADD54C,0.300000*%
%TD*%
%TA.AperFunction,Conductor*%
%ADD55C,0.150000*%
%TD*%
%TA.AperFunction,Conductor*%
%ADD56C,1.500000*%
%TD*%
%TA.AperFunction,Conductor*%
%ADD57C,0.500000*%
%TD*%
%TA.AperFunction,Conductor*%
%ADD58C,0.200000*%
%TD*%
G04 APERTURE END LIST*
D10*
%TO.P,U302,1,TD+*%
%TO.N,/ethernet/TD+*%
X126500000Y-120145000D03*
%TO.P,U302,2,TCT*%
%TO.N,/ethernet/CT*%
X126500000Y-118875000D03*
%TO.P,U302,3,TD-*%
%TO.N,/ethernet/TD-*%
X126500000Y-117605000D03*
%TO.P,U302,4*%
%TO.N,N/C*%
X126500000Y-116335000D03*
%TO.P,U302,5*%
X126500000Y-115065000D03*
%TO.P,U302,6,RD+*%
%TO.N,/ethernet/RD+*%
X126500000Y-113795000D03*
%TO.P,U302,7,RCT*%
%TO.N,/ethernet/CT*%
X126500000Y-112525000D03*
%TO.P,U302,8,RD-*%
%TO.N,/ethernet/RD-*%
X126500000Y-111255000D03*
%TO.P,U302,9,RX-*%
%TO.N,/ethernet/RX-*%
X118100000Y-111255000D03*
%TO.P,U302,10,RXCT*%
%TO.N,/ethernet/RXCT*%
X118100000Y-112525000D03*
%TO.P,U302,11,RX+*%
%TO.N,/ethernet/RX+*%
X118100000Y-113795000D03*
%TO.P,U302,12*%
%TO.N,N/C*%
X118100000Y-115065000D03*
%TO.P,U302,13*%
X118100000Y-116335000D03*
%TO.P,U302,14,TX-*%
%TO.N,/ethernet/TX-*%
X118100000Y-117605000D03*
%TO.P,U302,15,TXCT*%
%TO.N,/ethernet/TXCT*%
X118100000Y-118875000D03*
%TO.P,U302,16,TX+*%
%TO.N,/ethernet/TX+*%
X118100000Y-120145000D03*
%TD*%
D11*
%TO.P,C610,1*%
%TO.N,+3.3V*%
X159110000Y-127470000D03*
%TO.P,C610,2*%
%TO.N,GND*%
X159110000Y-128430000D03*
%TD*%
D12*
%TO.P,C503,1*%
%TO.N,/power/5V_max*%
X110555000Y-136600000D03*
%TO.P,C503,2*%
%TO.N,GND*%
X109595000Y-136600000D03*
%TD*%
D13*
%TO.P,C303,1*%
%TO.N,GND*%
X138820000Y-121760000D03*
%TO.P,C303,2*%
%TO.N,Net-(U301-XTAL1{slash}CLKIN)*%
X138820000Y-120800000D03*
%TD*%
D14*
%TO.P,R506,1*%
%TO.N,/5V_Flyback*%
X104410000Y-142000000D03*
%TO.P,R506,2*%
%TO.N,Net-(D505-A)*%
X103390000Y-142000000D03*
%TD*%
D15*
%TO.P,D505,1,K*%
%TO.N,GND*%
X101515000Y-142000000D03*
%TO.P,D505,2,A*%
%TO.N,Net-(D505-A)*%
X102485000Y-142000000D03*
%TD*%
D13*
%TO.P,C308,1*%
%TO.N,/ethernet/CT*%
X133870000Y-111870000D03*
%TO.P,C308,2*%
%TO.N,GND*%
X133870000Y-110910000D03*
%TD*%
D16*
%TO.P,R604,1*%
%TO.N,/STM32/BTN2*%
X129500000Y-100010000D03*
%TO.P,R604,2*%
%TO.N,Net-(R604-Pad2)*%
X129500000Y-98990000D03*
%TD*%
D17*
%TO.P,R308,1*%
%TO.N,Net-(U301-RXD1{slash}MODE1)*%
X138880000Y-117750000D03*
%TO.P,R308,2*%
%TO.N,+3.3V*%
X139900000Y-117750000D03*
%TD*%
D12*
%TO.P,C602,1*%
%TO.N,Net-(U601-VCAP_1)*%
X143980000Y-123500000D03*
%TO.P,C602,2*%
%TO.N,GND*%
X143020000Y-123500000D03*
%TD*%
D18*
%TO.P,D501,1,K*%
%TO.N,/power/5V_max*%
X112700000Y-132400000D03*
%TO.P,D501,2,A*%
%TO.N,/5V_Flyback*%
X112700000Y-130300000D03*
%TD*%
D16*
%TO.P,R608,1*%
%TO.N,/STM32/LED2*%
X150622000Y-99572000D03*
%TO.P,R608,2*%
%TO.N,Net-(D602-A)*%
X150622000Y-98552000D03*
%TD*%
D19*
%TO.P,U502,1,GND*%
%TO.N,GND*%
X109175000Y-132750000D03*
%TO.P,U502,2,SW*%
%TO.N,Net-(U502-SW)*%
X110125000Y-132750000D03*
%TO.P,U502,3,VIN*%
%TO.N,/power/5V_max*%
X111075000Y-132750000D03*
%TO.P,U502,4,VFB*%
%TO.N,Net-(U502-VFB)*%
X111075000Y-130050000D03*
%TO.P,U502,5,EN*%
%TO.N,Net-(U502-EN)*%
X110125000Y-130050000D03*
%TO.P,U502,6,VBST*%
%TO.N,Net-(U502-VBST)*%
X109175000Y-130050000D03*
%TD*%
D20*
%TO.P,R314,1*%
%TO.N,/ethernet/TD+*%
X131700000Y-116400000D03*
%TO.P,R314,2*%
%TO.N,/ethernet/CT*%
X131700000Y-117420000D03*
%TD*%
D11*
%TO.P,C603,1*%
%TO.N,Net-(U601-VCAP_2)*%
X158170000Y-127470000D03*
%TO.P,C603,2*%
%TO.N,GND*%
X158170000Y-128430000D03*
%TD*%
D21*
%TO.P,JP501,1,A*%
%TO.N,Earth*%
X143000000Y-152500000D03*
D22*
%TO.P,JP501,2,B*%
%TO.N,GND*%
X143000000Y-151050000D03*
%TD*%
D12*
%TO.P,C304,1*%
%TO.N,GND*%
X139860000Y-115750000D03*
%TO.P,C304,2*%
%TO.N,+3.3V*%
X138900000Y-115750000D03*
%TD*%
%TO.P,C617,1*%
%TO.N,+3.3V*%
X143980000Y-124450000D03*
%TO.P,C617,2*%
%TO.N,GND*%
X143020000Y-124450000D03*
%TD*%
D11*
%TO.P,C302,1*%
%TO.N,/ethernet/VDDCR*%
X137025000Y-118140000D03*
%TO.P,C302,2*%
%TO.N,GND*%
X137025000Y-119100000D03*
%TD*%
D16*
%TO.P,R610,1*%
%TO.N,/STM32/LED3*%
X146812000Y-99570000D03*
%TO.P,R610,2*%
%TO.N,Net-(D603-A)*%
X146812000Y-98550000D03*
%TD*%
D23*
%TO.P,U201,1,RxD*%
%TO.N,/USART1_RX*%
X145260000Y-140090000D03*
%TO.P,U201,2,EN*%
%TO.N,/LIN_EN*%
X145260000Y-141360000D03*
%TO.P,U201,3,NC*%
%TO.N,unconnected-(U201-NC-Pad3)*%
X145260000Y-142630000D03*
%TO.P,U201,4,TxD*%
%TO.N,/USART1_TX*%
X145260000Y-143900000D03*
%TO.P,U201,5,GND*%
%TO.N,GND*%
X150721000Y-143900000D03*
%TO.P,U201,6,LIN*%
%TO.N,/LIN/LIN*%
X150721000Y-142630000D03*
%TO.P,U201,7,VBB*%
%TO.N,/5V_Flyback*%
X150721000Y-141360000D03*
%TO.P,U201,8,NC*%
%TO.N,unconnected-(U201-NC-Pad8)*%
X150721000Y-140090000D03*
%TD*%
D14*
%TO.P,R304,1*%
%TO.N,+3.3V*%
X139910000Y-112810000D03*
%TO.P,R304,2*%
%TO.N,/ETH_MDI0*%
X138890000Y-112810000D03*
%TD*%
D17*
%TO.P,R322,1*%
%TO.N,Net-(J301-LED2-)*%
X112940000Y-122650000D03*
%TO.P,R322,2*%
%TO.N,GND*%
X113960000Y-122650000D03*
%TD*%
D12*
%TO.P,C611,1*%
%TO.N,+3.3V*%
X143980000Y-113340000D03*
%TO.P,C611,2*%
%TO.N,GND*%
X143020000Y-113340000D03*
%TD*%
D11*
%TO.P,C616,1*%
%TO.N,/STM32/BTN3*%
X144500000Y-101020000D03*
%TO.P,C616,2*%
%TO.N,GND*%
X144500000Y-101980000D03*
%TD*%
D24*
%TO.P,D603,1,K*%
%TO.N,GND*%
X146812000Y-96685000D03*
%TO.P,D603,2,A*%
%TO.N,Net-(D603-A)*%
X146812000Y-97655000D03*
%TD*%
D20*
%TO.P,R609,1*%
%TO.N,+3.3V*%
X144500000Y-97190000D03*
%TO.P,R609,2*%
%TO.N,Net-(R607-Pad2)*%
X144500000Y-98210000D03*
%TD*%
D14*
%TO.P,R302,1*%
%TO.N,/ETH_RXD1*%
X139900000Y-116810000D03*
%TO.P,R302,2*%
%TO.N,Net-(U301-RXD1{slash}MODE1)*%
X138880000Y-116810000D03*
%TD*%
D11*
%TO.P,C504,1*%
%TO.N,Net-(U502-VBST)*%
X108075000Y-130820000D03*
%TO.P,C504,2*%
%TO.N,Net-(U502-SW)*%
X108075000Y-131780000D03*
%TD*%
D20*
%TO.P,R605,1*%
%TO.N,+3.3V*%
X129500000Y-97080000D03*
%TO.P,R605,2*%
%TO.N,Net-(R604-Pad2)*%
X129500000Y-98100000D03*
%TD*%
D13*
%TO.P,C307,1*%
%TO.N,/ethernet/CT*%
X131770000Y-110660000D03*
%TO.P,C307,2*%
%TO.N,GND*%
X131770000Y-109700000D03*
%TD*%
D14*
%TO.P,R310,1*%
%TO.N,GND*%
X139900000Y-114800000D03*
%TO.P,R310,2*%
%TO.N,Net-(U301-RXER{slash}PHYAD0)*%
X138880000Y-114800000D03*
%TD*%
D16*
%TO.P,R602,1*%
%TO.N,/STM32/BTN1*%
X114500000Y-100020000D03*
%TO.P,R602,2*%
%TO.N,Net-(R602-Pad2)*%
X114500000Y-99000000D03*
%TD*%
%TO.P,R313,1*%
%TO.N,/ethernet/RD-*%
X132700000Y-112900000D03*
%TO.P,R313,2*%
%TO.N,/ethernet/CT*%
X132700000Y-111880000D03*
%TD*%
D25*
%TO.P,SW605,1,1*%
%TO.N,GND*%
X142975000Y-101750000D03*
X135025000Y-101750000D03*
%TO.P,SW605,2,2*%
%TO.N,Net-(R607-Pad2)*%
X142975000Y-97250000D03*
X135025000Y-97250000D03*
%TD*%
D16*
%TO.P,R607,1*%
%TO.N,/STM32/BTN3*%
X144500000Y-100110000D03*
%TO.P,R607,2*%
%TO.N,Net-(R607-Pad2)*%
X144500000Y-99090000D03*
%TD*%
D12*
%TO.P,C613,1*%
%TO.N,+3.3V*%
X143980000Y-125400000D03*
%TO.P,C613,2*%
%TO.N,GND*%
X143020000Y-125400000D03*
%TD*%
D17*
%TO.P,R202,1*%
%TO.N,+3.3V*%
X142790000Y-140090000D03*
%TO.P,R202,2*%
%TO.N,/USART1_RX*%
X143810000Y-140090000D03*
%TD*%
D20*
%TO.P,R603,1*%
%TO.N,+3.3V*%
X114500000Y-97090000D03*
%TO.P,R603,2*%
%TO.N,Net-(R602-Pad2)*%
X114500000Y-98110000D03*
%TD*%
D16*
%TO.P,R501,1*%
%TO.N,Net-(U502-EN)*%
X110125000Y-128860000D03*
%TO.P,R501,2*%
%TO.N,/power/5V_max*%
X110125000Y-127840000D03*
%TD*%
D26*
%TO.P,C609,1*%
%TO.N,+3.3V*%
X162320000Y-112780000D03*
%TO.P,C609,2*%
%TO.N,GND*%
X163280000Y-112780000D03*
%TD*%
D24*
%TO.P,D601,1,K*%
%TO.N,GND*%
X154559000Y-96670000D03*
%TO.P,D601,2,A*%
%TO.N,Net-(D601-A)*%
X154559000Y-97640000D03*
%TD*%
%TO.P,FB301,1*%
%TO.N,+3.3V*%
X132700000Y-109715000D03*
%TO.P,FB301,2*%
%TO.N,/ethernet/CT*%
X132700000Y-110685000D03*
%TD*%
D16*
%TO.P,R402,1*%
%TO.N,Net-(J401-CC2)*%
X110250000Y-156010000D03*
%TO.P,R402,2*%
%TO.N,GND*%
X110250000Y-154990000D03*
%TD*%
D20*
%TO.P,R306,1*%
%TO.N,+3.3V*%
X137030000Y-110960000D03*
%TO.P,R306,2*%
%TO.N,Net-(U301-~{INT}{slash}REFCLKO)*%
X137030000Y-111980000D03*
%TD*%
D14*
%TO.P,R201,1*%
%TO.N,/LIN_EN*%
X143810000Y-141360000D03*
%TO.P,R201,2*%
%TO.N,GND*%
X142790000Y-141360000D03*
%TD*%
D27*
%TO.P,e501,1,Pin_1*%
%TO.N,Earth*%
X143000000Y-155800000D03*
D28*
%TO.P,e501,2,Pin_2*%
%TO.N,N*%
X148080000Y-155800000D03*
%TO.P,e501,3,Pin_3*%
%TO.N,L*%
X153160000Y-155800000D03*
%TD*%
D16*
%TO.P,R503,1*%
%TO.N,Net-(U502-VFB)*%
X112075000Y-128860000D03*
%TO.P,R503,2*%
%TO.N,+3.3V*%
X112075000Y-127840000D03*
%TD*%
D26*
%TO.P,C618,1*%
%TO.N,+3.3V*%
X162320000Y-111860000D03*
%TO.P,C618,2*%
%TO.N,GND*%
X163280000Y-111860000D03*
%TD*%
D29*
%TO.P,H102,1,1*%
%TO.N,GND*%
X157600000Y-100000000D03*
X158302944Y-98302944D03*
X158302944Y-101697056D03*
X160000000Y-97600000D03*
D30*
X160000000Y-100000000D03*
D29*
X160000000Y-102400000D03*
X161697056Y-98302944D03*
X161697056Y-101697056D03*
X162400000Y-100000000D03*
%TD*%
D16*
%TO.P,R502,1*%
%TO.N,Net-(U502-VFB)*%
X111125000Y-128860000D03*
%TO.P,R502,2*%
%TO.N,GND*%
X111125000Y-127840000D03*
%TD*%
D31*
%TO.P,J201,1,VBUS*%
%TO.N,/5V_Flyback*%
X154600000Y-138500000D03*
%TO.P,J201,2,D-*%
%TO.N,/ES*%
X154600000Y-141000000D03*
%TO.P,J201,3,D+*%
%TO.N,/LIN/LIN*%
X154600000Y-143000000D03*
%TO.P,J201,4,GND*%
%TO.N,GND*%
X154600000Y-145500000D03*
D32*
%TO.P,J201,GND*%
%TO.N,N/C*%
X156100000Y-148400000D03*
X162100000Y-148400000D03*
X156100000Y-135600000D03*
X162200000Y-135600000D03*
%TD*%
D13*
%TO.P,C201,1*%
%TO.N,/5V_Flyback*%
X153200000Y-141280000D03*
%TO.P,C201,2*%
%TO.N,GND*%
X153200000Y-140320000D03*
%TD*%
D14*
%TO.P,R303,1*%
%TO.N,/ETH_CRS_DV*%
X139910000Y-113750000D03*
%TO.P,R303,2*%
%TO.N,Net-(U301-CRS_DV{slash}MODE2)*%
X138890000Y-113750000D03*
%TD*%
D25*
%TO.P,SW604,1,1*%
%TO.N,GND*%
X127975000Y-101750000D03*
X120025000Y-101750000D03*
%TO.P,SW604,2,2*%
%TO.N,Net-(R604-Pad2)*%
X127975000Y-97250000D03*
X120025000Y-97250000D03*
%TD*%
D14*
%TO.P,R316,1*%
%TO.N,/ethernet/RXCT*%
X120910000Y-108500000D03*
%TO.P,R316,2*%
%TO.N,Net-(C312-Pad1)*%
X119890000Y-108500000D03*
%TD*%
D17*
%TO.P,R301,1*%
%TO.N,Net-(U301-RXD0{slash}MODE0)*%
X140890000Y-115750000D03*
%TO.P,R301,2*%
%TO.N,/ETH_RXD0*%
X141910000Y-115750000D03*
%TD*%
D11*
%TO.P,C612,1*%
%TO.N,/STM32/BTN2*%
X129500000Y-100890000D03*
%TO.P,C612,2*%
%TO.N,GND*%
X129500000Y-101850000D03*
%TD*%
D29*
%TO.P,H103,1,1*%
%TO.N,GND*%
X157600000Y-160000000D03*
X158302944Y-158302944D03*
X158302944Y-161697056D03*
X160000000Y-157600000D03*
D30*
X160000000Y-160000000D03*
D29*
X160000000Y-162400000D03*
X161697056Y-158302944D03*
X161697056Y-161697056D03*
X162400000Y-160000000D03*
%TD*%
D15*
%TO.P,D503,1,K*%
%TO.N,GND*%
X101515000Y-140000000D03*
%TO.P,D503,2,A*%
%TO.N,Net-(D503-A)*%
X102485000Y-140000000D03*
%TD*%
D13*
%TO.P,C604,1*%
%TO.N,+3.3V*%
X154200000Y-109070000D03*
%TO.P,C604,2*%
%TO.N,GND*%
X154200000Y-108110000D03*
%TD*%
D17*
%TO.P,R318,1*%
%TO.N,Net-(J301-Pad4)*%
X117980000Y-107500000D03*
%TO.P,R318,2*%
%TO.N,Net-(C312-Pad1)*%
X119000000Y-107500000D03*
%TD*%
D13*
%TO.P,C202,1*%
%TO.N,/5V_Flyback*%
X152200000Y-141280000D03*
%TO.P,C202,2*%
%TO.N,GND*%
X152200000Y-140320000D03*
%TD*%
D26*
%TO.P,C501,1*%
%TO.N,GND*%
X109595000Y-134700000D03*
%TO.P,C501,2*%
%TO.N,/power/5V_max*%
X110555000Y-134700000D03*
%TD*%
D33*
%TO.P,U501,1,N*%
%TO.N,N*%
X131850000Y-160100000D03*
%TO.P,U501,2,L*%
%TO.N,L*%
X121150000Y-160100000D03*
%TO.P,U501,4,V-*%
%TO.N,GND*%
X122500000Y-128700000D03*
%TO.P,U501,6,V+*%
%TO.N,/5V_Flyback*%
X130500000Y-128700000D03*
%TD*%
D14*
%TO.P,R504,1*%
%TO.N,+3.3V*%
X104400000Y-140000000D03*
%TO.P,R504,2*%
%TO.N,Net-(D503-A)*%
X103380000Y-140000000D03*
%TD*%
D34*
%TO.P,J301,1,TX+*%
%TO.N,/ethernet/TX+*%
X110700000Y-119270000D03*
%TO.P,J301,2,TX-*%
%TO.N,/ethernet/TX-*%
X110700000Y-118250000D03*
%TO.P,J301,3,RX+*%
%TO.N,/ethernet/RX+*%
X110700000Y-117230000D03*
%TO.P,J301,4*%
%TO.N,Net-(J301-Pad4)*%
X110700000Y-116210000D03*
%TO.P,J301,5*%
X110700000Y-115190000D03*
%TO.P,J301,6,RX-*%
%TO.N,/ethernet/RX-*%
X110700000Y-114170000D03*
%TO.P,J301,7*%
%TO.N,Net-(J301-Pad7)*%
X110700000Y-113150000D03*
%TO.P,J301,8*%
X110700000Y-112130000D03*
D35*
%TO.P,J301,9,LED1-*%
%TO.N,Net-(J301-LED1-)*%
X110700000Y-109960000D03*
%TO.P,J301,10,LED1+*%
%TO.N,/ethernet/LED1+*%
X110700000Y-108750000D03*
%TO.P,J301,11,LED2-*%
%TO.N,Net-(J301-LED2-)*%
X110700000Y-122650000D03*
%TO.P,J301,12,LED2+*%
%TO.N,/ethernet/LED2+*%
X110700000Y-121440000D03*
%TD*%
D17*
%TO.P,R320,1*%
%TO.N,Net-(J301-LED1-)*%
X113030000Y-110109000D03*
%TO.P,R320,2*%
%TO.N,GND*%
X114050000Y-110109000D03*
%TD*%
D29*
%TO.P,H104,1,1*%
%TO.N,GND*%
X97600000Y-160000000D03*
X98302944Y-158302944D03*
X98302944Y-161697056D03*
X100000000Y-157600000D03*
D30*
X100000000Y-160000000D03*
D29*
X100000000Y-162400000D03*
X101697056Y-158302944D03*
X101697056Y-161697056D03*
X102400000Y-160000000D03*
%TD*%
D11*
%TO.P,C306,1*%
%TO.N,/ethernet/CT*%
X128750000Y-114660000D03*
%TO.P,C306,2*%
%TO.N,GND*%
X128750000Y-115620000D03*
%TD*%
D36*
%TO.P,U401,1,I/O1*%
%TO.N,/USB_C/D-*%
X107800000Y-153600000D03*
%TO.P,U401,2,GND*%
%TO.N,GND*%
X108750000Y-153600000D03*
%TO.P,U401,3,I/O2*%
%TO.N,/USB_C/D+*%
X109700000Y-153600000D03*
%TO.P,U401,4,I/O2*%
%TO.N,/USB_D+*%
X109700000Y-151325000D03*
%TO.P,U401,5,VBUS*%
%TO.N,/5V_USB*%
X108750000Y-151325000D03*
%TO.P,U401,6,I/O1*%
%TO.N,/USB_D-*%
X107800000Y-151325000D03*
%TD*%
D37*
%TO.P,Y301,1,1*%
%TO.N,Net-(U301-XTAL1{slash}CLKIN)*%
X137320000Y-120430000D03*
%TO.P,Y301,2,2*%
%TO.N,GND*%
X135120000Y-120430000D03*
%TO.P,Y301,3,3*%
%TO.N,Net-(U301-XTAL2)*%
X135120000Y-122130000D03*
%TO.P,Y301,4,4*%
%TO.N,GND*%
X137320000Y-122130000D03*
%TD*%
D13*
%TO.P,C606,1*%
%TO.N,+3.3V*%
X150370000Y-109090000D03*
%TO.P,C606,2*%
%TO.N,GND*%
X150370000Y-108130000D03*
%TD*%
D25*
%TO.P,SW603,1,1*%
%TO.N,GND*%
X112975000Y-101750000D03*
X105025000Y-101750000D03*
%TO.P,SW603,2,2*%
%TO.N,Net-(R602-Pad2)*%
X112975000Y-97250000D03*
X105025000Y-97250000D03*
%TD*%
D11*
%TO.P,C309,1*%
%TO.N,/ethernet/CT*%
X134630000Y-118140000D03*
%TO.P,C309,2*%
%TO.N,GND*%
X134630000Y-119100000D03*
%TD*%
D38*
%TO.P,L501,1,1*%
%TO.N,+3.3V*%
X107050000Y-138300000D03*
%TO.P,L501,2,2*%
%TO.N,Net-(U502-SW)*%
X110200000Y-138300000D03*
%TD*%
D39*
%TO.P,J401,A1,GND*%
%TO.N,GND*%
X105300000Y-157255000D03*
D40*
X105610000Y-158320000D03*
X111390000Y-158320000D03*
D39*
X111700000Y-157255000D03*
%TO.P,J401,A4,VBUS*%
%TO.N,/5V_USB*%
X106100000Y-157255000D03*
X110900000Y-157255000D03*
D41*
%TO.P,J401,A5,CC1*%
%TO.N,Net-(J401-CC1)*%
X107250000Y-157255000D03*
%TO.P,J401,A6,D+*%
%TO.N,/USB_C/D+*%
X108250000Y-157255000D03*
%TO.P,J401,A7,D-*%
%TO.N,/USB_C/D-*%
X108750000Y-157255000D03*
%TO.P,J401,A8,SBU1*%
%TO.N,unconnected-(J401-SBU1-PadA8)*%
X109750000Y-157255000D03*
%TO.P,J401,B5,CC2*%
%TO.N,Net-(J401-CC2)*%
X110250000Y-157255000D03*
%TO.P,J401,B6,D+*%
%TO.N,/USB_C/D+*%
X109250000Y-157255000D03*
%TO.P,J401,B7,D-*%
%TO.N,/USB_C/D-*%
X107750000Y-157255000D03*
%TO.P,J401,B8,SBU2*%
%TO.N,unconnected-(J401-SBU2-PadB8)*%
X106750000Y-157255000D03*
D42*
%TO.P,J401,S1,SHIELD*%
%TO.N,GND*%
X104180000Y-157820000D03*
D43*
X104180000Y-162000000D03*
D42*
X112820000Y-157820000D03*
D43*
X112820000Y-162000000D03*
%TD*%
D17*
%TO.P,R309,1*%
%TO.N,Net-(U301-CRS_DV{slash}MODE2)*%
X140890000Y-113830000D03*
%TO.P,R309,2*%
%TO.N,+3.3V*%
X141910000Y-113830000D03*
%TD*%
D16*
%TO.P,R401,1*%
%TO.N,Net-(J401-CC1)*%
X107250000Y-156010000D03*
%TO.P,R401,2*%
%TO.N,GND*%
X107250000Y-154990000D03*
%TD*%
D17*
%TO.P,R321,1*%
%TO.N,/ethernet/LED2+*%
X112950000Y-121440000D03*
%TO.P,R321,2*%
%TO.N,GND*%
X113970000Y-121440000D03*
%TD*%
D13*
%TO.P,C310,1*%
%TO.N,GND*%
X133660000Y-119100000D03*
%TO.P,C310,2*%
%TO.N,/ethernet/CT*%
X133660000Y-118140000D03*
%TD*%
D12*
%TO.P,C312,1*%
%TO.N,Net-(C312-Pad1)*%
X116500000Y-108500000D03*
%TO.P,C312,2*%
%TO.N,GND*%
X115540000Y-108500000D03*
%TD*%
D20*
%TO.P,R305,1*%
%TO.N,/ETH_REF_CLK*%
X136090000Y-110960000D03*
%TO.P,R305,2*%
%TO.N,Net-(U301-~{INT}{slash}REFCLKO)*%
X136090000Y-111980000D03*
%TD*%
D44*
%TO.P,SW602,1,1*%
%TO.N,GND*%
X97500000Y-141700000D03*
%TO.P,SW602,2,2*%
%TO.N,/STM32/NRST*%
X97500000Y-138300000D03*
%TD*%
D29*
%TO.P,H101,1,1*%
%TO.N,GND*%
X97600000Y-100000000D03*
X98302944Y-98302944D03*
X98302944Y-101697056D03*
X100000000Y-97600000D03*
D30*
X100000000Y-100000000D03*
D29*
X100000000Y-102400000D03*
X101697056Y-98302944D03*
X101697056Y-101697056D03*
X102400000Y-100000000D03*
%TD*%
D14*
%TO.P,R317,1*%
%TO.N,/ethernet/TXCT*%
X120900000Y-107500000D03*
%TO.P,R317,2*%
%TO.N,Net-(C312-Pad1)*%
X119880000Y-107500000D03*
%TD*%
D45*
%TO.P,C505,1*%
%TO.N,+3.3V*%
X108425000Y-136375000D03*
%TO.P,C505,2*%
%TO.N,GND*%
X108425000Y-134825000D03*
%TD*%
D14*
%TO.P,R505,1*%
%TO.N,/5V_USB*%
X104400000Y-144000000D03*
%TO.P,R505,2*%
%TO.N,Net-(D504-A)*%
X103380000Y-144000000D03*
%TD*%
D11*
%TO.P,C608,1*%
%TO.N,/STM32/BTN1*%
X114500000Y-100920000D03*
%TO.P,C608,2*%
%TO.N,GND*%
X114500000Y-101880000D03*
%TD*%
D46*
%TO.P,D502,1,K*%
%TO.N,/power/5V_max*%
X112700000Y-135350000D03*
%TO.P,D502,2,A*%
%TO.N,/5V_USB*%
X112700000Y-137450000D03*
%TD*%
D12*
%TO.P,C601,1*%
%TO.N,GND*%
X98080000Y-152150000D03*
%TO.P,C601,2*%
%TO.N,Net-(U601-BOOT0)*%
X97120000Y-152150000D03*
%TD*%
D47*
%TO.P,U301,1,VDD2A*%
%TO.N,/ethernet/CT*%
X134580000Y-116967500D03*
%TO.P,U301,2,LED2/~{INTSEL}*%
%TO.N,/ethernet/LED2+*%
X135080000Y-116967500D03*
%TO.P,U301,3,LED1/REGOFF*%
%TO.N,/ethernet/LED1+*%
X135580000Y-116967500D03*
%TO.P,U301,4,XTAL2*%
%TO.N,Net-(U301-XTAL2)*%
X136080000Y-116967500D03*
%TO.P,U301,5,XTAL1/CLKIN*%
%TO.N,Net-(U301-XTAL1{slash}CLKIN)*%
X136580000Y-116967500D03*
%TO.P,U301,6,VDDCR*%
%TO.N,/ethernet/VDDCR*%
X137080000Y-116967500D03*
D48*
%TO.P,U301,7,RXD1/MODE1*%
%TO.N,Net-(U301-RXD1{slash}MODE1)*%
X137767500Y-116280000D03*
%TO.P,U301,8,RXD0/MODE0*%
%TO.N,Net-(U301-RXD0{slash}MODE0)*%
X137767500Y-115780000D03*
%TO.P,U301,9,VDDIO*%
%TO.N,+3.3V*%
X137767500Y-115280000D03*
%TO.P,U301,10,RXER/PHYAD0*%
%TO.N,Net-(U301-RXER{slash}PHYAD0)*%
X137767500Y-114780000D03*
%TO.P,U301,11,CRS_DV/MODE2*%
%TO.N,Net-(U301-CRS_DV{slash}MODE2)*%
X137767500Y-114280000D03*
%TO.P,U301,12,MDIO*%
%TO.N,/ETH_MDI0*%
X137767500Y-113780000D03*
D47*
%TO.P,U301,13,MDC*%
%TO.N,/ETH_MDC*%
X137080000Y-113092500D03*
%TO.P,U301,14,~{INT}/REFCLKO*%
%TO.N,Net-(U301-~{INT}{slash}REFCLKO)*%
X136580000Y-113092500D03*
%TO.P,U301,15,~{RST}*%
%TO.N,/NRST_ETH*%
X136080000Y-113092500D03*
%TO.P,U301,16,TXEN*%
%TO.N,/ETH_TX_EN*%
X135580000Y-113092500D03*
%TO.P,U301,17,TXD0*%
%TO.N,/ETH_TXD0*%
X135080000Y-113092500D03*
%TO.P,U301,18,TXD1*%
%TO.N,/ETH_TXD1*%
X134580000Y-113092500D03*
D48*
%TO.P,U301,19,VDD1A*%
%TO.N,/ethernet/CT*%
X133892500Y-113780000D03*
%TO.P,U301,20,TXN*%
%TO.N,/ethernet/RD-*%
X133892500Y-114280000D03*
%TO.P,U301,21,TXP*%
%TO.N,/ethernet/RD+*%
X133892500Y-114780000D03*
%TO.P,U301,22,RXN*%
%TO.N,/ethernet/TD-*%
X133892500Y-115280000D03*
%TO.P,U301,23,RXP*%
%TO.N,/ethernet/TD+*%
X133892500Y-115780000D03*
%TO.P,U301,24,RBIAS*%
%TO.N,Net-(U301-RBIAS)*%
X133892500Y-116280000D03*
D49*
%TO.P,U301,25,VSS*%
%TO.N,GND*%
X134830000Y-116030000D03*
X135830000Y-116030000D03*
X136830000Y-116030000D03*
X134830000Y-115030000D03*
X135830000Y-115030000D03*
D50*
X135830000Y-115030000D03*
D49*
X136830000Y-115030000D03*
X134830000Y-114030000D03*
X135830000Y-114030000D03*
X136830000Y-114030000D03*
%TD*%
D13*
%TO.P,C614,1*%
%TO.N,+3.3V*%
X147400000Y-109110000D03*
%TO.P,C614,2*%
%TO.N,GND*%
X147400000Y-108150000D03*
%TD*%
D11*
%TO.P,C203,1*%
%TO.N,/LIN/LIN*%
X152200000Y-142700000D03*
%TO.P,C203,2*%
%TO.N,GND*%
X152200000Y-143660000D03*
%TD*%
D45*
%TO.P,C506,1*%
%TO.N,+3.3V*%
X106925000Y-136375000D03*
%TO.P,C506,2*%
%TO.N,GND*%
X106925000Y-134825000D03*
%TD*%
D26*
%TO.P,C605,1*%
%TO.N,/STM32/NRST*%
X97020000Y-137100000D03*
%TO.P,C605,2*%
%TO.N,GND*%
X97980000Y-137100000D03*
%TD*%
D13*
%TO.P,C615,1*%
%TO.N,+3.3V*%
X148400000Y-109100000D03*
%TO.P,C615,2*%
%TO.N,GND*%
X148400000Y-108140000D03*
%TD*%
D51*
%TO.P,J601,1,NC*%
%TO.N,unconnected-(J601-NC-Pad1)*%
X98300000Y-126190000D03*
%TO.P,J601,2,NC*%
%TO.N,unconnected-(J601-NC-Pad2)*%
X102200000Y-126190000D03*
%TO.P,J601,3,VCC*%
%TO.N,+3.3V*%
X98300000Y-127460000D03*
%TO.P,J601,4,JTMS/SWDIO*%
%TO.N,/STM32/SWDIO*%
X102200000Y-127460000D03*
%TO.P,J601,5,GND*%
%TO.N,GND*%
X98300000Y-128730000D03*
%TO.P,J601,6,JCLK/SWCLK*%
%TO.N,/STM32/SWCLK*%
X102200000Y-128730000D03*
%TO.P,J601,7,GND*%
%TO.N,GND*%
X98300000Y-130000000D03*
%TO.P,J601,8,JTDO/SWO*%
%TO.N,unconnected-(J601-JTDO{slash}SWO-Pad8)*%
X102200000Y-130000000D03*
%TO.P,J601,9,JRCLK/NC*%
%TO.N,unconnected-(J601-JRCLK{slash}NC-Pad9)*%
X98300000Y-131270000D03*
%TO.P,J601,10,JTDI/NC*%
%TO.N,unconnected-(J601-JTDI{slash}NC-Pad10)*%
X102200000Y-131270000D03*
%TO.P,J601,11,GNDDetect*%
%TO.N,GND*%
X98300000Y-132540000D03*
%TO.P,J601,12,~{RST}*%
%TO.N,/STM32/NRST*%
X102200000Y-132540000D03*
%TO.P,J601,13,VCP_RX*%
%TO.N,/STM32/VCP_RX*%
X98300000Y-133810000D03*
%TO.P,J601,14,VCP_TX*%
%TO.N,/STM32/VCP_TX*%
X102200000Y-133810000D03*
%TD*%
D17*
%TO.P,R601,1*%
%TO.N,Net-(U601-BOOT0)*%
X97090000Y-151200000D03*
%TO.P,R601,2*%
%TO.N,GND*%
X98110000Y-151200000D03*
%TD*%
D20*
%TO.P,R312,1*%
%TO.N,Net-(U301-RBIAS)*%
X132700000Y-117020000D03*
%TO.P,R312,2*%
%TO.N,GND*%
X132700000Y-118040000D03*
%TD*%
D17*
%TO.P,R307,1*%
%TO.N,Net-(U301-RXD0{slash}MODE0)*%
X140890000Y-114800000D03*
%TO.P,R307,2*%
%TO.N,+3.3V*%
X141910000Y-114800000D03*
%TD*%
D16*
%TO.P,R606,1*%
%TO.N,/STM32/LED1*%
X154559000Y-99568000D03*
%TO.P,R606,2*%
%TO.N,Net-(D601-A)*%
X154559000Y-98548000D03*
%TD*%
D24*
%TO.P,D602,1,K*%
%TO.N,GND*%
X150622000Y-96687000D03*
%TO.P,D602,2,A*%
%TO.N,Net-(D602-A)*%
X150622000Y-97657000D03*
%TD*%
D17*
%TO.P,R311,1*%
%TO.N,/ethernet/CT*%
X129680000Y-113700000D03*
%TO.P,R311,2*%
%TO.N,/ethernet/RD+*%
X130700000Y-113700000D03*
%TD*%
D14*
%TO.P,R315,1*%
%TO.N,/ethernet/TD-*%
X130700000Y-114700000D03*
%TO.P,R315,2*%
%TO.N,/ethernet/CT*%
X129680000Y-114700000D03*
%TD*%
D13*
%TO.P,C607,1*%
%TO.N,+3.3V*%
X149390000Y-109090000D03*
%TO.P,C607,2*%
%TO.N,GND*%
X149390000Y-108130000D03*
%TD*%
D52*
%TO.P,U601,1,PE2*%
%TO.N,/STM32/LED1*%
X159170000Y-110645000D03*
%TO.P,U601,2,PE3*%
%TO.N,/STM32/LED2*%
X158670000Y-110645000D03*
%TO.P,U601,3,PE4*%
%TO.N,/STM32/LED3*%
X158170000Y-110645000D03*
%TO.P,U601,4,PE5*%
%TO.N,/STM32/BTN3*%
X157670000Y-110645000D03*
%TO.P,U601,5,PE6*%
%TO.N,/STM32/BTN2*%
X157170000Y-110645000D03*
%TO.P,U601,6,VBAT*%
%TO.N,+3.3V*%
X156670000Y-110645000D03*
%TO.P,U601,7,PC13*%
%TO.N,/STM32/BTN1*%
X156170000Y-110645000D03*
%TO.P,U601,8,PC14*%
%TO.N,unconnected-(U601-PC14-Pad8)*%
X155670000Y-110645000D03*
%TO.P,U601,9,PC15*%
%TO.N,unconnected-(U601-PC15-Pad9)*%
X155170000Y-110645000D03*
%TO.P,U601,10,VSS*%
%TO.N,GND*%
X154670000Y-110645000D03*
%TO.P,U601,11,VDD*%
%TO.N,+3.3V*%
X154170000Y-110645000D03*
%TO.P,U601,12,PH0*%
%TO.N,unconnected-(U601-PH0-Pad12)*%
X153670000Y-110645000D03*
%TO.P,U601,13,PH1*%
%TO.N,unconnected-(U601-PH1-Pad13)*%
X153170000Y-110645000D03*
%TO.P,U601,14,NRST*%
%TO.N,/STM32/NRST*%
X152670000Y-110645000D03*
%TO.P,U601,15,PC0*%
%TO.N,unconnected-(U601-PC0-Pad15)*%
X152170000Y-110645000D03*
%TO.P,U601,16,PC1*%
%TO.N,/ETH_MDC*%
X151670000Y-110645000D03*
%TO.P,U601,17,PC2*%
%TO.N,unconnected-(U601-PC2-Pad17)*%
X151170000Y-110645000D03*
%TO.P,U601,18,PC3*%
%TO.N,unconnected-(U601-PC3-Pad18)*%
X150670000Y-110645000D03*
%TO.P,U601,19,VDD*%
%TO.N,+3.3V*%
X150170000Y-110645000D03*
%TO.P,U601,20,VSSA*%
%TO.N,GND*%
X149670000Y-110645000D03*
%TO.P,U601,21,VREF+*%
%TO.N,+3.3V*%
X149170000Y-110645000D03*
%TO.P,U601,22,VDDA*%
X148670000Y-110645000D03*
%TO.P,U601,23,PA0*%
%TO.N,unconnected-(U601-PA0-Pad23)*%
X148170000Y-110645000D03*
%TO.P,U601,24,PA1*%
%TO.N,/ETH_REF_CLK*%
X147670000Y-110645000D03*
%TO.P,U601,25,PA2*%
%TO.N,/ETH_MDI0*%
X147170000Y-110645000D03*
D53*
%TO.P,U601,26,PA3*%
%TO.N,unconnected-(U601-PA3-Pad26)*%
X145495000Y-112320000D03*
%TO.P,U601,27,VSS*%
%TO.N,GND*%
X145495000Y-112820000D03*
%TO.P,U601,28,VDD*%
%TO.N,+3.3V*%
X145495000Y-113320000D03*
%TO.P,U601,29,PA4*%
%TO.N,unconnected-(U601-PA4-Pad29)*%
X145495000Y-113820000D03*
%TO.P,U601,30,PA5*%
%TO.N,unconnected-(U601-PA5-Pad30)*%
X145495000Y-114320000D03*
%TO.P,U601,31,PA6*%
%TO.N,/NRST_ETH*%
X145495000Y-114820000D03*
%TO.P,U601,32,PA7*%
%TO.N,/ETH_CRS_DV*%
X145495000Y-115320000D03*
%TO.P,U601,33,PC4*%
%TO.N,/ETH_RXD0*%
X145495000Y-115820000D03*
%TO.P,U601,34,PC5*%
%TO.N,/ETH_RXD1*%
X145495000Y-116320000D03*
%TO.P,U601,35,PB0*%
%TO.N,unconnected-(U601-PB0-Pad35)*%
X145495000Y-116820000D03*
%TO.P,U601,36,PB1*%
%TO.N,unconnected-(U601-PB1-Pad36)*%
X145495000Y-117320000D03*
%TO.P,U601,37,PB2*%
%TO.N,unconnected-(U601-PB2-Pad37)*%
X145495000Y-117820000D03*
%TO.P,U601,38,PE7*%
%TO.N,unconnected-(U601-PE7-Pad38)*%
X145495000Y-118320000D03*
%TO.P,U601,39,PE8*%
%TO.N,unconnected-(U601-PE8-Pad39)*%
X145495000Y-118820000D03*
%TO.P,U601,40,PE9*%
%TO.N,unconnected-(U601-PE9-Pad40)*%
X145495000Y-119320000D03*
%TO.P,U601,41,PE10*%
%TO.N,unconnected-(U601-PE10-Pad41)*%
X145495000Y-119820000D03*
%TO.P,U601,42,PE11*%
%TO.N,unconnected-(U601-PE11-Pad42)*%
X145495000Y-120320000D03*
%TO.P,U601,43,PE12*%
%TO.N,unconnected-(U601-PE12-Pad43)*%
X145495000Y-120820000D03*
%TO.P,U601,44,PE13*%
%TO.N,unconnected-(U601-PE13-Pad44)*%
X145495000Y-121320000D03*
%TO.P,U601,45,PE14*%
%TO.N,unconnected-(U601-PE14-Pad45)*%
X145495000Y-121820000D03*
%TO.P,U601,46,PE15*%
%TO.N,unconnected-(U601-PE15-Pad46)*%
X145495000Y-122320000D03*
%TO.P,U601,47,PB10*%
%TO.N,unconnected-(U601-PB10-Pad47)*%
X145495000Y-122820000D03*
%TO.P,U601,48,PB11*%
%TO.N,/ETH_TX_EN*%
X145495000Y-123320000D03*
%TO.P,U601,49,VCAP_1*%
%TO.N,Net-(U601-VCAP_1)*%
X145495000Y-123820000D03*
%TO.P,U601,50,VDD*%
%TO.N,+3.3V*%
X145495000Y-124320000D03*
D52*
%TO.P,U601,51,PB12*%
%TO.N,/ETH_TXD0*%
X147170000Y-125995000D03*
%TO.P,U601,52,PB13*%
%TO.N,/ETH_TXD1*%
X147670000Y-125995000D03*
%TO.P,U601,53,PB14*%
%TO.N,unconnected-(U601-PB14-Pad53)*%
X148170000Y-125995000D03*
%TO.P,U601,54,PB15*%
%TO.N,unconnected-(U601-PB15-Pad54)*%
X148670000Y-125995000D03*
%TO.P,U601,55,PD8*%
%TO.N,unconnected-(U601-PD8-Pad55)*%
X149170000Y-125995000D03*
%TO.P,U601,56,PD9*%
%TO.N,unconnected-(U601-PD9-Pad56)*%
X149670000Y-125995000D03*
%TO.P,U601,57,PD10*%
%TO.N,unconnected-(U601-PD10-Pad57)*%
X150170000Y-125995000D03*
%TO.P,U601,58,PD11*%
%TO.N,unconnected-(U601-PD11-Pad58)*%
X150670000Y-125995000D03*
%TO.P,U601,59,PD12*%
%TO.N,unconnected-(U601-PD12-Pad59)*%
X151170000Y-125995000D03*
%TO.P,U601,60,PD13*%
%TO.N,unconnected-(U601-PD13-Pad60)*%
X151670000Y-125995000D03*
%TO.P,U601,61,PD14*%
%TO.N,unconnected-(U601-PD14-Pad61)*%
X152170000Y-125995000D03*
%TO.P,U601,62,PD15*%
%TO.N,unconnected-(U601-PD15-Pad62)*%
X152670000Y-125995000D03*
%TO.P,U601,63,PC6*%
%TO.N,unconnected-(U601-PC6-Pad63)*%
X153170000Y-125995000D03*
%TO.P,U601,64,PC7*%
%TO.N,unconnected-(U601-PC7-Pad64)*%
X153670000Y-125995000D03*
%TO.P,U601,65,PC8*%
%TO.N,unconnected-(U601-PC8-Pad65)*%
X154170000Y-125995000D03*
%TO.P,U601,66,PC9*%
%TO.N,unconnected-(U601-PC9-Pad66)*%
X154670000Y-125995000D03*
%TO.P,U601,67,PA8*%
%TO.N,unconnected-(U601-PA8-Pad67)*%
X155170000Y-125995000D03*
%TO.P,U601,68,PA9*%
%TO.N,unconnected-(U601-PA9-Pad68)*%
X155670000Y-125995000D03*
%TO.P,U601,69,PA10*%
%TO.N,unconnected-(U601-PA10-Pad69)*%
X156170000Y-125995000D03*
%TO.P,U601,70,PA11*%
%TO.N,/USB_D-*%
X156670000Y-125995000D03*
%TO.P,U601,71,PA12*%
%TO.N,/USB_D+*%
X157170000Y-125995000D03*
%TO.P,U601,72,PA13*%
%TO.N,/STM32/SWDIO*%
X157670000Y-125995000D03*
%TO.P,U601,73,VCAP_2*%
%TO.N,Net-(U601-VCAP_2)*%
X158170000Y-125995000D03*
%TO.P,U601,74,VSS*%
%TO.N,GND*%
X158670000Y-125995000D03*
%TO.P,U601,75,VDD*%
%TO.N,+3.3V*%
X159170000Y-125995000D03*
D53*
%TO.P,U601,76,PA14*%
%TO.N,/STM32/SWCLK*%
X160845000Y-124320000D03*
%TO.P,U601,77,PA15*%
%TO.N,/ES*%
X160845000Y-123820000D03*
%TO.P,U601,78,PC10*%
%TO.N,/STM32/VCP_TX*%
X160845000Y-123320000D03*
%TO.P,U601,79,PC11*%
%TO.N,/STM32/VCP_RX*%
X160845000Y-122820000D03*
%TO.P,U601,80,PC12*%
%TO.N,unconnected-(U601-PC12-Pad80)*%
X160845000Y-122320000D03*
%TO.P,U601,81,PD0*%
%TO.N,unconnected-(U601-PD0-Pad81)*%
X160845000Y-121820000D03*
%TO.P,U601,82,PD1*%
%TO.N,unconnected-(U601-PD1-Pad82)*%
X160845000Y-121320000D03*
%TO.P,U601,83,PD2*%
%TO.N,unconnected-(U601-PD2-Pad83)*%
X160845000Y-120820000D03*
%TO.P,U601,84,PD3*%
%TO.N,unconnected-(U601-PD3-Pad84)*%
X160845000Y-120320000D03*
%TO.P,U601,85,PD4*%
%TO.N,unconnected-(U601-PD4-Pad85)*%
X160845000Y-119820000D03*
%TO.P,U601,86,PD5*%
%TO.N,unconnected-(U601-PD5-Pad86)*%
X160845000Y-119320000D03*
%TO.P,U601,87,PD6*%
%TO.N,unconnected-(U601-PD6-Pad87)*%
X160845000Y-118820000D03*
%TO.P,U601,88,PD7*%
%TO.N,unconnected-(U601-PD7-Pad88)*%
X160845000Y-118320000D03*
%TO.P,U601,89,PB3*%
%TO.N,unconnected-(U601-PB3-Pad89)*%
X160845000Y-117820000D03*
%TO.P,U601,90,PB4*%
%TO.N,/LIN_EN*%
X160845000Y-117320000D03*
%TO.P,U601,91,PB5*%
%TO.N,unconnected-(U601-PB5-Pad91)*%
X160845000Y-116820000D03*
%TO.P,U601,92,PB6*%
%TO.N,/USART1_TX*%
X160845000Y-116320000D03*
%TO.P,U601,93,PB7*%
%TO.N,/USART1_RX*%
X160845000Y-115820000D03*
%TO.P,U601,94,BOOT0*%
%TO.N,Net-(U601-BOOT0)*%
X160845000Y-115320000D03*
%TO.P,U601,95,PB8*%
%TO.N,unconnected-(U601-PB8-Pad95)*%
X160845000Y-114820000D03*
%TO.P,U601,96,PB9*%
%TO.N,unconnected-(U601-PB9-Pad96)*%
X160845000Y-114320000D03*
%TO.P,U601,97,PE0*%
%TO.N,unconnected-(U601-PE0-Pad97)*%
X160845000Y-113820000D03*
%TO.P,U601,98,PE1*%
%TO.N,unconnected-(U601-PE1-Pad98)*%
X160845000Y-113320000D03*
%TO.P,U601,99,VSS*%
%TO.N,GND*%
X160845000Y-112820000D03*
%TO.P,U601,100,VDD*%
%TO.N,+3.3V*%
X160845000Y-112320000D03*
%TD*%
D44*
%TO.P,SW601,1,1*%
%TO.N,Net-(U601-BOOT0)*%
X97500000Y-149200000D03*
%TO.P,SW601,2,2*%
%TO.N,+3.3V*%
X97500000Y-145800000D03*
%TD*%
D12*
%TO.P,C502,1*%
%TO.N,/power/5V_max*%
X110555000Y-135650000D03*
%TO.P,C502,2*%
%TO.N,GND*%
X109595000Y-135650000D03*
%TD*%
D15*
%TO.P,D504,1,K*%
%TO.N,GND*%
X101515000Y-144000000D03*
%TO.P,D504,2,A*%
%TO.N,Net-(D504-A)*%
X102485000Y-144000000D03*
%TD*%
D13*
%TO.P,C301,1*%
%TO.N,GND*%
X137995000Y-119100000D03*
%TO.P,C301,2*%
%TO.N,/ethernet/VDDCR*%
X137995000Y-118140000D03*
%TD*%
D20*
%TO.P,R203,1*%
%TO.N,/5V_Flyback*%
X153200000Y-142180000D03*
%TO.P,R203,2*%
%TO.N,/LIN/LIN*%
X153200000Y-143200000D03*
%TD*%
D17*
%TO.P,R319,1*%
%TO.N,Net-(J301-Pad7)*%
X117980000Y-108500000D03*
%TO.P,R319,2*%
%TO.N,Net-(C312-Pad1)*%
X119000000Y-108500000D03*
%TD*%
D11*
%TO.P,C305,1*%
%TO.N,GND*%
X133620000Y-120800000D03*
%TO.P,C305,2*%
%TO.N,Net-(U301-XTAL2)*%
X133620000Y-121760000D03*
%TD*%
D54*
%TO.N,GND*%
X154600000Y-100600000D03*
X96500000Y-127500000D03*
X96500000Y-105500000D03*
X163500000Y-142500000D03*
X132700000Y-118460000D03*
X163500000Y-127500000D03*
X152300000Y-129600000D03*
X148400000Y-107700000D03*
X155500000Y-163500000D03*
X98600000Y-151200000D03*
X98600000Y-152100000D03*
X113100000Y-108200000D03*
X163500000Y-131500000D03*
X133800000Y-110300000D03*
X138500000Y-96500000D03*
X161800000Y-112820000D03*
X147700000Y-141700000D03*
X135120000Y-119670000D03*
X163710000Y-111860000D03*
X106550000Y-151900000D03*
X102600000Y-123700000D03*
X163500000Y-135500000D03*
X131500000Y-96500000D03*
X159110000Y-128870000D03*
X122500000Y-96500000D03*
X112050000Y-101750000D03*
X163500000Y-133500000D03*
X141500000Y-96500000D03*
X145900000Y-138300000D03*
X96500000Y-112500000D03*
X96500000Y-154500000D03*
X163500000Y-121500000D03*
X96500000Y-117500000D03*
X96500000Y-137500000D03*
X152000000Y-109300000D03*
X113000000Y-109300000D03*
X123500000Y-96500000D03*
X139500000Y-121900000D03*
X163500000Y-122500000D03*
X148900000Y-100100000D03*
X154200000Y-107700000D03*
X153200000Y-139890000D03*
X157750000Y-106400000D03*
X114500000Y-163500000D03*
X152500000Y-163500000D03*
X135950000Y-101750000D03*
X123500000Y-163500000D03*
X104100000Y-126300000D03*
X163500000Y-139500000D03*
X96500000Y-152500000D03*
X105600000Y-151900000D03*
X163500000Y-143500000D03*
X156600000Y-122200000D03*
X133500000Y-96500000D03*
X146700000Y-123900000D03*
X163500000Y-140500000D03*
X145500000Y-96500000D03*
X96500000Y-118500000D03*
X155900000Y-105900000D03*
X133800000Y-134900000D03*
X155700000Y-109300000D03*
X127040000Y-101740000D03*
X96500000Y-104500000D03*
X151500000Y-144700000D03*
X117500000Y-96500000D03*
X127500000Y-163500000D03*
X148100000Y-133400000D03*
X140900000Y-116900000D03*
X96500000Y-134500000D03*
X96500000Y-156500000D03*
X157400000Y-124200000D03*
X96500000Y-115500000D03*
X163500000Y-155500000D03*
X110700000Y-148600000D03*
X163500000Y-144500000D03*
X117800000Y-136000000D03*
X134000000Y-122900000D03*
X96500000Y-128500000D03*
X96500000Y-139500000D03*
X147400000Y-107700000D03*
X107500000Y-163500000D03*
X154200000Y-124600000D03*
X144800000Y-103200000D03*
X151500000Y-163500000D03*
X153700000Y-96700000D03*
X111100000Y-127400000D03*
X96500000Y-122500000D03*
X156500000Y-163500000D03*
X149700000Y-137400000D03*
X120950000Y-101760000D03*
X142550000Y-124450000D03*
X96500000Y-111500000D03*
X163500000Y-128500000D03*
X136900000Y-123100000D03*
X126500000Y-163500000D03*
X100400000Y-133600000D03*
X157750000Y-109150000D03*
X104500000Y-163500000D03*
X139500000Y-121300000D03*
X163500000Y-132500000D03*
X96500000Y-103500000D03*
X96500000Y-116500000D03*
X163710000Y-112780000D03*
X133700000Y-122400000D03*
X99700000Y-125400000D03*
X112200000Y-139850000D03*
X163500000Y-141500000D03*
X118500000Y-163500000D03*
X133620000Y-119530000D03*
X163500000Y-124500000D03*
X105200000Y-125000000D03*
X124500000Y-96500000D03*
X96500000Y-129500000D03*
X134580000Y-119530000D03*
X163500000Y-154500000D03*
X120800000Y-138300000D03*
X96500000Y-155500000D03*
X146000000Y-102800000D03*
X148100000Y-113800000D03*
X163500000Y-113500000D03*
X135740000Y-118130000D03*
X99650000Y-128750000D03*
X163500000Y-108500000D03*
X108500000Y-163500000D03*
X117500000Y-163500000D03*
X133620000Y-120360000D03*
X152100000Y-100900000D03*
X136500000Y-96500000D03*
X100900000Y-124100000D03*
X163500000Y-114500000D03*
X154100000Y-102800000D03*
X129500000Y-102300000D03*
X146200000Y-126700000D03*
X155200000Y-127300000D03*
X105500000Y-163500000D03*
X96500000Y-150500000D03*
X96500000Y-114500000D03*
X113500000Y-163500000D03*
X163500000Y-156500000D03*
X133700000Y-138500000D03*
X96500000Y-132500000D03*
X98500000Y-137100000D03*
X113100000Y-140250000D03*
X96500000Y-148500000D03*
X120700000Y-134900000D03*
X163500000Y-137500000D03*
X128500000Y-163500000D03*
X148500000Y-96500000D03*
X163500000Y-126500000D03*
X163500000Y-105500000D03*
X138820000Y-122190000D03*
X142550000Y-123500000D03*
X106800000Y-145300000D03*
X111700000Y-156400000D03*
X135800000Y-119400000D03*
X163500000Y-150500000D03*
X118500000Y-96500000D03*
X153300000Y-109300000D03*
X151900000Y-105600000D03*
X147500000Y-96500000D03*
X163500000Y-152500000D03*
X124500000Y-163500000D03*
X96500000Y-136500000D03*
X138600000Y-120100000D03*
X109500000Y-96500000D03*
X125500000Y-96500000D03*
X105550000Y-152900000D03*
X148000000Y-123900000D03*
X140320000Y-114800000D03*
X102100000Y-125300000D03*
X132900000Y-121200000D03*
X110250000Y-154500000D03*
X163500000Y-110500000D03*
X99650000Y-130000000D03*
X131700000Y-109100000D03*
X112500000Y-163500000D03*
X106500000Y-96500000D03*
X163500000Y-146500000D03*
X156500000Y-96500000D03*
X105300000Y-156400000D03*
X96500000Y-110500000D03*
X163500000Y-151500000D03*
X149670000Y-111600000D03*
X163500000Y-118500000D03*
X114380000Y-122650000D03*
X96500000Y-144500000D03*
X96500000Y-146500000D03*
X132500000Y-96500000D03*
X161900000Y-134300000D03*
X116500000Y-96500000D03*
X163500000Y-107500000D03*
X103500000Y-163500000D03*
X126500000Y-96500000D03*
X163500000Y-138500000D03*
X115200000Y-109600000D03*
X154500000Y-163500000D03*
X96500000Y-125500000D03*
X135700000Y-123100000D03*
X147200000Y-134900000D03*
X163500000Y-123500000D03*
X150350000Y-107700000D03*
X134270000Y-120430000D03*
X107200000Y-146300000D03*
X96500000Y-142500000D03*
X121500000Y-96500000D03*
X149700000Y-96700000D03*
X96500000Y-135500000D03*
X96500000Y-123500000D03*
X108750000Y-154400000D03*
X163500000Y-153500000D03*
X108425000Y-134200000D03*
X146212000Y-96670000D03*
X96500000Y-133500000D03*
X163500000Y-147500000D03*
X137500000Y-123100000D03*
X163500000Y-148500000D03*
X163500000Y-103500000D03*
X96500000Y-126500000D03*
X163500000Y-125500000D03*
X107250000Y-154550000D03*
X163500000Y-145500000D03*
X96500000Y-157500000D03*
X163500000Y-136500000D03*
X139200000Y-123300000D03*
X96500000Y-143500000D03*
X134000000Y-119900000D03*
X135100000Y-123100000D03*
X106550000Y-152950000D03*
X163500000Y-149500000D03*
X142000000Y-141300000D03*
X143000000Y-112700000D03*
X163500000Y-115500000D03*
X139200000Y-120200000D03*
X152200000Y-144500000D03*
X138100000Y-123100000D03*
X154670000Y-111600000D03*
X96500000Y-113500000D03*
X117100000Y-109300000D03*
X96500000Y-108500000D03*
X163500000Y-109500000D03*
X130500000Y-96500000D03*
X163500000Y-130500000D03*
X153500000Y-163500000D03*
X128750000Y-116050000D03*
X106100000Y-146000000D03*
X137500000Y-96500000D03*
X139500000Y-120700000D03*
X96500000Y-153500000D03*
X161100000Y-131800000D03*
X103500000Y-96500000D03*
X108500000Y-96500000D03*
X144100000Y-116900000D03*
X163500000Y-116500000D03*
X106925000Y-134200000D03*
X153400000Y-100000000D03*
X96500000Y-151500000D03*
X163500000Y-117500000D03*
X107500000Y-96500000D03*
X105950000Y-101760000D03*
X115500000Y-96500000D03*
X159800000Y-134700000D03*
X109450000Y-137100000D03*
X96500000Y-131500000D03*
X163500000Y-119500000D03*
X158660000Y-125040000D03*
X111500000Y-163500000D03*
X132900000Y-121800000D03*
X114400000Y-108300000D03*
X96500000Y-130500000D03*
X96500000Y-120500000D03*
X144470000Y-112820000D03*
X163500000Y-134500000D03*
X133000000Y-120600000D03*
X152500000Y-96500000D03*
X106500000Y-163500000D03*
X129500000Y-163500000D03*
X140500000Y-96500000D03*
X138400000Y-122600000D03*
X114390000Y-121441000D03*
X144500000Y-102400000D03*
X134500000Y-123100000D03*
X152190000Y-139890000D03*
X110500000Y-96500000D03*
X109500000Y-163500000D03*
X136300000Y-123100000D03*
X143900000Y-122400000D03*
X142550000Y-125400000D03*
X163500000Y-106500000D03*
X143000000Y-126600000D03*
X163500000Y-129500000D03*
X96500000Y-119500000D03*
X96500000Y-109500000D03*
X149800000Y-99200000D03*
X149400000Y-107700000D03*
X141000000Y-138500000D03*
X139300000Y-119100000D03*
X156200000Y-131300000D03*
X151700000Y-138700000D03*
X96500000Y-107500000D03*
X96500000Y-140500000D03*
X96500000Y-121500000D03*
X158160000Y-128860000D03*
X163500000Y-120500000D03*
X142050000Y-101750000D03*
X148200000Y-119000000D03*
X96500000Y-147500000D03*
X96500000Y-124500000D03*
X151500000Y-96500000D03*
X116500000Y-163500000D03*
X96500000Y-106500000D03*
X108700000Y-133200000D03*
X163500000Y-104500000D03*
X151800000Y-135300000D03*
X157700000Y-122700000D03*
X110500000Y-163500000D03*
X114500000Y-102310000D03*
X111500000Y-96500000D03*
X125500000Y-163500000D03*
X115500000Y-163500000D03*
X155500000Y-96500000D03*
X137515000Y-119380000D03*
X139500000Y-96500000D03*
X133100000Y-122300000D03*
X138200000Y-119600000D03*
%TO.N,+3.3V*%
X140320000Y-117750000D03*
X107750000Y-138300000D03*
X138360000Y-115280000D03*
X156670000Y-111600000D03*
X145450000Y-124700000D03*
X144550000Y-125300000D03*
X97500000Y-145050000D03*
X114500000Y-96670000D03*
X162320000Y-111390000D03*
X137030000Y-110540000D03*
X143900000Y-112800000D03*
X144500000Y-96750000D03*
X148670000Y-111590000D03*
X99650000Y-127450000D03*
X132700000Y-109200000D03*
X104900000Y-140000000D03*
X159570000Y-127480000D03*
X142350000Y-114400000D03*
X107750000Y-138850000D03*
X107750000Y-137824997D03*
X129500000Y-96650000D03*
X154170000Y-111600000D03*
X142220000Y-140090000D03*
X108450000Y-137000000D03*
X162320000Y-113240000D03*
X159170000Y-125050000D03*
X149170000Y-111600000D03*
X140350000Y-112800000D03*
%TO.N,/ethernet/CT*%
X125100000Y-118890000D03*
X128750000Y-114230000D03*
X132200000Y-111900000D03*
X133892500Y-113000000D03*
X134150000Y-118140000D03*
X131700000Y-117850000D03*
X131760000Y-111090000D03*
X129260000Y-113700000D03*
X125100000Y-112540000D03*
%TO.N,/power/5V_max*%
X112650000Y-133200000D03*
X109600000Y-127850000D03*
%TO.N,Net-(U502-SW)*%
X110300003Y-133950000D03*
X109825000Y-133550000D03*
X110299965Y-133544047D03*
X108075000Y-132350000D03*
X111150000Y-138300000D03*
X111150000Y-137824997D03*
X111150000Y-138775003D03*
X109825000Y-133950000D03*
%TO.N,Net-(U601-BOOT0)*%
X151700000Y-128500000D03*
X159800000Y-115300000D03*
%TO.N,/STM32/NRST*%
X103500000Y-132550000D03*
X97000000Y-136500000D03*
X99850000Y-132650000D03*
%TO.N,/5V_Flyback*%
X104900000Y-142000000D03*
X113700000Y-130300000D03*
%TO.N,/ES*%
X160475145Y-132887572D03*
%TO.N,/ethernet/LED2+*%
X135080000Y-117560000D03*
X108790000Y-121440000D03*
%TO.N,/ethernet/LED1+*%
X135580000Y-117560000D03*
X108800000Y-108750000D03*
%TO.N,/STM32/SWDIO*%
X157670000Y-125040000D03*
X154000000Y-127800000D03*
%TO.N,/STM32/VCP_TX*%
X153000000Y-127400000D03*
X159900000Y-123300000D03*
%TO.N,/STM32/SWCLK*%
X153000000Y-128200000D03*
X159900000Y-124300000D03*
%TO.N,/STM32/VCP_RX*%
X159900000Y-122800000D03*
X152400000Y-127100000D03*
%TO.N,/USART1_RX*%
X160900000Y-133100000D03*
X162500000Y-133100000D03*
%TO.N,/ETH_MDI0*%
X146940000Y-109620000D03*
X143100000Y-110830000D03*
%TO.N,/ETH_REF_CLK*%
X147670000Y-109720000D03*
X143820000Y-110270000D03*
%TO.N,/NRST_ETH*%
X145770000Y-111840000D03*
X146660000Y-112710000D03*
%TO.N,/ETH_MDC*%
X144230000Y-110680000D03*
X151670000Y-111600000D03*
%TD*%
D55*
%TO.N,/5V_USB*%
X108350000Y-152400000D02*
X108750000Y-152000000D01*
X108750000Y-152000000D02*
X108750000Y-151325000D01*
X106100000Y-153900000D02*
X106100000Y-152400000D01*
X110133500Y-158500000D02*
X110900000Y-157733500D01*
X110900000Y-157733500D02*
X110900000Y-157255000D01*
X104400000Y-144000000D02*
X104900000Y-144000000D01*
X106100000Y-157255000D02*
X106100000Y-157733500D01*
X104900000Y-144000000D02*
X106825000Y-145925000D01*
X106100000Y-157733500D02*
X106866500Y-158500000D01*
X106100000Y-146650000D02*
X106100000Y-153900000D01*
X106100000Y-152400000D02*
X108350000Y-152400000D01*
X112700000Y-137450000D02*
X112700000Y-140050000D01*
X106100000Y-157255000D02*
X106100000Y-153900000D01*
X106825000Y-145925000D02*
X106100000Y-146650000D01*
X106866500Y-158500000D02*
X110133500Y-158500000D01*
X112700000Y-140050000D02*
X106825000Y-145925000D01*
%TO.N,GND*%
X149390000Y-108130000D02*
X149390000Y-107710000D01*
X111125000Y-127425000D02*
X111100000Y-127400000D01*
X152200000Y-139900000D02*
X152190000Y-139890000D01*
X99630000Y-128730000D02*
X99650000Y-128750000D01*
X127975000Y-101750000D02*
X127050000Y-101750000D01*
X131770000Y-109700000D02*
X131770000Y-109170000D01*
X153200000Y-140320000D02*
X153200000Y-139890000D01*
X134580000Y-119100000D02*
X134580000Y-119530000D01*
X105025000Y-101750000D02*
X105940000Y-101750000D01*
X148400000Y-108140000D02*
X148400000Y-107700000D01*
X120025000Y-101750000D02*
X120940000Y-101750000D01*
X98300000Y-128730000D02*
X99630000Y-128730000D01*
X163280000Y-112780000D02*
X163710000Y-112780000D01*
X113960000Y-122650000D02*
X114380000Y-122650000D01*
X158170000Y-128850000D02*
X158160000Y-128860000D01*
X132700000Y-118040000D02*
X132700000Y-118460000D01*
X148410000Y-108130000D02*
X148400000Y-108140000D01*
X109175000Y-132750000D02*
X109175000Y-133850000D01*
X109595000Y-136600000D02*
X109595000Y-135650000D01*
X154670000Y-111600000D02*
X154670000Y-110645000D01*
X149670000Y-111600000D02*
X149670000Y-110645000D01*
X138820000Y-121760000D02*
X138820000Y-122190000D01*
X135120000Y-120430000D02*
X134270000Y-120430000D01*
X150370000Y-107720000D02*
X150350000Y-107700000D01*
X149390000Y-108130000D02*
X148410000Y-108130000D01*
X98300000Y-130000000D02*
X99650000Y-130000000D01*
X109595000Y-134285686D02*
X109467157Y-134157843D01*
X147400000Y-108150000D02*
X148390000Y-108150000D01*
X137025000Y-119100000D02*
X137235000Y-119100000D01*
X149390000Y-107710000D02*
X149400000Y-107700000D01*
X114389000Y-121440000D02*
X114390000Y-121441000D01*
X109595000Y-134700000D02*
X109595000Y-134285686D01*
X146227000Y-96685000D02*
X146212000Y-96670000D01*
X110250000Y-154990000D02*
X110250000Y-154500000D01*
X146812000Y-96685000D02*
X146227000Y-96685000D01*
X113970000Y-121440000D02*
X114389000Y-121440000D01*
X133870000Y-110370000D02*
X133800000Y-110300000D01*
X133870000Y-110910000D02*
X133870000Y-110370000D01*
X139900000Y-114800000D02*
X140320000Y-114800000D01*
X133620000Y-119100000D02*
X133620000Y-119530000D01*
X128750000Y-115620000D02*
X128750000Y-116050000D01*
X143020000Y-113340000D02*
X143020000Y-112720000D01*
X108425000Y-134825000D02*
X108425000Y-134200000D01*
X159110000Y-128440000D02*
X159110000Y-128870000D01*
X109175000Y-132750000D02*
X109150000Y-132750000D01*
X158670000Y-125050000D02*
X158660000Y-125040000D01*
X120940000Y-101750000D02*
X120950000Y-101760000D01*
X107250000Y-154990000D02*
X107250000Y-154550000D01*
X109595000Y-136600000D02*
X109595000Y-136955000D01*
X144500000Y-101980000D02*
X144500000Y-102400000D01*
X158170000Y-128430000D02*
X158170000Y-128850000D01*
X105300000Y-157255000D02*
X105300000Y-156400000D01*
X137500000Y-122310000D02*
X137320000Y-122130000D01*
X109595000Y-136955000D02*
X109450000Y-137100000D01*
X112975000Y-101750000D02*
X112050000Y-101750000D01*
X109150000Y-132750000D02*
X108700000Y-133200000D01*
X109175000Y-133850000D02*
X109475000Y-134150000D01*
X109595000Y-135650000D02*
X109595000Y-134700000D01*
X129500000Y-101850000D02*
X129500000Y-102300000D01*
X131770000Y-109170000D02*
X131700000Y-109100000D01*
X143020000Y-123500000D02*
X142550000Y-123500000D01*
X135120000Y-120430000D02*
X135120000Y-119670000D01*
X147400000Y-108150000D02*
X147400000Y-107700000D01*
X144470000Y-112820000D02*
X145495000Y-112820000D01*
X163280000Y-111860000D02*
X163710000Y-111860000D01*
X108750000Y-153600000D02*
X108750000Y-154400000D01*
X143020000Y-112720000D02*
X143000000Y-112700000D01*
X143020000Y-124450000D02*
X142550000Y-124450000D01*
X137500000Y-123100000D02*
X137500000Y-122310000D01*
X137995000Y-119100000D02*
X137795000Y-119100000D01*
X137795000Y-119100000D02*
X137515000Y-119380000D01*
X127050000Y-101750000D02*
X127040000Y-101740000D01*
X109595000Y-134700000D02*
X108550000Y-134700000D01*
X142975000Y-101750000D02*
X142050000Y-101750000D01*
X133620000Y-120800000D02*
X133620000Y-120360000D01*
X150370000Y-108130000D02*
X149390000Y-108130000D01*
X152200000Y-140320000D02*
X152200000Y-139900000D01*
X137235000Y-119100000D02*
X137515000Y-119380000D01*
X105940000Y-101750000D02*
X105950000Y-101760000D01*
X111125000Y-127840000D02*
X111125000Y-127425000D01*
X150370000Y-108130000D02*
X150370000Y-107720000D01*
X160845000Y-112820000D02*
X161800000Y-112820000D01*
X148390000Y-108150000D02*
X148400000Y-108140000D01*
X143020000Y-125400000D02*
X142550000Y-125400000D01*
X135025000Y-101750000D02*
X135950000Y-101750000D01*
X158670000Y-125995000D02*
X158670000Y-125050000D01*
X106925000Y-134825000D02*
X106925000Y-134200000D01*
X114500000Y-101880000D02*
X114500000Y-102310000D01*
X108550000Y-134700000D02*
X108425000Y-134825000D01*
X111700000Y-157255000D02*
X111700000Y-156400000D01*
%TO.N,/LIN/LIN*%
X153200000Y-143200000D02*
X154400000Y-143200000D01*
X152200000Y-142700000D02*
X150791000Y-142700000D01*
X153200000Y-143200000D02*
X152700000Y-143200000D01*
X152700000Y-143200000D02*
X152200000Y-142700000D01*
X154400000Y-143200000D02*
X154600000Y-143000000D01*
X150791000Y-142700000D02*
X150721000Y-142630000D01*
%TO.N,/ethernet/VDDCR*%
X137025000Y-118140000D02*
X137995000Y-118140000D01*
X137080000Y-118085000D02*
X137025000Y-118140000D01*
X137080000Y-116967500D02*
X137080000Y-118085000D01*
%TO.N,Net-(U301-XTAL1{slash}CLKIN)*%
X136467000Y-119577000D02*
X137320000Y-120430000D01*
X138820000Y-120800000D02*
X138450000Y-120430000D01*
X136580000Y-117470000D02*
X136467000Y-117583000D01*
X136467000Y-117583000D02*
X136467000Y-119577000D01*
X136580000Y-116967500D02*
X136580000Y-117470000D01*
X138450000Y-120430000D02*
X137320000Y-120430000D01*
%TO.N,+3.3V*%
X107425000Y-132400000D02*
X107425000Y-129325000D01*
X97500000Y-145800000D02*
X97500000Y-145050000D01*
X144110000Y-124320000D02*
X143980000Y-124450000D01*
X159170000Y-125995000D02*
X159170000Y-127420000D01*
X150170000Y-110645000D02*
X150170000Y-109290000D01*
X105750000Y-137150000D02*
X105752000Y-137148000D01*
X142310000Y-114400000D02*
X141910000Y-114800000D01*
X143980000Y-113340000D02*
X143980000Y-112880000D01*
X148670000Y-109370000D02*
X148400000Y-109100000D01*
X112075000Y-127475000D02*
X112075000Y-127840000D01*
X148390000Y-109110000D02*
X148400000Y-109100000D01*
X159110000Y-127480000D02*
X159570000Y-127480000D01*
X162320000Y-112310000D02*
X162320000Y-112780000D01*
X160845000Y-112320000D02*
X162310000Y-112320000D01*
X144000000Y-113320000D02*
X143980000Y-113340000D01*
X108425000Y-136975000D02*
X108450000Y-137000000D01*
X149390000Y-109090000D02*
X150370000Y-109090000D01*
X149170000Y-110645000D02*
X149170000Y-111600000D01*
X106925000Y-136375000D02*
X107675000Y-135625000D01*
X149390000Y-109090000D02*
X149170000Y-109310000D01*
X109800000Y-126950000D02*
X111550000Y-126950000D01*
X148670000Y-111590000D02*
X148670000Y-110645000D01*
X143980000Y-112880000D02*
X143900000Y-112800000D01*
X137767500Y-115280000D02*
X138360000Y-115280000D01*
X138900000Y-115750000D02*
X138830000Y-115750000D01*
X156670000Y-110645000D02*
X156670000Y-111600000D01*
X142350000Y-114400000D02*
X142310000Y-114400000D01*
X111550000Y-126950000D02*
X112075000Y-127475000D01*
X141930000Y-113980000D02*
X142350000Y-114400000D01*
X149170000Y-109310000D02*
X149170000Y-110645000D01*
X107050000Y-138300000D02*
X107750000Y-138300000D01*
X107675000Y-132650000D02*
X107425000Y-132400000D01*
X139910000Y-112810000D02*
X140340000Y-112810000D01*
X98300000Y-127460000D02*
X99640000Y-127460000D01*
X142790000Y-140090000D02*
X142220000Y-140090000D01*
X162320000Y-111860000D02*
X162320000Y-112310000D01*
X159170000Y-125995000D02*
X159170000Y-125050000D01*
X129500000Y-97080000D02*
X129500000Y-96650000D01*
X132700000Y-109715000D02*
X132700000Y-109200000D01*
X99640000Y-127460000D02*
X99650000Y-127450000D01*
X154170000Y-110645000D02*
X154170000Y-111600000D01*
X137030000Y-110960000D02*
X137030000Y-110540000D01*
X145495000Y-113320000D02*
X144000000Y-113320000D01*
X138830000Y-115750000D02*
X138360000Y-115280000D01*
X162320000Y-112780000D02*
X162320000Y-113240000D01*
X140340000Y-112810000D02*
X140350000Y-112800000D01*
X159170000Y-127420000D02*
X159110000Y-127480000D01*
X114500000Y-96670000D02*
X114500000Y-97090000D01*
X104400000Y-140000000D02*
X104900000Y-140000000D01*
X148670000Y-110645000D02*
X148670000Y-109370000D01*
X154170000Y-109100000D02*
X154200000Y-109070000D01*
X143980000Y-125400000D02*
X143980000Y-124450000D01*
X139900000Y-117750000D02*
X140320000Y-117750000D01*
X107425000Y-129325000D02*
X109800000Y-126950000D01*
X105752000Y-137148000D02*
X106750000Y-137148000D01*
X162310000Y-112320000D02*
X162320000Y-112310000D01*
X144500000Y-97190000D02*
X144500000Y-96750000D01*
X154170000Y-110645000D02*
X154170000Y-109100000D01*
X141930000Y-113830000D02*
X141930000Y-113980000D01*
X108425000Y-136375000D02*
X108425000Y-136975000D01*
X107675000Y-135625000D02*
X107675000Y-132650000D01*
X162320000Y-111860000D02*
X162320000Y-111390000D01*
X147400000Y-109110000D02*
X148390000Y-109110000D01*
X145495000Y-124320000D02*
X144110000Y-124320000D01*
X150170000Y-109290000D02*
X150370000Y-109090000D01*
%TO.N,Net-(U301-XTAL2)*%
X133620000Y-121760000D02*
X133990000Y-122130000D01*
X136080000Y-117440000D02*
X136190000Y-117550000D01*
X136190000Y-121060000D02*
X135120000Y-122130000D01*
X133990000Y-122130000D02*
X135120000Y-122130000D01*
X136080000Y-116967500D02*
X136080000Y-117440000D01*
X136190000Y-117550000D02*
X136190000Y-121060000D01*
%TO.N,/ethernet/CT*%
X133892500Y-111892500D02*
X133870000Y-111870000D01*
X134580000Y-118090000D02*
X134630000Y-118140000D01*
X132700000Y-111880000D02*
X132220000Y-111880000D01*
X133660000Y-118140000D02*
X134630000Y-118140000D01*
X125100000Y-112540000D02*
X125115000Y-112525000D01*
X125115000Y-118875000D02*
X126500000Y-118875000D01*
X125100000Y-118890000D02*
X125115000Y-118875000D01*
X132710000Y-111870000D02*
X132700000Y-111880000D01*
X131770000Y-111080000D02*
X131760000Y-111090000D01*
X129640000Y-114660000D02*
X129680000Y-114700000D01*
X133870000Y-111870000D02*
X132710000Y-111870000D01*
X132220000Y-111880000D02*
X132200000Y-111900000D01*
X131770000Y-110660000D02*
X131770000Y-111080000D01*
X129680000Y-114700000D02*
X129680000Y-113700000D01*
X129680000Y-113700000D02*
X129260000Y-113700000D01*
X131700000Y-117420000D02*
X131700000Y-117850000D01*
X133892500Y-112900000D02*
X133892500Y-113000000D01*
X131795000Y-110685000D02*
X131770000Y-110660000D01*
X132700000Y-110685000D02*
X132700000Y-111880000D01*
X133892500Y-113780000D02*
X133892500Y-112900000D01*
X128750000Y-114660000D02*
X128750000Y-114230000D01*
X133892500Y-112900000D02*
X133892500Y-111892500D01*
X132700000Y-110685000D02*
X131795000Y-110685000D01*
X134580000Y-116967500D02*
X134580000Y-118090000D01*
X128750000Y-114660000D02*
X129640000Y-114660000D01*
X125115000Y-112525000D02*
X126500000Y-112525000D01*
D56*
%TO.N,Earth*%
X143000000Y-152500000D02*
X143000000Y-155800000D01*
D55*
%TO.N,Net-(C312-Pad1)*%
X119880000Y-108490000D02*
X119890000Y-108500000D01*
X119000000Y-107500000D02*
X119880000Y-107500000D01*
X118478000Y-109022000D02*
X119000000Y-108500000D01*
X117000000Y-108500000D02*
X117522000Y-109022000D01*
X116380000Y-108500000D02*
X117000000Y-108500000D01*
X119890000Y-108500000D02*
X119000000Y-108500000D01*
X119880000Y-107500000D02*
X119880000Y-108490000D01*
X117522000Y-109022000D02*
X118478000Y-109022000D01*
X119000000Y-108500000D02*
X119000000Y-107500000D01*
%TO.N,/power/5V_max*%
X110555000Y-136600000D02*
X110555000Y-135650000D01*
X110555000Y-134700000D02*
X110555000Y-134270000D01*
X109610000Y-127840000D02*
X109600000Y-127850000D01*
X110555000Y-135650000D02*
X110555000Y-134700000D01*
X110555000Y-134270000D02*
X111075000Y-133750000D01*
X111075000Y-133750000D02*
X111075000Y-132750000D01*
X110125000Y-127840000D02*
X109610000Y-127840000D01*
%TO.N,Net-(U502-SW)*%
X108075000Y-131780000D02*
X108075000Y-132350000D01*
X110200000Y-138300000D02*
X111150000Y-138300000D01*
%TO.N,Net-(U502-VBST)*%
X109175000Y-130050000D02*
X109175000Y-130600000D01*
X109175000Y-130600000D02*
X108955000Y-130820000D01*
X108955000Y-130820000D02*
X108075000Y-130820000D01*
%TO.N,Net-(U601-BOOT0)*%
X151554000Y-128354000D02*
X142162262Y-128354000D01*
X159820000Y-115320000D02*
X159800000Y-115300000D01*
X97090000Y-149610000D02*
X97500000Y-149200000D01*
X142162262Y-128354000D02*
X139116262Y-125308000D01*
X106675476Y-125308000D02*
X104741738Y-127241738D01*
X97120000Y-151230000D02*
X97090000Y-151200000D01*
X97090000Y-151200000D02*
X97090000Y-149610000D01*
X139116262Y-125308000D02*
X106675476Y-125308000D01*
X99600000Y-138800000D02*
X99600000Y-147600000D01*
X97120000Y-152150000D02*
X97120000Y-151230000D01*
X160845000Y-115320000D02*
X159820000Y-115320000D01*
X99600000Y-147600000D02*
X98000000Y-149200000D01*
X104741738Y-127241738D02*
X104741738Y-133658262D01*
X151700000Y-128500000D02*
X151554000Y-128354000D01*
X104741738Y-133658262D02*
X99600000Y-138800000D01*
X98000000Y-149200000D02*
X97500000Y-149200000D01*
%TO.N,Net-(U601-VCAP_1)*%
X144300000Y-123820000D02*
X145495000Y-123820000D01*
X143980000Y-123500000D02*
X144300000Y-123820000D01*
%TO.N,Net-(U601-VCAP_2)*%
X158170000Y-127470000D02*
X158170000Y-125995000D01*
%TO.N,/STM32/NRST*%
X97000000Y-136500000D02*
X97000000Y-137080000D01*
X103000000Y-110700000D02*
X103000000Y-122600000D01*
X103490000Y-132540000D02*
X103500000Y-132550000D01*
X103000000Y-122600000D02*
X100123000Y-125477000D01*
X97020000Y-137820000D02*
X97500000Y-138300000D01*
X100123000Y-132377000D02*
X99850000Y-132650000D01*
X102200000Y-132540000D02*
X103490000Y-132540000D01*
X97020000Y-137100000D02*
X97020000Y-137820000D01*
X152670000Y-110645000D02*
X152670000Y-105370000D01*
X152450000Y-105150000D02*
X108550000Y-105150000D01*
X152670000Y-105370000D02*
X152450000Y-105150000D01*
X100123000Y-125477000D02*
X100123000Y-132377000D01*
X108550000Y-105150000D02*
X103000000Y-110700000D01*
X97000000Y-137080000D02*
X97020000Y-137100000D01*
%TO.N,/STM32/BTN1*%
X115270000Y-100920000D02*
X115550000Y-101200000D01*
X156623000Y-109377000D02*
X156170000Y-109830000D01*
X155891310Y-104850000D02*
X156623000Y-105581690D01*
X114500000Y-100920000D02*
X114500000Y-100020000D01*
X115550000Y-103450000D02*
X116950000Y-104850000D01*
X114500000Y-100920000D02*
X115270000Y-100920000D01*
X156170000Y-109830000D02*
X156170000Y-110645000D01*
X115550000Y-101200000D02*
X115550000Y-103450000D01*
X156623000Y-105581690D02*
X156623000Y-109377000D01*
X116950000Y-104850000D02*
X155891310Y-104850000D01*
%TO.N,/STM32/BTN2*%
X130140000Y-100890000D02*
X130400000Y-101150000D01*
X129500000Y-100890000D02*
X130140000Y-100890000D01*
X157170000Y-109720000D02*
X157170000Y-110645000D01*
X130400000Y-101150000D02*
X130400000Y-103000000D01*
X129500000Y-100010000D02*
X129500000Y-100890000D01*
X130400000Y-103000000D02*
X131950000Y-104550000D01*
X156900000Y-109450000D02*
X157170000Y-109720000D01*
X155983048Y-104550000D02*
X156900000Y-105466952D01*
X156900000Y-105466952D02*
X156900000Y-109450000D01*
X131950000Y-104550000D02*
X155983048Y-104550000D01*
%TO.N,/STM32/BTN3*%
X157177000Y-109335262D02*
X157670000Y-109828262D01*
X145400000Y-101450000D02*
X145400000Y-103150000D01*
X144970000Y-101020000D02*
X145400000Y-101450000D01*
X156074786Y-104250000D02*
X157177000Y-105352214D01*
X157177000Y-105352214D02*
X157177000Y-109335262D01*
X144500000Y-101020000D02*
X144970000Y-101020000D01*
X146500000Y-104250000D02*
X156074786Y-104250000D01*
X157670000Y-109828262D02*
X157670000Y-110645000D01*
X145400000Y-103150000D02*
X146500000Y-104250000D01*
X144500000Y-100110000D02*
X144500000Y-101020000D01*
%TO.N,/5V_Flyback*%
X152200000Y-141280000D02*
X153200000Y-141280000D01*
X153200000Y-141280000D02*
X153712000Y-140768000D01*
X153200000Y-141280000D02*
X153200000Y-142180000D01*
D57*
X128900000Y-130300000D02*
X113700000Y-130300000D01*
D55*
X150721000Y-141360000D02*
X152120000Y-141360000D01*
D57*
X130500000Y-128700000D02*
X128900000Y-130300000D01*
X113700000Y-130300000D02*
X112700000Y-130300000D01*
D55*
X152120000Y-141360000D02*
X152200000Y-141280000D01*
X153712000Y-139388000D02*
X154600000Y-138500000D01*
X153712000Y-140768000D02*
X153712000Y-139388000D01*
X104410000Y-142000000D02*
X104900000Y-142000000D01*
%TO.N,Net-(D503-A)*%
X102485000Y-140000000D02*
X103380000Y-140000000D01*
%TO.N,Net-(D504-A)*%
X102485000Y-144000000D02*
X103380000Y-144000000D01*
%TO.N,Net-(D505-A)*%
X102485000Y-142000000D02*
X103390000Y-142000000D01*
%TO.N,Net-(D601-A)*%
X154305000Y-97640000D02*
X154305000Y-98545000D01*
%TO.N,Net-(D602-A)*%
X150622000Y-97657000D02*
X150622000Y-98552000D01*
%TO.N,Net-(D603-A)*%
X146812000Y-97655000D02*
X146812000Y-98550000D01*
%TO.N,/ES*%
X160662717Y-132700000D02*
X161508262Y-132700000D01*
X161820000Y-123820000D02*
X160845000Y-123820000D01*
X162100000Y-132108262D02*
X162100000Y-124100000D01*
X162100000Y-124100000D02*
X161820000Y-123820000D01*
X160475145Y-132887572D02*
X160662717Y-132700000D01*
X161508262Y-132700000D02*
X162100000Y-132108262D01*
D58*
%TO.N,/ethernet/TX+*%
X114276600Y-119076600D02*
X114161600Y-118961600D01*
X114161600Y-118961600D02*
X112838400Y-118961600D01*
X112838400Y-118961600D02*
X112530000Y-119270000D01*
X117350000Y-120145000D02*
X116281600Y-119076600D01*
X116281600Y-119076600D02*
X114276600Y-119076600D01*
X112530000Y-119270000D02*
X110700000Y-119270000D01*
X118100000Y-120145000D02*
X117350000Y-120145000D01*
D55*
%TO.N,Net-(J301-Pad4)*%
X110700000Y-116210000D02*
X108810000Y-116210000D01*
X112585262Y-107757314D02*
X112842576Y-107500000D01*
X112842576Y-107500000D02*
X117980000Y-107500000D01*
X110700000Y-115190000D02*
X108810000Y-115190000D01*
X108550948Y-107757314D02*
X112585262Y-107757314D01*
X108600000Y-115700000D02*
X108600000Y-116000000D01*
X108023000Y-108285262D02*
X108550948Y-107757314D01*
X108600000Y-115700000D02*
X108023000Y-115123000D01*
X108810000Y-116210000D02*
X108600000Y-116000000D01*
X108810000Y-115190000D02*
X108600000Y-115400000D01*
X108023000Y-115123000D02*
X108023000Y-108285262D01*
X108600000Y-115400000D02*
X108600000Y-115700000D01*
%TO.N,Net-(J301-LED1-)*%
X110819000Y-110109000D02*
X110700000Y-109990000D01*
X113030000Y-110109000D02*
X110819000Y-110109000D01*
%TO.N,Net-(J301-Pad7)*%
X108300000Y-108400000D02*
X108665686Y-108034314D01*
X108600000Y-112300000D02*
X108770000Y-112130000D01*
X108750000Y-113150000D02*
X108600000Y-113000000D01*
X108300000Y-112300000D02*
X108300000Y-108400000D01*
X117700000Y-108500000D02*
X117980000Y-108500000D01*
X108600000Y-113000000D02*
X108600000Y-112600000D01*
X112700000Y-108034314D02*
X112934314Y-107800000D01*
X117000000Y-107800000D02*
X117700000Y-108500000D01*
X112934314Y-107800000D02*
X117000000Y-107800000D01*
X110700000Y-113150000D02*
X108750000Y-113150000D01*
X108770000Y-112130000D02*
X110700000Y-112130000D01*
X108600000Y-112600000D02*
X108600000Y-112300000D01*
X108665686Y-108034314D02*
X112700000Y-108034314D01*
X108600000Y-112600000D02*
X108300000Y-112300000D01*
%TO.N,Net-(J301-LED2-)*%
X112940000Y-122650000D02*
X110700000Y-122650000D01*
%TO.N,/ethernet/LED2+*%
X135080000Y-116967500D02*
X135080000Y-117560000D01*
X110700000Y-121440000D02*
X108790000Y-121440000D01*
X110700000Y-121440000D02*
X112950000Y-121440000D01*
D58*
%TO.N,/ethernet/RX+*%
X114911600Y-115293506D02*
X114911600Y-113373840D01*
X117350000Y-113795000D02*
X118100000Y-113795000D01*
X116281600Y-112726600D02*
X117350000Y-113795000D01*
X114911600Y-113373840D02*
X115558840Y-112726600D01*
X110700000Y-117230000D02*
X112270000Y-117230000D01*
X114303506Y-115901600D02*
X114911600Y-115293506D01*
X113598400Y-115901600D02*
X114303506Y-115901600D01*
X112270000Y-117230000D02*
X113598400Y-115901600D01*
X115558840Y-112726600D02*
X116281600Y-112726600D01*
%TO.N,/ethernet/TX-*%
X117350000Y-117605000D02*
X118100000Y-117605000D01*
X114573400Y-118673400D02*
X116281600Y-118673400D01*
X112800000Y-118525000D02*
X114425000Y-118525000D01*
X114425000Y-118525000D02*
X114573400Y-118673400D01*
X112525000Y-118250000D02*
X112800000Y-118525000D01*
X110700000Y-118250000D02*
X112525000Y-118250000D01*
X116281600Y-118673400D02*
X117350000Y-117605000D01*
%TO.N,/ethernet/RX-*%
X114508400Y-115126494D02*
X114508400Y-113206828D01*
X115391828Y-112323400D02*
X116281600Y-112323400D01*
X117350000Y-111255000D02*
X118100000Y-111255000D01*
X114508400Y-113206828D02*
X115391828Y-112323400D01*
X112270000Y-114170000D02*
X113598400Y-115498400D01*
X114136494Y-115498400D02*
X114508400Y-115126494D01*
X113598400Y-115498400D02*
X114136494Y-115498400D01*
X116281600Y-112323400D02*
X117350000Y-111255000D01*
X110700000Y-114170000D02*
X112270000Y-114170000D01*
D55*
%TO.N,/ethernet/LED1+*%
X135580000Y-116967500D02*
X135580000Y-117560000D01*
X110700000Y-108750000D02*
X108800000Y-108750000D01*
D58*
%TO.N,/USB_C/D-*%
X107800000Y-154262499D02*
X108500000Y-154962499D01*
X107805400Y-156429600D02*
X108500000Y-156429600D01*
X107750000Y-156485000D02*
X107805400Y-156429600D01*
X107750000Y-157255000D02*
X107750000Y-156485000D01*
X108659900Y-156429600D02*
X108750000Y-156519700D01*
X108500000Y-154962499D02*
X108500000Y-156429600D01*
X108750000Y-156519700D02*
X108750000Y-157255000D01*
X108500000Y-156429600D02*
X108659900Y-156429600D01*
X107800000Y-153600000D02*
X107800000Y-154262499D01*
%TO.N,/USB_C/D+*%
X108340100Y-158080400D02*
X109159900Y-158080400D01*
X108250000Y-157255000D02*
X108250000Y-157990300D01*
X109159900Y-158080400D02*
X109250000Y-157990300D01*
X109250000Y-157990300D02*
X109250000Y-157255000D01*
X108250000Y-157990300D02*
X108340100Y-158080400D01*
X109250000Y-154950000D02*
X109700000Y-154500000D01*
X109250000Y-157255000D02*
X109250000Y-154950000D01*
X109700000Y-154500000D02*
X109700000Y-153600000D01*
D55*
%TO.N,Net-(J401-CC2)*%
X110250000Y-156010000D02*
X110250000Y-157255000D01*
%TO.N,Net-(J401-CC1)*%
X107250000Y-156010000D02*
X107250000Y-157255000D01*
%TO.N,/STM32/SWDIO*%
X157670000Y-125995000D02*
X157670000Y-125040000D01*
X142391738Y-127800000D02*
X139345738Y-124754000D01*
X139345738Y-124754000D02*
X106446000Y-124754000D01*
X154000000Y-127800000D02*
X142391738Y-127800000D01*
X103740000Y-127460000D02*
X102200000Y-127460000D01*
X106446000Y-124754000D02*
X103740000Y-127460000D01*
%TO.N,/STM32/VCP_TX*%
X160825000Y-123300000D02*
X160845000Y-123320000D01*
X100677000Y-133117000D02*
X100677000Y-125706476D01*
X102200000Y-133810000D02*
X101370000Y-133810000D01*
X101370000Y-133810000D02*
X100677000Y-133117000D01*
X142506476Y-127523000D02*
X152200000Y-127523000D01*
X101906476Y-124477000D02*
X139460476Y-124477000D01*
X152877000Y-127523000D02*
X153000000Y-127400000D01*
X152200000Y-127523000D02*
X152877000Y-127523000D01*
X139460476Y-124477000D02*
X142506476Y-127523000D01*
X159900000Y-123300000D02*
X160825000Y-123300000D01*
X100677000Y-125706476D02*
X101906476Y-124477000D01*
%TO.N,/STM32/SWCLK*%
X103720000Y-128730000D02*
X102200000Y-128730000D01*
X103900000Y-127691738D02*
X103900000Y-128550000D01*
X142277000Y-128077000D02*
X139231000Y-125031000D01*
X160825000Y-124300000D02*
X160845000Y-124320000D01*
X153000000Y-128200000D02*
X152877000Y-128077000D01*
X106560738Y-125031000D02*
X103900000Y-127691738D01*
X159900000Y-124300000D02*
X160825000Y-124300000D01*
X103900000Y-128550000D02*
X103720000Y-128730000D01*
X152877000Y-128077000D02*
X142277000Y-128077000D01*
X139231000Y-125031000D02*
X106560738Y-125031000D01*
%TO.N,/STM32/VCP_RX*%
X152254000Y-127246000D02*
X142621214Y-127246000D01*
X142621214Y-127246000D02*
X139575214Y-124200000D01*
X139575214Y-124200000D02*
X101791738Y-124200000D01*
X160845000Y-122820000D02*
X159920000Y-122820000D01*
X152400000Y-127100000D02*
X152254000Y-127246000D01*
X101791738Y-124200000D02*
X100400000Y-125591738D01*
X159920000Y-122820000D02*
X159900000Y-122800000D01*
X100088000Y-133112000D02*
X98998000Y-133112000D01*
X98998000Y-133112000D02*
X98300000Y-133810000D01*
X100400000Y-132800000D02*
X100088000Y-133112000D01*
X100400000Y-125591738D02*
X100400000Y-132800000D01*
%TO.N,/LIN_EN*%
X145260000Y-141360000D02*
X143810000Y-141360000D01*
X148441262Y-140367000D02*
X155185262Y-133623000D01*
X155185262Y-133623000D02*
X160977000Y-133623000D01*
X162377000Y-132223000D02*
X162377000Y-117777000D01*
X146240000Y-141360000D02*
X147233000Y-140367000D01*
X160977000Y-133623000D02*
X162377000Y-132223000D01*
X147233000Y-140367000D02*
X148441262Y-140367000D01*
X145260000Y-141360000D02*
X146240000Y-141360000D01*
X161920000Y-117320000D02*
X160845000Y-117320000D01*
X162377000Y-117777000D02*
X161920000Y-117320000D01*
%TO.N,/USART1_RX*%
X162500000Y-132883476D02*
X162931000Y-132452476D01*
X162500000Y-133100000D02*
X162500000Y-132883476D01*
X158400000Y-133346000D02*
X160654000Y-133346000D01*
X148326524Y-140090000D02*
X155008262Y-133408262D01*
X160654000Y-133346000D02*
X160900000Y-133100000D01*
X145260000Y-140090000D02*
X148326524Y-140090000D01*
X155300000Y-133346000D02*
X158400000Y-133346000D01*
X162931000Y-116631000D02*
X162120000Y-115820000D01*
X155070524Y-133346000D02*
X155300000Y-133346000D01*
X162931000Y-132452476D02*
X162931000Y-116631000D01*
X143810000Y-140090000D02*
X145260000Y-140090000D01*
X162120000Y-115820000D02*
X160845000Y-115820000D01*
X155008262Y-133408262D02*
X155070524Y-133346000D01*
%TO.N,/ETH_RXD0*%
X142720000Y-116020000D02*
X144601184Y-116020000D01*
X144801184Y-115820000D02*
X145495000Y-115820000D01*
X141910000Y-115750000D02*
X142450000Y-115750000D01*
X144601184Y-116020000D02*
X144801184Y-115820000D01*
X142450000Y-115750000D02*
X142720000Y-116020000D01*
%TO.N,Net-(U301-RXD0{slash}MODE0)*%
X140288000Y-116262000D02*
X140800000Y-115750000D01*
X140288000Y-116262000D02*
X138614458Y-116262000D01*
X140800000Y-115750000D02*
X140890000Y-115750000D01*
X140890000Y-114800000D02*
X140890000Y-115750000D01*
X138132458Y-115780000D02*
X137767500Y-115780000D01*
X138614458Y-116262000D02*
X138132458Y-115780000D01*
%TO.N,Net-(U301-RXD1{slash}MODE1)*%
X137767500Y-116280000D02*
X138180000Y-116280000D01*
X138180000Y-116280000D02*
X138710000Y-116810000D01*
X138710000Y-116810000D02*
X138880000Y-116810000D01*
X138880000Y-116810000D02*
X138880000Y-117750000D01*
%TO.N,/ETH_RXD1*%
X139900000Y-116810000D02*
X140190000Y-116810000D01*
X140680000Y-116320000D02*
X145495000Y-116320000D01*
X140190000Y-116810000D02*
X140680000Y-116320000D01*
%TO.N,Net-(U301-CRS_DV{slash}MODE2)*%
X137769500Y-114278000D02*
X138880000Y-114278000D01*
X137767500Y-114280000D02*
X137769500Y-114278000D01*
X138890000Y-113750000D02*
X138890000Y-114268000D01*
X138880000Y-114278000D02*
X140462000Y-114278000D01*
X138890000Y-114268000D02*
X138880000Y-114278000D01*
X140462000Y-114278000D02*
X140910000Y-113830000D01*
%TO.N,/ETH_CRS_DV*%
X142208332Y-113308000D02*
X140352000Y-113308000D01*
X140352000Y-113308000D02*
X139910000Y-113750000D01*
X142402000Y-113842000D02*
X142402000Y-113501668D01*
X145495000Y-115320000D02*
X143880000Y-115320000D01*
X142402000Y-113501668D02*
X142208332Y-113308000D01*
X143880000Y-115320000D02*
X142402000Y-113842000D01*
%TO.N,/ETH_MDI0*%
X143100000Y-110720000D02*
X143062000Y-110682000D01*
X143100000Y-110830000D02*
X143100000Y-110720000D01*
X138650000Y-112810000D02*
X138890000Y-112810000D01*
X147170000Y-109850000D02*
X146940000Y-109620000D01*
X138408000Y-113052000D02*
X138650000Y-112810000D01*
X139559738Y-110682000D02*
X138890000Y-111351738D01*
X143062000Y-110682000D02*
X139559738Y-110682000D01*
X137767500Y-113780000D02*
X138210000Y-113780000D01*
X138890000Y-111351738D02*
X138890000Y-112810000D01*
X138210000Y-113780000D02*
X138408000Y-113582000D01*
X147170000Y-110645000D02*
X147170000Y-109850000D01*
X138408000Y-113582000D02*
X138408000Y-113052000D01*
%TO.N,Net-(U301-~{INT}{slash}REFCLKO)*%
X136580000Y-111980000D02*
X137030000Y-111980000D01*
X136580000Y-113092500D02*
X136580000Y-111980000D01*
X136090000Y-111980000D02*
X136580000Y-111980000D01*
%TO.N,/ETH_REF_CLK*%
X136090000Y-110436952D02*
X136398952Y-110128000D01*
X143678000Y-110128000D02*
X143820000Y-110270000D01*
X136398952Y-110128000D02*
X143678000Y-110128000D01*
X147670000Y-109720000D02*
X147670000Y-110645000D01*
X136090000Y-110960000D02*
X136090000Y-110436952D01*
%TO.N,Net-(U301-RXER{slash}PHYAD0)*%
X137767500Y-114780000D02*
X138860000Y-114780000D01*
X138860000Y-114780000D02*
X138880000Y-114800000D01*
D58*
%TO.N,/ethernet/TD+*%
X128318400Y-119076600D02*
X127250000Y-120145000D01*
X131700000Y-116400000D02*
X131700000Y-115731600D01*
X133892500Y-115780000D02*
X133236249Y-115780000D01*
X133187849Y-115731600D02*
X131700000Y-115731600D01*
X127250000Y-120145000D02*
X126500000Y-120145000D01*
X130401600Y-116183506D02*
X130401600Y-118183506D01*
X129508506Y-119076600D02*
X128318400Y-119076600D01*
X133236249Y-115780000D02*
X133187849Y-115731600D01*
X130853506Y-115731600D02*
X130401600Y-116183506D01*
X130401600Y-118183506D02*
X129508506Y-119076600D01*
X131700000Y-115731600D02*
X130853506Y-115731600D01*
D55*
%TO.N,Net-(U301-RBIAS)*%
X133440000Y-116280000D02*
X132700000Y-117020000D01*
X133892500Y-116280000D02*
X133440000Y-116280000D01*
D58*
%TO.N,/ethernet/TD-*%
X131200000Y-115328400D02*
X130686494Y-115328400D01*
X129998400Y-118016494D02*
X129341494Y-118673400D01*
X130700000Y-114700000D02*
X130700000Y-114828400D01*
X130686494Y-115328400D02*
X129998400Y-116016494D01*
X127250000Y-117605000D02*
X126500000Y-117605000D01*
X129341494Y-118673400D02*
X128318400Y-118673400D01*
X129998400Y-116016494D02*
X129998400Y-118016494D01*
X131500000Y-115328400D02*
X131200000Y-115328400D01*
X130700000Y-114828400D02*
X131200000Y-115328400D01*
X128318400Y-118673400D02*
X127250000Y-117605000D01*
X133236249Y-115280000D02*
X133187849Y-115328400D01*
X133187849Y-115328400D02*
X131500000Y-115328400D01*
X133892500Y-115280000D02*
X133236249Y-115280000D01*
%TO.N,/ethernet/RD+*%
X126500000Y-113795000D02*
X127250000Y-113795000D01*
X133236249Y-114780000D02*
X133892500Y-114780000D01*
X130841494Y-112726600D02*
X131857447Y-113742553D01*
X132846494Y-114731600D02*
X133187849Y-114731600D01*
X127250000Y-113795000D02*
X128318400Y-112726600D01*
X130700000Y-113700000D02*
X131814894Y-113700000D01*
X131857447Y-113742553D02*
X132846494Y-114731600D01*
X128318400Y-112726600D02*
X130841494Y-112726600D01*
X133187849Y-114731600D02*
X133236249Y-114780000D01*
%TO.N,/ethernet/RD-*%
X133013506Y-114328400D02*
X133187849Y-114328400D01*
X128318400Y-112323400D02*
X131008506Y-112323400D01*
X131392553Y-112707447D02*
X133013506Y-114328400D01*
X126500000Y-111255000D02*
X127250000Y-111255000D01*
X132700000Y-112900000D02*
X131585106Y-112900000D01*
X133236249Y-114280000D02*
X133892500Y-114280000D01*
X131585106Y-112900000D02*
X131392553Y-112707447D01*
X127250000Y-111255000D02*
X128318400Y-112323400D01*
X133187849Y-114328400D02*
X133236249Y-114280000D01*
X131008506Y-112323400D02*
X131392553Y-112707447D01*
D55*
%TO.N,/ethernet/RXCT*%
X120175000Y-112525000D02*
X121400000Y-111300000D01*
X121400000Y-108700000D02*
X121200000Y-108500000D01*
X121200000Y-108500000D02*
X120910000Y-108500000D01*
X121400000Y-111300000D02*
X121400000Y-108700000D01*
X118100000Y-112525000D02*
X120175000Y-112525000D01*
%TO.N,/ethernet/TXCT*%
X121700000Y-108000000D02*
X121200000Y-107500000D01*
X121200000Y-107500000D02*
X120900000Y-107500000D01*
X119925000Y-118875000D02*
X121700000Y-117100000D01*
X118100000Y-118875000D02*
X119925000Y-118875000D01*
X121700000Y-117100000D02*
X121700000Y-108000000D01*
%TO.N,Net-(U502-EN)*%
X110125000Y-128860000D02*
X110125000Y-130050000D01*
%TO.N,Net-(U502-VFB)*%
X111125000Y-129250000D02*
X111125000Y-128860000D01*
X111075000Y-129300000D02*
X111125000Y-129250000D01*
X112075000Y-128860000D02*
X111125000Y-128860000D01*
X111075000Y-130050000D02*
X111075000Y-129300000D01*
X112075000Y-128860000D02*
X112900000Y-128860000D01*
%TO.N,Net-(R602-Pad2)*%
X113835000Y-98110000D02*
X114500000Y-98110000D01*
X114500000Y-99000000D02*
X114500000Y-98110000D01*
X112975000Y-97250000D02*
X105025000Y-97250000D01*
X112975000Y-97250000D02*
X113835000Y-98110000D01*
%TO.N,Net-(R604-Pad2)*%
X129500000Y-98990000D02*
X129500000Y-98100000D01*
X128825000Y-98100000D02*
X127975000Y-97250000D01*
X129500000Y-98100000D02*
X128825000Y-98100000D01*
X120025000Y-97250000D02*
X127975000Y-97250000D01*
%TO.N,/STM32/LED1*%
X159170000Y-110645000D02*
X159170000Y-109951184D01*
X158947000Y-109728184D02*
X158947000Y-105947000D01*
X158947000Y-105947000D02*
X153850000Y-100850000D01*
X159170000Y-109951184D02*
X158947000Y-109728184D01*
X153850000Y-100850000D02*
X153850000Y-100277000D01*
X153850000Y-100277000D02*
X154559000Y-99568000D01*
%TO.N,Net-(R607-Pad2)*%
X144500000Y-98210000D02*
X144500000Y-99090000D01*
X143935000Y-98210000D02*
X144500000Y-98210000D01*
X142975000Y-97250000D02*
X143935000Y-98210000D01*
X142975000Y-97250000D02*
X135025000Y-97250000D01*
%TO.N,/STM32/LED2*%
X158670000Y-110645000D02*
X158670000Y-106061738D01*
X152180262Y-99572000D02*
X150622000Y-99572000D01*
X158670000Y-106061738D02*
X152180262Y-99572000D01*
%TO.N,/STM32/LED3*%
X149370000Y-99570000D02*
X146812000Y-99570000D01*
X158393000Y-106176476D02*
X152416524Y-100200000D01*
X152416524Y-100200000D02*
X150000000Y-100200000D01*
X158170000Y-110645000D02*
X158170000Y-109951184D01*
X158393000Y-109728184D02*
X158393000Y-106176476D01*
X150000000Y-100200000D02*
X149370000Y-99570000D01*
X158170000Y-109951184D02*
X158393000Y-109728184D01*
%TO.N,/USART1_TX*%
X145260000Y-143900000D02*
X146300000Y-143900000D01*
X146700000Y-143500000D02*
X146700000Y-141291738D01*
X161091738Y-133900000D02*
X162654000Y-132337738D01*
X162654000Y-117054000D02*
X161920000Y-116320000D01*
X148556000Y-140644000D02*
X155300000Y-133900000D01*
X161920000Y-116320000D02*
X160845000Y-116320000D01*
X146700000Y-141291738D02*
X147347738Y-140644000D01*
X147347738Y-140644000D02*
X148556000Y-140644000D01*
X146300000Y-143900000D02*
X146700000Y-143500000D01*
X162654000Y-131529474D02*
X162654000Y-117054000D01*
X162654000Y-132337738D02*
X162654000Y-131400000D01*
X155300000Y-133900000D02*
X161091738Y-133900000D01*
%TO.N,/ETH_TX_EN*%
X146540000Y-123320000D02*
X146930000Y-122930000D01*
X145495000Y-123320000D02*
X146540000Y-123320000D01*
X147060000Y-112533476D02*
X144100524Y-109574000D01*
X144100524Y-109574000D02*
X136169476Y-109574000D01*
X146930000Y-122930000D02*
X146930000Y-114751738D01*
X146930000Y-114751738D02*
X146937000Y-114744738D01*
X147060000Y-112875686D02*
X147060000Y-112533476D01*
X135580000Y-112662070D02*
X135580000Y-113092500D01*
X135291000Y-112373070D02*
X135580000Y-112662070D01*
X136169476Y-109574000D02*
X135291000Y-110452476D01*
X146937000Y-112998686D02*
X147060000Y-112875686D01*
X135291000Y-110452476D02*
X135291000Y-112373070D01*
X146937000Y-114744738D02*
X146937000Y-112998686D01*
%TO.N,/NRST_ETH*%
X146660000Y-114630000D02*
X146660000Y-112710000D01*
X136080000Y-112770332D02*
X136080000Y-113092500D01*
X136284214Y-109851000D02*
X135568000Y-110567214D01*
X145770000Y-111640000D02*
X143981000Y-109851000D01*
X135568000Y-110567214D02*
X135568000Y-112258332D01*
X143981000Y-109851000D02*
X136284214Y-109851000D01*
X145770000Y-111840000D02*
X145770000Y-111640000D01*
X145495000Y-114820000D02*
X146470000Y-114820000D01*
X146470000Y-114820000D02*
X146660000Y-114630000D01*
X135568000Y-112258332D02*
X136080000Y-112770332D01*
%TO.N,/ETH_TXD1*%
X135940000Y-109020000D02*
X134737000Y-110223000D01*
X144351184Y-109020000D02*
X135940000Y-109020000D01*
X134737000Y-110223000D02*
X134737000Y-112935500D01*
X147614000Y-112282816D02*
X144351184Y-109020000D01*
X147670000Y-125995000D02*
X147670000Y-125160000D01*
X147484000Y-114981214D02*
X147491000Y-114974214D01*
X147491000Y-113228162D02*
X147614000Y-113105162D01*
X147484000Y-124974000D02*
X147484000Y-114981214D01*
X147614000Y-113105162D02*
X147614000Y-112282816D01*
X147670000Y-125160000D02*
X147484000Y-124974000D01*
X147491000Y-114974214D02*
X147491000Y-113228162D01*
X134737000Y-112935500D02*
X134580000Y-113092500D01*
%TO.N,/ETH_TXD0*%
X135014000Y-110337738D02*
X135014000Y-112487808D01*
X147337000Y-112418738D02*
X144215262Y-109297000D01*
X135014000Y-112487808D02*
X135080000Y-112553808D01*
X147214000Y-114859476D02*
X147214000Y-113113424D01*
X147207000Y-125958000D02*
X147207000Y-114866476D01*
X147337000Y-112990424D02*
X147337000Y-112418738D01*
X144215262Y-109297000D02*
X136054738Y-109297000D01*
X147170000Y-125995000D02*
X147207000Y-125958000D01*
X136054738Y-109297000D02*
X135014000Y-110337738D01*
X147214000Y-113113424D02*
X147337000Y-112990424D01*
X147207000Y-114866476D02*
X147214000Y-114859476D01*
X135080000Y-112553808D02*
X135080000Y-113092500D01*
%TO.N,/ETH_MDC*%
X143664314Y-110680000D02*
X143389314Y-110405000D01*
X151670000Y-110645000D02*
X151670000Y-111600000D01*
X139445000Y-110405000D02*
X137080000Y-112770000D01*
X144230000Y-110680000D02*
X143664314Y-110680000D01*
X137080000Y-112770000D02*
X137080000Y-113092500D01*
X143389314Y-110405000D02*
X139445000Y-110405000D01*
D58*
%TO.N,/USB_D-*%
X119946494Y-136258400D02*
X108548400Y-147656494D01*
X148046494Y-136258400D02*
X119946494Y-136258400D01*
X156670000Y-125995000D02*
X156670000Y-127195001D01*
X156670000Y-127195001D02*
X156718400Y-127243401D01*
X107800000Y-150331249D02*
X107800000Y-151325000D01*
X156718400Y-127586494D02*
X148046494Y-136258400D01*
X108548400Y-149582849D02*
X107800000Y-150331249D01*
X108548400Y-147656494D02*
X108548400Y-149582849D01*
X156718400Y-127243401D02*
X156718400Y-127586494D01*
%TO.N,/USB_D+*%
X157121600Y-127753506D02*
X148213506Y-136661600D01*
X120113506Y-136661600D02*
X108951600Y-147823506D01*
X109700000Y-150331249D02*
X109700000Y-151325000D01*
X108951600Y-149582849D02*
X109700000Y-150331249D01*
X157121600Y-127243401D02*
X157121600Y-127753506D01*
X157170000Y-127195001D02*
X157121600Y-127243401D01*
X148213506Y-136661600D02*
X120113506Y-136661600D01*
X108951600Y-147823506D02*
X108951600Y-149582849D01*
X157170000Y-125995000D02*
X157170000Y-127195001D01*
%TD*%
%TA.AperFunction,Conductor*%
%TO.N,Net-(U502-SW)*%
G36*
X110662227Y-137302164D02*
G01*
X110665344Y-137302577D01*
X110728626Y-137319685D01*
X110731515Y-137320893D01*
X110760922Y-137335538D01*
X111172580Y-137575672D01*
X111223740Y-137615240D01*
X111226584Y-137618102D01*
X111280305Y-137699053D01*
X111290544Y-137729426D01*
X111291584Y-137733324D01*
X111300000Y-137797513D01*
X111300000Y-138808795D01*
X111292185Y-138870685D01*
X111291400Y-138873747D01*
X111291169Y-138874649D01*
X111249123Y-138962235D01*
X111231656Y-138983037D01*
X111228860Y-138986020D01*
X111180870Y-139025809D01*
X110814042Y-139259245D01*
X110783033Y-139276019D01*
X110780026Y-139277380D01*
X110712567Y-139297031D01*
X110709305Y-139297497D01*
X110674091Y-139300000D01*
X109899000Y-139300000D01*
X109803712Y-139281046D01*
X109722930Y-139227070D01*
X109668954Y-139146288D01*
X109650000Y-139051000D01*
X109650000Y-137549000D01*
X109668954Y-137453712D01*
X109722930Y-137372930D01*
X109803712Y-137318954D01*
X109899000Y-137300000D01*
X110629473Y-137300000D01*
X110662227Y-137302164D01*
G37*
%TD.AperFunction*%
%TD*%
%TA.AperFunction,Conductor*%
%TO.N,+3.3V*%
G36*
X108641178Y-135652130D02*
G01*
X108675077Y-135656592D01*
X108721910Y-135662758D01*
X108784695Y-135679581D01*
X108844713Y-135704442D01*
X108901004Y-135736940D01*
X108952549Y-135776493D01*
X108998506Y-135822450D01*
X109038057Y-135873993D01*
X109070558Y-135930287D01*
X109095417Y-135990302D01*
X109112241Y-136053087D01*
X109122870Y-136133818D01*
X109125000Y-136166321D01*
X109125000Y-136943744D01*
X109122705Y-136977472D01*
X109111264Y-137061159D01*
X109093159Y-137126138D01*
X109059674Y-137203687D01*
X109044197Y-137233742D01*
X107829148Y-139244856D01*
X107810904Y-139271088D01*
X107761172Y-139333618D01*
X107715408Y-139378037D01*
X107664344Y-139416221D01*
X107608801Y-139447557D01*
X107549718Y-139471516D01*
X107488035Y-139487717D01*
X107432746Y-139494856D01*
X107408788Y-139497950D01*
X107376902Y-139500000D01*
X106774093Y-139500000D01*
X106736144Y-139497091D01*
X106722398Y-139494971D01*
X106642330Y-139482624D01*
X106569959Y-139459760D01*
X106502178Y-139426262D01*
X106440059Y-139382661D01*
X106415188Y-139358785D01*
X106385511Y-139330294D01*
X106339413Y-139270006D01*
X106303173Y-139203637D01*
X106277380Y-139132265D01*
X106259098Y-139039111D01*
X106254645Y-139001327D01*
X106175456Y-137061159D01*
X106175382Y-137059101D01*
X106175178Y-137052438D01*
X106175078Y-137047465D01*
X106175013Y-137041063D01*
X106175000Y-137038535D01*
X106175000Y-136166321D01*
X106177130Y-136133821D01*
X106187758Y-136053090D01*
X106204580Y-135990306D01*
X106229443Y-135930282D01*
X106261938Y-135873998D01*
X106301497Y-135822445D01*
X106347445Y-135776497D01*
X106398998Y-135736938D01*
X106455282Y-135704443D01*
X106515306Y-135679580D01*
X106578089Y-135662758D01*
X106611971Y-135658297D01*
X106658823Y-135652130D01*
X106691322Y-135650000D01*
X108608678Y-135650000D01*
X108641178Y-135652130D01*
G37*
%TD.AperFunction*%
%TD*%
%TA.AperFunction,Conductor*%
%TO.N,+3.3V*%
G36*
X105943039Y-136919685D02*
G01*
X105988794Y-136972489D01*
X106000000Y-137024000D01*
X106000000Y-137276000D01*
X105980315Y-137343039D01*
X105927511Y-137388794D01*
X105876000Y-137400000D01*
X105624000Y-137400000D01*
X105556961Y-137380315D01*
X105511206Y-137327511D01*
X105500000Y-137276000D01*
X105500000Y-137024000D01*
X105519685Y-136956961D01*
X105572489Y-136911206D01*
X105624000Y-136900000D01*
X105876000Y-136900000D01*
X105943039Y-136919685D01*
G37*
%TD.AperFunction*%
%TD*%
%TA.AperFunction,Conductor*%
%TO.N,Net-(U502-VFB)*%
G36*
X113143039Y-128619685D02*
G01*
X113188794Y-128672489D01*
X113200000Y-128724000D01*
X113200000Y-128976000D01*
X113180315Y-129043039D01*
X113127511Y-129088794D01*
X113076000Y-129100000D01*
X112700000Y-129100000D01*
X112700000Y-128610000D01*
X112911140Y-128610000D01*
X112914150Y-128607754D01*
X112957312Y-128600000D01*
X113076000Y-128600000D01*
X113143039Y-128619685D01*
G37*
%TD.AperFunction*%
%TD*%
%TA.AperFunction,Conductor*%
%TO.N,+3.3V*%
G36*
X146054607Y-124168954D02*
G01*
X146135389Y-124222930D01*
X146189365Y-124303712D01*
X146208319Y-124399000D01*
X146189365Y-124494288D01*
X146135389Y-124575070D01*
X146090382Y-124610715D01*
X145219989Y-125149530D01*
X144385625Y-125666040D01*
X144355132Y-125682111D01*
X144276341Y-125716894D01*
X144210177Y-125735716D01*
X144180317Y-125739880D01*
X144124875Y-125747613D01*
X144090482Y-125750000D01*
X143899000Y-125750000D01*
X143803712Y-125731046D01*
X143722930Y-125677070D01*
X143668954Y-125596288D01*
X143650000Y-125501000D01*
X143650000Y-124399000D01*
X143668954Y-124303712D01*
X143722930Y-124222930D01*
X143803712Y-124168954D01*
X143899000Y-124150000D01*
X145959319Y-124150000D01*
X146054607Y-124168954D01*
G37*
%TD.AperFunction*%
%TD*%
%TA.AperFunction,Conductor*%
%TO.N,/power/5V_max*%
G36*
X113016178Y-131802130D02*
G01*
X113050077Y-131806592D01*
X113096910Y-131812758D01*
X113159695Y-131829581D01*
X113219713Y-131854442D01*
X113276004Y-131886940D01*
X113327549Y-131926493D01*
X113373506Y-131972450D01*
X113413057Y-132023993D01*
X113445558Y-132080287D01*
X113470417Y-132140302D01*
X113487241Y-132203087D01*
X113497870Y-132283818D01*
X113500000Y-132316321D01*
X113500000Y-135479431D01*
X113497687Y-135513293D01*
X113486155Y-135597304D01*
X113467908Y-135662519D01*
X113440998Y-135724565D01*
X113405852Y-135782454D01*
X113363219Y-135834954D01*
X113313777Y-135881230D01*
X113244562Y-135930220D01*
X113215588Y-135947893D01*
X111121699Y-137036715D01*
X111094456Y-137048867D01*
X111024581Y-137075140D01*
X110966728Y-137089284D01*
X110922073Y-137094663D01*
X110892601Y-137098213D01*
X110862827Y-137100000D01*
X110569595Y-137100000D01*
X110530643Y-137096934D01*
X110499075Y-137091934D01*
X110449893Y-137084144D01*
X110375805Y-137060071D01*
X110320639Y-137031963D01*
X110257611Y-136986172D01*
X110213827Y-136942388D01*
X110168036Y-136879360D01*
X110139928Y-136824194D01*
X110115856Y-136750111D01*
X110103064Y-136669346D01*
X110100000Y-136630404D01*
X110100000Y-134550988D01*
X110105226Y-134500242D01*
X110110741Y-134473750D01*
X110148716Y-134384328D01*
X110218023Y-134316243D01*
X110308109Y-134279862D01*
X110354514Y-134275500D01*
X110357396Y-134275500D01*
X110357397Y-134275500D01*
X110465264Y-134236240D01*
X110553197Y-134162455D01*
X110610591Y-134063045D01*
X110630524Y-133950000D01*
X110610591Y-133836955D01*
X110610588Y-133836950D01*
X110608836Y-133832134D01*
X110594056Y-133736110D01*
X110608839Y-133661798D01*
X110610548Y-133657100D01*
X110610553Y-133657092D01*
X110630486Y-133544047D01*
X110610553Y-133431002D01*
X110610552Y-133431000D01*
X110610551Y-133430997D01*
X110589223Y-133394056D01*
X110557994Y-133302056D01*
X110556015Y-133260885D01*
X110584317Y-132449552D01*
X110588074Y-132414297D01*
X110603698Y-132327152D01*
X110625942Y-132260008D01*
X110657436Y-132196831D01*
X110697665Y-132138653D01*
X110745653Y-132086883D01*
X110800613Y-132042369D01*
X110861224Y-132006181D01*
X110926492Y-131978917D01*
X111012211Y-131956739D01*
X111047071Y-131950325D01*
X111500000Y-131900000D01*
X111500000Y-131899999D01*
X111797117Y-131866987D01*
X111934487Y-131851723D01*
X112369047Y-131803439D01*
X112375895Y-131802774D01*
X112393164Y-131801337D01*
X112406922Y-131800574D01*
X112417909Y-131800270D01*
X112424266Y-131800095D01*
X112431145Y-131800000D01*
X112983678Y-131800000D01*
X113016178Y-131802130D01*
G37*
%TD.AperFunction*%
%TD*%
%TA.AperFunction,Conductor*%
%TO.N,Net-(U502-SW)*%
G36*
X110266202Y-132054783D02*
G01*
X110269611Y-132055461D01*
X110359372Y-132092638D01*
X110428072Y-132161336D01*
X110465254Y-132251094D01*
X110466133Y-132343617D01*
X110457651Y-132390925D01*
X110456322Y-132400241D01*
X110452562Y-132435517D01*
X110451898Y-132444919D01*
X110423596Y-133256271D01*
X110423668Y-133267249D01*
X110425647Y-133308421D01*
X110425860Y-133309542D01*
X110432525Y-133344646D01*
X110432526Y-133344650D01*
X110432527Y-133344653D01*
X110463749Y-133436636D01*
X110463754Y-133436646D01*
X110468767Y-133447710D01*
X110490831Y-133542324D01*
X110487181Y-133593726D01*
X110483311Y-133615670D01*
X110479773Y-133631266D01*
X110479990Y-133631318D01*
X110478885Y-133635945D01*
X110464101Y-133710256D01*
X110463098Y-133756267D01*
X110477878Y-133852291D01*
X110477879Y-133852296D01*
X110478807Y-133858323D01*
X110477675Y-133858497D01*
X110478161Y-133948255D01*
X110441468Y-134038214D01*
X110373142Y-134107284D01*
X110283585Y-134144949D01*
X110233686Y-134150000D01*
X109874000Y-134150000D01*
X109778712Y-134131046D01*
X109697930Y-134077070D01*
X109643954Y-133996288D01*
X109625000Y-133901000D01*
X109625000Y-132407368D01*
X109629780Y-132358812D01*
X109630557Y-132354904D01*
X109667727Y-132265143D01*
X109669956Y-132261809D01*
X109700913Y-132224086D01*
X109756679Y-132168320D01*
X109765513Y-132159911D01*
X109766495Y-132159022D01*
X109785503Y-132143438D01*
X109786597Y-132142628D01*
X109796548Y-132135634D01*
X109829595Y-132113603D01*
X109919389Y-132076520D01*
X109940205Y-132073310D01*
X110101479Y-132055390D01*
X110136291Y-132051523D01*
X110163788Y-132050000D01*
X110217631Y-132050000D01*
X110266202Y-132054783D01*
G37*
%TD.AperFunction*%
%TD*%
M02*
