%TF.GenerationSoftware,KiCad,Pcbnew,8.0.3-8.0.3-0~ubuntu22.04.1*%
%TF.CreationDate,2024-07-03T11:37:09+02:00*%
%TF.ProjectId,FabOS_MB,4661624f-535f-44d4-922e-6b696361645f,rev?*%
%TF.SameCoordinates,Original*%
%TF.FileFunction,Legend,Bot*%
%TF.FilePolarity,Positive*%
%FSLAX46Y46*%
G04 Gerber Fmt 4.6, Leading zero omitted, Abs format (unit mm)*
G04 Created by KiCad (PCBNEW 8.0.3-8.0.3-0~ubuntu22.04.1) date 2024-07-03 11:37:09*
%MOMM*%
%LPD*%
G01*
G04 APERTURE LIST*
%ADD10C,0.000000*%
G04 APERTURE END LIST*
D10*
%TO.C,G\u002A\u002A\u002A*%
G36*
X124407168Y-100954264D02*
G01*
X124576715Y-101025105D01*
X124576715Y-101368707D01*
X124576701Y-101386334D01*
X124572966Y-101560989D01*
X124558618Y-101669640D01*
X124527840Y-101735975D01*
X124474817Y-101783682D01*
X124448953Y-101798722D01*
X124313932Y-101839505D01*
X124141155Y-101855055D01*
X123991957Y-101848900D01*
X123846593Y-101812831D01*
X123759336Y-101731320D01*
X123716800Y-101589538D01*
X123705596Y-101372660D01*
X123708724Y-101210031D01*
X123729828Y-101073889D01*
X123784600Y-100992481D01*
X123888643Y-100945394D01*
X124057563Y-100912215D01*
X124172798Y-100904357D01*
X124407168Y-100954264D01*
G37*
G36*
X129973179Y-101261268D02*
G01*
X130118227Y-101287776D01*
X130216065Y-101350722D01*
X130233267Y-101367942D01*
X130267521Y-101406967D01*
X130289888Y-101452002D01*
X130300619Y-101517229D01*
X130299963Y-101616831D01*
X130288172Y-101764992D01*
X130265496Y-101975893D01*
X130232185Y-102263719D01*
X130206907Y-102470263D01*
X130174154Y-102694806D01*
X130142509Y-102850529D01*
X130109094Y-102950742D01*
X130071029Y-103008755D01*
X130046579Y-103029844D01*
X129924206Y-103081515D01*
X129786664Y-103084087D01*
X129666795Y-103041188D01*
X129597439Y-102956445D01*
X129583606Y-102902421D01*
X129556809Y-102755566D01*
X129528359Y-102558861D01*
X129500359Y-102332392D01*
X129474909Y-102096247D01*
X129454108Y-101870515D01*
X129440058Y-101675283D01*
X129434859Y-101530638D01*
X129440611Y-101456669D01*
X129448229Y-101438067D01*
X129531507Y-101335046D01*
X129675410Y-101277143D01*
X129892112Y-101259026D01*
X129973179Y-101261268D01*
G37*
G36*
X124267564Y-102501657D02*
G01*
X124396665Y-102529332D01*
X124485018Y-102588629D01*
X124491936Y-102595707D01*
X124514169Y-102623573D01*
X124532135Y-102661615D01*
X124546289Y-102718892D01*
X124557084Y-102804460D01*
X124564973Y-102927378D01*
X124570410Y-103096703D01*
X124573849Y-103321494D01*
X124575744Y-103610808D01*
X124576548Y-103973702D01*
X124576715Y-104419236D01*
X124576715Y-106158146D01*
X124455911Y-106253171D01*
X124348736Y-106312993D01*
X124141155Y-106348195D01*
X123999669Y-106332947D01*
X123826400Y-106253171D01*
X123705596Y-106158146D01*
X123705596Y-104419236D01*
X123705604Y-104288049D01*
X123705901Y-103866128D01*
X123706960Y-103524356D01*
X123709234Y-103253676D01*
X123713177Y-103045029D01*
X123719243Y-102889359D01*
X123727885Y-102777608D01*
X123739557Y-102700717D01*
X123754714Y-102649628D01*
X123773807Y-102615285D01*
X123797293Y-102588629D01*
X123854536Y-102544380D01*
X123967525Y-102507498D01*
X124141155Y-102496932D01*
X124267564Y-102501657D01*
G37*
G36*
X121568394Y-102472586D02*
G01*
X121824524Y-102523721D01*
X122038120Y-102601603D01*
X122357810Y-102789152D01*
X122614851Y-103043104D01*
X122808535Y-103362453D01*
X122938152Y-103746194D01*
X123002993Y-104193322D01*
X123009066Y-104304541D01*
X122997390Y-104787219D01*
X122919812Y-105206922D01*
X122776606Y-105563244D01*
X122568047Y-105855779D01*
X122294408Y-106084118D01*
X121955963Y-106247856D01*
X121552987Y-106346583D01*
X121414803Y-106362391D01*
X121117347Y-106368395D01*
X120814629Y-106342984D01*
X120530531Y-106289976D01*
X120288936Y-106213190D01*
X120113723Y-106116445D01*
X120035618Y-106033213D01*
X119992049Y-105897846D01*
X120013844Y-105782995D01*
X120077272Y-105640024D01*
X120162446Y-105515802D01*
X120249163Y-105445843D01*
X120249425Y-105445744D01*
X120328345Y-105445304D01*
X120463990Y-105470824D01*
X120627150Y-105516820D01*
X120792625Y-105562860D01*
X121117622Y-105609699D01*
X121419147Y-105597263D01*
X121674116Y-105525364D01*
X121687537Y-105519142D01*
X121837525Y-105424093D01*
X121947236Y-105292858D01*
X122022429Y-105111969D01*
X122068863Y-104867956D01*
X122092297Y-104547350D01*
X122096418Y-104319163D01*
X122077795Y-103987277D01*
X122023236Y-103726094D01*
X121928893Y-103525479D01*
X121790917Y-103375300D01*
X121605459Y-103265422D01*
X121501138Y-103229484D01*
X121247941Y-103198013D01*
X120969972Y-103223329D01*
X120698009Y-103304121D01*
X120634981Y-103328141D01*
X120452684Y-103359982D01*
X120307346Y-103313639D01*
X120186054Y-103186134D01*
X120153975Y-103133360D01*
X120095884Y-102956789D01*
X120118582Y-102799276D01*
X120221119Y-102674661D01*
X120238114Y-102662852D01*
X120429211Y-102573019D01*
X120682261Y-102506773D01*
X120972790Y-102466415D01*
X121276325Y-102454252D01*
X121568394Y-102472586D01*
G37*
G36*
X139372050Y-101265886D02*
G01*
X139767747Y-101269647D01*
X139858476Y-101270603D01*
X140200187Y-101274742D01*
X140463699Y-101279503D01*
X140659984Y-101285775D01*
X140800018Y-101294448D01*
X140894774Y-101306412D01*
X140955226Y-101322557D01*
X140992349Y-101343772D01*
X141017115Y-101370948D01*
X141018959Y-101373631D01*
X141033496Y-101409450D01*
X141045705Y-101473005D01*
X141055775Y-101571402D01*
X141063893Y-101711747D01*
X141070248Y-101901146D01*
X141075026Y-102146707D01*
X141078416Y-102455536D01*
X141080604Y-102834740D01*
X141081780Y-103291425D01*
X141082130Y-103832698D01*
X141082130Y-106205451D01*
X140980232Y-106276823D01*
X140867113Y-106326696D01*
X140693665Y-106348254D01*
X140510876Y-106330573D01*
X140350951Y-106277361D01*
X140246099Y-106192324D01*
X140242147Y-106179554D01*
X140232594Y-106088793D01*
X140224312Y-105925861D01*
X140217764Y-105704822D01*
X140213410Y-105439739D01*
X140211713Y-105144675D01*
X140211011Y-104147473D01*
X139411939Y-104147473D01*
X139270365Y-104147337D01*
X138995476Y-104144707D01*
X138794167Y-104135912D01*
X138653714Y-104117335D01*
X138561391Y-104085359D01*
X138504474Y-104036365D01*
X138470236Y-103966736D01*
X138445952Y-103872855D01*
X138436678Y-103818430D01*
X138438805Y-103647212D01*
X138482893Y-103501930D01*
X138561182Y-103413518D01*
X138607177Y-103402176D01*
X138736715Y-103388590D01*
X138928183Y-103377776D01*
X139164498Y-103370632D01*
X139428575Y-103368051D01*
X140211011Y-103368051D01*
X140211011Y-102703250D01*
X140211011Y-102038448D01*
X139343167Y-102038448D01*
X139273606Y-102038443D01*
X138958482Y-102037216D01*
X138722005Y-102030730D01*
X138553209Y-102014550D01*
X138441126Y-101984241D01*
X138374787Y-101935367D01*
X138343226Y-101863494D01*
X138335474Y-101764185D01*
X138340563Y-101633007D01*
X138344722Y-101560514D01*
X138355686Y-101469092D01*
X138380829Y-101398202D01*
X138429840Y-101345377D01*
X138512409Y-101308150D01*
X138638226Y-101284055D01*
X138816978Y-101270623D01*
X139058357Y-101265389D01*
X139372050Y-101265886D01*
G37*
G36*
X119659881Y-104345939D02*
G01*
X119632586Y-104814361D01*
X119627104Y-104854955D01*
X119536643Y-105271354D01*
X119390926Y-105615894D01*
X119186446Y-105892295D01*
X118919696Y-106104279D01*
X118587168Y-106255567D01*
X118185355Y-106349881D01*
X118141192Y-106356041D01*
X117867590Y-106371143D01*
X117582770Y-106353185D01*
X117301433Y-106306775D01*
X117038281Y-106236525D01*
X116808015Y-106147045D01*
X116625337Y-106042945D01*
X116504949Y-105928834D01*
X116461553Y-105809324D01*
X116487544Y-105712456D01*
X116558355Y-105580780D01*
X116651286Y-105454731D01*
X116743505Y-105369894D01*
X116749849Y-105366265D01*
X116821996Y-105354660D01*
X116936098Y-105382564D01*
X117110292Y-105454144D01*
X117270190Y-105516226D01*
X117560612Y-105588004D01*
X117850848Y-105615250D01*
X118115193Y-105596367D01*
X118327941Y-105529758D01*
X118494198Y-105400312D01*
X118633120Y-105190057D01*
X118727029Y-104915434D01*
X118755718Y-104789351D01*
X117718672Y-104789351D01*
X116681625Y-104789351D01*
X116525740Y-104633466D01*
X116514589Y-104622239D01*
X116421504Y-104512111D01*
X116379598Y-104404261D01*
X116369856Y-104252175D01*
X116374830Y-104087311D01*
X116385968Y-104009928D01*
X117239228Y-104009928D01*
X117996600Y-104009928D01*
X118181496Y-104009485D01*
X118409300Y-104007554D01*
X118590716Y-104004356D01*
X118710640Y-104000183D01*
X118753971Y-103995326D01*
X118748591Y-103971580D01*
X118723452Y-103880469D01*
X118684704Y-103747475D01*
X118649075Y-103648379D01*
X118510101Y-103428196D01*
X118315461Y-103275437D01*
X118076449Y-103197124D01*
X117804361Y-103200277D01*
X117623311Y-103261038D01*
X117470582Y-103391700D01*
X117353625Y-103597056D01*
X117267143Y-103883845D01*
X117239228Y-104009928D01*
X116385968Y-104009928D01*
X116433584Y-103679102D01*
X116554562Y-103313773D01*
X116732778Y-103000945D01*
X116963244Y-102750243D01*
X117240975Y-102571287D01*
X117282773Y-102552706D01*
X117397456Y-102513752D01*
X117531009Y-102489933D01*
X117707656Y-102477949D01*
X117951625Y-102474501D01*
X118162527Y-102476078D01*
X118337190Y-102484658D01*
X118469443Y-102504390D01*
X118585401Y-102539372D01*
X118711176Y-102593704D01*
X118846768Y-102666504D01*
X119124891Y-102887255D01*
X119348597Y-103173608D01*
X119514553Y-103517529D01*
X119619426Y-103910984D01*
X119627271Y-103995326D01*
X119659881Y-104345939D01*
G37*
G36*
X128701545Y-102834846D02*
G01*
X128702719Y-103291479D01*
X128703069Y-103832698D01*
X128703069Y-106205451D01*
X128601171Y-106276823D01*
X128488052Y-106326696D01*
X128314604Y-106348254D01*
X128131814Y-106330573D01*
X127971890Y-106277361D01*
X127867038Y-106192324D01*
X127864300Y-106185096D01*
X127854405Y-106104243D01*
X127845797Y-105949915D01*
X127838971Y-105736557D01*
X127834424Y-105478612D01*
X127832652Y-105190524D01*
X127831950Y-104239170D01*
X127440766Y-104239170D01*
X127217789Y-104244480D01*
X127024902Y-104268046D01*
X126868163Y-104319782D01*
X126736997Y-104409581D01*
X126620829Y-104547339D01*
X126509087Y-104742951D01*
X126391196Y-105006313D01*
X126256582Y-105347319D01*
X126162618Y-105592654D01*
X126070669Y-105829618D01*
X126000970Y-106001816D01*
X125947757Y-106120849D01*
X125905266Y-106198315D01*
X125867733Y-106245811D01*
X125829394Y-106274937D01*
X125784484Y-106297291D01*
X125781262Y-106298744D01*
X125616795Y-106343357D01*
X125436153Y-106348504D01*
X125265676Y-106318724D01*
X125131705Y-106258557D01*
X125060580Y-106172542D01*
X125062566Y-106122777D01*
X125096758Y-105987575D01*
X125165199Y-105779112D01*
X125265914Y-105503294D01*
X125396932Y-105166022D01*
X125520811Y-104858926D01*
X125667459Y-104511420D01*
X125790496Y-104242012D01*
X125892528Y-104045402D01*
X125976158Y-103916291D01*
X126043992Y-103849379D01*
X126046855Y-103817932D01*
X125991410Y-103739472D01*
X125878770Y-103629493D01*
X125736855Y-103488088D01*
X125571920Y-103242676D01*
X125478193Y-102959596D01*
X125459383Y-102747007D01*
X126334622Y-102747007D01*
X126379116Y-102958178D01*
X126488774Y-103154526D01*
X126665434Y-103318911D01*
X126731649Y-103359683D01*
X126821921Y-103397752D01*
X126937033Y-103422695D01*
X127099269Y-103438932D01*
X127330916Y-103450883D01*
X127831950Y-103471526D01*
X127831950Y-102754987D01*
X127831950Y-102038448D01*
X127416693Y-102038448D01*
X127353159Y-102039011D01*
X127136452Y-102048134D01*
X126939039Y-102066098D01*
X126797100Y-102089900D01*
X126771578Y-102096861D01*
X126573772Y-102195938D01*
X126433786Y-102348748D01*
X126353458Y-102538150D01*
X126334622Y-102747007D01*
X125459383Y-102747007D01*
X125448282Y-102621542D01*
X125448490Y-102586610D01*
X125478194Y-102270802D01*
X125561048Y-102002517D01*
X125701260Y-101779505D01*
X125903038Y-101599515D01*
X126170592Y-101460297D01*
X126508128Y-101359599D01*
X126919855Y-101295172D01*
X127409981Y-101264765D01*
X127982715Y-101266128D01*
X128088285Y-101269138D01*
X128303985Y-101277748D01*
X128450547Y-101289632D01*
X128544232Y-101307393D01*
X128601302Y-101333631D01*
X128638017Y-101370948D01*
X128639930Y-101373734D01*
X128654462Y-101409620D01*
X128666668Y-101473217D01*
X128676733Y-101571634D01*
X128684847Y-101711980D01*
X128691198Y-101901365D01*
X128695972Y-102146899D01*
X128699359Y-102455689D01*
X128701085Y-102754987D01*
X128701545Y-102834846D01*
G37*
G36*
X137961396Y-105204701D02*
G01*
X137932195Y-105500316D01*
X137844192Y-105772314D01*
X137699117Y-105995947D01*
X137627125Y-106063024D01*
X137442639Y-106185359D01*
X137225627Y-106286899D01*
X137014342Y-106347979D01*
X136929684Y-106359874D01*
X136661262Y-106367847D01*
X136379781Y-106340187D01*
X136111103Y-106281951D01*
X135881094Y-106198199D01*
X135715615Y-106093988D01*
X135638838Y-106049324D01*
X135564683Y-106062650D01*
X135534477Y-106143527D01*
X135510042Y-106214864D01*
X135415725Y-106288478D01*
X135272571Y-106329744D01*
X135104281Y-106328472D01*
X134943457Y-106292980D01*
X134839002Y-106232854D01*
X134785270Y-106132535D01*
X134773785Y-105976040D01*
X134796070Y-105747388D01*
X134799730Y-105717583D01*
X134814744Y-105538082D01*
X134827811Y-105291982D01*
X134838176Y-104999670D01*
X134845077Y-104681535D01*
X134845815Y-104592485D01*
X135672022Y-104592485D01*
X135672022Y-104893160D01*
X135672042Y-104914673D01*
X135676343Y-105072572D01*
X135695532Y-105172443D01*
X135740222Y-105244667D01*
X135821029Y-105319620D01*
X135841742Y-105336513D01*
X135994506Y-105441983D01*
X136153430Y-105529007D01*
X136236950Y-105561263D01*
X136437902Y-105605171D01*
X136642134Y-105613654D01*
X136820298Y-105586862D01*
X136943044Y-105524946D01*
X137038727Y-105389902D01*
X137074041Y-105203178D01*
X137028697Y-104998525D01*
X136996189Y-104935099D01*
X136877276Y-104808370D01*
X136694314Y-104715553D01*
X136439139Y-104653293D01*
X136103586Y-104618232D01*
X135672022Y-104592485D01*
X134845815Y-104592485D01*
X134847758Y-104357963D01*
X134848835Y-104027976D01*
X134852052Y-103765136D01*
X134858363Y-103567564D01*
X134868733Y-103421850D01*
X134884129Y-103314581D01*
X134905515Y-103232346D01*
X134933856Y-103161733D01*
X135055193Y-102965859D01*
X135275836Y-102749156D01*
X135557401Y-102579515D01*
X135577556Y-102570355D01*
X135684545Y-102527921D01*
X135793955Y-102500208D01*
X135928089Y-102484360D01*
X136109252Y-102477524D01*
X136359748Y-102476845D01*
X136510328Y-102479313D01*
X136859077Y-102503896D01*
X137144554Y-102558147D01*
X137385193Y-102646474D01*
X137599427Y-102773285D01*
X137671491Y-102840317D01*
X137735026Y-102984267D01*
X137716847Y-103148542D01*
X137616502Y-103318685D01*
X137563378Y-103376300D01*
X137474860Y-103436661D01*
X137369628Y-103451116D01*
X137226241Y-103420663D01*
X137023259Y-103346300D01*
X137006000Y-103339478D01*
X136703309Y-103245694D01*
X136414197Y-103201710D01*
X136154680Y-103207269D01*
X135940776Y-103262117D01*
X135788502Y-103365997D01*
X135770458Y-103390058D01*
X135716939Y-103510259D01*
X135684358Y-103657137D01*
X135661690Y-103858248D01*
X136182650Y-103884327D01*
X136637343Y-103929107D01*
X137031564Y-104018960D01*
X137353444Y-104155032D01*
X137607539Y-104339268D01*
X137798407Y-104573610D01*
X137836489Y-104641603D01*
X137930070Y-104910214D01*
X137961234Y-105203178D01*
X137961396Y-105204701D01*
G37*
G36*
X133975632Y-103627323D02*
G01*
X133975611Y-103947196D01*
X133975365Y-104445220D01*
X133974632Y-104863094D01*
X133973155Y-105208197D01*
X133970677Y-105487903D01*
X133966940Y-105709591D01*
X133961688Y-105880635D01*
X133954662Y-106008414D01*
X133945607Y-106100303D01*
X133934263Y-106163680D01*
X133920375Y-106205920D01*
X133903685Y-106234401D01*
X133883935Y-106256499D01*
X133794925Y-106315558D01*
X133612120Y-106348195D01*
X133467583Y-106329272D01*
X133334975Y-106246278D01*
X133260388Y-106094047D01*
X133232732Y-105983855D01*
X133088184Y-106094107D01*
X132995538Y-106158545D01*
X132769014Y-106269439D01*
X132485560Y-106348309D01*
X132416014Y-106359687D01*
X132171825Y-106367299D01*
X131915029Y-106338260D01*
X131695646Y-106277081D01*
X131638601Y-106249640D01*
X131457922Y-106124325D01*
X131271802Y-105949744D01*
X131104974Y-105750992D01*
X130982172Y-105553165D01*
X130947250Y-105479152D01*
X130857733Y-105246085D01*
X130800181Y-105002296D01*
X130769622Y-104721325D01*
X130761163Y-104379856D01*
X131639372Y-104379856D01*
X131652983Y-104726136D01*
X131704990Y-105035277D01*
X131798241Y-105277888D01*
X131935258Y-105463200D01*
X131941177Y-105469098D01*
X132050699Y-105562367D01*
X132157828Y-105604074D01*
X132309044Y-105612827D01*
X132496779Y-105596788D01*
X132730108Y-105518960D01*
X132955506Y-105365270D01*
X133104513Y-105239683D01*
X133104513Y-104324213D01*
X133104513Y-103408743D01*
X132892681Y-103315040D01*
X132702958Y-103253569D01*
X132407031Y-103221336D01*
X132339331Y-103222051D01*
X132190718Y-103235763D01*
X132079421Y-103276282D01*
X131965524Y-103355761D01*
X131918222Y-103396892D01*
X131791365Y-103557188D01*
X131705352Y-103765819D01*
X131656062Y-104035727D01*
X131639372Y-104379856D01*
X130761163Y-104379856D01*
X130761085Y-104376715D01*
X130791103Y-103918669D01*
X130881900Y-103506330D01*
X131031632Y-103158651D01*
X131238461Y-102878109D01*
X131500546Y-102667179D01*
X131816047Y-102528336D01*
X132183123Y-102464054D01*
X132243372Y-102460434D01*
X132449716Y-102458899D01*
X132621972Y-102482869D01*
X132804909Y-102537644D01*
X132936577Y-102583701D01*
X133044965Y-102620406D01*
X133091462Y-102634477D01*
X133094058Y-102620321D01*
X133098200Y-102532192D01*
X133101515Y-102376815D01*
X133103715Y-102169814D01*
X133104513Y-101926812D01*
X133105168Y-101802018D01*
X133110322Y-101557441D01*
X133119767Y-101347165D01*
X133132499Y-101190321D01*
X133147518Y-101106035D01*
X133158056Y-101082956D01*
X133255940Y-100984555D01*
X133405812Y-100925803D01*
X133580475Y-100909864D01*
X133752735Y-100939898D01*
X133895397Y-101019068D01*
X133911643Y-101037616D01*
X133926475Y-101069007D01*
X133938834Y-101119397D01*
X133948943Y-101196053D01*
X133957024Y-101306248D01*
X133963303Y-101457249D01*
X133968002Y-101656327D01*
X133971345Y-101910753D01*
X133973556Y-102227795D01*
X133974858Y-102614725D01*
X133975476Y-103078811D01*
X133975570Y-103408743D01*
X133975632Y-103627323D01*
G37*
G36*
X135247394Y-136253898D02*
G01*
X135417101Y-136296086D01*
X135560256Y-136381563D01*
X135581941Y-136402705D01*
X135630012Y-136465109D01*
X135657077Y-136545157D01*
X135668895Y-136667507D01*
X135671221Y-136856819D01*
X135660536Y-137066607D01*
X135648064Y-137311463D01*
X135555609Y-137927888D01*
X135397856Y-138558366D01*
X135180437Y-139181334D01*
X134908982Y-139775234D01*
X134864284Y-139860021D01*
X134550666Y-140382906D01*
X134184184Y-140874148D01*
X133746380Y-141358892D01*
X133370176Y-141743141D01*
X133875704Y-141743141D01*
X133967907Y-141743268D01*
X134163515Y-141746082D01*
X134295935Y-141755524D01*
X134385990Y-141775415D01*
X134454503Y-141809579D01*
X134522295Y-141861838D01*
X134576170Y-141910061D01*
X134633126Y-141986105D01*
X134657751Y-142084616D01*
X134662861Y-142240087D01*
X134658321Y-142358184D01*
X134611307Y-142606008D01*
X134588256Y-142727519D01*
X134441366Y-143071796D01*
X134227769Y-143378453D01*
X133957581Y-143634930D01*
X133640921Y-143828665D01*
X133287906Y-143947099D01*
X133280580Y-143948165D01*
X133193103Y-143952848D01*
X133022031Y-143957176D01*
X132774012Y-143961110D01*
X132455697Y-143964610D01*
X132073733Y-143967638D01*
X131634770Y-143970152D01*
X131145457Y-143972114D01*
X130612443Y-143973485D01*
X130042378Y-143974224D01*
X129441911Y-143974293D01*
X128817690Y-143973652D01*
X124507942Y-143966787D01*
X124254574Y-143844054D01*
X124200972Y-143817139D01*
X123858790Y-143592610D01*
X123581430Y-143312969D01*
X123375240Y-142987888D01*
X123246567Y-142627037D01*
X123244132Y-142606008D01*
X124072383Y-142606008D01*
X124075623Y-142622842D01*
X124126401Y-142707253D01*
X124222429Y-142819434D01*
X124342506Y-142937975D01*
X124465429Y-143041466D01*
X124569995Y-143108496D01*
X124602458Y-143121575D01*
X124646884Y-143133705D01*
X124707592Y-143144298D01*
X124790384Y-143153474D01*
X124901059Y-143161347D01*
X125045419Y-143168036D01*
X125229266Y-143173658D01*
X125458401Y-143178329D01*
X125738624Y-143182168D01*
X126075737Y-143185290D01*
X126475541Y-143187814D01*
X126943837Y-143189856D01*
X127486426Y-143191534D01*
X128109110Y-143192964D01*
X128817690Y-143194264D01*
X129373230Y-143194877D01*
X129959126Y-143194797D01*
X130514994Y-143193977D01*
X131033980Y-143192461D01*
X131509234Y-143190295D01*
X131933903Y-143187525D01*
X132301136Y-143184195D01*
X132604081Y-143180351D01*
X132835885Y-143176038D01*
X132989697Y-143171302D01*
X133058664Y-143166188D01*
X133133009Y-143148854D01*
X133327592Y-143083352D01*
X133479194Y-142987217D01*
X133625033Y-142838945D01*
X133693316Y-142755874D01*
X133764593Y-142658949D01*
X133792238Y-142606008D01*
X133750655Y-142601097D01*
X133623177Y-142596193D01*
X133415703Y-142591537D01*
X133134194Y-142587176D01*
X132784612Y-142583155D01*
X132372920Y-142579520D01*
X131905079Y-142576318D01*
X131387051Y-142573595D01*
X130824798Y-142571397D01*
X130224283Y-142569769D01*
X129591466Y-142568759D01*
X128932311Y-142568412D01*
X128297468Y-142568734D01*
X127663554Y-142569720D01*
X127061718Y-142571325D01*
X126497921Y-142573503D01*
X125978125Y-142576207D01*
X125508292Y-142579392D01*
X125094383Y-142583011D01*
X124742362Y-142587018D01*
X124458189Y-142591368D01*
X124247827Y-142596013D01*
X124117238Y-142600909D01*
X124072383Y-142606008D01*
X123244132Y-142606008D01*
X123201760Y-142240087D01*
X123203139Y-142139628D01*
X123218196Y-142021892D01*
X123260319Y-141940793D01*
X123342327Y-141861838D01*
X123368553Y-141840224D01*
X123434187Y-141795081D01*
X123508219Y-141766624D01*
X123611469Y-141751030D01*
X123764761Y-141744476D01*
X123988917Y-141743141D01*
X124494445Y-141743141D01*
X124118241Y-141358892D01*
X124045562Y-141283791D01*
X123619922Y-140799684D01*
X123262768Y-140305213D01*
X122955639Y-139775234D01*
X122740617Y-139317948D01*
X122510577Y-138699628D01*
X122338941Y-138068959D01*
X122231338Y-137447503D01*
X122206874Y-137066607D01*
X123004703Y-137066607D01*
X123034821Y-137390665D01*
X123104687Y-137845953D01*
X123246809Y-138383847D01*
X123448325Y-138930589D01*
X123700720Y-139463411D01*
X123995478Y-139959543D01*
X124011765Y-139983797D01*
X124291527Y-140355101D01*
X124626214Y-140731199D01*
X124993121Y-141089796D01*
X125369542Y-141408601D01*
X125732773Y-141665320D01*
X125760600Y-141679671D01*
X125802141Y-141693048D01*
X125862141Y-141704397D01*
X125947258Y-141713873D01*
X126064152Y-141721634D01*
X126219478Y-141727836D01*
X126419896Y-141732635D01*
X126672063Y-141736188D01*
X126982637Y-141738652D01*
X127358276Y-141740182D01*
X127805637Y-141740935D01*
X128331379Y-141741068D01*
X128942160Y-141740736D01*
X129399325Y-141740297D01*
X129948162Y-141739411D01*
X130416747Y-141738048D01*
X130811685Y-141736046D01*
X131139581Y-141733244D01*
X131407038Y-141729481D01*
X131620661Y-141724596D01*
X131787053Y-141718428D01*
X131912818Y-141710817D01*
X132004561Y-141701600D01*
X132068886Y-141690617D01*
X132112397Y-141677707D01*
X132141697Y-141662709D01*
X132665898Y-141272482D01*
X133163767Y-140811585D01*
X133610892Y-140302670D01*
X133993625Y-139761302D01*
X134298318Y-139203045D01*
X134448937Y-138853535D01*
X134629244Y-138342295D01*
X134758589Y-137846521D01*
X134829801Y-137390665D01*
X134859919Y-137066607D01*
X128932311Y-137066607D01*
X123004703Y-137066607D01*
X122206874Y-137066607D01*
X122193400Y-136856819D01*
X122193476Y-136784758D01*
X122198327Y-136620505D01*
X122214587Y-136514994D01*
X122248014Y-136443567D01*
X122304366Y-136381563D01*
X122433369Y-136301860D01*
X122617228Y-136253898D01*
X122664757Y-136247865D01*
X122689457Y-136241336D01*
X124193944Y-136241336D01*
X128932311Y-136241336D01*
X133670677Y-136241336D01*
X133569173Y-136133290D01*
X133558731Y-136121389D01*
X133485994Y-135994779D01*
X133442905Y-135846737D01*
X133436384Y-135804557D01*
X133371100Y-135587727D01*
X133261028Y-135449751D01*
X133102670Y-135387779D01*
X132892524Y-135398965D01*
X132685326Y-135420345D01*
X132517837Y-135382949D01*
X132401334Y-135276792D01*
X132325412Y-135096322D01*
X132322782Y-135087021D01*
X132257365Y-134941714D01*
X132166958Y-134822231D01*
X132082163Y-134756687D01*
X131992144Y-134735495D01*
X131856966Y-134751262D01*
X131813492Y-134758906D01*
X131579242Y-134789173D01*
X131411366Y-134785089D01*
X131292854Y-134744392D01*
X131206694Y-134664822D01*
X131153667Y-134595934D01*
X131003854Y-134420422D01*
X130877748Y-134316001D01*
X130759101Y-134275899D01*
X130631662Y-134293341D01*
X130479181Y-134361553D01*
X130346509Y-134422582D01*
X130185411Y-134449821D01*
X130041223Y-134399975D01*
X129889213Y-134269172D01*
X129831502Y-134210118D01*
X129687766Y-134087775D01*
X129561699Y-134034567D01*
X129429624Y-134044488D01*
X129267869Y-134111530D01*
X129183270Y-134150756D01*
X129038635Y-134203111D01*
X128932311Y-134223624D01*
X128878160Y-134216500D01*
X128744741Y-134175971D01*
X128596752Y-134111530D01*
X128536374Y-134082437D01*
X128387483Y-134034337D01*
X128260141Y-134045422D01*
X128130674Y-134121698D01*
X127975408Y-134269172D01*
X127945933Y-134299086D01*
X127782705Y-134420426D01*
X127624865Y-134455036D01*
X127461971Y-134405693D01*
X127461505Y-134405444D01*
X127417228Y-134387545D01*
X127406257Y-134408068D01*
X127430665Y-134481786D01*
X127492525Y-134623473D01*
X127540440Y-134731864D01*
X127626370Y-134948845D01*
X127668545Y-135111303D01*
X127668071Y-135237128D01*
X127626054Y-135344214D01*
X127543598Y-135450452D01*
X127511634Y-135480375D01*
X127366776Y-135545255D01*
X127200645Y-135540588D01*
X127044493Y-135465435D01*
X127039235Y-135461068D01*
X126965396Y-135369463D01*
X126880363Y-135223299D01*
X126801502Y-135052111D01*
X126789766Y-135023087D01*
X126723302Y-134868974D01*
X126673333Y-134783533D01*
X126627893Y-134751128D01*
X126575015Y-134756122D01*
X126478043Y-134789562D01*
X126422056Y-134830585D01*
X126419279Y-134893207D01*
X126469621Y-134995186D01*
X126572992Y-135154279D01*
X126661707Y-135291635D01*
X126759406Y-135472758D01*
X126801844Y-135615352D01*
X126793238Y-135737402D01*
X126737809Y-135856893D01*
X126632722Y-135973054D01*
X126484068Y-136025243D01*
X126288459Y-136003244D01*
X126258704Y-135993848D01*
X126182223Y-135950166D01*
X126098303Y-135868074D01*
X125994316Y-135733807D01*
X125857633Y-135533595D01*
X125571914Y-135101547D01*
X125474973Y-135245399D01*
X125473644Y-135247362D01*
X125346852Y-135375072D01*
X125185891Y-135425237D01*
X124977910Y-135401901D01*
X124937769Y-135392936D01*
X124739241Y-135388267D01*
X124587529Y-135461965D01*
X124481924Y-135614600D01*
X124421717Y-135846737D01*
X124418677Y-135865433D01*
X124370070Y-136014200D01*
X124295448Y-136133290D01*
X124193944Y-136241336D01*
X122689457Y-136241336D01*
X122775911Y-136218483D01*
X122855499Y-136154602D01*
X122938706Y-136031931D01*
X122939590Y-136030471D01*
X123063003Y-135870564D01*
X123225469Y-135717038D01*
X123398028Y-135593844D01*
X123551719Y-135524935D01*
X123635278Y-135472311D01*
X123710288Y-135333076D01*
X123718468Y-135309874D01*
X123840058Y-135096888D01*
X124027019Y-134901364D01*
X124255588Y-134740396D01*
X124502004Y-134631078D01*
X124742504Y-134590505D01*
X124762757Y-134589933D01*
X124870174Y-134554881D01*
X124954478Y-134450092D01*
X125034226Y-134309969D01*
X123796806Y-132469218D01*
X123680070Y-132295530D01*
X123402408Y-131881525D01*
X123171264Y-131534126D01*
X122983165Y-131246491D01*
X122834639Y-131011781D01*
X122722215Y-130823154D01*
X122642419Y-130673769D01*
X122591780Y-130556785D01*
X122566826Y-130465362D01*
X122564084Y-130392659D01*
X122580082Y-130331834D01*
X122611349Y-130276048D01*
X122654411Y-130218458D01*
X122730137Y-130151989D01*
X122882861Y-130098868D01*
X123048812Y-130106604D01*
X123192296Y-130177888D01*
X123231740Y-130223238D01*
X123318511Y-130338177D01*
X123441240Y-130508917D01*
X123592004Y-130724250D01*
X123762879Y-130972968D01*
X123945941Y-131243863D01*
X124014356Y-131345924D01*
X124245177Y-131690223D01*
X124492956Y-132059768D01*
X124740690Y-132429205D01*
X124971378Y-132773179D01*
X125168017Y-133066336D01*
X125729337Y-133903069D01*
X125975591Y-133903069D01*
X126072753Y-133899733D01*
X126191137Y-133884216D01*
X126248269Y-133860315D01*
X126248826Y-133818100D01*
X126219566Y-133712006D01*
X126164176Y-133573762D01*
X126128473Y-133493854D01*
X126047989Y-133309760D01*
X125954144Y-133091687D01*
X125860698Y-132871481D01*
X125809347Y-132750264D01*
X125708339Y-132515373D01*
X125611721Y-132294603D01*
X125534861Y-132123246D01*
X125531588Y-132116102D01*
X125466172Y-131970767D01*
X125419678Y-131862732D01*
X125401986Y-131814917D01*
X125401965Y-131814536D01*
X125383245Y-131764293D01*
X125336217Y-131654645D01*
X125270756Y-131508640D01*
X125269222Y-131505273D01*
X125199098Y-131347685D01*
X125106156Y-131133813D01*
X125002322Y-130891311D01*
X124899522Y-130647834D01*
X124892799Y-130631787D01*
X124792421Y-130393912D01*
X124694441Y-130164491D01*
X124609777Y-129968939D01*
X124549344Y-129832667D01*
X124535266Y-129800845D01*
X124457643Y-129557474D01*
X124447528Y-129354870D01*
X124502437Y-129200680D01*
X124619888Y-129102557D01*
X124797400Y-129068149D01*
X124928908Y-129081810D01*
X125057162Y-129143745D01*
X125163840Y-129268632D01*
X125265265Y-129470508D01*
X125305774Y-129564755D01*
X125395270Y-129769039D01*
X125480733Y-129960109D01*
X125526845Y-130063406D01*
X125609451Y-130254812D01*
X125677026Y-130418592D01*
X125734520Y-130557442D01*
X125816482Y-130746534D01*
X125901357Y-130935535D01*
X125912381Y-130959638D01*
X125979038Y-131108879D01*
X126026059Y-131220141D01*
X126043863Y-131270873D01*
X126057746Y-131312679D01*
X126100993Y-131416536D01*
X126163383Y-131556278D01*
X126179882Y-131592580D01*
X126251085Y-131752576D01*
X126344582Y-131965935D01*
X126450120Y-132209184D01*
X126557452Y-132458845D01*
X126691907Y-132773361D01*
X126797422Y-133018328D01*
X126877623Y-133198820D01*
X126938188Y-133324706D01*
X126984795Y-133405853D01*
X127023120Y-133452129D01*
X127058841Y-133473403D01*
X127097635Y-133479543D01*
X127145179Y-133480417D01*
X127270228Y-133490029D01*
X127416735Y-133512791D01*
X127443769Y-133517568D01*
X127568328Y-133504674D01*
X127714052Y-133426845D01*
X127786573Y-133384600D01*
X127958979Y-133309702D01*
X128138853Y-133255195D01*
X128171404Y-133248087D01*
X128336872Y-133222678D01*
X128483705Y-133228824D01*
X128663793Y-133267768D01*
X128767224Y-133293185D01*
X128905869Y-133314140D01*
X129034213Y-133305667D01*
X129200829Y-133267768D01*
X129234881Y-133259065D01*
X129405942Y-133225596D01*
X129552275Y-133224720D01*
X129725768Y-133255195D01*
X129822936Y-133281516D01*
X130005309Y-133349974D01*
X130150570Y-133426845D01*
X130211866Y-133465718D01*
X130336838Y-133515681D01*
X130458448Y-133510471D01*
X130621444Y-133485679D01*
X130940187Y-133498131D01*
X131238642Y-133587826D01*
X131495993Y-133749961D01*
X131609499Y-133836633D01*
X131732441Y-133889493D01*
X131883637Y-133903069D01*
X131956930Y-133905672D01*
X132259900Y-133967324D01*
X132544177Y-134101010D01*
X132779296Y-134293449D01*
X132862708Y-134388856D01*
X132937962Y-134487498D01*
X132966968Y-134543922D01*
X132967129Y-134546148D01*
X133011462Y-134577755D01*
X133110656Y-134590795D01*
X133366096Y-134623665D01*
X133620515Y-134736327D01*
X133865693Y-134934796D01*
X133987071Y-135069742D01*
X134093289Y-135215466D01*
X134154334Y-135333076D01*
X134213975Y-135453715D01*
X134312902Y-135524935D01*
X134314172Y-135525257D01*
X134468176Y-135594789D01*
X134640775Y-135718380D01*
X134803008Y-135872078D01*
X134925916Y-136031931D01*
X134954837Y-136078684D01*
X135033086Y-136180076D01*
X135118877Y-136230384D01*
X135178736Y-136241336D01*
X135247394Y-136253898D01*
G37*
G36*
X143504571Y-119121814D02*
G01*
X143506491Y-119870177D01*
X143508190Y-120662831D01*
X143508524Y-120850622D01*
X143509669Y-121495532D01*
X143510932Y-122364036D01*
X143511360Y-122732401D01*
X143511978Y-123264102D01*
X143512811Y-124191486D01*
X143513359Y-125031408D01*
X143513431Y-125141945D01*
X143513841Y-126111236D01*
X143514042Y-127095117D01*
X143514035Y-128089343D01*
X143513823Y-129089672D01*
X143513407Y-130091862D01*
X143512789Y-131091668D01*
X143511971Y-132084849D01*
X143510953Y-133067161D01*
X143509738Y-134034360D01*
X143508328Y-134982205D01*
X143506724Y-135906452D01*
X143504928Y-136802858D01*
X143502942Y-137667180D01*
X143500767Y-138495176D01*
X143498405Y-139282601D01*
X143495858Y-140025213D01*
X143493127Y-140718769D01*
X143490214Y-141359027D01*
X143487120Y-141941742D01*
X143483848Y-142462673D01*
X143480400Y-142917576D01*
X143476776Y-143302207D01*
X143472978Y-143612325D01*
X143469009Y-143843686D01*
X143464869Y-143992047D01*
X143460561Y-144053165D01*
X143342341Y-144392048D01*
X143146418Y-144741041D01*
X142884613Y-145036189D01*
X142550247Y-145284760D01*
X142136643Y-145494023D01*
X142129480Y-145495407D01*
X142047465Y-145500026D01*
X141879884Y-145504442D01*
X141631167Y-145508653D01*
X141305746Y-145512658D01*
X140908052Y-145516456D01*
X140442518Y-145520045D01*
X139913575Y-145523424D01*
X139325655Y-145526591D01*
X138683188Y-145529545D01*
X137990607Y-145532284D01*
X137252343Y-145534807D01*
X136472828Y-145537112D01*
X135656493Y-145539198D01*
X134807771Y-145541064D01*
X133931092Y-145542707D01*
X133030888Y-145544127D01*
X132111591Y-145545322D01*
X131177632Y-145546291D01*
X130233443Y-145547031D01*
X129283455Y-145547543D01*
X128332101Y-145547823D01*
X127383811Y-145547872D01*
X126443017Y-145547686D01*
X125514152Y-145547265D01*
X124601645Y-145546608D01*
X123709930Y-145545712D01*
X122843437Y-145544577D01*
X122006599Y-145543201D01*
X121203846Y-145541583D01*
X120439611Y-145539720D01*
X119718324Y-145537612D01*
X119044418Y-145535257D01*
X118422324Y-145532653D01*
X117856474Y-145529800D01*
X117351299Y-145526695D01*
X116911231Y-145523338D01*
X116540702Y-145519726D01*
X116244142Y-145515859D01*
X116025984Y-145511734D01*
X115890659Y-145507351D01*
X115842600Y-145502708D01*
X115815563Y-145478940D01*
X115729605Y-145456860D01*
X115715117Y-145456291D01*
X115572856Y-145414772D01*
X115393477Y-145315982D01*
X115195830Y-145171853D01*
X114998766Y-144994315D01*
X114802699Y-144764635D01*
X114590431Y-144396903D01*
X114449565Y-143977592D01*
X114447414Y-143963903D01*
X114442256Y-143890352D01*
X114437428Y-143759274D01*
X114432925Y-143568868D01*
X114428739Y-143317338D01*
X114424866Y-143002885D01*
X114421298Y-142623710D01*
X114418030Y-142178015D01*
X114415056Y-141664001D01*
X114412368Y-141079872D01*
X114409962Y-140423827D01*
X114407831Y-139694069D01*
X114405969Y-138888800D01*
X114404369Y-138006220D01*
X114403026Y-137044533D01*
X114401933Y-136001939D01*
X114401085Y-134876640D01*
X114400474Y-133666838D01*
X114400095Y-132370734D01*
X114399942Y-130986531D01*
X114400009Y-129512429D01*
X114400104Y-128515413D01*
X114400188Y-127210873D01*
X114400262Y-125992774D01*
X114400361Y-125008484D01*
X115682130Y-125008484D01*
X115682130Y-134430968D01*
X115682130Y-143853452D01*
X115785289Y-144012867D01*
X115810428Y-144047363D01*
X115935926Y-144169636D01*
X116082804Y-144264390D01*
X116095827Y-144270442D01*
X116117327Y-144279285D01*
X116143278Y-144287500D01*
X116176911Y-144295109D01*
X116221459Y-144302134D01*
X116280151Y-144308597D01*
X116356221Y-144314523D01*
X116452898Y-144319932D01*
X116573414Y-144324848D01*
X116721001Y-144329292D01*
X116898890Y-144333289D01*
X117110312Y-144336859D01*
X117358498Y-144340026D01*
X117646681Y-144342812D01*
X117978090Y-144345239D01*
X118355957Y-144347331D01*
X118783515Y-144349109D01*
X119263993Y-144350597D01*
X119800624Y-144351816D01*
X120396638Y-144352790D01*
X121055268Y-144353541D01*
X121779743Y-144354090D01*
X122573296Y-144354462D01*
X123439158Y-144354678D01*
X124380560Y-144354761D01*
X125400734Y-144354734D01*
X126502911Y-144354618D01*
X127690321Y-144354437D01*
X128966197Y-144354213D01*
X141655235Y-144351928D01*
X141850845Y-144257073D01*
X141897528Y-144232018D01*
X142041453Y-144129504D01*
X142148859Y-144018654D01*
X142251264Y-143875091D01*
X142251264Y-134453250D01*
X142251264Y-125031408D01*
X137746661Y-125019722D01*
X133242058Y-125008035D01*
X133242058Y-125112066D01*
X133240403Y-125143575D01*
X133205087Y-125305095D01*
X133132999Y-125504117D01*
X133036330Y-125710369D01*
X132927273Y-125893583D01*
X132917657Y-125907450D01*
X132708007Y-126158400D01*
X132463680Y-126351471D01*
X132166703Y-126498069D01*
X131799105Y-126609600D01*
X131715235Y-126630311D01*
X131606517Y-126659734D01*
X131558725Y-126676534D01*
X131549547Y-126703184D01*
X131541015Y-126739308D01*
X131526962Y-126798810D01*
X131498742Y-126937613D01*
X131495593Y-126954100D01*
X131475765Y-127059835D01*
X131455770Y-127171110D01*
X131432723Y-127304921D01*
X131403738Y-127478267D01*
X131365930Y-127708145D01*
X131316412Y-128011553D01*
X131296335Y-128131673D01*
X131260705Y-128337479D01*
X131224729Y-128538809D01*
X131193169Y-128713334D01*
X131123759Y-129107582D01*
X131065067Y-129455777D01*
X131064706Y-129457983D01*
X130999703Y-129812884D01*
X130934319Y-130087646D01*
X130869926Y-130276506D01*
X130787971Y-130421288D01*
X130616163Y-130629052D01*
X130405198Y-130814053D01*
X130183828Y-130948143D01*
X130139626Y-130968022D01*
X130057123Y-131000966D01*
X129972266Y-131024993D01*
X129870165Y-131041505D01*
X129735930Y-131051906D01*
X129554671Y-131057599D01*
X129311497Y-131059986D01*
X128991518Y-131060470D01*
X128749073Y-131059920D01*
X128446627Y-131055866D01*
X128211324Y-131045780D01*
X128028361Y-131027235D01*
X127882936Y-130997805D01*
X127760244Y-130955064D01*
X127645482Y-130896587D01*
X127523848Y-130819947D01*
X127519836Y-130817271D01*
X127345532Y-130684163D01*
X127207384Y-130535313D01*
X127097962Y-130355532D01*
X127009836Y-130129630D01*
X126935575Y-129842416D01*
X126867749Y-129478701D01*
X126849557Y-129369660D01*
X126811775Y-129148441D01*
X126777191Y-128951444D01*
X126758830Y-128848493D01*
X126720249Y-128630001D01*
X126684302Y-128424188D01*
X126676552Y-128379472D01*
X126613150Y-128014557D01*
X126557845Y-127698172D01*
X126504047Y-127392600D01*
X126479203Y-127247555D01*
X126447708Y-127052423D01*
X126424876Y-126898050D01*
X126396120Y-126768073D01*
X126336143Y-126678943D01*
X126293598Y-126657614D01*
X127645211Y-126657614D01*
X127673505Y-126899024D01*
X127685073Y-126989198D01*
X127706628Y-127126003D01*
X127725120Y-127209206D01*
X127727140Y-127215420D01*
X127742149Y-127274459D01*
X127762563Y-127376198D01*
X127790538Y-127532614D01*
X127828231Y-127755689D01*
X127877798Y-128057401D01*
X127897881Y-128177521D01*
X127933517Y-128383327D01*
X127969495Y-128584657D01*
X128031313Y-128926849D01*
X128090538Y-129264100D01*
X128133987Y-129524549D01*
X128139393Y-129553922D01*
X128180779Y-129691156D01*
X128234016Y-129788177D01*
X128251975Y-129805736D01*
X128300924Y-129832857D01*
X128380230Y-129850976D01*
X128505222Y-129861802D01*
X128691229Y-129867044D01*
X128953578Y-129868412D01*
X129229349Y-129865565D01*
X129454805Y-129855411D01*
X129600593Y-129837421D01*
X129672912Y-129811101D01*
X129710139Y-129760328D01*
X129763572Y-129616347D01*
X129818239Y-129385770D01*
X129874826Y-129066065D01*
X129883464Y-129012452D01*
X129913452Y-128833577D01*
X129944897Y-128653430D01*
X129962518Y-128554096D01*
X129998458Y-128348273D01*
X130032672Y-128149098D01*
X130051961Y-128036509D01*
X130088632Y-127826009D01*
X130120869Y-127644766D01*
X130143418Y-127516721D01*
X130178482Y-127310161D01*
X130211803Y-127107020D01*
X130237797Y-126946894D01*
X130260142Y-126813005D01*
X130273051Y-126740233D01*
X130273200Y-126739308D01*
X130256523Y-126721748D01*
X130196557Y-126707454D01*
X130085234Y-126695993D01*
X129914487Y-126686929D01*
X129676248Y-126679830D01*
X129362449Y-126674259D01*
X128965024Y-126669782D01*
X127645211Y-126657614D01*
X126293598Y-126657614D01*
X126225648Y-126623549D01*
X126044045Y-126584964D01*
X125815424Y-126524552D01*
X125515245Y-126378936D01*
X125239980Y-126173640D01*
X125015803Y-125925452D01*
X125012256Y-125920511D01*
X124914600Y-125773385D01*
X124840478Y-125629321D01*
X124776241Y-125457291D01*
X124708239Y-125226264D01*
X124648393Y-125008484D01*
X120165262Y-125008484D01*
X115682130Y-125008484D01*
X114400361Y-125008484D01*
X114400376Y-124858061D01*
X114400580Y-123803682D01*
X114400926Y-122826583D01*
X114401462Y-121923712D01*
X114402240Y-121092015D01*
X114402438Y-120950903D01*
X115705054Y-120950903D01*
X115705054Y-122349278D01*
X115705054Y-123747654D01*
X120165161Y-123759343D01*
X120331672Y-123759771D01*
X121077911Y-123761425D01*
X121738069Y-123762380D01*
X122316793Y-123762587D01*
X122818731Y-123761998D01*
X123248530Y-123760566D01*
X123610836Y-123758242D01*
X123910297Y-123754978D01*
X124151560Y-123750727D01*
X124339272Y-123745439D01*
X124478079Y-123739067D01*
X124572630Y-123731563D01*
X124627571Y-123722878D01*
X124647549Y-123712966D01*
X124649140Y-123705161D01*
X124654051Y-123622560D01*
X124657680Y-123463570D01*
X124659212Y-123312217D01*
X125911573Y-123312217D01*
X125912164Y-123720866D01*
X125913762Y-124084480D01*
X125916320Y-124393727D01*
X125919789Y-124639276D01*
X125924121Y-124811794D01*
X125929268Y-124901951D01*
X125933191Y-124931713D01*
X125983158Y-125121636D01*
X126075917Y-125257276D01*
X126193912Y-125375271D01*
X128950025Y-125375215D01*
X131706137Y-125375159D01*
X131843683Y-125256896D01*
X131981228Y-125138633D01*
X131992771Y-122402890D01*
X131993065Y-122333552D01*
X131995482Y-121757639D01*
X131997094Y-121265659D01*
X131997270Y-120975574D01*
X133242058Y-120975574D01*
X133242058Y-122345247D01*
X133242083Y-122452425D01*
X133242816Y-122825432D01*
X133244932Y-123118752D01*
X133248929Y-123341983D01*
X133255307Y-123504723D01*
X133264563Y-123616571D01*
X133277195Y-123687126D01*
X133293702Y-123725985D01*
X133314580Y-123742749D01*
X133323892Y-123744161D01*
X133409897Y-123748080D01*
X133578937Y-123751815D01*
X133824602Y-123755327D01*
X134140482Y-123758575D01*
X134520165Y-123761520D01*
X134957243Y-123764121D01*
X135445305Y-123766339D01*
X135977940Y-123768134D01*
X136548738Y-123769465D01*
X137151289Y-123770293D01*
X137779183Y-123770578D01*
X138415487Y-123770455D01*
X139091454Y-123769951D01*
X139685037Y-123768988D01*
X140201294Y-123767496D01*
X140645280Y-123765403D01*
X141022054Y-123762637D01*
X141336671Y-123759128D01*
X141594190Y-123754803D01*
X141799668Y-123749591D01*
X141958161Y-123743421D01*
X142074726Y-123736221D01*
X142154421Y-123727919D01*
X142202302Y-123718444D01*
X142223428Y-123707724D01*
X142239585Y-123655673D01*
X142252017Y-123536918D01*
X142260473Y-123346839D01*
X142265097Y-123080359D01*
X142266034Y-122732401D01*
X142263428Y-122297886D01*
X142251264Y-120950903D01*
X137849820Y-120938306D01*
X137624241Y-120937694D01*
X137002927Y-120936352D01*
X136408691Y-120935568D01*
X135847992Y-120935322D01*
X135327293Y-120935598D01*
X134853057Y-120936378D01*
X134431745Y-120937643D01*
X134069819Y-120939377D01*
X133773742Y-120941562D01*
X133549974Y-120944179D01*
X133404978Y-120947212D01*
X133345217Y-120950642D01*
X133242058Y-120975574D01*
X131997270Y-120975574D01*
X131997346Y-120850622D01*
X131995684Y-120505539D01*
X131991556Y-120223421D01*
X131984407Y-119997278D01*
X131973682Y-119820121D01*
X131958829Y-119684961D01*
X131939293Y-119584809D01*
X131914520Y-119512676D01*
X131883957Y-119461572D01*
X131847050Y-119424508D01*
X131803244Y-119394495D01*
X131751986Y-119364544D01*
X131717516Y-119347551D01*
X131671572Y-119332969D01*
X131607141Y-119320755D01*
X131516900Y-119310687D01*
X131393529Y-119302543D01*
X131229707Y-119296102D01*
X131018114Y-119291142D01*
X130751428Y-119287440D01*
X130422329Y-119284776D01*
X130023496Y-119282927D01*
X129547608Y-119281672D01*
X128987344Y-119280788D01*
X128575871Y-119280261D01*
X128065039Y-119279872D01*
X127633427Y-119280407D01*
X127273716Y-119282424D01*
X126978585Y-119286481D01*
X126740715Y-119293134D01*
X126552788Y-119302942D01*
X126407483Y-119316463D01*
X126297481Y-119334252D01*
X126215462Y-119356869D01*
X126154107Y-119384871D01*
X126106096Y-119418815D01*
X126064111Y-119459259D01*
X126020831Y-119506760D01*
X126011288Y-119517730D01*
X125992936Y-119544381D01*
X125977457Y-119581137D01*
X125964552Y-119635415D01*
X125953922Y-119714633D01*
X125945267Y-119826207D01*
X125938291Y-119977555D01*
X125932693Y-120176095D01*
X125928175Y-120429243D01*
X125924438Y-120744418D01*
X125921184Y-121129036D01*
X125918113Y-121590516D01*
X125914928Y-122136274D01*
X125913609Y-122397141D01*
X125912039Y-122867865D01*
X125911938Y-122964261D01*
X125911573Y-123312217D01*
X124659212Y-123312217D01*
X124659941Y-123240151D01*
X124660749Y-122964261D01*
X124660017Y-122647858D01*
X124657660Y-122302901D01*
X124645488Y-120950903D01*
X120175271Y-120950903D01*
X115705054Y-120950903D01*
X114402438Y-120950903D01*
X114403309Y-120328438D01*
X114404721Y-119629930D01*
X114406524Y-118993436D01*
X114408770Y-118415904D01*
X114411508Y-117894280D01*
X114414789Y-117425511D01*
X114418663Y-117006545D01*
X114423181Y-116634327D01*
X114428392Y-116305805D01*
X114434347Y-116017926D01*
X114441096Y-115767636D01*
X114448690Y-115551883D01*
X114457178Y-115367613D01*
X114466611Y-115211773D01*
X114470378Y-115164644D01*
X115682130Y-115164644D01*
X115682130Y-117427358D01*
X115682130Y-119690073D01*
X120165262Y-119690073D01*
X124648393Y-119690073D01*
X124708239Y-119472293D01*
X124808577Y-119162496D01*
X124961084Y-118846370D01*
X125156063Y-118591826D01*
X125405887Y-118383422D01*
X125722924Y-118205717D01*
X125791985Y-118175964D01*
X125867044Y-118152328D01*
X125959841Y-118134025D01*
X126082703Y-118119995D01*
X126247954Y-118109175D01*
X126467921Y-118100507D01*
X126754927Y-118092928D01*
X127121300Y-118085379D01*
X128313358Y-118062455D01*
X128313358Y-117082506D01*
X129582440Y-117082506D01*
X129584694Y-117417903D01*
X129589967Y-117674708D01*
X129598373Y-117857831D01*
X129610031Y-117972178D01*
X129625057Y-118022656D01*
X129638948Y-118033899D01*
X129691854Y-118051823D01*
X129787445Y-118065307D01*
X129935519Y-118074878D01*
X130145874Y-118081063D01*
X130428310Y-118084388D01*
X130792626Y-118085379D01*
X130983923Y-118085457D01*
X131299636Y-118086744D01*
X131545379Y-118091043D01*
X131735572Y-118100156D01*
X131884635Y-118115885D01*
X132006987Y-118140032D01*
X132117048Y-118174399D01*
X132229237Y-118220789D01*
X132357974Y-118281003D01*
X132552261Y-118405245D01*
X132759621Y-118601710D01*
X132947073Y-118840075D01*
X133099758Y-119098375D01*
X133202817Y-119354643D01*
X133241391Y-119586914D01*
X133242058Y-119690073D01*
X137736638Y-119690073D01*
X138387481Y-119689946D01*
X139073148Y-119689432D01*
X139676170Y-119688462D01*
X140201443Y-119686969D01*
X140653861Y-119684887D01*
X141038318Y-119682148D01*
X141359711Y-119678686D01*
X141622933Y-119674434D01*
X141832880Y-119669327D01*
X141994446Y-119663297D01*
X142112526Y-119656278D01*
X142192015Y-119648203D01*
X142237808Y-119639006D01*
X142254799Y-119628620D01*
X142254915Y-119628290D01*
X142259344Y-119569248D01*
X142262943Y-119427927D01*
X142265671Y-119213521D01*
X142267487Y-118935221D01*
X142268351Y-118602223D01*
X142268222Y-118223717D01*
X142267060Y-117808899D01*
X142264822Y-117366962D01*
X142251264Y-115166756D01*
X142122811Y-114998402D01*
X142098499Y-114964519D01*
X142072142Y-114924434D01*
X142047285Y-114888462D01*
X142019270Y-114856390D01*
X141983435Y-114828006D01*
X141935121Y-114803097D01*
X141869668Y-114781452D01*
X141782417Y-114762857D01*
X141668707Y-114747101D01*
X141523878Y-114733970D01*
X141343272Y-114723253D01*
X141122227Y-114714737D01*
X140856084Y-114708209D01*
X140540183Y-114703458D01*
X140169865Y-114700270D01*
X139740469Y-114698433D01*
X139247335Y-114697735D01*
X138685804Y-114697964D01*
X138051216Y-114698906D01*
X137338911Y-114700350D01*
X136544229Y-114702083D01*
X135662510Y-114703893D01*
X129597112Y-114715524D01*
X129585057Y-116337729D01*
X129583087Y-116663612D01*
X129582440Y-117082506D01*
X128313358Y-117082506D01*
X128313358Y-116388990D01*
X128313358Y-114715524D01*
X122251879Y-114703893D01*
X122220255Y-114703833D01*
X121353882Y-114702214D01*
X120574330Y-114700888D01*
X119876888Y-114699909D01*
X119256841Y-114699332D01*
X118709479Y-114699212D01*
X118230090Y-114699603D01*
X117813960Y-114700562D01*
X117456377Y-114702142D01*
X117152631Y-114704399D01*
X116898007Y-114707387D01*
X116687794Y-114711162D01*
X116517281Y-114715777D01*
X116381753Y-114721289D01*
X116276501Y-114727751D01*
X116196810Y-114735220D01*
X116137969Y-114743749D01*
X116095266Y-114753394D01*
X116063988Y-114764209D01*
X116039424Y-114776249D01*
X116026687Y-114783653D01*
X115895580Y-114886759D01*
X115785289Y-115012440D01*
X115682130Y-115164644D01*
X114470378Y-115164644D01*
X114477040Y-115081310D01*
X114488514Y-114973171D01*
X114501083Y-114884302D01*
X114514799Y-114811651D01*
X114529710Y-114752164D01*
X114545868Y-114702788D01*
X114563323Y-114660470D01*
X114582125Y-114622158D01*
X114602324Y-114584797D01*
X114623971Y-114545334D01*
X114647115Y-114500717D01*
X114774949Y-114286643D01*
X114990718Y-114025761D01*
X115240122Y-113806737D01*
X115498737Y-113653856D01*
X115613409Y-113602890D01*
X115750903Y-113540637D01*
X115773747Y-113534653D01*
X115821104Y-113528615D01*
X115894971Y-113522972D01*
X115998312Y-113517705D01*
X116134091Y-113512798D01*
X116305269Y-113508235D01*
X116514811Y-113503997D01*
X116765678Y-113500068D01*
X117060835Y-113496431D01*
X117403243Y-113493069D01*
X117795867Y-113489964D01*
X118241668Y-113487099D01*
X118743610Y-113484458D01*
X119304656Y-113482023D01*
X119927769Y-113479777D01*
X120615912Y-113477704D01*
X121372048Y-113475785D01*
X122199140Y-113474004D01*
X123100150Y-113472344D01*
X124078043Y-113470787D01*
X125135780Y-113469318D01*
X126276325Y-113467917D01*
X127502640Y-113466569D01*
X128817690Y-113465257D01*
X130212207Y-113464052D01*
X131577020Y-113463158D01*
X132852273Y-113462635D01*
X134039056Y-113462486D01*
X135138460Y-113462715D01*
X136151574Y-113463325D01*
X137079490Y-113464318D01*
X137923296Y-113465698D01*
X138684084Y-113467467D01*
X139362943Y-113469629D01*
X139960965Y-113472186D01*
X140479238Y-113475142D01*
X140918853Y-113478499D01*
X141280901Y-113482261D01*
X141566472Y-113486430D01*
X141776655Y-113491010D01*
X141912542Y-113496003D01*
X141975222Y-113501413D01*
X142055029Y-113520475D01*
X142404430Y-113653372D01*
X142727085Y-113853271D01*
X143006928Y-114106226D01*
X143227896Y-114398292D01*
X143373921Y-114715524D01*
X143383775Y-114746304D01*
X143432029Y-114891386D01*
X143472109Y-115004234D01*
X143472863Y-115007594D01*
X143477083Y-115079691D01*
X143481065Y-115238509D01*
X143484811Y-115479804D01*
X143488324Y-115799333D01*
X143491603Y-116192853D01*
X143494652Y-116656121D01*
X143497471Y-117184894D01*
X143500063Y-117774929D01*
X143502429Y-118421983D01*
X143502981Y-118602223D01*
X143504571Y-119121814D01*
G37*
G36*
X150739065Y-118872670D02*
G01*
X150754901Y-119119617D01*
X150767129Y-119416625D01*
X150776631Y-119772023D01*
X150784292Y-120194134D01*
X150790995Y-120691286D01*
X150797625Y-121271805D01*
X150824910Y-123747581D01*
X151122181Y-123784243D01*
X151511101Y-123873563D01*
X151863223Y-124043009D01*
X152167025Y-124289641D01*
X152194122Y-124317702D01*
X152404213Y-124572680D01*
X152552179Y-124841916D01*
X152659236Y-125163060D01*
X152664069Y-125192076D01*
X152673767Y-125317950D01*
X152674325Y-125330869D01*
X152682769Y-125526349D01*
X152691074Y-125811050D01*
X152698682Y-126165832D01*
X152705592Y-126584472D01*
X152711804Y-127060748D01*
X152717317Y-127588439D01*
X152722130Y-128161322D01*
X152726243Y-128773175D01*
X152729656Y-129417776D01*
X152732367Y-130088903D01*
X152734376Y-130780333D01*
X152735683Y-131485845D01*
X152736286Y-132199217D01*
X152736186Y-132914226D01*
X152735382Y-133624651D01*
X152733873Y-134324269D01*
X152731659Y-135006858D01*
X152728739Y-135666196D01*
X152725527Y-136224055D01*
X152725112Y-136296061D01*
X152720778Y-136890231D01*
X152715737Y-137442484D01*
X152709987Y-137946597D01*
X152703529Y-138396349D01*
X152696361Y-138785518D01*
X152688483Y-139107881D01*
X152679894Y-139357216D01*
X152670594Y-139527302D01*
X152660583Y-139611915D01*
X152611838Y-139774670D01*
X152438808Y-140152762D01*
X152200175Y-140467525D01*
X151898791Y-140716382D01*
X151537505Y-140896756D01*
X151119169Y-141006067D01*
X151116532Y-141006489D01*
X150990268Y-141018620D01*
X150779486Y-141029273D01*
X150491123Y-141038307D01*
X150132121Y-141045579D01*
X149709417Y-141050950D01*
X149229953Y-141054275D01*
X148700667Y-141055416D01*
X146583935Y-141055416D01*
X146583439Y-147439802D01*
X146583418Y-148199110D01*
X146583409Y-149034097D01*
X146583260Y-149785914D01*
X146582808Y-150459221D01*
X146581886Y-151058679D01*
X146580329Y-151588947D01*
X146579968Y-151660325D01*
X146577972Y-152054685D01*
X146574650Y-152460553D01*
X146570197Y-152811212D01*
X146564448Y-153111322D01*
X146557239Y-153365542D01*
X146548402Y-153578532D01*
X146537774Y-153754953D01*
X146525189Y-153899465D01*
X146510481Y-154016727D01*
X146493485Y-154111401D01*
X146474037Y-154188145D01*
X146451970Y-154251619D01*
X146427120Y-154306485D01*
X146399321Y-154357402D01*
X146368408Y-154409029D01*
X146334215Y-154466028D01*
X146266560Y-154567480D01*
X146092273Y-154763559D01*
X145881602Y-154942014D01*
X145655994Y-155087937D01*
X145436895Y-155186423D01*
X145245752Y-155222564D01*
X145156422Y-155235421D01*
X145116787Y-155268412D01*
X145113285Y-155271768D01*
X145042573Y-155282873D01*
X144882002Y-155292347D01*
X144632999Y-155300161D01*
X144296992Y-155306287D01*
X143875409Y-155310698D01*
X143369677Y-155313365D01*
X142781226Y-155314260D01*
X142584950Y-155314165D01*
X142030047Y-155312684D01*
X141553070Y-155309443D01*
X141156312Y-155304488D01*
X140842065Y-155297863D01*
X140612624Y-155289612D01*
X140470281Y-155279780D01*
X140417329Y-155268412D01*
X140373855Y-155239396D01*
X140276578Y-155222564D01*
X140256743Y-155221682D01*
X140109857Y-155186446D01*
X139925230Y-155109566D01*
X139731518Y-155004503D01*
X139557373Y-154884717D01*
X139439048Y-154772712D01*
X139277660Y-154572649D01*
X139132465Y-154344816D01*
X139027339Y-154123499D01*
X139016727Y-154086990D01*
X138992599Y-153933647D01*
X138971729Y-153693265D01*
X138954361Y-153369132D01*
X138940742Y-152964531D01*
X138914531Y-151967329D01*
X134639312Y-151967329D01*
X134085349Y-151967365D01*
X133416695Y-151967384D01*
X132829904Y-151967106D01*
X132319337Y-151966243D01*
X131879356Y-151964511D01*
X131504324Y-151961622D01*
X131188601Y-151957288D01*
X130926549Y-151951225D01*
X130712530Y-151943145D01*
X130540905Y-151932761D01*
X130406036Y-151919787D01*
X130302285Y-151903936D01*
X130224013Y-151884921D01*
X130165582Y-151862457D01*
X130121353Y-151836255D01*
X130085689Y-151806030D01*
X130052950Y-151771495D01*
X130017499Y-151732364D01*
X130006141Y-151719751D01*
X129952031Y-151633878D01*
X129925253Y-151518012D01*
X129918051Y-151341684D01*
X129918747Y-151271022D01*
X129923183Y-151216736D01*
X140165163Y-151216736D01*
X140165163Y-153703038D01*
X140319584Y-153866772D01*
X140474004Y-154030506D01*
X142763826Y-154030506D01*
X142810801Y-154030506D01*
X143320304Y-154030410D01*
X143746602Y-154029925D01*
X144097532Y-154028735D01*
X144380925Y-154026525D01*
X144604615Y-154022982D01*
X144776437Y-154017790D01*
X144904224Y-154010636D01*
X144995808Y-154001203D01*
X145059024Y-153989179D01*
X145101706Y-153974248D01*
X145131686Y-153956095D01*
X145156799Y-153934406D01*
X145236220Y-153841855D01*
X145302989Y-153725104D01*
X145309667Y-153691000D01*
X145319558Y-153568627D01*
X145327954Y-153373183D01*
X145334879Y-153114967D01*
X145340356Y-152804275D01*
X145344411Y-152451406D01*
X145347068Y-152066657D01*
X145348352Y-151660325D01*
X145348286Y-151242708D01*
X145346896Y-150824103D01*
X145344205Y-150414809D01*
X145340238Y-150025122D01*
X145335020Y-149665339D01*
X145328574Y-149345759D01*
X145320926Y-149076680D01*
X145312100Y-148868397D01*
X145302120Y-148731210D01*
X145291011Y-148675416D01*
X145253185Y-148665384D01*
X145131022Y-148653927D01*
X144935566Y-148643976D01*
X144677130Y-148635531D01*
X144366023Y-148628592D01*
X144012558Y-148623159D01*
X143627044Y-148619231D01*
X143219793Y-148616810D01*
X142801117Y-148615894D01*
X142381325Y-148616484D01*
X141970730Y-148618580D01*
X141579642Y-148622182D01*
X141218372Y-148627289D01*
X140897231Y-148633903D01*
X140626530Y-148642022D01*
X140416581Y-148651648D01*
X140277694Y-148662779D01*
X140220181Y-148675416D01*
X140219801Y-148675812D01*
X140207092Y-148713310D01*
X140196313Y-148799461D01*
X140187350Y-148939647D01*
X140180085Y-149139247D01*
X140174403Y-149403640D01*
X140170185Y-149738205D01*
X140167317Y-150148324D01*
X140165682Y-150639374D01*
X140165163Y-151216736D01*
X129923183Y-151216736D01*
X129930753Y-151124112D01*
X129964609Y-151024352D01*
X130029267Y-150939364D01*
X130032370Y-150936110D01*
X130158442Y-150840905D01*
X130304357Y-150775457D01*
X130377755Y-150767402D01*
X130540602Y-150759867D01*
X130789133Y-150753094D01*
X131120307Y-150747115D01*
X131531083Y-150741960D01*
X132018420Y-150737662D01*
X132579276Y-150734253D01*
X133210609Y-150731765D01*
X133909378Y-150730230D01*
X134672542Y-150729678D01*
X135356959Y-150729496D01*
X136003417Y-150728946D01*
X136568393Y-150727948D01*
X137057162Y-150726421D01*
X137474995Y-150724285D01*
X137827167Y-150721456D01*
X138118950Y-150717854D01*
X138355618Y-150713398D01*
X138542445Y-150708005D01*
X138684703Y-150701595D01*
X138787666Y-150694086D01*
X138856607Y-150685396D01*
X138896799Y-150675444D01*
X138913516Y-150664148D01*
X138917072Y-150652716D01*
X138925910Y-150562254D01*
X138931538Y-150399371D01*
X138933766Y-150178558D01*
X138932402Y-149914304D01*
X138927257Y-149621098D01*
X138904332Y-148643322D01*
X128967597Y-148631756D01*
X119030861Y-148620190D01*
X119005514Y-148723452D01*
X119003968Y-148731652D01*
X118997269Y-148823866D01*
X118992654Y-148989078D01*
X118990306Y-149211679D01*
X118990410Y-149476059D01*
X118993153Y-149766607D01*
X119006137Y-150706499D01*
X123338809Y-150729423D01*
X124051863Y-150733350D01*
X124711169Y-150737377D01*
X125289046Y-150741437D01*
X125790735Y-150745633D01*
X126221480Y-150750071D01*
X126586522Y-150754856D01*
X126891105Y-150760093D01*
X127140472Y-150765887D01*
X127339864Y-150772343D01*
X127494526Y-150779567D01*
X127609698Y-150787662D01*
X127690625Y-150796735D01*
X127742548Y-150806890D01*
X127770710Y-150818233D01*
X127858167Y-150902062D01*
X127957430Y-151052365D01*
X128030923Y-151219587D01*
X128057841Y-151364171D01*
X128022091Y-151520865D01*
X127919384Y-151699175D01*
X127769605Y-151849019D01*
X127754371Y-151860063D01*
X127729789Y-151874823D01*
X127697783Y-151887811D01*
X127652734Y-151899176D01*
X127589025Y-151909069D01*
X127501036Y-151917639D01*
X127383151Y-151925034D01*
X127229751Y-151931406D01*
X127035218Y-151936903D01*
X126793934Y-151941674D01*
X126500280Y-151945870D01*
X126148640Y-151949640D01*
X125733395Y-151953133D01*
X125248926Y-151956499D01*
X124689615Y-151959887D01*
X124049846Y-151963447D01*
X123323999Y-151967329D01*
X119006137Y-151990253D01*
X118981290Y-152998917D01*
X118975013Y-153245294D01*
X118966628Y-153520097D01*
X118957176Y-153727972D01*
X118955579Y-153748362D01*
X118945010Y-153883333D01*
X118928483Y-154000595D01*
X118905948Y-154094170D01*
X118875756Y-154178473D01*
X118836261Y-154267917D01*
X118780665Y-154374733D01*
X118656699Y-154569205D01*
X118526855Y-154733539D01*
X118384972Y-154863694D01*
X118194524Y-154998918D01*
X117991628Y-155113485D01*
X117802252Y-155192874D01*
X117652362Y-155222564D01*
X117555315Y-155234990D01*
X117493141Y-155268412D01*
X117487246Y-155271835D01*
X117408465Y-155282816D01*
X117240997Y-155292234D01*
X116987170Y-155300042D01*
X116649315Y-155306194D01*
X116229760Y-155310645D01*
X115730837Y-155313349D01*
X115154874Y-155314260D01*
X114982388Y-155314185D01*
X114428224Y-155312756D01*
X113951767Y-155309548D01*
X113555344Y-155304606D01*
X113241288Y-155297975D01*
X113011926Y-155289702D01*
X112869589Y-155279833D01*
X112816607Y-155268412D01*
X112774256Y-155239668D01*
X112677715Y-155222564D01*
X112526497Y-155198186D01*
X112312900Y-155109290D01*
X112088479Y-154969553D01*
X111873727Y-154794062D01*
X111689136Y-154597904D01*
X111555201Y-154396165D01*
X111552777Y-154391432D01*
X111528219Y-154345106D01*
X111505501Y-154302951D01*
X111484553Y-154261417D01*
X111465301Y-154216954D01*
X111447675Y-154166010D01*
X111431603Y-154105035D01*
X111417014Y-154030478D01*
X111403836Y-153938789D01*
X111391998Y-153826416D01*
X111389026Y-153788002D01*
X112609532Y-153788002D01*
X112730783Y-153909254D01*
X112852035Y-154030506D01*
X115157599Y-154030506D01*
X117463163Y-154030506D01*
X117604235Y-153889434D01*
X117745307Y-153748362D01*
X117744605Y-151241690D01*
X117744315Y-150970192D01*
X117742822Y-150512412D01*
X117740183Y-150086422D01*
X117736523Y-149700779D01*
X117731967Y-149364042D01*
X117726639Y-149084768D01*
X117720663Y-148871517D01*
X117714165Y-148732846D01*
X117707268Y-148677312D01*
X117692143Y-148667831D01*
X117638818Y-148656471D01*
X117542451Y-148647194D01*
X117396962Y-148639894D01*
X117196269Y-148634460D01*
X116934292Y-148630782D01*
X116604950Y-148628753D01*
X116202162Y-148628263D01*
X115719847Y-148629203D01*
X115151924Y-148631464D01*
X112633213Y-148643322D01*
X112621372Y-151215662D01*
X112609532Y-153788002D01*
X111389026Y-153788002D01*
X111381428Y-153689810D01*
X111372054Y-153525419D01*
X111363806Y-153329693D01*
X111356612Y-153099081D01*
X111350400Y-152830032D01*
X111345099Y-152518996D01*
X111340637Y-152162423D01*
X111336943Y-151756760D01*
X111333945Y-151298459D01*
X111331572Y-150783967D01*
X111329752Y-150209735D01*
X111328414Y-149572212D01*
X111327486Y-148867846D01*
X111326898Y-148093088D01*
X111326576Y-147244387D01*
X111326451Y-146318191D01*
X111326450Y-145310951D01*
X111326501Y-144219116D01*
X111326535Y-143039134D01*
X111326535Y-142590364D01*
X111326549Y-141457934D01*
X111326606Y-140412338D01*
X111326737Y-139450043D01*
X111326973Y-138567514D01*
X111327343Y-137761217D01*
X111327878Y-137027617D01*
X111328609Y-136363181D01*
X111329566Y-135764375D01*
X111330780Y-135227664D01*
X111332282Y-134749514D01*
X111334101Y-134326391D01*
X111336268Y-133954761D01*
X111338814Y-133631090D01*
X111341769Y-133351843D01*
X111345165Y-133113487D01*
X111349030Y-132912487D01*
X111353396Y-132745309D01*
X111358293Y-132608419D01*
X111363752Y-132498283D01*
X111369804Y-132411366D01*
X111376478Y-132344135D01*
X111383805Y-132293056D01*
X111391817Y-132254594D01*
X111400542Y-132225214D01*
X111410012Y-132201384D01*
X111420258Y-132179569D01*
X111465546Y-132100942D01*
X111615328Y-131947789D01*
X111800733Y-131858714D01*
X112002012Y-131834202D01*
X112199414Y-131874741D01*
X112373189Y-131980815D01*
X112503587Y-132152911D01*
X112505664Y-132157167D01*
X112516310Y-132182834D01*
X112526007Y-132216034D01*
X112534808Y-132260973D01*
X112542764Y-132321862D01*
X112549927Y-132402907D01*
X112556350Y-132508318D01*
X112562086Y-132642302D01*
X112567185Y-132809067D01*
X112571701Y-133012822D01*
X112575685Y-133257776D01*
X112579190Y-133548135D01*
X112582268Y-133888109D01*
X112584971Y-134281906D01*
X112587351Y-134733734D01*
X112589461Y-135247800D01*
X112591352Y-135828315D01*
X112593078Y-136479484D01*
X112594689Y-137205518D01*
X112596239Y-138010623D01*
X112597779Y-138899009D01*
X112599362Y-139874883D01*
X112611360Y-147428467D01*
X128967232Y-147416941D01*
X145323105Y-147405416D01*
X145323105Y-139771661D01*
X146583344Y-139771661D01*
X148849870Y-139771661D01*
X151116395Y-139771661D01*
X151280129Y-139617240D01*
X151443863Y-139462819D01*
X151443863Y-136224055D01*
X151443863Y-132985291D01*
X149025361Y-132997158D01*
X146606859Y-133009026D01*
X146595102Y-136390343D01*
X146583344Y-139771661D01*
X145323105Y-139771661D01*
X145323105Y-131106318D01*
X145323088Y-130183122D01*
X145322983Y-128752663D01*
X145322775Y-127409655D01*
X145322453Y-126151472D01*
X145322019Y-125006009D01*
X146583343Y-125006009D01*
X146595101Y-128388564D01*
X146606859Y-131771120D01*
X149025361Y-131782987D01*
X151443863Y-131794854D01*
X151443863Y-128562862D01*
X151443863Y-125330869D01*
X151310105Y-125181139D01*
X151176348Y-125031408D01*
X148879845Y-125018709D01*
X146583343Y-125006009D01*
X145322019Y-125006009D01*
X145322007Y-124975484D01*
X145321428Y-123879061D01*
X145320705Y-122859576D01*
X145319829Y-121914398D01*
X145318790Y-121040899D01*
X145317578Y-120236450D01*
X145316182Y-119498423D01*
X145314594Y-118824187D01*
X145312803Y-118211114D01*
X145310799Y-117656575D01*
X145310769Y-117649820D01*
X146606859Y-117649820D01*
X146606859Y-120698737D01*
X146606859Y-123747654D01*
X148031338Y-123759758D01*
X148196861Y-123760952D01*
X148537208Y-123762011D01*
X148842540Y-123761095D01*
X149101523Y-123758352D01*
X149302821Y-123753932D01*
X149435099Y-123747983D01*
X149487024Y-123740654D01*
X149490078Y-123725793D01*
X149495808Y-123631764D01*
X149501119Y-123458894D01*
X149505905Y-123215694D01*
X149510059Y-122910673D01*
X149513475Y-122552342D01*
X149516046Y-122149210D01*
X149517667Y-121709787D01*
X149518231Y-121242583D01*
X149518231Y-118775720D01*
X149409244Y-118533708D01*
X149372648Y-118459448D01*
X149182912Y-118185987D01*
X148932810Y-117947691D01*
X148647112Y-117769401D01*
X148609501Y-117751728D01*
X148524092Y-117714959D01*
X148440276Y-117688296D01*
X148342505Y-117670119D01*
X148215230Y-117658805D01*
X148042903Y-117652732D01*
X147809977Y-117650278D01*
X147500903Y-117649820D01*
X146606859Y-117649820D01*
X145310769Y-117649820D01*
X145308573Y-117157941D01*
X145306114Y-116712583D01*
X145303413Y-116317872D01*
X145300459Y-115971180D01*
X145297243Y-115669876D01*
X145293755Y-115411333D01*
X145289986Y-115192921D01*
X145285924Y-115012011D01*
X145281560Y-114865974D01*
X145276885Y-114752181D01*
X145271889Y-114668004D01*
X145266561Y-114610813D01*
X145260891Y-114577979D01*
X145145717Y-114211054D01*
X144898951Y-113649693D01*
X144583876Y-113149165D01*
X144201664Y-112710733D01*
X143753483Y-112335656D01*
X143240505Y-112025196D01*
X142663899Y-111780612D01*
X142628637Y-111768350D01*
X142584269Y-111753451D01*
X142538293Y-111739591D01*
X142487490Y-111726731D01*
X142428644Y-111714835D01*
X142358537Y-111703865D01*
X142273951Y-111693783D01*
X142171669Y-111684553D01*
X142048474Y-111676138D01*
X141901148Y-111668499D01*
X141726474Y-111661600D01*
X141521234Y-111655404D01*
X141282211Y-111649872D01*
X141006188Y-111644968D01*
X140689947Y-111640655D01*
X140330270Y-111636895D01*
X139923941Y-111633651D01*
X139467741Y-111630886D01*
X138958454Y-111628562D01*
X138392862Y-111626642D01*
X137767747Y-111625089D01*
X137079893Y-111623865D01*
X136326081Y-111622934D01*
X135503094Y-111622257D01*
X134607715Y-111621798D01*
X133636727Y-111621520D01*
X132586911Y-111621384D01*
X131455051Y-111621354D01*
X130237929Y-111621393D01*
X128932328Y-111621462D01*
X127904461Y-111621523D01*
X126679906Y-111621620D01*
X125541275Y-111621761D01*
X124485341Y-111621969D01*
X123508876Y-111622264D01*
X122608651Y-111622670D01*
X121781439Y-111623207D01*
X121024012Y-111623900D01*
X120333142Y-111624768D01*
X119705601Y-111625836D01*
X119138160Y-111627124D01*
X118627593Y-111628654D01*
X118170671Y-111630450D01*
X117764167Y-111632532D01*
X117404851Y-111634923D01*
X117089497Y-111637645D01*
X116814876Y-111640720D01*
X116577761Y-111644171D01*
X116374923Y-111648018D01*
X116203135Y-111652286D01*
X116059168Y-111656994D01*
X115939795Y-111662166D01*
X115841788Y-111667824D01*
X115761918Y-111673989D01*
X115696959Y-111680684D01*
X115643681Y-111687931D01*
X115598858Y-111695752D01*
X115559260Y-111704169D01*
X115521661Y-111713204D01*
X115510624Y-111715944D01*
X115323675Y-111763360D01*
X115186512Y-111802793D01*
X115065984Y-111846080D01*
X114928943Y-111905063D01*
X114742238Y-111991580D01*
X114562797Y-112081984D01*
X114087762Y-112389243D01*
X113662748Y-112768214D01*
X113296509Y-113210289D01*
X112997800Y-113706860D01*
X112976580Y-113748394D01*
X112932012Y-113832166D01*
X112891489Y-113906486D01*
X112854809Y-113975753D01*
X112821767Y-114044364D01*
X112792159Y-114116718D01*
X112765784Y-114197211D01*
X112742435Y-114290242D01*
X112721911Y-114400207D01*
X112704007Y-114531505D01*
X112688520Y-114688533D01*
X112675246Y-114875689D01*
X112663981Y-115097370D01*
X112654523Y-115357975D01*
X112646666Y-115661900D01*
X112640209Y-116013543D01*
X112634946Y-116417302D01*
X112630674Y-116877575D01*
X112627191Y-117398759D01*
X112624291Y-117985252D01*
X112621772Y-118641451D01*
X112619430Y-119371754D01*
X112617061Y-120180559D01*
X112614462Y-121072263D01*
X112611429Y-122051264D01*
X112608999Y-122794610D01*
X112605961Y-123695897D01*
X112603053Y-124512941D01*
X112600215Y-125249977D01*
X112597389Y-125911242D01*
X112594515Y-126500971D01*
X112591534Y-127023401D01*
X112588386Y-127482767D01*
X112585014Y-127883305D01*
X112581358Y-128229252D01*
X112577358Y-128524844D01*
X112572956Y-128774316D01*
X112568092Y-128981904D01*
X112562708Y-129151845D01*
X112556743Y-129288374D01*
X112550140Y-129395728D01*
X112542839Y-129478142D01*
X112534780Y-129539852D01*
X112525905Y-129585096D01*
X112516155Y-129618107D01*
X112505470Y-129643123D01*
X112427572Y-129753403D01*
X112285534Y-129878548D01*
X112123873Y-129970314D01*
X111975789Y-130005957D01*
X111852907Y-129985289D01*
X111686022Y-129919021D01*
X111540529Y-129826091D01*
X111519834Y-129809337D01*
X111493703Y-129788101D01*
X111470036Y-129764964D01*
X111448711Y-129735652D01*
X111429608Y-129695887D01*
X111412603Y-129641394D01*
X111397575Y-129567897D01*
X111384402Y-129471120D01*
X111372962Y-129346786D01*
X111363134Y-129190620D01*
X111354795Y-128998345D01*
X111347823Y-128765686D01*
X111342097Y-128488367D01*
X111337495Y-128162111D01*
X111333894Y-127782643D01*
X111331174Y-127345686D01*
X111329212Y-126846965D01*
X111327886Y-126282203D01*
X111327074Y-125647124D01*
X111326655Y-124937453D01*
X111326507Y-124148914D01*
X111326507Y-123277230D01*
X111326535Y-122318125D01*
X111326568Y-121597806D01*
X111326761Y-120698106D01*
X111327201Y-119882156D01*
X111327968Y-119145382D01*
X111329147Y-118483211D01*
X111330820Y-117891070D01*
X111333069Y-117364385D01*
X111335976Y-116898585D01*
X111339626Y-116489095D01*
X111344099Y-116131344D01*
X111349479Y-115820757D01*
X111355849Y-115552762D01*
X111363290Y-115322785D01*
X111371886Y-115126255D01*
X111381720Y-114958597D01*
X111392873Y-114815239D01*
X111405428Y-114691607D01*
X111419469Y-114583130D01*
X111435077Y-114485233D01*
X111452335Y-114393343D01*
X111471326Y-114302888D01*
X111572612Y-113917010D01*
X111807449Y-113304321D01*
X112121998Y-112726511D01*
X112510235Y-112192595D01*
X112966135Y-111711586D01*
X113483672Y-111292496D01*
X113602255Y-111212410D01*
X113980983Y-110991059D01*
X114395778Y-110790519D01*
X114813428Y-110625883D01*
X115200722Y-110512242D01*
X115224985Y-110506714D01*
X115288837Y-110492933D01*
X115355870Y-110480105D01*
X115429363Y-110468195D01*
X115512593Y-110457169D01*
X115608841Y-110446993D01*
X115721382Y-110437633D01*
X115853497Y-110429055D01*
X116008463Y-110421224D01*
X116189559Y-110414107D01*
X116400063Y-110407668D01*
X116643253Y-110401876D01*
X116922408Y-110396694D01*
X117240807Y-110392089D01*
X117601726Y-110388026D01*
X118008446Y-110384473D01*
X118464244Y-110381394D01*
X118972398Y-110378755D01*
X119536187Y-110376522D01*
X120158890Y-110374662D01*
X120843784Y-110373139D01*
X121594148Y-110371921D01*
X122413260Y-110370971D01*
X123304399Y-110370258D01*
X124270843Y-110369746D01*
X125315870Y-110369401D01*
X126442759Y-110369189D01*
X127654788Y-110369077D01*
X128955235Y-110369029D01*
X129498752Y-110369022D01*
X130768673Y-110369046D01*
X131951458Y-110369157D01*
X133050347Y-110369390D01*
X134068580Y-110369779D01*
X135009395Y-110370359D01*
X135876034Y-110371164D01*
X136671736Y-110372229D01*
X137399741Y-110373587D01*
X138063288Y-110375274D01*
X138665617Y-110377324D01*
X139209968Y-110379772D01*
X139699581Y-110382651D01*
X140137696Y-110385997D01*
X140527552Y-110389843D01*
X140872390Y-110394225D01*
X141175448Y-110399177D01*
X141439967Y-110404732D01*
X141669187Y-110410927D01*
X141866348Y-110417794D01*
X142034688Y-110425369D01*
X142177448Y-110433686D01*
X142297868Y-110442780D01*
X142399188Y-110452684D01*
X142484647Y-110463434D01*
X142557485Y-110475064D01*
X142620942Y-110487608D01*
X142678258Y-110501101D01*
X142732672Y-110515578D01*
X142736843Y-110516733D01*
X142882012Y-110556389D01*
X143007762Y-110589902D01*
X143011820Y-110590961D01*
X143093280Y-110614207D01*
X143180771Y-110644887D01*
X143300258Y-110692836D01*
X143477708Y-110767889D01*
X143648755Y-110842032D01*
X143844002Y-110932564D01*
X144009549Y-111020415D01*
X144178313Y-111123462D01*
X144383213Y-111259578D01*
X144852722Y-111623043D01*
X145304909Y-112073389D01*
X145698444Y-112576320D01*
X146025092Y-113119770D01*
X146276617Y-113691674D01*
X146444783Y-114279964D01*
X146463757Y-114370215D01*
X146505082Y-114563928D01*
X146540692Y-114727644D01*
X146548238Y-114772913D01*
X146562346Y-114923852D01*
X146573669Y-115134606D01*
X146581201Y-115383713D01*
X146583935Y-115649711D01*
X146583935Y-116376264D01*
X147581137Y-116401088D01*
X147911440Y-116410429D01*
X148209339Y-116423474D01*
X148448582Y-116442470D01*
X148646611Y-116470742D01*
X148820869Y-116511614D01*
X148988798Y-116568410D01*
X149167841Y-116644455D01*
X149375440Y-116743074D01*
X149392294Y-116751503D01*
X149612801Y-116892710D01*
X149849555Y-117091156D01*
X150079741Y-117323940D01*
X150280546Y-117568158D01*
X150429157Y-117800906D01*
X150452904Y-117846371D01*
X150518754Y-117976019D01*
X150574808Y-118097446D01*
X150621949Y-118218977D01*
X150661061Y-118348938D01*
X150693029Y-118495657D01*
X150718735Y-118667458D01*
X150729460Y-118775720D01*
X150739065Y-118872670D01*
G37*
%TD*%
M02*
